<svg width="33" height="33" viewBox="0 0 33 33" fill="none" xmlns="http://www.w3.org/2000/svg">
<circle cx="16.5" cy="16.5" r="16.5" fill="#091C2B"/>
<path fill-rule="evenodd" clip-rule="evenodd" d="M13.3234 18.0849C13.856 18.4407 14.482 18.6307 15.1225 18.6307C15.9811 18.63 16.8043 18.2886 17.4115 17.6814C18.0186 17.0743 18.36 16.2511 18.3607 15.3925C18.3607 14.752 18.1708 14.1259 17.8149 13.5934C17.4591 13.0609 16.9534 12.6458 16.3617 12.4007C15.77 12.1556 15.1189 12.0915 14.4907 12.2165C13.8626 12.3414 13.2856 12.6498 12.8327 13.1027C12.3798 13.5556 12.0715 14.1325 11.9465 14.7607C11.8216 15.3888 11.8857 16.0399 12.1308 16.6316C12.3759 17.2233 12.7909 17.7291 13.3234 18.0849ZM14.1194 13.8913C14.4163 13.6929 14.7654 13.587 15.1225 13.587C15.601 13.5881 16.0595 13.7787 16.3979 14.1171C16.7362 14.4554 16.9268 14.914 16.9279 15.3925C16.9279 15.7495 16.822 16.0986 16.6236 16.3955C16.4253 16.6924 16.1433 16.9238 15.8133 17.0604C15.4835 17.1971 15.1204 17.2328 14.7703 17.1632C14.42 17.0935 14.0983 16.9216 13.8459 16.6691C13.5934 16.4166 13.4214 16.0949 13.3517 15.7447C13.282 15.3944 13.3178 15.0314 13.4545 14.7015C13.5911 14.3716 13.8225 14.0897 14.1194 13.8913Z" fill="#B2DCBC"/>
<path d="M9.65901 18.2109C9.46941 18.2096 9.28794 18.1337 9.15388 17.9997C9.01981 17.8656 8.94391 17.6841 8.94263 17.4945V13.2917C8.94391 13.1021 9.01981 12.9206 9.15388 12.7866C9.28794 12.6525 9.46941 12.5766 9.65901 12.5753C9.84861 12.5766 10.0301 12.6525 10.1642 12.7866C10.2982 12.9206 10.3741 13.1021 10.3754 13.2917V17.4945C10.3756 17.5886 10.3572 17.6819 10.3212 17.7689C10.2853 17.8559 10.2325 17.9349 10.166 18.0015C10.0994 18.068 10.0203 18.1208 9.93335 18.1568C9.84636 18.1927 9.75313 18.2111 9.65901 18.2109Z" fill="#B2DCBC"/>
<path d="M20.0708 17.9997C20.2049 18.1337 20.3864 18.2096 20.576 18.2109C20.6701 18.2111 20.7633 18.1927 20.8503 18.1568C20.9373 18.1208 21.0164 18.068 21.0829 18.0015C21.1495 17.9349 21.2022 17.8559 21.2382 17.7689C21.2741 17.6819 21.2925 17.5886 21.2924 17.4945V13.2917C21.2911 13.1021 21.2152 12.9206 21.0811 12.7866C20.9471 12.6525 20.7656 12.5766 20.576 12.5753C20.3864 12.5766 20.2049 12.6525 20.0708 12.7866C19.9368 12.9206 19.8609 13.1021 19.8596 13.2917V17.4945C19.8609 17.6841 19.9368 17.8656 20.0708 17.9997Z" fill="#B2DCBC"/>
<path fill-rule="evenodd" clip-rule="evenodd" d="M19.3156 8C21.7822 8 23.4293 9.10373 24.0065 11.1236C26.0072 11.7163 27.1 13.358 27.1 15.7946V20.7138C27.1006 23.8467 25.3143 25.633 22.1814 25.633H13.785C13.0495 25.6486 12.3173 25.5291 11.6248 25.2807C10.9377 25.0288 10.3307 24.5973 9.86705 24.0311C9.50341 23.5871 9.23835 23.073 9.08709 22.523C8.98047 22.4916 8.87529 22.4552 8.7719 22.4139C7.49991 21.9359 6 20.7612 6 17.8384V12.9192C6 9.79558 7.79558 8 10.9192 8H19.3156ZM19.328 9.45186C21.2419 9.45186 22.3442 10.2028 22.6943 11.7578C22.6964 11.7895 22.7006 11.821 22.7068 11.8523C22.775 12.2069 22.807 12.5674 22.8023 12.9284V17.8495C22.8023 20.1994 21.6658 21.3359 19.3159 21.3359H10.9182C10.5589 21.3383 10.2003 21.303 9.84831 21.2306C9.81252 21.2217 9.77621 21.2158 9.73972 21.2126C9.58196 21.1811 9.42669 21.1381 9.27516 21.084C8.0432 20.6159 7.44139 19.5656 7.44139 17.8557V12.9383C7.44139 10.5883 8.57787 9.45186 10.9279 9.45186H19.328ZM10.748 22.7675H10.8241C10.8554 22.7677 10.8868 22.7677 10.9181 22.7675H19.3251C22.4487 22.7675 24.2443 20.9719 24.2443 17.8483V12.7572C25.2089 13.2826 25.6771 14.2854 25.6771 15.7946V20.7138C25.6771 23.0637 24.5406 24.2002 22.1907 24.2002H13.7949C13.233 24.2131 12.6734 24.1258 12.1422 23.9421C11.5465 23.7394 11.0489 23.3201 10.748 22.7675Z" fill="#B2DCBC"/>
</svg>
