<svg width="55" height="55" viewBox="0 0 55 55" fill="none" xmlns="http://www.w3.org/2000/svg">
<circle cx="27.5" cy="27.5" r="27.5" fill="#DF0000"/>
<path d="M27.5084 18.125H29.198C29.3847 18.125 29.5637 18.1992 29.6957 18.3312C29.8277 18.4632 29.9019 18.6423 29.9019 18.829C29.9019 19.0157 29.8277 19.1947 29.6957 19.3268C29.5637 19.4588 29.3847 19.533 29.198 19.533H27.5084C27.3217 19.533 27.1426 19.4588 27.0106 19.3268C26.8786 19.1947 26.8044 19.0157 26.8044 18.829C26.8044 18.6423 26.8786 18.4632 27.0106 18.3312C27.1426 18.1992 27.3217 18.125 27.5084 18.125Z" fill="white"/>
<path fill-rule="evenodd" clip-rule="evenodd" d="M28.1174 22.6299C28.1798 22.6492 28.2446 22.6592 28.3099 22.6599L28.322 22.66H28.3319C28.3487 22.6596 28.3713 22.6588 28.3981 22.657C28.421 22.6585 28.4414 22.6599 28.4576 22.6599H28.4864C28.5515 22.6593 28.616 22.6492 28.6781 22.63C29.6349 22.5234 30.5766 22.3089 31.4852 21.9907C32.0268 21.7853 32.537 21.5057 33.0015 21.1599C33.193 21.0202 33.3732 20.8657 33.5402 20.6975L33.6711 19.6523L34.9207 18.4407C34.9981 18.3659 35.0573 18.2742 35.0934 18.1728C35.1295 18.0715 35.1417 17.9632 35.1291 17.8563C35.1063 17.7267 35.0539 17.6042 34.9757 17.4983C34.8975 17.3924 34.7959 17.3061 34.6787 17.2461C34.424 17.0977 34.1213 17.0419 33.702 16.9646C33.0744 16.861 32.4573 16.6987 31.86 16.4801C31.0479 16.1807 30.2317 15.797 29.5741 15.4879L29.5663 15.4843C28.9688 15.2032 28.5367 15 28.4029 15H28.3922C28.2584 15 27.8264 15.2027 27.2284 15.4843L27.2253 15.4857C26.5675 15.7949 25.7497 16.1793 24.9344 16.4801C24.3375 16.6987 23.7215 16.8608 23.0945 16.9644H23.0931C22.6739 17.0411 22.3713 17.0969 22.1166 17.246C21.9994 17.3059 21.8975 17.3922 21.8193 17.4981C21.7411 17.6041 21.6886 17.7267 21.6659 17.8563C21.6534 17.9632 21.6657 18.0715 21.7019 18.1728C21.738 18.2742 21.7972 18.3658 21.8745 18.4405L23.1247 19.6522L23.2556 20.6974C23.4224 20.8657 23.6025 21.0203 23.794 21.1598C24.2588 21.5056 24.7694 21.7853 25.3111 21.9905C26.2195 22.3088 27.1608 22.5233 28.1174 22.6299ZM28.4427 21.0915C28.4312 21.0915 28.415 21.0906 28.3979 21.0892C28.3789 21.0904 28.3648 21.0913 28.3525 21.0911H28.3462C28.3076 21.0907 28.2693 21.0849 28.2324 21.074C27.6675 21.0113 27.1113 20.8859 26.5741 20.7003C26.1224 20.5347 25.7095 20.2781 25.3609 19.9464L25.2833 19.3363L24.545 18.6293C24.4995 18.586 24.4646 18.5328 24.4433 18.4737C24.422 18.4146 24.4147 18.3513 24.4221 18.2889C24.4357 18.2129 24.4669 18.1411 24.5131 18.0792C24.5593 18.0173 24.6192 17.967 24.6883 17.9324C24.87 17.8452 25.0651 17.7895 25.2655 17.7676C25.6357 17.7072 25.9999 17.6127 26.3528 17.4852C26.8284 17.3116 27.3066 17.0896 27.6935 16.91L27.7063 16.904H27.7077C27.9257 16.7858 28.1557 16.6911 28.3938 16.6215H28.401C28.6385 16.6908 28.8681 16.7852 29.0856 16.9031L29.0884 16.9045H29.0892C29.4777 17.0852 29.9615 17.3102 30.4422 17.4856C30.795 17.6132 31.1589 17.7077 31.5292 17.7681C31.7296 17.7899 31.9247 17.8456 32.1064 17.9328C32.1755 17.9673 32.2354 18.0176 32.2816 18.0795C32.3278 18.1414 32.3589 18.2132 32.3724 18.2893C32.3797 18.3517 32.3725 18.415 32.3512 18.4741C32.3298 18.5332 32.2949 18.5864 32.2494 18.6297L31.5111 19.3367L31.4343 19.9468C31.0863 20.2796 30.6729 20.5363 30.2202 20.7007C29.6832 20.8863 29.1271 21.0117 28.5623 21.0744C28.5258 21.0854 28.488 21.0911 28.4499 21.0915H28.4427Z" fill="white"/>
<path d="M31.7129 36.0725C31.8187 36.1482 31.946 36.1882 32.0761 36.1869C32.2058 36.189 32.3326 36.1483 32.4369 36.071L32.9542 35.6852C33.0263 35.6257 33.0854 35.5518 33.1274 35.4682C33.1694 35.3846 33.1935 35.2931 33.198 35.1996V34.306C33.1944 34.2096 33.1631 34.1163 33.1081 34.037C33.0532 33.9577 32.9766 33.8959 32.8876 33.8587L32.2879 33.6334C32.2194 33.6103 32.1475 33.599 32.0753 33.6002C32.0028 33.599 31.9308 33.6103 31.8622 33.6334L31.2621 33.8587C31.1731 33.8959 31.0966 33.9577 31.0416 34.037C30.9866 34.1163 30.9553 34.2096 30.9517 34.306V35.2006C30.9564 35.2941 30.9806 35.3855 31.0226 35.4692C31.0646 35.5527 31.1236 35.6267 31.1959 35.6863L31.7129 36.0725Z" fill="white"/>
<path fill-rule="evenodd" clip-rule="evenodd" d="M28.5502 40.9799C30.2589 40.9827 31.9265 40.4562 33.3238 39.4728C34.7237 38.4929 35.786 37.1038 36.3649 35.496C36.604 34.7995 36.7425 34.0724 36.7763 33.3368L36.7777 33.3269V33.3259C36.8154 32.4164 36.8241 32.2007 36.3968 31.5671C36.0611 31.155 35.5865 30.8796 35.062 30.7928L33.9115 30.7314H22.8819L21.7307 30.7928C21.2065 30.88 20.7319 31.1553 20.396 31.5671C19.9685 32.2018 19.978 32.4174 20.0178 33.325L20.0178 33.3368C20.0509 34.0725 20.1893 34.7997 20.4287 35.496C21.0077 37.1037 22.0704 38.4927 23.4706 39.4721C24.8675 40.4552 26.5344 40.9819 28.2425 40.9799H28.5502ZM23.2537 32.3711L24.1405 32.3287L32.6528 32.3286L33.5396 32.3709C33.9344 32.4244 34.2985 32.6127 34.5701 32.904C34.9001 33.3405 34.8932 33.489 34.8641 34.1122L34.864 34.1137V34.115L34.8619 34.1222C34.8355 34.6311 34.7285 35.1326 34.5451 35.608C33.6312 37.8649 31.2089 39.3814 28.5173 39.3814H28.2777C25.5875 39.3806 23.1645 37.8641 22.2494 35.608C22.0644 35.133 21.9575 34.6313 21.9326 34.1222V34.1129C21.9029 33.4896 21.8958 33.3407 22.2241 32.9043C22.4962 32.6141 22.8597 32.4259 23.2537 32.3711Z" fill="white"/>
<path d="M26.3559 26.5693C26.9816 26.8287 27.6524 26.9614 28.3298 26.9597C29.0074 26.9613 29.6787 26.8284 30.3047 26.5689C30.9307 26.3093 31.4989 25.9283 31.9766 25.4476C32.4092 25.0171 32.7618 24.5133 33.0177 23.9594C33.272 23.4085 33.4259 22.8168 33.4723 22.2119C32.9112 22.4429 32.3375 22.6419 31.7539 22.8081C31.5335 23.546 31.0816 24.1935 30.4651 24.6549C29.8484 25.1164 29.0998 25.3672 28.3298 25.3706C27.5717 25.3723 26.833 25.1317 26.2214 24.684C25.6097 24.2362 25.1569 23.6047 24.9295 22.8815C24.3424 22.7252 23.7646 22.5356 23.199 22.3138C23.2555 22.9005 23.4134 23.473 23.6656 24.0057C23.9196 24.5418 24.2644 25.0298 24.6847 25.4483C25.1622 25.9288 25.7302 26.3099 26.3559 26.5693Z" fill="white"/>
</svg>
