<svg width="55" height="55" viewBox="0 0 55 55" fill="none" xmlns="http://www.w3.org/2000/svg">
<circle cx="27.5" cy="27.5" r="27.5" fill="#B2DCBC"/>
<path d="M17.8047 37.1753C20.2408 39.6114 23.5448 40.98 26.99 40.98C30.4343 40.9771 33.7366 39.6076 36.1721 37.1721C38.6076 34.7367 39.9771 31.4343 39.9799 27.99C39.9799 27.7496 39.8845 27.5191 39.7146 27.3491C39.5446 27.1792 39.3141 27.0838 39.0737 27.0838C38.8333 27.0838 38.6028 27.1792 38.4329 27.3491C38.2629 27.5191 38.1675 27.7496 38.1675 27.99C38.1675 30.2007 37.5119 32.3618 36.2837 34.1999C35.0555 36.038 33.3098 37.4706 31.2674 38.3166C29.225 39.1626 26.9776 39.384 24.8094 38.9527C22.6411 38.5214 20.6495 37.4568 19.0863 35.8936C17.5231 34.3305 16.4586 32.3388 16.0273 30.1706C15.596 28.0024 15.8174 25.7549 16.6634 23.7126C17.5094 21.6702 18.942 19.9245 20.7801 18.6963C22.6182 17.4681 24.7793 16.8125 26.99 16.8125C27.2298 16.8108 27.4593 16.7148 27.629 16.5452C27.7985 16.3756 27.8946 16.1461 27.8962 15.9063C27.8946 15.6664 27.7985 15.4369 27.629 15.2673C27.4593 15.0977 27.2298 15.0017 26.99 15C23.5448 15 20.2408 16.3686 17.8047 18.8047C15.3686 21.2408 14 24.5448 14 27.99C14 31.4352 15.3686 34.7392 17.8047 37.1753Z" fill="white"/>
<path fill-rule="evenodd" clip-rule="evenodd" d="M26.9888 34.3341C26.749 34.3325 26.5194 34.2364 26.3498 34.0668C26.1803 33.8973 26.0842 33.6677 26.0825 33.4279V33.3192C24.4859 32.8164 23.0611 31.3954 23.0611 30.0278C23.063 29.788 23.1591 29.5593 23.3287 29.3898C23.4983 29.2204 23.7276 29.1239 23.9673 29.1222C24.2075 29.1233 24.4373 29.219 24.6074 29.3884C24.7776 29.5579 24.8744 29.7876 24.8765 30.0278C24.8765 30.2351 24.9921 30.4667 25.3437 30.8583C25.5628 31.0737 25.8124 31.2522 26.0825 31.3891V28.6309L24.875 28.2096C24.3143 28.057 23.8259 27.7119 23.4944 27.2347C23.1629 26.7573 23.0096 26.1786 23.0625 25.5999C23.0625 24.2861 24.4382 22.7723 26.0892 22.4486C26.1138 22.2472 26.205 22.0586 26.3498 21.9138C26.5194 21.7442 26.749 21.6482 26.9888 21.6465C27.2286 21.6482 27.4581 21.7442 27.6277 21.9138C27.7973 22.0834 27.8933 22.3129 27.8951 22.5527V22.5761C29.4909 23.0794 30.9187 24.5001 30.9187 25.8682C30.9166 26.1078 30.8206 26.3367 30.651 26.5061C30.4815 26.6755 30.2521 26.7719 30.0124 26.7737C29.7728 26.7719 29.5447 26.6755 29.3752 26.5061C29.2057 26.3367 29.1082 26.1078 29.1061 25.8682C29.1061 25.424 28.5675 24.8608 27.8951 24.5145V27.3432L29.1076 27.7678C29.5901 27.8947 30.021 28.168 30.3409 28.5509C30.6609 28.9337 30.8539 29.4065 30.8932 29.9038C30.9112 30.0353 30.9203 30.1677 30.9201 30.3003V30.3761C30.8674 31.6724 29.5152 33.1336 27.8946 33.4486C27.8877 33.6809 27.7924 33.9021 27.6277 34.0668C27.4581 34.2364 27.2286 34.3325 26.9888 34.3341ZM26.0825 24.3139V26.7086L25.4698 26.4941C25.0594 26.3505 24.8793 26.2538 24.8793 25.6012C25 25.1813 25.2589 24.8147 25.6142 24.5604C25.7594 24.4566 25.917 24.3739 26.0825 24.3139ZM27.8951 31.583V29.2633L28.5114 29.4784C28.9087 29.6176 29.0931 29.7121 29.1033 30.3152C28.976 30.7297 28.7156 31.0905 28.3613 31.3404C28.2166 31.4426 28.0596 31.5239 27.8951 31.583Z" fill="white"/>
<path d="M33.938 19.7606V17.1134C33.9363 16.8735 33.8403 16.644 33.6707 16.4744C33.5011 16.3048 33.2716 16.2088 33.0317 16.2071C32.7919 16.2088 32.5624 16.3048 32.3928 16.4744C32.2232 16.644 32.1272 16.8735 32.1255 17.1134V21.947C32.1266 22.1018 32.167 22.2523 32.2411 22.3852C32.2813 22.4585 32.3318 22.5266 32.3915 22.5872C32.4752 22.6719 32.5749 22.7389 32.6848 22.7846C32.7948 22.8304 32.9127 22.8536 33.0317 22.8533C33.0349 22.8533 33.0381 22.8533 33.0412 22.8533H37.8654C38.1057 22.8533 38.3363 22.7578 38.5062 22.5878C38.6761 22.4179 38.7716 22.1873 38.7716 21.947C38.7716 21.7066 38.6761 21.4761 38.5062 21.3062C38.3363 21.1362 38.1057 21.0407 37.8654 21.0407H35.22L39.717 16.5464C39.8869 16.3765 39.9824 16.1461 39.9824 15.9059C39.9824 15.6656 39.8869 15.4352 39.717 15.2653C39.5472 15.0954 39.3167 15 39.0765 15C38.8362 15 38.6058 15.0954 38.436 15.2653L33.938 19.7606Z" fill="white"/>
</svg>
