<svg width="25" height="18" viewBox="0 0 25 18" fill="none" xmlns="http://www.w3.org/2000/svg">
<path d="M14.1309 0.560762C15.6293 1.42559 16.4577 3.16761 16.4577 5.4578V7.61688H23.7866C23.8295 7.61179 23.8726 7.60924 23.9158 7.60924C24.0581 7.60895 24.199 7.63668 24.3306 7.69092C24.4621 7.74515 24.5817 7.82479 24.6824 7.92532C24.7831 8.02585 24.863 8.14524 24.9175 8.27671C24.972 8.40811 25 8.54904 25 8.69129C25 9.2907 24.5134 9.79081 23.9142 9.79081C23.8845 9.79081 23.8552 9.78965 23.8263 9.78732L16.4577 9.78732V11.9629C16.4577 14.253 15.6293 15.9951 14.1309 16.86C12.6203 17.725 10.7077 17.5666 8.72213 16.4214L3.08194 13.1689C1.09625 12.0239 0 10.4402 0 8.71051C0 6.98078 1.09632 5.39694 3.08194 4.23962L8.72213 0.987206C9.85492 0.32934 10.9758 0.000371933 11.9991 0.000371933C12.7666 0.000299454 13.4852 0.18302 14.1309 0.560762ZM12.9933 14.9813C13.866 14.481 14.3429 13.3524 14.3429 11.8165V5.6034C14.3429 4.06775 13.866 2.93903 12.9933 2.4387C12.1205 1.93844 10.9106 2.08979 9.57247 2.85765L4.18547 5.96418C2.84766 6.73196 2.11453 7.70941 2.11453 8.70992C2.11453 9.71052 2.84773 10.6879 4.18547 11.4558L9.57247 14.5623C10.3869 15.0395 11.1547 15.2721 11.8298 15.2721C12.2364 15.2782 12.6374 15.1779 12.9933 14.9813Z" fill="#091C2B"/>
</svg>
