<svg width="50" height="50" viewBox="0 0 50 50" fill="none" xmlns="http://www.w3.org/2000/svg">
<circle cx="25" cy="25" r="25" fill="#B2DCBC"/>
<path d="M16.5608 22.8691C17.4256 21.3707 19.1676 20.5423 21.4578 20.5423H23.6169L23.6169 13.2134C23.6118 13.1705 23.6092 13.1274 23.6092 13.0842C23.6089 12.9419 23.6367 12.801 23.6909 12.6694C23.7451 12.5379 23.8248 12.4183 23.9253 12.3176C24.0259 12.2169 24.1452 12.137 24.2767 12.0825C24.4081 12.028 24.549 12 24.6913 12C25.2907 12 25.7908 12.4866 25.7908 13.0858C25.7908 13.1155 25.7896 13.1448 25.7873 13.1737L25.7873 20.5423H27.9629C30.253 20.5423 31.9951 21.3707 32.86 22.8691C33.725 24.3797 33.5666 26.2923 32.4214 28.2779L29.1689 33.9181C28.0239 35.9037 26.4402 37 24.7105 37C22.9808 37 21.3969 35.9037 20.2396 33.9181L16.9872 28.2779C16.3293 27.1451 16.0004 26.0242 16.0004 25.0009C16.0003 24.2334 16.183 23.5148 16.5608 22.8691ZM30.9813 24.0067C30.481 23.134 29.3524 22.6571 27.8165 22.6571H21.6034C20.0677 22.6571 18.939 23.134 18.4387 24.0067C17.9384 24.8795 18.0898 26.0894 18.8576 27.4275L21.9642 32.8145C22.732 34.1523 23.7094 34.8855 24.7099 34.8855C25.7105 34.8855 26.6879 34.1523 27.4558 32.8145L30.5623 27.4275C31.0395 26.6131 31.2721 25.8453 31.2721 25.1702C31.2782 24.7636 31.1779 24.3626 30.9813 24.0067Z" fill="#091C2B"/>
</svg>
