<svg width="48" height="48" viewBox="0 0 48 48" fill="none" xmlns="http://www.w3.org/2000/svg">
<rect width="48" height="48" rx="24" fill="#B2DCBC" fill-opacity="0.21"/>
<path d="M32.25 17.25H28.5V16.5C28.5 15.9033 28.2629 15.331 27.841 14.909C27.419 14.4871 26.8467 14.25 26.25 14.25H21.75C21.1533 14.25 20.581 14.4871 20.159 14.909C19.7371 15.331 19.5 15.9033 19.5 16.5V17.25H15.75C15.3522 17.25 14.9706 17.408 14.6893 17.6893C14.408 17.9706 14.25 18.3522 14.25 18.75V30.75C14.25 31.1478 14.408 31.5294 14.6893 31.8107C14.9706 32.092 15.3522 32.25 15.75 32.25H32.25C32.6478 32.25 33.0294 32.092 33.3107 31.8107C33.592 31.5294 33.75 31.1478 33.75 30.75V18.75C33.75 18.3522 33.592 17.9706 33.3107 17.6893C33.0294 17.408 32.6478 17.25 32.25 17.25ZM21 16.5C21 16.3011 21.079 16.1103 21.2197 15.9697C21.3603 15.829 21.5511 15.75 21.75 15.75H26.25C26.4489 15.75 26.6397 15.829 26.7803 15.9697C26.921 16.1103 27 16.3011 27 16.5V17.25H21V16.5ZM32.25 18.75V22.6509C29.7185 24.0289 26.8822 24.7505 24 24.75C21.1179 24.7505 18.2816 24.0292 15.75 22.6519V18.75H32.25ZM32.25 30.75H15.75V24.3413C18.3187 25.5977 21.1405 26.2506 24 26.25C26.8596 26.2501 29.6813 25.5969 32.25 24.3403V30.75ZM21.75 22.5C21.75 22.3011 21.829 22.1103 21.9697 21.9697C22.1103 21.829 22.3011 21.75 22.5 21.75H25.5C25.6989 21.75 25.8897 21.829 26.0303 21.9697C26.171 22.1103 26.25 22.3011 26.25 22.5C26.25 22.6989 26.171 22.8897 26.0303 23.0303C25.8897 23.171 25.6989 23.25 25.5 23.25H22.5C22.3011 23.25 22.1103 23.171 21.9697 23.0303C21.829 22.8897 21.75 22.6989 21.75 22.5Z" fill="#091C2B"/>
</svg>
