<svg width="33" height="33" viewBox="0 0 33 33" fill="none" xmlns="http://www.w3.org/2000/svg">
<rect x="0.10746" y="0.10746" width="32.1075" height="32.1075" rx="16.0537" fill="white"/>
<path d="M23.0362 10.5362H19.9112V9.91119C19.9112 9.41391 19.7137 8.937 19.362 8.58537C19.0104 8.23374 18.5335 8.03619 18.0362 8.03619H14.2862C13.7889 8.03619 13.312 8.23374 12.9604 8.58537C12.6087 8.937 12.4112 9.41391 12.4112 9.91119V10.5362H9.28619C8.95467 10.5362 8.63673 10.6679 8.40231 10.9023C8.16789 11.1367 8.03619 11.4547 8.03619 11.7862V21.7862C8.03619 22.1177 8.16789 22.4357 8.40231 22.6701C8.63673 22.9045 8.95467 23.0362 9.28619 23.0362H23.0362C23.3677 23.0362 23.6857 22.9045 23.9201 22.6701C24.1545 22.4357 24.2862 22.1177 24.2862 21.7862V11.7862C24.2862 11.4547 24.1545 11.1367 23.9201 10.9023C23.6857 10.6679 23.3677 10.5362 23.0362 10.5362ZM13.6612 9.91119C13.6612 9.74543 13.727 9.58646 13.8443 9.46925C13.9615 9.35204 14.1204 9.28619 14.2862 9.28619H18.0362C18.202 9.28619 18.3609 9.35204 18.4781 9.46925C18.5953 9.58646 18.6612 9.74543 18.6612 9.91119V10.5362H13.6612V9.91119ZM23.0362 11.7862V15.037C20.9266 16.1852 18.563 16.7866 16.1612 16.7862C13.7595 16.7866 11.3959 16.1855 9.28619 15.0378V11.7862H23.0362ZM23.0362 21.7862H9.28619V16.4456C11.4268 17.4926 13.7783 18.0367 16.1612 18.0362C18.5442 18.0362 20.8956 17.4919 23.0362 16.4448V21.7862ZM14.2862 14.9112C14.2862 14.7454 14.352 14.5865 14.4693 14.4693C14.5865 14.352 14.7454 14.2862 14.9112 14.2862H17.4112C17.577 14.2862 17.7359 14.352 17.8531 14.4693C17.9703 14.5865 18.0362 14.7454 18.0362 14.9112C18.0362 15.077 17.9703 15.2359 17.8531 15.3531C17.7359 15.4703 17.577 15.5362 17.4112 15.5362H14.9112C14.7454 15.5362 14.5865 15.4703 14.4693 15.3531C14.352 15.2359 14.2862 15.077 14.2862 14.9112Z" fill="#B2DCBC"/>
</svg>
