<svg width="22" height="25" viewBox="0 0 22 25" fill="none" xmlns="http://www.w3.org/2000/svg">
<path fill-rule="evenodd" clip-rule="evenodd" d="M9.98444 13.8317C9.66465 13.7411 9.35923 13.6008 9.0799 13.4142C8.55408 13.063 8.14418 12.5637 7.90215 11.9795C7.66013 11.3954 7.59673 10.7526 7.72012 10.1324C7.84343 9.51218 8.14787 8.94256 8.59502 8.49541C9.04216 8.04826 9.61179 7.74382 10.232 7.62051C10.8522 7.49712 11.495 7.56052 12.0791 7.80254C12.6633 8.04464 13.1626 8.45447 13.5138 8.98029C13.865 9.50611 14.0524 10.1243 14.0523 10.7566C14.0524 11.1763 13.9699 11.592 13.8094 11.9799C13.6488 12.3677 13.4134 12.7202 13.1166 13.0169C12.8197 13.3138 12.4674 13.5492 12.0795 13.7097C11.9646 13.7573 11.8473 13.798 11.7281 13.8318V16.5684C11.7265 16.7991 11.6341 17.0199 11.471 17.1831C11.3078 17.3462 11.087 17.4386 10.8563 17.4402C10.6256 17.4386 10.4048 17.3462 10.2416 17.1831C10.0785 17.0199 9.98612 16.7991 9.98444 16.5684V13.8317ZM10.8562 9.30321C10.5689 9.30321 10.2881 9.38845 10.0492 9.54803C9.81036 9.70761 9.62413 9.93442 9.51421 10.1998C9.40422 10.4652 9.37541 10.7572 9.43142 11.039C9.48736 11.3208 9.62567 11.5796 9.82877 11.7828C10.0319 11.986 10.2906 12.1244 10.5723 12.1805C10.8541 12.2366 11.1461 12.208 11.4116 12.0982C11.6771 11.9883 11.9039 11.8022 12.0637 11.5634C12.2234 11.3246 12.3087 11.0439 12.3088 10.7566C12.3088 10.3712 12.1558 10.0017 11.8834 9.72916C11.611 9.45659 11.2415 9.30342 10.8562 9.30321Z" fill="#091C2B"/>
<path fill-rule="evenodd" clip-rule="evenodd" d="M10.868 24.9993C9.61016 25.0139 8.38046 24.6272 7.35734 23.8953L2.35924 20.1644C1.66125 19.5883 1.09097 18.8732 0.684766 18.0645C0.278561 17.2558 0.0453493 16.3713 0 15.4675V6.82002C0.0359475 5.88848 0.337288 4.98663 0.868556 4.22063C1.39982 3.45462 2.13889 2.85635 2.99873 2.49625L8.79887 0.322518C10.1367 -0.107506 11.5756 -0.107506 12.9134 0.322518L18.7135 2.49625C19.5733 2.85635 20.3124 3.45462 20.8436 4.22063C21.375 4.98663 21.6763 5.88848 21.7122 6.82002V15.4563C21.6683 16.3606 21.4356 17.2456 21.0294 18.0546C20.623 18.8636 20.052 19.5787 19.353 20.1539L14.3549 23.8849C13.3457 24.6276 12.1208 25.019 10.868 24.9993ZM9.41466 1.96136L3.61522 4.13439C3.0896 4.37349 2.63887 4.75099 2.31127 5.2265C1.98365 5.70198 1.79148 6.25765 1.75531 6.83397V15.4675C1.79928 16.0995 1.96776 16.7164 2.25105 17.283C2.53434 17.8496 2.92685 18.3546 3.40598 18.7689L8.4041 22.4999C9.13519 22.9888 9.99481 23.2497 10.8743 23.2497C11.7537 23.2497 12.6133 22.9888 13.3443 22.4999L18.3425 18.7689C18.8226 18.3554 19.2157 17.8506 19.4991 17.2839C19.7825 16.7171 19.9505 16.0997 19.9932 15.4675V6.82002C19.9533 6.24489 19.7594 5.69117 19.4319 5.21669C19.1044 4.74224 18.6554 4.36457 18.1319 4.12324L12.3324 1.9523C11.3798 1.67055 10.3655 1.6737 9.41466 1.96136Z" fill="#091C2B"/>
</svg>
