<svg width="33" height="33" viewBox="0 0 33 33" fill="none" xmlns="http://www.w3.org/2000/svg">
<circle cx="16.5" cy="16.5" r="16.5" fill="#091C2B"/>
<path d="M17.325 27.1045C15.4807 27.1045 13.6778 26.5576 12.1443 25.5329C10.6108 24.5083 9.41561 23.0519 8.70983 21.348C8.00404 19.6441 7.81937 17.7691 8.17918 15.9603C8.53899 14.1514 9.42711 12.4898 10.7312 11.1857C12.0354 9.88158 13.6969 8.99345 15.5058 8.63365C17.3146 8.27384 19.1896 8.45851 20.8936 9.1643C22.5974 9.87008 24.0538 11.0653 25.0785 12.5988C26.1031 14.1323 26.65 15.9352 26.65 17.7795C26.65 17.9747 26.5724 18.162 26.4344 18.3C26.2963 18.4381 26.1091 18.5157 25.9138 18.5157C25.7186 18.5157 25.5313 18.4381 25.3932 18.3C25.2552 18.162 25.1776 17.9747 25.1776 17.7795C25.1776 16.2264 24.7171 14.7082 23.8542 13.4168C22.9913 12.1254 21.765 11.1189 20.3301 10.5246C18.8952 9.93027 17.3163 9.77476 15.793 10.0778C14.2698 10.3808 12.8706 11.1287 11.7724 12.2269C10.6742 13.325 9.92628 14.7242 9.62329 16.2475C9.3203 17.7708 9.4758 19.3497 10.0701 20.7845C10.6645 22.2194 11.671 23.4458 12.9623 24.3087C14.2537 25.1715 15.7719 25.6321 17.325 25.6321C17.5203 25.6321 17.7075 25.7097 17.8456 25.8477C17.9837 25.9858 18.0612 26.173 18.0612 26.3683C18.0612 26.5635 17.9837 26.7508 17.8456 26.8888C17.7075 27.0269 17.5203 27.1045 17.325 27.1045Z" fill="#B2DCBC"/>
<path d="M17.3243 18.2695C17.1295 18.268 16.943 18.1901 16.8053 18.0523C16.6675 17.9145 16.5895 17.7281 16.5881 17.5332V12.6255C16.5895 12.4306 16.6675 12.2442 16.8053 12.1064C16.943 11.9686 17.1295 11.8906 17.3243 11.8892C17.5191 11.8906 17.7056 11.9686 17.8434 12.1064C17.9811 12.2442 18.0591 12.4306 18.0605 12.6255V17.5332C18.0591 17.7281 17.9811 17.9145 17.8434 18.0523C17.7056 18.1901 17.5191 18.268 17.3243 18.2695Z" fill="#B2DCBC"/>
<path d="M14.3797 7.4724H20.2694C20.4642 7.47101 20.6506 7.39301 20.7884 7.25524C20.9261 7.11747 21.0042 6.93103 21.0055 6.7362C21.0042 6.54137 20.9261 6.35493 20.7884 6.21716C20.6506 6.0794 20.4642 6.00139 20.2694 6H14.3797C14.1849 6.00139 13.9984 6.0794 13.8607 6.21716C13.723 6.35493 13.6449 6.54137 13.6436 6.7362C13.6449 6.93103 13.723 7.11747 13.8607 7.25524C13.9984 7.39301 14.1849 7.47101 14.3797 7.4724Z" fill="#B2DCBC"/>
<path d="M24.1957 26.1215C24.0009 26.1201 23.8144 26.0421 23.6766 25.9043C23.5389 25.7666 23.4609 25.5801 23.4595 25.3853V21.4593C23.4609 21.2645 23.5389 21.078 23.6766 20.9403C23.8144 20.8025 24.0009 20.7245 24.1957 20.7231C24.3905 20.7245 24.5769 20.8025 24.7147 20.9403C24.8525 21.078 24.9305 21.2645 24.9319 21.4593V25.3853C24.9305 25.5801 24.8525 25.7666 24.7147 25.9043C24.5769 26.0421 24.3905 26.1201 24.1957 26.1215Z" fill="#B2DCBC"/>
<path d="M20.7311 25.9043C20.8689 26.0421 21.0553 26.1201 21.2501 26.1215C21.4449 26.1201 21.6314 26.0421 21.7692 25.9043C21.9069 25.7666 21.985 25.5801 21.9863 25.3853V21.4593C21.985 21.2645 21.9069 21.078 21.7692 20.9403C21.6314 20.8025 21.4449 20.7245 21.2501 20.7231C21.0553 20.7245 20.8689 20.8025 20.7311 20.9403C20.5933 21.078 20.5153 21.2645 20.5139 21.4593V25.3853C20.5153 25.5801 20.5933 25.7666 20.7311 25.9043Z" fill="#B2DCBC"/>
</svg>
