<svg width="25" height="25" viewBox="0 0 25 25" fill="none" xmlns="http://www.w3.org/2000/svg">
<path d="M9.21025 16.6627C9.09569 16.6631 8.98218 16.6406 8.87642 16.5967C8.77065 16.5527 8.67472 16.4881 8.59421 16.4066C8.43214 16.2424 8.34131 16.0209 8.34131 15.7902C8.34131 15.5595 8.43214 15.3381 8.59421 15.1738L11.2689 12.5005L8.59379 9.8255C8.43577 9.66099 8.34856 9.44109 8.3508 9.21302C8.3531 8.98496 8.4447 8.76687 8.606 8.60557C8.7673 8.44434 8.98539 8.35267 9.21346 8.35044C9.44152 8.34813 9.66142 8.43541 9.82586 8.59343L12.5008 11.2692L15.178 8.5935C15.3415 8.43004 15.5632 8.33823 15.7944 8.33823C16.0256 8.33823 16.2473 8.43004 16.4108 8.5935C16.5743 8.75696 16.6661 8.97868 16.6661 9.20988C16.6661 9.44109 16.5743 9.66281 16.4108 9.82627L13.7335 12.5022L16.4076 15.1773C16.5697 15.3415 16.6605 15.5629 16.6605 15.7936C16.6605 16.0244 16.5697 16.2458 16.4076 16.41C16.3267 16.4909 16.2305 16.5549 16.1246 16.5983C16.0187 16.6417 15.9053 16.6635 15.7909 16.6626C15.6763 16.6629 15.5629 16.6405 15.4571 16.5965C15.3513 16.5526 15.2553 16.488 15.1748 16.4065L12.5017 13.7333L9.82628 16.4073C9.74633 16.4895 9.65047 16.5546 9.54457 16.5985C9.43866 16.6424 9.32487 16.6642 9.21025 16.6627Z" fill="#D42F55"/>
<path fill-rule="evenodd" clip-rule="evenodd" d="M9.01171 25H15.9883C22.3022 25 25 22.3021 25 15.9883V9.01169C25 2.69786 22.3022 0 15.9883 0H9.01171C2.69786 0 0 2.69786 0 9.01169V15.9883C0 22.3021 2.69786 25 9.01171 25ZM1.74415 9.01169C1.74415 3.65086 3.65086 1.74415 9.01171 1.74415H15.9883C21.3485 1.74415 23.2559 3.65086 23.2559 9.01169V15.9883C23.2559 21.3491 21.3492 23.2558 15.9883 23.2558H9.01171C3.65086 23.2558 1.74415 21.3491 1.74415 15.9883V9.01169Z" fill="#D42F55"/>
</svg>
