<svg width="24" height="24" viewBox="0 0 24 24" fill="none" xmlns="http://www.w3.org/2000/svg">
<g clip-path="url(#clip0_2838_4574)">
<path d="M18.375 6.375C18.3747 6.67327 18.256 6.95922 18.0451 7.17013C17.8342 7.38103 17.5483 7.49967 17.25 7.5C16.6535 7.50067 16.0816 7.73794 15.6597 8.15975C15.2379 8.58156 15.0007 9.15347 15 9.75V10.125C14.9997 10.4233 14.881 10.7092 14.6701 10.9201C14.4592 11.131 14.1733 11.2497 13.875 11.25C13.3779 11.2506 12.9013 11.4483 12.5498 11.7998C12.1983 12.1513 12.0006 12.6279 12 13.125V13.5H11.625C11.5255 13.5 11.4302 13.5395 11.3598 13.6098C11.2895 13.6802 11.25 13.7755 11.25 13.875V18.375C11.25 18.8787 11.3629 19.3759 11.5805 19.8302C11.798 20.2845 12.1146 20.6842 12.507 21H9.75C9.65054 21 9.55516 21.0395 9.48483 21.1098C9.41451 21.1802 9.375 21.2755 9.375 21.375C9.37557 21.8721 9.5733 22.3487 9.9248 22.7002C10.2763 23.0517 10.7529 23.2494 11.25 23.25H20.25C20.7471 23.2494 21.2237 23.0517 21.5752 22.7002C21.9267 22.3487 22.1244 21.8721 22.125 21.375C22.125 21.2755 22.0855 21.1802 22.0152 21.1098C21.9448 21.0395 21.8495 21 21.75 21H18.993C19.479 20.6076 19.8471 20.0885 20.0565 19.5H20.25C21.0456 19.5 21.8087 19.1839 22.3713 18.6213C22.9339 18.0587 23.25 17.2956 23.25 16.5C23.25 15.7044 22.9339 14.9413 22.3713 14.3787C21.8087 13.8161 21.0456 13.5 20.25 13.5H19.5V13.125C19.5007 12.5285 19.738 11.9566 20.1598 11.5348C20.5816 11.113 21.1535 10.8757 21.75 10.875H23.25V10.125H21.75C20.9546 10.1259 20.1921 10.4423 19.6297 11.0047C19.0673 11.5671 18.7509 12.3296 18.75 13.125V13.5H12.75V13.125C12.7503 12.8267 12.869 12.5408 13.0799 12.3299C13.2908 12.119 13.5767 12.0003 13.875 12C14.3721 11.9994 14.8487 11.8017 15.2002 11.4502C15.5517 11.0987 15.7494 10.6221 15.75 10.125V9.75C15.7504 9.35231 15.9086 8.97104 16.1898 8.68983C16.471 8.40863 16.8523 8.25045 17.25 8.25C17.7471 8.24943 18.2237 8.0517 18.5752 7.7002C18.9267 7.34869 19.1244 6.87211 19.125 6.375C19.1256 5.87789 19.3233 5.40131 19.6748 5.0498C20.0263 4.6983 20.5029 4.50057 21 4.5H23.25V3.75H21C20.304 3.75078 19.6368 4.02759 19.1447 4.51971C18.6526 5.01182 18.3758 5.67905 18.375 6.375ZM21.3107 21.75C21.2329 21.9692 21.0892 22.1589 20.8993 22.2932C20.7094 22.4275 20.4826 22.4997 20.25 22.5H11.25C11.0174 22.4997 10.7906 22.4275 10.6007 22.2932C10.4108 22.1589 10.2671 21.9692 10.1893 21.75H21.3107ZM20.25 15.75C20.4489 15.75 20.6397 15.829 20.7803 15.9697C20.921 16.1103 21 16.3011 21 16.5C21 16.6989 20.921 16.8897 20.7803 17.0303C20.6397 17.171 20.4489 17.25 20.25 17.25V15.75ZM22.5 16.5C22.4993 17.0965 22.2621 17.6684 21.8403 18.0903C21.4184 18.5121 20.8465 18.7493 20.25 18.75V18C20.6478 18 21.0294 17.842 21.3107 17.5607C21.592 17.2794 21.75 16.8978 21.75 16.5C21.75 16.1022 21.592 15.7206 21.3107 15.4393C21.0294 15.158 20.6478 15 20.25 15V14.25C20.8465 14.2507 21.4184 14.4879 21.8403 14.9097C22.2621 15.3316 22.4993 15.9035 22.5 16.5ZM19.5 14.25V18.375C19.4992 19.071 19.2224 19.7382 18.7303 20.2303C18.2382 20.7224 17.571 20.9992 16.875 21H14.625C13.929 20.9992 13.2618 20.7224 12.7697 20.2303C12.2776 19.7382 12.0008 19.071 12 18.375V14.25H19.5Z" fill="#091C2B"/>
<path d="M18.5625 9.75C18.0157 9.75062 17.4914 9.96812 17.1048 10.3548C16.7181 10.7414 16.5006 11.2657 16.5 11.8125V12.75H17.25V11.8125C17.2504 11.4645 17.3888 11.1309 17.6348 10.8848C17.8809 10.6388 18.2145 10.5004 18.5625 10.5C19.1093 10.4994 19.6336 10.2819 20.0202 9.89522C20.4069 9.50856 20.6244 8.98432 20.625 8.4375V6.9375H19.875V8.4375C19.8746 8.78548 19.7362 9.11909 19.4902 9.36515C19.2441 9.61121 18.9105 9.74962 18.5625 9.75ZM17.8569 5.83673C17.1207 4.31227 15.9696 3.02631 14.5356 2.12654C13.1016 1.22677 11.4429 0.749662 9.75 0.75C4.78734 0.75 0.75 4.78734 0.75 9.75C0.75 14.7127 4.78734 18.75 9.75 18.75C10.0106 18.75 10.2738 18.7388 10.5322 18.7165L10.4678 17.9692C10.2308 17.9896 9.98925 18 9.75 18C5.20092 18 1.5 14.2991 1.5 9.75C1.5 5.20092 5.20092 1.5 9.75 1.5C12.8947 1.5 15.8119 3.33047 17.1817 6.16327L17.8569 5.83673Z" fill="#091C2B"/>
<path d="M9.375 9.74955V14.6245H10.125V9.90484L12.2652 7.76472L11.7348 7.23438L9.48483 9.48438C9.45001 9.5192 9.42239 9.56054 9.40354 9.60604C9.3847 9.65154 9.375 9.7003 9.375 9.74955Z" fill="#091C2B"/>
<path d="M15.1322 7.0718L16.1067 6.50845C16.1494 6.48379 16.1867 6.45096 16.2167 6.41184C16.2467 6.37272 16.2686 6.32808 16.2813 6.28048C16.294 6.23287 16.2972 6.18323 16.2907 6.13438C16.2842 6.08554 16.2682 6.03846 16.2435 5.99583C15.5851 4.85648 14.6384 3.9105 13.4986 3.25297C12.3587 2.59544 11.0659 2.24953 9.75 2.25C5.61445 2.25 2.25 5.6145 2.25 9.75C2.25 13.8855 5.61445 17.25 9.75 17.25C9.84946 17.25 9.94484 17.2105 10.0152 17.1402C10.0855 17.0698 10.125 16.9745 10.125 16.875V15.75H9.375V16.4897C5.95148 16.3013 3.19988 13.5497 3.01078 10.1264L3.75009 10.1262L3.74991 9.37622L3.0105 9.37641C3.06092 8.4466 3.30456 7.5375 3.72591 6.70711L4.36561 7.0762L4.74042 6.42661L4.10198 6.05817C4.61245 5.28018 5.27707 4.61517 6.05475 4.10423L6.42352 4.74248L7.07292 4.36725L6.70341 3.72773C7.53353 3.30593 8.44244 3.06175 9.37219 3.01078L9.37247 3.75014L10.1225 3.74986L10.1222 3.01102C11.0514 3.06329 11.9598 3.30728 12.7902 3.72764L12.4226 4.36509L13.0723 4.73977L13.4396 4.10278C14.2193 4.61098 14.8858 5.27468 15.3973 6.05231L14.7568 6.42248L15.1322 7.0718Z" fill="#091C2B"/>
<path d="M4.875 9.375H8.625V10.125H4.875V9.375Z" fill="#091C2B"/>
</g>
<defs>
<clipPath id="clip0_2838_4574">
<rect width="24" height="24" fill="white"/>
</clipPath>
</defs>
</svg>
