<svg width="33" height="33" viewBox="0 0 33 33" fill="none" xmlns="http://www.w3.org/2000/svg">
<circle cx="16.5" cy="16.5" r="16.5" fill="#091C2B"/>
<path d="M16.5489 18.2675C16.3545 18.2657 16.1685 18.1876 16.0311 18.0501C15.8937 17.9124 15.8159 17.7263 15.8145 17.5318V12.6231C15.8162 12.4289 15.8942 12.2431 16.0315 12.1058C16.1689 11.9684 16.3547 11.8904 16.5489 11.8887C16.7432 11.8904 16.929 11.9684 17.0664 12.1058C17.2037 12.2431 17.2817 12.4289 17.2834 12.6231V17.5318C17.282 17.7263 17.2042 17.9124 17.0668 18.0501C16.9294 18.1876 16.7434 18.2657 16.5489 18.2675Z" fill="#B2DCBC"/>
<path d="M16.1747 21.3788C16.2926 21.429 16.4192 21.4556 16.5474 21.4571C16.6765 21.4556 16.804 21.4285 16.9226 21.3775C17.0415 21.3276 17.151 21.2579 17.2464 21.1713C17.3351 21.0774 17.4051 20.9676 17.4526 20.8475C17.5029 20.7295 17.5295 20.6029 17.531 20.4747C17.5295 20.3466 17.5029 20.2199 17.4526 20.102C17.4028 19.9831 17.333 19.8737 17.2464 19.7782C17.151 19.6916 17.0415 19.6218 16.9226 19.572C16.6836 19.4735 16.4154 19.4735 16.1765 19.572C16.0576 19.6218 15.9481 19.6916 15.8527 19.7782C15.7661 19.8737 15.6963 19.9831 15.6465 20.102C15.5958 20.2209 15.5692 20.3486 15.5681 20.4778C15.5703 20.6041 15.5969 20.7288 15.6465 20.845C15.693 20.9663 15.7624 21.0774 15.8509 21.1725C15.9463 21.2592 16.0558 21.3289 16.1747 21.3788Z" fill="#B2DCBC"/>
<path fill-rule="evenodd" clip-rule="evenodd" d="M16.55 27.1C14.4634 27.1 12.4237 26.4813 10.6887 25.322C8.9538 24.1628 7.60158 22.5151 6.80307 20.5874C6.00457 18.6596 5.79565 16.5383 6.20272 14.4918C6.60979 12.4453 7.61458 10.5655 9.09002 9.09003C10.5655 7.61459 12.4453 6.60979 14.4918 6.20272C16.5383 5.79565 18.6595 6.00457 20.5873 6.80308C22.5151 7.60158 24.1628 8.9538 25.322 10.6888C26.4813 12.4237 27.1 14.4634 27.1 16.55C27.0976 19.3473 25.9853 22.0293 24.0073 24.0073C22.0293 25.9853 19.3473 27.0976 16.55 27.1ZM16.55 7.472C14.7546 7.472 12.9994 8.00442 11.5066 9.00192C10.0137 9.99942 8.85011 11.4172 8.16302 13.076C7.47592 14.7348 7.29615 16.5601 7.64643 18.321C7.9967 20.082 8.8613 21.6996 10.1309 22.9691C11.4005 24.2387 13.018 25.1033 14.779 25.4536C16.5399 25.8038 18.3653 25.6241 20.024 24.937C21.6828 24.2499 23.1006 23.0864 24.0981 21.5935C25.0956 20.1006 25.628 18.3455 25.628 16.55C25.6251 14.1433 24.6677 11.8359 22.9659 10.1341C21.2641 8.43228 18.9567 7.47491 16.55 7.472Z" fill="#B2DCBC"/>
</svg>
