<svg width="25" height="25" viewBox="0 0 25 25" fill="none" xmlns="http://www.w3.org/2000/svg">
<circle cx="12.5" cy="12.5" r="12.5" fill="#B2DCBC"/>
<path fill-rule="evenodd" clip-rule="evenodd" d="M5.63213 19.3733C6.06145 19.7818 6.63312 20.0066 7.22577 19.9999C7.27831 19.9999 7.34409 19.9973 7.40666 19.9893H7.44235C7.4879 19.9868 7.53796 19.9843 7.58801 19.9843L10.172 19.6195C10.8017 19.5005 11.3854 19.2065 11.8556 18.7712L18.6286 12.001C19.0037 11.6326 19.3259 11.2141 19.5862 10.7574C19.8061 10.3692 19.9424 9.9393 19.9866 9.49533C20.0366 8.95538 19.946 8.41167 19.7241 7.91696C19.4586 7.33994 19.0874 6.81797 18.6291 6.37814C18.258 5.99823 17.8333 5.67443 17.3688 5.41686C16.8914 5.1507 16.3551 5.00744 15.8085 5C15.2729 5.03133 14.749 5.16931 14.2676 5.40599C13.7862 5.64267 13.3572 5.97322 13.0054 6.37814L6.23293 13.149C6.01255 13.3797 5.83005 13.6439 5.69226 13.9316C5.54831 14.2151 5.44864 14.5189 5.39651 14.8324L5.03183 17.4162C4.9724 17.7756 4.99637 18.144 5.10222 18.4925C5.20335 18.8253 5.3856 19.1279 5.63213 19.3733ZM14.5584 6.5592C14.9049 6.38887 15.2822 6.2896 15.6676 6.26708V6.26953C16.0588 6.27397 16.4425 6.37513 16.7852 6.56385C17.1195 6.74914 17.4253 6.98204 17.6924 7.25536C18.0221 7.57197 18.2895 7.94769 18.4805 8.36288C18.6404 8.71888 18.7053 9.11031 18.6687 9.49888C18.6376 9.8184 18.5395 10.1278 18.3813 10.4071C18.194 10.7359 17.9623 11.0372 17.6924 11.3024L16.5091 12.4603C15.5714 12.1178 14.7179 11.5693 14.0104 10.8517C13.3386 10.1703 12.8171 9.35511 12.4771 8.46032L13.6502 7.2589C13.9033 6.96747 14.212 6.72954 14.5584 6.5592ZM11.6854 9.27109L6.99259 14.0773C6.83415 14.2433 6.70272 14.4333 6.60347 14.6402C6.53818 14.8441 6.50432 15.0567 6.50326 15.2708C6.46922 15.6621 6.41197 16.3177 6.2603 17.3981C6.21739 17.6567 6.23433 17.9219 6.31016 18.1728C6.37463 18.3837 6.37497 18.384 6.48755 18.4821L6.48811 18.4825L6.5409 18.5296C6.657 18.6607 6.81525 18.7475 6.98819 18.7753C7.00371 18.7753 7.37813 18.7433 7.8867 18.6907C8.36324 18.6407 9.05802 18.5636 9.6602 18.4685C10.0954 18.4301 10.51 18.2657 10.853 17.9952L15.6601 13.2912C14.7524 12.9472 13.926 12.4093 13.2377 11.7115C12.5534 11.0178 12.025 10.1852 11.6854 9.27109Z" fill="#091C2B"/>
</svg>
