<svg width="16" height="16" viewBox="0 0 16 16" fill="none" xmlns="http://www.w3.org/2000/svg">
<path d="M10.1601 14.8467H10.0734C7.11338 14.8467 5.68672 13.68 5.44005 11.0667C5.41338 10.7933 5.61338 10.5467 5.89338 10.52C6.16672 10.4933 6.41338 10.7 6.44005 10.9733C6.63338 13.0667 7.62005 13.8467 10.0801 13.8467H10.1667C12.8801 13.8467 13.8401 12.8867 13.8401 10.1733V5.82665C13.8401 3.11332 12.8801 2.15332 10.1667 2.15332H10.0801C7.60672 2.15332 6.62005 2.94665 6.44005 5.07999C6.40672 5.35332 6.18005 5.55999 5.89338 5.53332C5.61338 5.51332 5.41338 5.26665 5.43338 4.99332C5.66005 2.33999 7.09338 1.15332 10.0734 1.15332H10.1601C13.4334 1.15332 14.8334 2.55332 14.8334 5.82665V10.1733C14.8334 13.4467 13.4334 14.8467 10.1601 14.8467Z" fill="#19B36E"/>
<path d="M9.92004 8.5H1.33337C1.06004 8.5 0.833374 8.27333 0.833374 8C0.833374 7.72667 1.06004 7.5 1.33337 7.5H9.92004C10.1934 7.5 10.42 7.72667 10.42 8C10.42 8.27333 10.2 8.5 9.92004 8.5Z" fill="#19B36E"/>
<path d="M8.43339 10.7333C8.30673 10.7333 8.18006 10.6866 8.08006 10.5866C7.88673 10.3933 7.88673 10.0733 8.08006 9.87998L9.96006 7.99998L8.08006 6.11998C7.88673 5.92664 7.88673 5.60664 8.08006 5.41331C8.27339 5.21998 8.59339 5.21998 8.78673 5.41331L11.0201 7.64664C11.2134 7.83998 11.2134 8.15998 11.0201 8.35331L8.78673 10.5866C8.68673 10.6866 8.56006 10.7333 8.43339 10.7333Z" fill="#19B36E"/>
</svg>
