<svg width="24" height="24" viewBox="0 0 24 24" fill="none" xmlns="http://www.w3.org/2000/svg">
<path d="M8 22.3194C7.72 22.3194 7.42998 22.2494 7.16998 22.1094C6.59998 21.8094 6.25 21.2094 6.25 20.5694V19.1495C3.23 18.8395 1.25 16.6194 1.25 13.4394V7.43945C1.25 3.99945 3.56 1.68945 7 1.68945H17C20.44 1.68945 22.75 3.99945 22.75 7.43945V13.4394C22.75 16.8794 20.44 19.1894 17 19.1894H13.23L8.96997 22.0295C8.67997 22.2195 8.34 22.3194 8 22.3194ZM7 3.17944C4.42 3.17944 2.75 4.84944 2.75 7.42944V13.4295C2.75 16.0095 4.42 17.6795 7 17.6795C7.41 17.6795 7.75 18.0195 7.75 18.4295V20.5595C7.75 20.6895 7.83 20.7495 7.88 20.7795C7.93001 20.8095 8.03001 20.8395 8.14001 20.7695L12.59 17.8095C12.71 17.7295 12.86 17.6795 13.01 17.6795H17.01C19.59 17.6795 21.26 16.0095 21.26 13.4295V7.42944C21.26 4.84944 19.59 3.17944 17.01 3.17944H7Z" fill="#3E3E3E"/>
<path d="M12 6.61035C13.0538 6.61045 13.9102 7.46669 13.9102 8.52051C13.9101 9.37652 13.2924 9.81431 12.9824 10.0244C12.7752 10.1626 12.5853 10.311 12.4521 10.4971C12.3023 10.7064 12.25 10.9253 12.25 11.1504V11.3604C12.25 11.4998 12.1381 11.6103 12 11.6104C11.8661 11.6104 11.75 11.4942 11.75 11.3604V11.1504C11.75 10.2722 12.3791 9.83505 12.7031 9.6123L12.7021 9.61133C12.8998 9.47754 13.0817 9.33399 13.21 9.15527C13.3541 8.95423 13.4101 8.74196 13.4102 8.52051C13.4102 7.74447 12.7761 7.11045 12 7.11035C11.2238 7.11035 10.5898 7.74441 10.5898 8.52051C10.5898 8.65431 10.4737 8.77051 10.3398 8.77051C10.206 8.77051 10.0899 8.65431 10.0898 8.52051C10.0898 7.46663 10.9462 6.61035 12 6.61035Z" fill="#414141" stroke="#414141"/>
<path d="M12 13.5996C12.1339 13.5996 12.25 13.7158 12.25 13.8496C12.25 13.9878 12.1395 14.0996 12 14.0996C11.8605 14.0996 11.75 13.9878 11.75 13.8496C11.75 13.7158 11.8661 13.5996 12 13.5996Z" fill="#3E3E3E" stroke="#414141"/>
</svg>
