<svg width="55" height="55" viewBox="0 0 55 55" fill="none" xmlns="http://www.w3.org/2000/svg">
<circle cx="27.5" cy="27.5" r="27.5" fill="#B2DCBC"/>
<path d="M27.7216 40.9793C27.3217 40.9866 26.9234 40.9276 26.5436 40.8043C21.3131 39.0405 13 32.7813 13 23.5362C12.9955 21.2782 13.9031 19.1108 15.5234 17.5102C17.1438 15.9096 19.3444 15.0068 21.6415 15.0001C22.7717 14.9955 23.8914 15.2123 24.9355 15.6376C25.9795 16.0629 26.9269 16.6882 27.7224 17.4772C28.5179 16.6883 29.4652 16.063 30.509 15.6377C31.5529 15.2124 32.6725 14.9957 33.8025 15.0001C36.099 15.0092 38.298 15.9129 39.9178 17.5129C41.5376 19.113 42.4461 21.2789 42.444 23.5362C42.444 32.7973 34.1309 39.043 28.8996 40.806C28.5197 40.9287 28.1214 40.9872 27.7216 40.9793ZM21.6415 17.0191C19.8898 17.0279 18.2129 17.7186 16.9782 18.9401C15.7435 20.1616 15.0517 21.8142 15.0542 23.5362C15.0542 32.7297 24.0517 37.8446 27.2151 38.9087C27.5527 38.9895 27.9051 38.9895 28.2426 38.9087C31.3923 37.8429 40.4036 32.7416 40.4036 23.5362C40.4056 21.8146 39.7136 20.1623 38.4789 18.9412C37.2444 17.7201 35.5677 17.0296 33.8162 17.0208C32.7925 17.0188 31.7826 17.2542 30.8688 17.708C29.955 18.1618 29.1631 18.8211 28.5573 19.6324C28.4579 19.7521 28.3327 19.8487 28.1905 19.9151C28.0484 19.9814 27.8931 20.0158 27.7358 20.0158C27.5785 20.0158 27.4231 19.9814 27.281 19.9151C27.1389 19.8487 27.0136 19.7521 26.9142 19.6324C26.3056 18.8206 25.5113 18.161 24.5953 17.707C23.6793 17.253 22.6674 17.0174 21.6415 17.0191Z" fill="white"/>
</svg>
