<svg width="33" height="33" viewBox="0 0 33 33" fill="none" xmlns="http://www.w3.org/2000/svg">
<circle cx="16.5" cy="16.5" r="16.5" fill="#091C2B"/>
<path d="M16.5497 26.941C16.2631 26.9463 15.9777 26.9032 15.7055 26.8134C11.9573 25.5274 6.00001 20.964 6.00001 14.2235C5.99674 12.5773 6.64714 10.9971 7.80832 9.83014C8.96949 8.66319 10.5465 8.00495 12.1927 8.00005C13.0026 7.99675 13.805 8.15475 14.5531 8.46483C15.3013 8.7749 15.9802 9.23085 16.5503 9.80609C17.1203 9.23093 17.7992 8.77502 18.5472 8.46494C19.2953 8.15487 20.0976 7.99683 20.9073 8.00005C22.5531 8.00674 24.1289 8.66555 25.2897 9.83211C26.4505 10.9987 27.1015 12.5778 27.1 14.2235C27.1 20.9757 21.1427 25.5293 17.3939 26.8146C17.1216 26.904 16.8362 26.9467 16.5497 26.941ZM12.1927 9.47211C10.9373 9.47847 9.73564 9.98209 8.85084 10.8727C7.96605 11.7632 7.47027 12.9681 7.47208 14.2235C7.47208 20.9264 13.9198 24.6555 16.1868 25.4313C16.4287 25.4902 16.6812 25.4902 16.9231 25.4313C19.1802 24.6543 25.6378 20.935 25.6378 14.2235C25.6393 12.9684 25.1434 11.7637 24.2586 10.8734C23.3739 9.98315 22.1724 9.47971 20.9172 9.47335C20.1836 9.47184 19.4599 9.64349 18.805 9.97434C18.1502 10.3052 17.5827 10.7859 17.1486 11.3774C17.0774 11.4647 16.9876 11.5351 16.8858 11.5835C16.7839 11.6319 16.6726 11.6569 16.5599 11.6569C16.4472 11.6569 16.3358 11.6319 16.234 11.5835C16.1322 11.5351 16.0423 11.4647 15.9711 11.3774C15.535 10.7855 14.9658 10.3046 14.3094 9.97362C13.6529 9.64263 12.9278 9.47083 12.1927 9.47211Z" fill="#B2DCBC"/>
</svg>
