<svg width="32" height="32" viewBox="0 0 32 32" fill="none" xmlns="http://www.w3.org/2000/svg">
<rect width="32" height="32" rx="16" fill="#B2DCBC"/>
<path d="M8.65528 17.3948C8.65528 18.3706 8.94024 19.3324 9.48657 20.2001C9.51574 20.2422 9.55504 20.279 9.60215 20.3082C9.64917 20.3374 9.70306 20.3585 9.76046 20.3702C9.81787 20.3819 9.87759 20.3839 9.93594 20.3761C9.99428 20.3683 10.0501 20.3509 10.1 20.3249C10.2071 20.267 10.2847 20.1792 10.3183 20.0778C10.3519 19.9765 10.3393 19.8686 10.2828 19.7744C9.96348 19.2049 9.74673 18.6006 9.6393 17.9804C9.5801 17.3972 9.64248 16.81 9.8237 16.2439C10.327 14.9822 11.2124 13.8452 12.3976 12.9384C14.1152 11.8366 16.9001 12.1873 16.9001 12.1873C18.4687 12.3672 19.914 12.9825 20.9934 13.9301C21.4381 14.384 21.7615 14.909 21.9429 15.4713C22.1242 16.0336 22.1593 16.6207 22.0461 17.1949C21.9284 17.4989 21.7095 17.77 21.4138 17.978C21.1182 18.186 20.7575 18.3225 20.3723 18.3724C19.1385 18.4313 18.8588 17.1949 18.8588 17.1949C18.6878 16.4899 18.3088 15.8297 17.7547 15.2717C17.2136 14.8554 16.5282 14.5859 15.7925 14.5003C15.3073 14.4894 14.8284 14.5919 14.4121 14.796C13.9958 14.9999 13.6594 15.2969 13.4426 15.6519C13.0328 16.5239 12.9995 17.4842 13.3482 18.3738C13.7954 19.2831 14.4431 20.1174 15.2588 20.8356C16.5029 21.9249 17.8358 22.9442 19.2484 23.8864C19.2484 23.8864 19.7914 24.0856 20.0308 23.9565C20.2702 23.8275 20.1809 23.5876 19.945 23.2895C19.7279 23.0602 19.4651 22.8625 19.1677 22.7046L17.5745 21.5523C16.3679 20.6655 15.3397 19.6288 14.5278 18.4804C14.2938 18.0873 14.1632 17.6584 14.1444 17.2215C14.1257 16.7845 14.2191 16.3492 14.419 15.9436C14.419 15.9436 15.2949 14.5129 17.1335 15.8896C17.6215 16.2549 17.7037 16.744 17.7668 17.1199C17.7929 17.2752 17.8158 17.4113 17.8628 17.5111C18.0583 17.9944 18.4015 18.4289 18.8597 18.7736C18.8597 18.7736 20.6391 19.7751 22.0469 18.7736C23.2181 17.9411 23.098 16.1064 23.0465 15.7291C22.9988 15.352 22.8686 14.9849 22.6622 14.6455C22.0143 13.4536 20.8751 12.4854 19.4431 11.9102C17.9366 11.3571 16.2715 11.1578 14.6342 11.3344C13.515 11.4891 12.4596 11.8671 11.5617 12.4348C10.6637 13.0025 9.95095 13.7426 9.48657 14.5894C8.94024 15.4571 8.65528 16.4189 8.65528 17.3948Z" fill="#091C2B"/>
<path d="M19.8008 17.3892C19.7651 16.6293 19.4817 15.891 18.9798 15.2507C18.6212 14.8323 18.1567 14.4818 17.6176 14.2232C17.0786 13.9646 16.4778 13.8039 15.856 13.752C15.1812 13.7265 14.5121 13.8639 13.9323 14.1473C13.3525 14.4307 12.8876 14.8474 12.5958 15.3454C12.272 15.8221 12.0953 16.356 12.081 16.9011C12.0726 17.9054 12.2989 18.9018 12.7476 19.8368C13.3701 20.833 14.1873 21.7393 15.167 22.5202C15.3875 22.7236 15.6294 23.1865 15.2974 23.406C14.9654 23.6255 14.1281 22.9151 14.1281 22.9151C13.4487 22.4231 12.8778 21.8392 12.4404 21.1891C11.9094 20.3541 11.4687 19.4828 11.1235 18.585C11.1235 18.585 10.2037 15.5306 12.9904 13.752C13.7512 13.2483 14.6923 12.9611 15.6708 12.9341C16.6492 12.907 17.6119 13.1414 18.4126 13.6019C19.0861 13.9988 19.6624 14.4955 20.1114 15.0663C20.4725 15.6281 20.6776 16.2481 20.712 16.8821C20.712 16.8821 20.7978 17.4432 20.4237 17.5911C20.0496 17.7391 19.8008 17.3892 19.8008 17.3892Z" fill="#091C2B"/>
<path d="M16.9368 19.6494C16.034 18.8138 15.4605 17.7749 15.2913 16.6686C15.2745 16.5618 15.3053 16.4536 15.3781 16.3639C15.4509 16.2741 15.5608 16.2088 15.6877 16.1798C16.1406 16.0914 16.1956 16.5361 16.1956 16.5361C16.401 17.5045 16.9207 18.4101 17.7004 19.1584C18.6262 19.8172 19.7425 20.2717 20.9435 20.479C21.0751 20.502 21.1926 20.5623 21.2754 20.6491C21.358 20.736 21.4006 20.8438 21.3957 20.9538C21.3983 21.0011 21.3879 21.0482 21.3654 21.0916C21.3427 21.1352 21.3085 21.174 21.2651 21.2052C21.2216 21.2365 21.1702 21.2594 21.1146 21.2722C21.059 21.285 21.0004 21.2874 20.9435 21.2793C19.4701 21.0003 18.0975 20.4419 16.9368 19.6494Z" fill="#091C2B"/>
<path d="M10.0108 9.85014C10.0108 9.85014 9.58183 9.7835 9.5252 9.59839C9.46856 9.41322 9.78261 9.10739 9.78261 9.10739C11.703 8.42119 13.7677 8.04514 15.8629 8C17.9713 8.09503 20.0385 8.51677 21.9544 9.24277C21.9544 9.24277 22.4116 9.52334 22.2829 9.77929C22.1542 10.0353 21.6824 10.0718 21.6824 10.0718C19.8791 9.36131 17.9243 8.94354 15.9264 8.84162C13.8947 8.87234 11.8881 9.21443 10.0108 9.85014Z" fill="#091C2B"/>
<path d="M8.05008 13.5037C8.20024 13.6678 8.73645 13.6089 8.73645 13.6089C8.73645 13.6089 11.5883 10.6331 15.709 10.537C19.8298 10.4409 23.2865 13.2323 23.2865 13.2323C23.2865 13.2323 23.8467 13.3543 23.9754 13.1004C24.1041 12.8465 23.6855 12.4257 23.6855 12.4257C23.6855 12.4257 20.3326 9.72341 15.788 9.71149C11.2434 9.69956 8.13503 12.9518 8.13503 12.9518C8.13503 12.9518 7.90001 13.3396 8.05008 13.5037Z" fill="#091C2B"/>
</svg>
