<svg width="130" height="130" viewBox="0 0 130 130" fill="none" xmlns="http://www.w3.org/2000/svg">
<rect width="130" height="130" rx="10" fill="#B2DCBC"/>
<g opacity="0.2">
<path d="M129.844 101.457C129.844 102.87 129.844 104.283 129.844 105.696C129.646 107.075 129.499 108.461 129.149 109.814C127.182 117.426 122.757 123.124 115.904 126.941C115.496 127.168 115.202 127.149 114.831 126.888C113.681 126.072 112.508 125.29 111.349 124.487C110.12 123.635 108.905 122.763 107.536 122.133C106.259 121.547 104.991 121.453 103.72 122.122C103.021 122.491 102.315 122.851 101.637 123.256C99.1441 124.751 96.7451 126.394 94.3074 127.975C93.9845 128.184 93.7166 128.234 93.358 128.065C92.4874 127.655 91.587 127.307 90.7641 126.803C90.4634 126.619 89.9262 126.531 89.9336 126.21C89.9396 125.896 90.4709 125.799 90.7834 125.635C95.7346 123.033 100.549 120.201 105.121 116.971C107.814 115.069 110.304 112.923 112.245 110.22C113.743 108.131 114.605 105.845 114.246 103.203C113.81 99.9908 110.377 97.5127 107.197 98.1229C105.363 98.475 103.83 99.3881 102.457 100.598C100.908 101.963 99.5682 103.546 98.0264 104.922C95.4161 107.254 92.73 109.478 89.5571 111.022C87.9945 111.783 86.4007 112.461 84.7309 112.96C83.9318 113.199 83.6029 113.781 83.8216 114.434C84.021 115.031 84.6119 115.283 85.3545 115.064C88.1731 114.23 90.8325 113.035 93.2985 111.434C96.7659 109.184 99.8153 106.436 102.656 103.445C103.705 102.339 104.872 101.396 106.246 100.705C109.099 99.2702 112.493 101.441 112.126 104.825C111.989 106.084 111.547 107.23 110.873 108.289C109.285 110.785 107.131 112.741 104.778 114.464C99.5072 118.324 93.8818 121.603 88.0555 124.544C87.6894 124.729 87.4409 124.674 87.1329 124.428C85.8009 123.359 84.5538 122.203 83.4481 120.898C78.4835 115.036 76.3926 108.255 77.1515 100.625C77.6203 95.9163 79.296 91.621 82.1415 87.8374C87.1537 81.1713 93.861 77.5787 102.162 77.0506C105.662 76.8283 109.097 77.3385 112.383 78.5888C120.684 81.7443 126.165 87.5972 128.834 96.0864C129.383 97.8365 129.648 99.6417 129.844 101.457ZM103.824 87.9388C101.073 87.9896 98.6679 88.6102 96.4088 89.7978C93.5485 91.3017 91.2299 93.4531 89.0928 95.8447C87.4513 97.6813 86.3039 99.964 84.1282 101.325C83.6907 101.599 83.6817 102.251 83.9615 102.684C84.2443 103.119 84.7785 103.296 85.2756 103.096C85.481 103.014 85.6774 102.9 85.8634 102.776C86.804 102.15 87.5853 101.359 88.2609 100.455C90.2238 97.8275 92.3014 95.3061 94.9578 93.3382C97.9386 91.1286 101.207 89.8112 104.997 90.2588C108.157 90.6318 110.762 92.082 112.882 94.4348C114.864 96.6369 116.15 99.2344 117.063 102.024C117.62 103.724 118.063 105.462 118.592 107.172C118.79 107.812 119.065 108.434 119.547 108.926C119.989 109.378 120.647 109.418 121.083 109.046C121.521 108.67 121.596 108.071 121.226 107.557C120.897 107.1 120.69 106.596 120.538 106.065C120.281 105.171 120.037 104.274 119.793 103.378C118.736 99.494 117.16 95.8805 114.428 92.8518C111.529 89.6456 107.911 88.0672 103.824 87.9388ZM85.6328 121.293C85.8292 121.299 86.0867 121.205 86.3456 121.109C90.1316 119.716 93.7434 117.964 97.1573 115.81C101.466 113.092 105.328 109.866 108.371 105.73C108.503 105.551 108.64 105.369 108.737 105.169C109.085 104.449 108.573 103.664 107.773 103.651C107.232 103.642 106.929 103.988 106.651 104.365C105.359 106.115 103.908 107.724 102.296 109.181C97.5264 113.496 92.0216 116.578 86.048 118.866C85.6804 119.006 85.2905 119.1 84.9571 119.322C84.5241 119.612 84.3499 120.096 84.5211 120.589C84.6878 121.069 85.0434 121.296 85.6328 121.293ZM85.3396 108.975C85.5762 108.99 85.8218 108.904 86.0569 108.801C89.1404 107.463 91.9963 105.789 94.2955 103.27C95.6052 101.836 96.7823 100.282 98.2303 98.9718C100.347 97.0577 102.689 95.5896 105.561 95.1315C105.802 95.0928 106.03 95.0211 106.229 94.8779C106.603 94.6079 106.74 94.0812 106.561 93.6247C106.395 93.1995 105.933 92.8951 105.509 92.9503C103.859 93.1622 102.293 93.6515 100.821 94.4333C98.3092 95.7686 96.1975 97.5963 94.4295 99.8058C92.2537 102.523 89.6866 104.719 86.5212 106.197C85.9602 106.46 85.3783 106.67 84.8262 106.943C84.3321 107.187 84.0984 107.715 84.2264 108.189C84.3529 108.661 84.7934 108.98 85.3396 108.975ZM118.367 123.981C118.858 123.977 119.157 123.782 119.336 123.403C119.663 122.707 119.387 122.106 118.568 121.782C115.784 120.683 113.443 119.085 112.158 116.234C111.856 115.564 111.203 115.371 110.66 115.671C110.096 115.983 109.947 116.563 110.252 117.226C111.642 120.237 113.977 122.239 116.967 123.534C117.435 123.737 117.909 123.964 118.367 123.981ZM115.733 110.572C114.892 110.563 114.377 111.239 114.551 112.111C114.849 113.6 115.584 114.827 116.735 115.81C117.685 116.623 118.761 117.224 119.924 117.662C120.598 117.915 121.157 117.678 121.384 117.108C121.622 116.508 121.369 115.947 120.721 115.644C120.348 115.47 119.968 115.309 119.599 115.128C118.613 114.645 117.739 114.026 117.191 113.032C116.889 112.483 116.754 111.879 116.611 111.276C116.501 110.819 116.218 110.567 115.733 110.572Z" fill="white"/>
<path d="M101.14 129.843C99.8546 129.659 98.56 129.524 97.2995 129.195C97.1375 129.153 96.8952 129.171 96.8565 129.001C96.8164 128.82 97.0557 128.758 97.191 128.671C99.428 127.245 101.658 125.81 103.965 124.49C105.148 123.812 106.203 123.789 107.371 124.487C109.157 125.553 110.841 126.76 112.567 127.91C112.913 128.14 112.831 128.267 112.486 128.39C110.903 128.951 109.28 129.355 107.615 129.604C107.418 129.633 107.233 129.625 107.068 129.53C105.325 128.516 103.667 128.757 102.066 129.844C101.759 129.843 101.45 129.843 101.14 129.843Z" fill="white"/>
</g>
</svg>
