<svg width="390" height="294" viewBox="0 0 390 294" fill="none" xmlns="http://www.w3.org/2000/svg">
<rect width="390" height="294" fill="white"/>
<g opacity="0.5" clip-path="url(#clip0_14_453)">
<path d="M390 -157.005H0V232.992H390V-157.005Z" fill="#E7F1FB"/>
<g opacity="0.6">
<path d="M133.965 49.8027L129.644 59.9114L-73.1484 -40.3725V-58.3904H-9.69544L133.965 49.8027Z" fill="url(#paint0_linear_14_453)"/>
<path d="M129.644 59.9114L125.939 67.493L-73.1484 7.2852V-11.7233L129.644 59.9114Z" fill="url(#paint1_linear_14_453)"/>
<path d="M316.851 -58.3904V-40.0839L174.595 56.417L167.91 60.9488L161.163 65.5274L156.086 59.6072L165.204 52.3299L167.193 50.7387L167.201 50.7309L303.911 -58.3904H316.851Z" fill="url(#paint2_linear_14_453)"/>
<path d="M125.939 67.4929V74.2321H-73.1484V49.4282L125.939 67.4929Z" fill="url(#paint3_linear_14_453)"/>
<path d="M141.664 44.7483L141.227 45.0447V45.0525L134.261 49.8027L40.7861 -58.3904H74.4041L140.525 43.0011L141.664 44.7483Z" fill="url(#paint4_linear_14_453)"/>
<path d="M132.943 85.9399L132.608 86.1193L130.931 86.9929L-73.1484 193.642V167.972L125.089 85.0507H125.104L127.39 84.0913L128.232 84.3721H128.24L132.296 85.7215L132.553 85.8073L132.943 85.9399Z" fill="url(#paint5_linear_14_453)"/>
<path d="M-67.6729 271.672L132.514 85.5265L133.965 94.2312L-56.9245 284.558L-67.6729 271.672Z" fill="url(#paint6_linear_14_453)"/>
<path d="M140.306 93.4746L138.177 97.788L22.6824 331.607H0.319824L133.817 94.3794L133.949 94.1376L136.243 90.066L139.456 92.7648L140.306 93.4746Z" fill="url(#paint7_linear_14_453)"/>
<path d="M140.306 81.7825L128.24 84.3721L125.104 85.0507L-73.1484 127.631V90.3235L140.135 74.2322L140.306 81.7825Z" fill="url(#paint8_linear_14_453)"/>
<path d="M316.851 69.365V88.1551L184.946 79.4191L167.676 78.2725L161.405 77.8591L159.65 77.7421L157.201 77.5783L157.076 77.5705L155.329 77.4535L153.176 77.3131L152.927 77.2975L152.716 70.5974L155.657 70.574L159.245 70.5506L170.96 70.457L188.237 70.3322L316.851 69.365Z" fill="url(#paint9_linear_14_453)"/>
<path d="M316.852 121.289V152.403L177.45 87.2425L161.039 79.5673L161.405 77.8591L162.357 73.4054L162.591 72.3212L172.567 75.4879L173.433 75.7609L184.946 79.4191L316.852 121.289Z" fill="url(#paint10_linear_14_453)"/>
<path d="M150.626 47.2755H141.983L141.227 45.0525L140.525 43.0011L105.893 -58.3904H136.406L150.392 45.5205L150.626 47.2755Z" fill="url(#paint11_linear_14_453)"/>
<path d="M198.128 -58.3904L160.61 49.8027H149.502L150.025 47.2755L150.392 45.5205V45.5127L171.904 -58.3904H198.128Z" fill="url(#paint12_linear_14_453)"/>
<path d="M245.77 -58.3904L167.201 50.7309L166.054 52.3299H159.268L232.377 -58.3904H245.77Z" fill="url(#paint13_linear_14_453)"/>
<path d="M316.851 -8.79053V23.1269L188.237 70.3321L173.433 75.7609L172.739 76.0183L172.567 75.4879L170.96 70.4569L167.91 60.9488L167.497 59.6696L174.595 56.417L316.851 -8.79053Z" fill="url(#paint14_linear_14_453)"/>
<path d="M191.256 331.607H177.473L152.201 93.732L151.39 86.0413L150.696 79.5283L153.176 77.3132L155.431 75.3008V75.293L156.624 74.2322L157.076 77.5706L157.154 78.1946L158.215 86.0803V86.0881L158.293 86.6419L191.256 331.607Z" fill="url(#paint15_linear_14_453)"/>
<path d="M316.852 215.052V266.75L167.528 96.6804L158.215 86.0803L158.083 85.9321L155.095 82.5235L155.329 77.4535L155.431 75.2929L155.657 70.574L155.805 67.3916L159.245 70.5506L162.357 73.4054L167.677 78.2725L177.45 87.2425L316.852 215.052Z" fill="url(#paint16_linear_14_453)"/>
<path d="M265.247 331.607H229.905L158.293 86.6418L158.09 85.9398L158.083 85.932L156.905 81.8916L157.154 78.1945L157.201 77.5783L157.537 72.6643L159.65 77.7421L167.528 96.6803L265.247 331.607Z" fill="url(#paint17_linear_14_453)"/>
<path d="M153.215 86.4079L152.201 93.732L119.379 331.607H78.6396L138.177 97.788L139.456 92.7649L141.664 84.0913L151.39 86.0413L153.215 86.4079Z" fill="url(#paint18_linear_14_453)"/>
</g>
<path d="M42.9701 111.477C51.1757 107.468 60.4265 110.245 63.4139 116.695C62.5871 110.798 73.9673 96.7428 93.7559 100.775C105.791 103.225 102.507 115.463 102.102 117.865C105.518 116.165 111.462 116.461 114.574 118.45C117.686 120.431 118.614 123.996 116.696 126.656C119.16 126.383 119.153 125.883 121.641 125.766C124.269 125.642 126.555 127.28 127.327 129.097C128.099 130.914 127.717 132.872 127.335 134.752C129.651 133.286 133.239 132.942 136.18 133.605C139.121 134.268 141.156 136.952 139.573 138.863C173.051 140.664 206.965 142.014 231.683 143.956C234.359 147.575 125.907 141.522 74.7941 142.224C63.0395 142.388 50.9963 142.895 39.8189 140.274C36.9173 139.596 33.9299 138.605 32.3231 136.725C30.7163 134.838 29.3357 118.138 42.9701 111.477Z" fill="#F7FAF3"/>
<path d="M390 143.488C364.681 146.865 339.347 150.25 313.833 153.09C300.37 154.587 286.681 155.936 273.031 155.25C263.827 154.79 254.756 153.402 245.521 153.448C231.777 153.519 218.603 156.748 204.89 157.286C189.322 157.894 174.018 155.001 159.377 151.857C149.581 149.751 139.62 147.489 129.176 147.349C115.963 147.169 103.412 150.383 91.104 153.199C62.3922 159.751 32.3778 164.36 1.85645 166.911H390V143.488Z" fill="#CFDFF6"/>
<path d="M123.451 159.649L131.531 145.095L134.675 149.86L135.751 148.854L137.202 151.342L138.934 150.438L141.578 152.06L144.128 149.642L146.679 152.988L147.771 151.927L150.68 153.955L152.506 152.583L154.05 154.806L155.782 154.026L156.421 155.133L159.065 154.221L162.068 156.639L163.067 155.788L165.805 158.472L167.716 156.576L168.535 157.621L171.725 153.698L173.885 157.621L175.453 156.233L177.099 157.621L178.916 156.966L181.288 159.259L182.738 158.799L184.47 162.028L123.451 159.649Z" fill="#10567A"/>
<path d="M390 148.293C383.994 144.556 371.514 144.026 366.974 148.792C362.575 145.196 354.112 145.134 349.619 148.651C344.783 145.57 336.695 146.038 332.537 149.634C331.5 150.531 330.556 151.654 329.02 151.927C327.569 152.193 326.118 151.592 324.698 151.241C319.238 149.876 312.624 152.7 311.36 156.935C305.939 152.801 294.926 154.915 292.781 160.5C288.538 158.323 282.898 158.206 277.961 159.283C273.031 160.359 268.64 162.489 264.326 164.595C264.521 163.066 262.696 161.732 260.723 161.381C258.749 161.022 256.682 161.397 254.717 161.763C243.477 163.861 232.245 165.96 221.005 168.058C275.488 179.836 334.425 182.043 390.008 173.681V148.293H390Z" fill="#1F7689"/>
<path d="M365.836 158.152C355.352 151.303 341.461 153.019 329.573 156.943C317.686 160.866 306.197 166.778 293.709 167.675C285.73 168.253 277.766 166.732 269.786 166.076C246.324 164.158 222.971 169.75 199.493 171.419C188.409 172.207 177.278 172.121 166.171 172.036C166.171 172.036 271.643 186.169 322.382 177.464C373.113 168.767 365.836 158.152 365.836 158.152Z" fill="url(#paint19_linear_14_453)"/>
<path d="M0 127.209C16.2942 131.835 31.7538 119.394 48.6798 119.893C65.3562 120.384 80.6442 128.629 95.823 135.532C165.251 167.114 245.318 173.252 319.66 156.21C330.517 153.721 341.578 150.734 352.646 152.037C367.567 153.799 374.969 164.688 389.992 165.039V232.992H0V127.209Z" fill="#62B48E"/>
<path d="M165.126 167.465C158.543 166.201 151.78 166.474 145.072 166.646C130.853 166.997 116.579 166.825 102.461 165.078C94.0446 164.033 85.293 162.247 78.7722 156.826C77.8908 156.092 77.0094 155.211 76.8378 154.072C76.6662 152.934 77.6022 151.608 78.7332 151.826C91.8372 154.33 105.284 155 118.576 153.807C120.237 153.659 122.382 152.973 122.359 151.303C105.277 147.185 88.7952 140.578 73.6008 131.757C67.2438 128.067 60.5514 123.84 53.2194 124.3C49.4598 124.534 45.9108 126 42.4008 127.365C28.7352 132.669 13.6188 136.46 0.0078125 131.031L0.0546125 170.117C43.0716 183.494 89.349 182.831 134.394 181.825C150.509 181.466 166.803 181.076 182.387 176.957C178.207 171.7 171.709 168.728 165.126 167.465Z" fill="url(#paint20_linear_14_453)"/>
<path d="M90.5892 175.561C82.3992 173.611 74.8332 170.905 69.1938 167.917C64.9662 165.679 61.464 163.151 55.5828 161.451C51.6594 160.32 47.2992 159.751 43.095 159.088C27.9942 156.717 12.2694 153.409 0.0078125 148.503V160.679L90.5892 175.561Z" fill="#17527A"/>
<path d="M54.0071 170.678C70.9097 172.94 88.2725 175.187 104.871 171.24C110.463 169.914 115.947 167.878 121.688 167.605C130.229 167.192 138.606 170.694 147.147 170.218C155.064 169.774 162.575 165.936 170.508 166.045C175.781 166.123 180.843 167.948 185.983 169.103C191.646 170.374 197.465 170.842 203.252 171.31C216.387 172.363 229.523 173.416 242.65 174.469C248.336 174.922 254.186 175.366 259.631 173.681C262.93 172.66 266.011 170.881 269.428 170.343C274.248 169.586 279.053 171.396 283.826 172.41C293.514 174.469 302.507 175.811 311.391 171.451C317 168.705 323.536 162.098 329.683 161.006C335.93 159.899 342.241 161.942 348.449 163.253C358.379 165.351 368.698 165.585 378.713 163.955C370.274 168.37 360.508 170.554 351.14 172.262C287.375 183.892 223.368 195.552 158.613 198.337C146.952 198.836 135.252 199.047 123.638 197.892C96.9617 195.225 75.5273 186.684 54.0071 170.678Z" fill="#17527A"/>
<path d="M84.9031 157.52C84.5989 157.762 84.2089 157.957 83.6941 158.089C82.9531 158.277 82.5163 159.096 82.5085 159.86C82.5007 160.57 82.4617 161.397 82.7659 162.06C82.9843 162.528 83.6161 162.839 83.7799 163.284C84.2401 164.493 82.8049 164.914 81.7831 165.203C80.1451 165.663 83.1637 171.131 86.1199 170.288C87.3211 169.945 88.4911 169.313 89.7391 169.399C93.1711 169.641 95.5111 172.028 99.1537 170.288C100.425 169.68 101.353 168.104 100.737 166.833C100.378 166.092 99.5983 165.624 99.2239 164.883C98.4751 163.424 99.2161 161.607 98.5921 160.055C97.9681 158.518 96.9307 157.684 95.7061 156.615C94.8091 155.82 94.5361 154.548 93.8575 153.565C92.7577 151.974 89.4973 150.984 87.7267 152.044C85.6207 153.292 86.6581 156.1 84.9031 157.52Z" fill="#378D74"/>
<path d="M86.6502 157.575C86.6736 158.284 87.1026 158.994 86.892 159.673C86.6424 160.476 85.6518 160.757 85.059 161.357C84.8952 161.521 84.7626 161.732 84.7704 161.958C84.7782 162.13 84.864 162.286 84.9576 162.426C85.4256 163.167 86.0184 164.041 85.6674 164.844C85.4646 165.312 85.0044 165.601 84.6534 165.967C84.3102 166.342 84.0918 166.966 84.4506 167.332C84.6222 167.504 84.8718 167.566 85.1136 167.574C85.8624 167.597 86.541 167.192 87.2508 166.95C87.9528 166.708 88.8576 166.669 89.3256 167.254C89.4036 167.356 89.4816 167.473 89.6064 167.496C89.7156 167.512 89.817 167.441 89.895 167.371C90.5892 166.778 90.87 165.733 90.5658 164.867C90.441 164.509 90.2148 164.15 90.285 163.775C90.3552 163.385 90.7218 163.112 91.104 162.988C91.4784 162.863 91.884 162.839 92.2662 162.715C92.8434 162.527 93.3504 162.075 93.4986 161.482C93.6468 160.897 93.3582 160.203 92.8044 159.969C92.508 159.852 92.1648 159.852 91.8996 159.673C91.0572 159.072 92.0478 157.341 91.1508 156.818C90.753 156.584 90.246 156.802 89.8638 157.068C89.7624 157.138 89.6532 157.216 89.5284 157.231C88.8264 157.309 88.9434 155.874 88.179 155.749C87.321 155.609 86.6268 156.904 86.6502 157.575Z" fill="url(#paint21_linear_14_453)"/>
<path d="M94.4034 162.426C93.9354 162.995 94.3254 163.892 94.068 164.587C93.6234 165.788 91.5876 165.78 91.2288 167.005C91.0572 167.574 91.4238 168.253 91.9932 168.432C92.6874 168.65 93.4518 168.19 94.1538 168.37C94.6218 168.487 94.9728 168.877 95.394 169.118C95.9556 169.446 96.6576 169.524 97.2738 169.329C97.6872 169.196 98.1006 168.892 98.1708 168.463C98.2722 167.886 97.7574 167.402 97.4142 166.927C96.9774 166.318 97.7184 165.811 97.8744 165.195C98.007 164.657 97.9758 164.158 97.6794 163.69C97.1724 162.871 95.2614 161.389 94.4034 162.426Z" fill="url(#paint22_linear_14_453)"/>
<path d="M92.8591 166.014C91.8373 166.841 90.9637 168.042 90.3709 169.29C90.0355 167.465 89.5285 165.694 88.7017 164.165C88.6081 163.986 88.2727 164.056 88.2961 164.275C88.5301 166.045 89.1151 167.769 89.4427 169.532C89.8483 171.708 90.0355 173.9 90.0823 176.115C90.0979 176.708 90.9481 176.653 90.9637 176.107C90.9715 176.107 90.9715 176.107 90.9793 176.115C90.9247 174.251 90.8233 172.192 90.5269 170.179C90.8545 169.571 91.1743 168.962 91.5487 168.377C92.0323 167.629 92.5705 166.919 93.0307 166.154C93.0931 166.037 92.9449 165.944 92.8591 166.014Z" fill="#6E604A"/>
<path d="M295.113 148.698C294.7 149.034 294.169 149.299 293.459 149.47C292.445 149.72 291.853 150.843 291.845 151.881C291.837 152.848 291.775 153.979 292.196 154.876C292.492 155.515 293.35 155.937 293.576 156.545C294.2 158.191 292.25 158.76 290.854 159.158C288.623 159.79 292.742 167.239 296.774 166.1C298.412 165.64 300.004 164.766 301.712 164.883C306.392 165.211 309.59 168.471 314.551 166.1C316.282 165.273 317.546 163.12 316.711 161.381C316.228 160.367 315.159 159.727 314.652 158.729C313.63 156.732 314.644 154.26 313.786 152.146C312.936 150.048 311.524 148.917 309.847 147.45C308.623 146.366 308.248 144.627 307.32 143.285C305.822 141.109 301.376 139.767 298.951 141.21C296.088 142.926 297.508 146.764 295.113 148.698Z" fill="#378D74"/>
<path d="M297.492 148.776C297.523 149.743 298.108 150.711 297.82 151.639C297.477 152.739 296.127 153.121 295.316 153.94C295.098 154.158 294.91 154.447 294.926 154.759C294.934 154.993 295.059 155.203 295.183 155.398C295.823 156.412 296.626 157.598 296.158 158.698C295.885 159.337 295.254 159.727 294.778 160.234C294.31 160.741 294.013 161.599 294.497 162.091C294.723 162.325 295.074 162.411 295.402 162.418C296.424 162.45 297.352 161.896 298.311 161.56C299.271 161.225 300.511 161.178 301.143 161.974C301.252 162.106 301.353 162.278 301.525 162.301C301.673 162.325 301.813 162.231 301.923 162.138C302.874 161.326 303.256 159.907 302.835 158.721C302.664 158.23 302.359 157.746 302.453 157.231C302.547 156.701 303.054 156.327 303.568 156.155C304.083 155.983 304.637 155.952 305.152 155.788C305.94 155.531 306.634 154.915 306.829 154.111C307.032 153.308 306.642 152.364 305.877 152.052C305.472 151.888 305.004 151.896 304.645 151.639C303.49 150.812 304.848 148.456 303.615 147.747C303.069 147.435 302.383 147.723 301.86 148.082C301.72 148.176 301.572 148.285 301.4 148.3C300.448 148.41 300.597 146.452 299.559 146.272C298.413 146.085 297.461 147.856 297.492 148.776Z" fill="url(#paint23_linear_14_453)"/>
<path d="M308.077 155.391C307.437 156.171 307.967 157.387 307.616 158.339C307.016 159.977 304.239 159.961 303.74 161.638C303.514 162.418 304.005 163.339 304.777 163.58C305.721 163.877 306.766 163.245 307.726 163.495C308.365 163.658 308.849 164.181 309.418 164.516C310.183 164.969 311.142 165.07 311.984 164.805C312.554 164.626 313.108 164.212 313.209 163.619C313.342 162.832 312.647 162.176 312.179 161.521C311.587 160.695 312.593 159.993 312.803 159.158C312.991 158.425 312.936 157.746 312.538 157.099C311.852 155.999 309.239 153.979 308.077 155.391Z" fill="url(#paint24_linear_14_453)"/>
<path d="M305.963 160.289C304.574 161.42 303.381 163.05 302.562 164.758C302.11 162.262 301.415 159.852 300.284 157.77C300.152 157.528 299.692 157.621 299.731 157.918C300.05 160.336 300.846 162.684 301.298 165.086C301.852 168.058 302.11 171.045 302.172 174.064C302.188 174.875 303.35 174.797 303.373 174.056C303.381 174.056 303.389 174.064 303.397 174.064C303.326 171.513 303.186 168.713 302.78 165.967C303.233 165.141 303.662 164.306 304.177 163.51C304.832 162.481 305.573 161.514 306.205 160.476C306.283 160.32 306.08 160.188 305.963 160.289Z" fill="#6E604A"/>
<path d="M102.383 161.396C102.32 161.404 102.258 161.42 102.188 161.428C101.408 161.545 100.807 161.529 100.698 162.488C100.651 162.894 100.823 163.284 100.838 163.69C100.869 164.571 100.183 165.281 99.6137 165.952C99.0443 166.622 98.5217 167.558 98.9351 168.338C99.0677 168.596 99.2939 168.799 99.4031 169.064C99.5669 169.454 99.4577 169.914 99.6449 170.296C99.9101 170.85 100.651 170.967 101.252 170.866C101.852 170.764 102.445 170.507 103.046 170.561C103.755 170.632 104.348 171.115 104.957 171.497C105.596 171.895 106.329 172.199 107.086 172.176C107.843 172.153 108.615 171.755 108.935 171.068C109.005 170.912 109.052 170.741 109.161 170.616C109.293 170.452 109.504 170.374 109.699 170.312C110.58 170.031 111.54 169.906 112.273 169.352C113.006 168.799 113.349 167.566 112.64 166.973C112.476 166.841 112.265 166.747 112.156 166.56C111.867 166.076 112.484 165.53 112.523 164.969C112.569 164.282 111.782 163.869 111.126 163.651C110.471 163.432 109.676 163.066 109.676 162.371C109.676 162.098 109.816 161.818 109.738 161.56C109.566 160.975 108.334 160.796 107.921 160.304C107.336 159.61 106.501 158.612 105.503 158.971C104.762 159.244 104.387 159.727 103.989 160.336C103.56 161.022 103.092 161.264 102.383 161.396Z" fill="#429B7D"/>
<path d="M105.846 162.761C105.487 162.863 105.214 163.151 104.949 163.401C104.676 163.658 104.348 163.9 103.974 163.885C103.771 163.877 103.545 163.791 103.366 163.892C103.124 164.041 103.194 164.399 103.202 164.68C103.225 165.273 102.843 165.811 102.383 166.193C101.93 166.576 101.392 166.849 100.932 167.223C100.62 167.48 100.331 167.808 100.253 168.214C100.183 168.611 100.394 169.087 100.792 169.181C101.244 169.29 101.751 168.9 102.149 169.134C102.391 169.274 102.461 169.579 102.562 169.844C102.656 170.109 102.851 170.398 103.132 170.374C103.295 170.366 103.428 170.249 103.576 170.171C104.216 169.836 104.957 170.296 105.55 170.702C106.142 171.107 106.969 171.482 107.531 171.029C107.874 170.749 107.952 170.265 107.975 169.82C107.991 169.391 108.053 168.838 108.467 168.713C108.631 168.666 108.802 168.697 108.966 168.705C109.528 168.728 110.081 168.362 110.284 167.839C110.331 167.722 110.362 167.582 110.315 167.457C110.183 167.09 109.613 167.2 109.317 166.95C108.989 166.685 109.13 166.162 109.309 165.78C109.489 165.398 109.645 164.891 109.333 164.602C109.083 164.368 108.685 164.446 108.35 164.516C108.014 164.587 107.585 164.594 107.414 164.298C107.281 164.08 107.367 163.799 107.328 163.541C107.273 163.151 106.197 162.66 105.846 162.761Z" fill="url(#paint25_linear_14_453)"/>
<path d="M107.312 168.487C107.351 168.448 107.304 168.385 107.258 168.416C106.392 168.908 105.417 169.789 104.941 170.78C104.972 168.994 105.222 167.246 105.612 165.452C105.643 165.296 105.401 165.164 105.331 165.335C104.964 166.201 104.723 167.106 104.567 168.034C104.543 167.527 104.348 166.997 104.192 166.537C103.943 165.811 103.654 165.047 103.202 164.423C103.116 164.298 102.874 164.368 102.936 164.532C103.194 165.25 103.537 165.92 103.771 166.646C103.974 167.278 104.021 168.011 104.395 168.565C104.418 168.604 104.465 168.596 104.496 168.572C104.34 169.781 104.333 171.006 104.403 172.223C104.551 174.719 104.847 177.566 105.783 179.882C105.83 179.999 106.025 179.999 106.017 179.851C105.939 177.527 105.206 175.241 105.011 172.917C104.972 172.472 104.957 172.043 104.949 171.607C105.339 171.115 105.612 170.522 106.002 170.023C106.407 169.501 106.852 168.978 107.312 168.487Z" fill="#6E604A"/>
<path d="M221.504 157.559C221.426 157.575 221.348 157.582 221.27 157.598C220.326 157.738 219.609 157.715 219.468 158.877C219.414 159.361 219.624 159.837 219.64 160.328C219.679 161.389 218.844 162.255 218.158 163.058C217.464 163.869 216.848 165 217.339 165.944C217.503 166.256 217.776 166.498 217.908 166.818C218.103 167.286 217.979 167.847 218.197 168.3C218.517 168.963 219.406 169.111 220.131 168.986C220.857 168.861 221.567 168.549 222.3 168.619C223.158 168.705 223.868 169.29 224.601 169.75C225.373 170.234 226.262 170.593 227.175 170.569C228.087 170.546 229.023 170.062 229.406 169.236C229.491 169.048 229.554 168.846 229.686 168.69C229.85 168.495 230.1 168.401 230.342 168.323C231.402 167.98 232.565 167.839 233.454 167.169C234.343 166.498 234.749 165.008 233.898 164.298C233.703 164.134 233.446 164.025 233.321 163.799C232.97 163.214 233.719 162.559 233.766 161.88C233.82 161.046 232.877 160.554 232.081 160.297C231.285 160.039 230.326 159.587 230.334 158.752C230.334 158.425 230.498 158.089 230.412 157.77C230.209 157.068 228.711 156.849 228.212 156.256C227.51 155.422 226.496 154.213 225.295 154.65C224.398 154.977 223.946 155.562 223.47 156.295C222.924 157.099 222.362 157.395 221.504 157.559Z" fill="#429B7D"/>
<path d="M225.693 159.197C225.256 159.314 224.936 159.665 224.609 159.977C224.281 160.289 223.883 160.585 223.431 160.562C223.181 160.546 222.916 160.445 222.698 160.578C222.409 160.757 222.487 161.186 222.503 161.529C222.526 162.247 222.066 162.894 221.52 163.354C220.974 163.815 220.326 164.142 219.773 164.595C219.39 164.907 219.047 165.304 218.954 165.788C218.868 166.272 219.125 166.841 219.609 166.958C220.147 167.083 220.763 166.623 221.247 166.903C221.535 167.075 221.629 167.442 221.738 167.761C221.847 168.081 222.089 168.424 222.425 168.401C222.62 168.385 222.783 168.245 222.963 168.151C223.735 167.746 224.632 168.299 225.35 168.791C226.067 169.282 227.066 169.735 227.736 169.181C228.15 168.845 228.251 168.253 228.267 167.722C228.29 167.2 228.36 166.537 228.86 166.389C229.055 166.326 229.265 166.373 229.468 166.381C230.147 166.404 230.817 165.967 231.059 165.336C231.114 165.187 231.153 165.024 231.098 164.875C230.942 164.439 230.248 164.563 229.889 164.267C229.499 163.947 229.671 163.323 229.874 162.855C230.084 162.395 230.279 161.787 229.905 161.436C229.601 161.155 229.125 161.248 228.719 161.334C228.314 161.42 227.799 161.428 227.588 161.069C227.432 160.804 227.534 160.461 227.487 160.156C227.409 159.673 226.106 159.08 225.693 159.197Z" fill="url(#paint26_linear_14_453)"/>
<path d="M227.456 166.116C227.495 166.069 227.448 165.999 227.385 166.03C226.34 166.623 225.162 167.683 224.585 168.877C224.624 166.724 224.928 164.61 225.389 162.45C225.428 162.262 225.139 162.106 225.053 162.309C224.609 163.354 224.32 164.446 224.133 165.562C224.109 164.946 223.868 164.314 223.673 163.752C223.376 162.879 223.025 161.958 222.479 161.202C222.37 161.053 222.081 161.131 222.159 161.334C222.471 162.192 222.885 163.011 223.166 163.885C223.407 164.641 223.47 165.531 223.914 166.201C223.946 166.248 224 166.24 224.039 166.217C223.852 167.676 223.844 169.158 223.93 170.624C224.109 173.635 224.468 177.067 225.599 179.875C225.654 180.015 225.888 180.015 225.88 179.836C225.786 177.035 224.905 174.274 224.663 171.466C224.616 170.936 224.593 170.406 224.585 169.883C225.061 169.29 225.381 168.573 225.857 167.972C226.364 167.332 226.894 166.708 227.456 166.116Z" fill="#6E604A"/>
<path d="M318.123 153.846C318.045 153.862 317.967 153.87 317.889 153.885C316.945 154.026 316.228 154.002 316.087 155.164C316.033 155.648 316.243 156.124 316.259 156.615C316.298 157.676 315.463 158.542 314.777 159.345C314.083 160.156 313.466 161.287 313.958 162.231C314.122 162.543 314.395 162.785 314.527 163.105C314.722 163.573 314.597 164.134 314.816 164.587C315.136 165.25 316.025 165.398 316.75 165.273C317.476 165.148 318.185 164.836 318.919 164.907C319.777 164.992 320.486 165.577 321.22 166.038C321.992 166.521 322.881 166.88 323.794 166.857C324.706 166.833 325.642 166.35 326.024 165.523C326.11 165.336 326.173 165.133 326.305 164.977C326.469 164.782 326.719 164.688 326.96 164.61C328.021 164.267 329.183 164.127 330.073 163.456C330.962 162.785 331.367 161.295 330.517 160.585C330.322 160.422 330.065 160.312 329.94 160.086C329.589 159.501 330.338 158.846 330.385 158.167C330.439 157.333 329.495 156.841 328.7 156.584C327.904 156.327 326.945 155.874 326.953 155.04C326.953 154.712 327.116 154.377 327.031 154.057C326.828 153.355 325.33 153.136 324.831 152.544C324.129 151.709 323.115 150.5 321.914 150.937C321.017 151.264 320.564 151.849 320.089 152.583C319.543 153.394 318.981 153.69 318.123 153.846Z" fill="#429B7D"/>
<path d="M322.304 155.492C321.867 155.609 321.547 155.96 321.219 156.272C320.892 156.584 320.494 156.88 320.042 156.857C319.792 156.841 319.527 156.74 319.308 156.873C319.02 157.052 319.098 157.481 319.113 157.824C319.137 158.542 318.677 159.189 318.131 159.649C317.585 160.11 316.937 160.437 316.383 160.89C316.001 161.202 315.658 161.599 315.564 162.083C315.479 162.567 315.736 163.136 316.22 163.253C316.758 163.378 317.374 162.918 317.858 163.198C318.146 163.37 318.24 163.737 318.349 164.056C318.466 164.376 318.7 164.719 319.035 164.696C319.23 164.68 319.394 164.54 319.574 164.446C320.346 164.041 321.243 164.595 321.96 165.086C322.678 165.577 323.676 166.03 324.347 165.476C324.761 165.141 324.862 164.548 324.878 164.017C324.901 163.495 324.971 162.832 325.47 162.684C325.665 162.629 325.876 162.668 326.079 162.676C326.757 162.699 327.428 162.262 327.67 161.631C327.725 161.482 327.764 161.319 327.709 161.17C327.553 160.734 326.859 160.858 326.5 160.562C326.11 160.242 326.282 159.618 326.484 159.15C326.695 158.69 326.89 158.082 326.516 157.731C326.211 157.45 325.736 157.543 325.33 157.629C324.924 157.715 324.41 157.723 324.199 157.364C324.043 157.099 324.144 156.756 324.098 156.451C324.027 155.968 322.725 155.375 322.304 155.492Z" fill="url(#paint27_linear_14_453)"/>
<path d="M324.066 162.403C324.105 162.356 324.059 162.286 323.996 162.317C322.951 162.91 321.773 163.971 321.196 165.164C321.235 163.011 321.539 160.897 321.999 158.737C322.038 158.55 321.75 158.394 321.664 158.596C321.219 159.642 320.931 160.734 320.744 161.849C320.72 161.233 320.478 160.601 320.283 160.039C319.987 159.166 319.636 158.245 319.09 157.489C318.981 157.341 318.692 157.419 318.77 157.621C319.082 158.479 319.496 159.298 319.776 160.172C320.018 160.929 320.081 161.818 320.525 162.489C320.556 162.535 320.611 162.528 320.65 162.504C320.463 163.963 320.455 165.445 320.541 166.911C320.72 169.922 321.079 173.354 322.21 176.162C322.265 176.302 322.499 176.302 322.491 176.123C322.397 173.323 321.516 170.562 321.274 167.754C321.227 167.223 321.204 166.693 321.196 166.17C321.672 165.577 321.992 164.86 322.467 164.259C322.974 163.627 323.513 162.996 324.066 162.403Z" fill="#6E604A"/>
<path d="M199.064 171.451C198.136 170.483 197.129 169.579 195.967 169.251C194.087 168.713 192.184 169.75 190.336 170.452C188.487 171.162 186.264 171.443 184.844 169.75C184.205 168.994 183.823 167.925 183.199 167.153C181.826 165.445 179.626 165.507 177.832 166.303C176.038 167.098 174.416 168.487 172.591 169.157C166.475 171.396 159.401 165.203 153.863 169.282C152.311 170.421 148.067 174.032 148.067 174.032C166.865 175.156 184.868 175.397 203.611 177.652C202.301 175.319 200.772 173.237 199.064 171.451Z" fill="#88D77E"/>
<path d="M162.263 172.761C160.875 170.827 158.192 170.468 155.852 170.647C153.512 170.827 151.109 171.38 148.871 170.647C147.389 170.164 146.047 169.134 144.495 169.095C141.632 169.033 139.043 172.355 136.414 171.185C134.995 170.554 134.207 168.744 132.686 168.463C130.619 168.081 129.332 170.655 127.491 171.669C125.424 172.808 122.897 171.848 120.549 171.708C117.179 171.505 112.375 174.656 109.426 176.778C126.087 178.213 146.523 178.385 162.263 172.761Z" fill="#469B60"/>
<path d="M0 151.374C43.4304 165.484 89.2242 179.781 134.628 174.883C144.791 173.783 154.877 171.724 165.095 171.575C175.289 171.427 185.398 173.182 195.499 174.539C213.221 176.918 231.13 178.088 249.007 177.613C259.607 177.332 270.208 176.466 280.808 176.833C291.034 177.184 301.181 178.673 311.298 180.163C337.849 184.063 363.449 188.283 390 192.183V232.992H0V151.374Z" fill="#73BE7B"/>
<path d="M0 161.389C11.2242 168.557 23.1504 176.092 35.7786 180.327C46.6596 183.977 58.2036 185.303 69.6774 185.569C92.3442 186.099 114.886 182.589 137.342 179.43C145.72 178.252 154.151 177.121 162.599 177.441C175.859 177.94 188.682 181.973 201.568 185.132C241.472 194.905 282.89 196.387 323.973 197.292C327.35 197.37 331.149 197.627 333.372 200.17C332.475 202.362 329.659 202.884 327.296 203.064C275.239 207.159 222.916 201.909 171.116 195.303C160.267 193.922 149.144 192.487 138.481 194.913C152.053 195.997 165.469 198.992 178.214 203.781C178.175 206.09 175.188 206.94 172.879 207.089C149.003 208.594 124.176 207.486 102.211 216.963C88.4052 222.922 70.5276 233.351 55.497 232.984H0V161.389Z" fill="url(#paint28_linear_14_453)"/>
<path opacity="0.3" d="M0.046875 156.833C22.9399 171.997 52.2679 177.425 80.1763 181.669C84.4195 182.316 88.9903 183.892 89.1229 185.529C88.8187 188.298 67.3765 187.323 67.9927 188.852C68.3437 193.485 96.9619 189.008 123.076 196.863C148.988 204.655 232.339 225.403 280.948 233L0.046875 232.992V156.833Z" fill="#8AD485"/>
<path d="M81.5099 173.003C89.8481 175.335 99.6917 177.347 98.9975 180.436C98.6855 182.137 85.9325 183.759 79.9811 184.406C66.9083 185.834 29.8661 191.021 31.2311 202.923C32.9627 217.93 129.542 226.261 175.648 228.601C180.492 222.509 184.875 217.166 190.975 212.33C178.698 211.441 52.2443 205.427 53.5547 197.869C54.5297 192.23 104.855 187.222 105.534 182.417C106.033 178.931 103.701 175.475 81.5099 173.003Z" fill="#F7D2A8"/>
<path d="M103.631 210.006C101.259 208.992 99.0521 207.494 96.5249 207.003C92.9681 206.309 89.3567 207.681 85.7375 207.908C82.1105 208.134 78.5303 207.198 75.0203 206.27C67.5245 204.288 59.9975 202.292 52.9307 199.101C56.6279 204.936 63.4841 207.791 69.8879 210.38C70.6211 210.677 71.4869 211.16 71.4635 211.956C71.4557 212.268 71.2997 212.556 71.2607 212.861C71.1749 213.586 71.7833 214.241 72.4697 214.483C73.1561 214.725 73.9127 214.647 74.6381 214.577C78.6083 214.218 82.6097 214.296 86.5643 214.811C96.1973 216.074 105.643 219.919 115.307 218.906C118.061 218.617 120.759 217.931 123.466 217.338C125.073 216.987 135.564 216.004 135.829 214.826C136.414 212.213 128.045 212.034 126.711 211.979C119.043 211.652 110.9 213.118 103.631 210.006Z" fill="url(#paint29_linear_14_453)"/>
<path d="M75.5038 209.436C72.9688 209.015 70.3714 209.553 67.7974 209.46C64.8958 209.351 62.0254 208.422 59.6152 206.808C58.0006 205.724 56.5888 204.343 54.9196 203.345C53.6326 202.572 52.2052 202.034 50.9338 201.239C49.6624 200.435 48.5002 199.289 48.1804 197.822C47.8528 196.356 48.6562 194.585 50.1226 194.25C48.5704 193.376 46.3474 193.181 45.2164 194.554C44.3272 195.63 44.4598 197.214 44.8108 198.563C45.1618 199.913 45.6922 201.301 45.4192 202.674C44.998 204.827 42.6814 206.504 42.9934 208.672C45.3802 209.787 48.4378 208.547 50.7076 209.881C52.564 210.973 53.2894 213.461 55.2082 214.436C56.6902 215.185 58.4686 214.818 60.0988 214.491C61.7836 214.155 63.5152 213.875 65.2156 214.124C66.8068 214.358 68.2966 215.037 69.8332 215.52C74.2558 216.924 79.2478 216.675 83.5066 214.826C86.8528 213.368 84.3178 212.868 82.243 211.987C80.0356 211.043 77.9062 209.826 75.5038 209.436Z" fill="url(#paint30_linear_14_453)"/>
<path d="M49.9668 186.738C49.8654 186.754 49.764 186.77 49.6626 186.785C48.438 186.965 47.502 186.941 47.3226 188.447C47.2446 189.078 47.5254 189.695 47.5488 190.334C47.6034 191.715 46.5192 192.83 45.6222 193.883C44.7252 194.936 43.914 196.41 44.5614 197.627C44.772 198.025 45.123 198.345 45.2946 198.766C45.5442 199.374 45.3804 200.1 45.669 200.693C46.0824 201.558 47.2446 201.753 48.1884 201.59C49.1322 201.426 50.0526 201.02 51.0042 201.114C52.1196 201.223 53.04 201.987 53.9916 202.58C54.9978 203.204 56.1444 203.68 57.33 203.641C58.5156 203.602 59.7324 202.986 60.2238 201.909C60.333 201.668 60.411 201.402 60.5826 201.192C60.7932 200.942 61.113 200.817 61.425 200.716C62.7978 200.271 64.311 200.084 65.4654 199.218C66.6198 198.353 67.1502 196.418 66.0348 195.498C65.7774 195.287 65.4498 195.139 65.2782 194.85C64.8258 194.094 65.793 193.236 65.8554 192.354C65.9334 191.27 64.701 190.631 63.6636 190.295C62.634 189.96 61.386 189.375 61.3938 188.291C61.3938 187.862 61.6122 187.425 61.4952 187.011C61.23 186.099 59.2878 185.818 58.6404 185.046C57.7278 183.962 56.4096 182.386 54.8496 182.956C53.6874 183.377 53.1024 184.141 52.4862 185.093C51.8076 186.146 51.0744 186.536 49.9668 186.738Z" fill="#429B7D"/>
<path d="M55.3956 188.868C54.834 189.024 54.4128 189.476 53.9838 189.874C53.5548 190.272 53.04 190.662 52.4628 190.631C52.143 190.615 51.792 190.475 51.519 190.646C51.1446 190.88 51.246 191.434 51.2616 191.879C51.2928 192.807 50.6922 193.649 49.9824 194.242C49.2726 194.835 48.4302 195.264 47.7126 195.849C47.2212 196.254 46.7688 196.769 46.6518 197.393C46.5348 198.025 46.878 198.766 47.502 198.906C48.204 199.07 48.9996 198.47 49.6236 198.836C49.998 199.062 50.115 199.538 50.2632 199.952C50.4114 200.365 50.7234 200.817 51.1602 200.786C51.4176 200.771 51.6282 200.583 51.8544 200.466C52.8528 199.944 54.0228 200.654 54.951 201.293C55.8792 201.933 57.174 202.51 58.0554 201.8C58.5936 201.363 58.7184 200.599 58.7496 199.905C58.7808 199.226 58.8744 198.368 59.5218 198.173C59.7714 198.095 60.0444 198.158 60.3096 198.165C61.191 198.197 62.0568 197.627 62.3766 196.808C62.4468 196.621 62.4936 196.403 62.4312 196.215C62.2206 195.646 61.3314 195.81 60.8634 195.428C60.3564 195.006 60.5748 194.195 60.8478 193.595C61.1208 192.994 61.3704 192.206 60.8868 191.754C60.4968 191.387 59.8728 191.512 59.3502 191.621C58.8276 191.73 58.1568 191.746 57.8838 191.278C57.681 190.935 57.8136 190.49 57.7434 190.093C57.6264 189.484 55.9416 188.72 55.3956 188.868Z" fill="url(#paint31_linear_14_453)"/>
<path d="M57.6889 197.846C57.7435 197.783 57.6733 197.69 57.6031 197.736C56.2459 198.509 54.7171 199.881 53.9683 201.434C54.0229 198.633 54.4129 195.896 55.0135 193.088C55.0681 192.838 54.6859 192.643 54.5767 192.9C53.9995 194.265 53.6251 195.677 53.3833 197.12C53.3521 196.317 53.0401 195.498 52.7905 194.765C52.4005 193.626 51.9481 192.432 51.2383 191.457C51.0979 191.262 50.7235 191.372 50.8171 191.637C51.2227 192.752 51.7609 193.813 52.1197 194.952C52.4317 195.942 52.5175 197.089 53.0947 197.955C53.1337 198.009 53.2039 198.009 53.2507 197.97C53.0089 199.858 52.9933 201.785 53.1103 203.696C53.3365 207.603 53.8045 212.065 55.2787 215.7C55.3489 215.879 55.6531 215.879 55.6453 215.653C55.5205 212.018 54.3817 208.43 54.0697 204.788C54.0073 204.093 53.9839 203.415 53.9683 202.736C54.5845 201.964 55.0057 201.036 55.6141 200.256C56.2693 199.429 56.9635 198.618 57.6889 197.846Z" fill="#6E604A"/>
<path d="M187.192 210.209C189.361 208.734 184.096 205.708 181.475 205.568C178.854 205.427 176.748 206.192 175.804 208.633C174.283 206.636 170.625 207.05 169.58 209.327C169.408 208.415 169.081 207.486 168.41 206.839C167.739 206.192 166.655 205.911 165.844 206.363C165.032 206.816 163.94 208.516 164.658 209.117C164.338 207.33 163.792 205.591 163.02 203.945C162.365 202.557 161.101 201.036 159.619 201.441C158.894 201.644 158.379 202.268 157.911 202.861C156.148 205.1 153.902 208.071 154.253 210.895C153.481 210.341 152.989 209.421 152.95 208.477C149.737 208.594 146.609 210.177 144.612 212.705C144.089 211.106 142.428 210.084 140.751 209.92C139.082 209.756 137.42 210.302 135.907 211.028C133.201 212.322 130.689 214.319 129.542 217.088C129.41 217.4 129.301 217.759 129.418 218.079C129.41 218.094 169.541 222.244 187.192 210.209Z" fill="#1F7689"/>
<path d="M0 186.044C1.8408 184.024 6.1464 184.539 8.3538 186.333C10.5612 188.127 13.6578 202.315 14.6406 206.909C17.082 203.797 20.904 198.735 25.5996 200.342C28.4622 200.81 26.9256 206.223 26.598 209.187C29.9754 205.973 36.4884 205.505 37.9236 207.908C39.3588 210.31 38.3292 213.11 37.2918 215.63C38.142 213.336 42.9312 210.521 46.1838 211.09C49.1322 211.605 49.2336 216.519 47.8296 218.469C49.3662 215.614 50.037 212.143 54.3738 211.839C57.9072 211.589 60.723 213.274 62.1426 215.926C61.932 213.921 63.0552 210.809 65.7696 210.45C74.1468 209.499 78.273 223.024 85.9326 233.008H0V186.044Z" fill="#1F7689"/>
<path d="M0 228.219C23.9538 224.116 46.0278 219.28 69.9816 215.169C78.273 213.75 86.5956 212.322 95.004 212.143C120.229 211.597 146.102 222.15 170.11 214.389C186.584 209.062 199.579 195.74 216.099 190.584C223.197 188.369 230.685 187.745 238.103 187.144C247.876 186.348 257.657 185.545 267.431 184.75C286.923 183.158 304.34 178.018 321.719 169.048C326.336 166.661 330.97 163.947 336.133 163.339C340.049 162.878 344.066 163.658 347.935 162.925C352.451 162.067 356.32 159.236 360.563 157.457C370.227 153.409 380.063 154.65 390.008 151.374V233H0V228.219Z" fill="#469B60"/>
<path d="M390 159.431V232.992H0C32.9862 225.606 80.8392 216.838 115.853 216.105C127.21 215.871 138.629 216.347 149.908 215.481C180.336 213.149 206.466 201.48 232.978 191.847C252.096 184.913 272.056 178.884 292.64 173.845C302.024 171.552 311.618 169.446 321.61 168.635C328.52 168.073 335.579 168.136 342.342 167.09C351.109 165.733 358.933 162.582 367.637 161.092C382.262 158.604 385.047 159.431 390 159.431Z" fill="#88D180"/>
<path d="M240.552 226.269C276.658 218.32 311.072 201.184 348.028 200.217C353.878 203.423 331.04 213.297 338.45 221.011C339.573 222.189 359.946 213.711 369.306 211.137C382.059 207.642 384.735 204.663 390 210.521V232.992L58.5779 233C58.5935 233 58.6013 232.992 58.6169 232.992C76.7753 229.396 98.0693 228.897 116.22 225.301C122.007 224.155 127.904 223 133.77 223.648C141.25 224.467 148.27 228.172 155.789 228.406C161.647 228.585 167.349 226.651 172.887 224.732C184.181 220.832 195.476 216.932 206.762 213.032C226.754 206.129 246.831 199.179 265.504 189.25C271.775 185.912 278.132 182.168 285.215 181.559C289.458 181.201 293.709 182.004 297.944 182.402C315.307 184.016 332.545 178.775 348.909 172.753C359.361 168.9 372.52 161.763 390 161.389V165.039C373.105 169.859 366.202 182.41 357.708 181.825C312.99 178.736 288.498 200.724 255.255 214.124C249.14 216.597 237.853 225.028 240.552 226.269Z" fill="url(#paint32_linear_14_453)"/>
<path d="M224.289 213.68C224.289 213.68 231.995 225.231 236.27 233H236.824C236.824 233 230.396 218.188 224.289 213.68Z" fill="#47A269"/>
<path d="M291.135 196.278C291.135 196.278 275.878 218.172 267.212 233L266.245 232.93C266.237 232.93 279.7 204.429 291.135 196.278Z" fill="#1B3D28"/>
<path d="M230.552 214.272C230.552 214.272 237.003 230.988 237.611 232.992H238.165C238.165 233 232.845 216.917 230.552 214.272Z" fill="#47A269"/>
<path d="M278.429 196.145C278.429 196.145 268.359 229.045 267.407 232.992H266.549C266.542 233 274.849 201.356 278.429 196.145Z" fill="#1B3D28"/>
<path d="M282.329 214.272C282.329 214.272 278.53 218.625 274.31 232.992H273.546C273.546 233 278.031 217.392 282.329 214.272Z" fill="#47A269"/>
<path d="M383.074 214.272C383.074 214.272 377.731 218.625 372.934 232.992H371.756C371.756 233 376.826 217.392 383.074 214.272Z" fill="#47A269"/>
<path d="M251.8 183.907C251.8 183.907 239.639 229.826 238.68 233H239.858C239.85 233 252.01 190.475 251.8 183.907Z" fill="#1B3D28"/>
<path d="M246.441 174.493C246.441 174.493 257.111 215.037 263.297 232.992H264.03C264.03 233 252.322 188.158 246.441 174.493Z" fill="#265739"/>
<path d="M250.949 233C250.949 233 247.829 209.522 244.834 201.371C244.834 201.371 249.6 210.552 251.807 233H250.949Z" fill="#265739"/>
<path d="M251.924 233C251.924 233 249.124 197.471 246.238 185.132C246.238 185.132 250.879 199.024 252.782 233H251.924Z" fill="#265739"/>
<path d="M263.983 233.234C263.983 233.234 259.927 194.414 255.746 180.935C255.746 180.935 262.478 196.114 265.223 233.234H263.983Z" fill="#265739"/>
<path d="M237.128 197.698C237.128 197.698 255.231 215.349 260.481 232.992H258.89C258.89 233 256.082 220.59 237.128 197.698Z" fill="#47A269"/>
<path d="M282.056 193.603C282.056 193.603 274.279 228.367 273.764 233H272.641C272.641 233 276.502 207.377 282.056 193.603Z" fill="#47A269"/>
<path d="M389.462 196.278C389.462 196.278 374.205 218.172 365.539 233L364.572 232.93C364.572 232.93 378.035 204.429 389.462 196.278Z" fill="#1B3D28"/>
<path d="M376.763 196.145C376.763 196.145 366.693 229.045 365.742 232.992H364.884C364.876 233 373.183 201.356 376.763 196.145Z" fill="#1B3D28"/>
<path d="M380.39 193.603C380.39 193.603 372.614 228.367 372.099 233H370.976C370.976 233 374.837 207.377 380.39 193.603Z" fill="#47A269"/>
<path d="M268.772 207.081C268.772 207.081 267.54 228.523 266.612 233H265.223C265.223 233 267.384 214.335 268.772 207.081Z" fill="#265739"/>
<path d="M231.683 172.652C231.683 172.652 255.707 214.475 268.921 233H270.208C270.208 233 243.789 186.739 231.683 172.652Z" fill="#47A269"/>
<path d="M262.127 178.12C262.127 178.12 268.538 227.829 269.123 233H270.356C270.356 233 266.425 194.266 262.127 178.12Z" fill="#47A269"/>
<path d="M366.608 174.493C366.608 174.493 355.937 215.037 349.752 232.992H349.019C349.019 233 360.719 188.158 366.608 174.493Z" fill="#1B3D28"/>
<path d="M362.099 233C362.099 233 365.219 209.522 368.215 201.371C368.215 201.371 363.449 210.552 361.241 233H362.099Z" fill="#265739"/>
<path d="M361.124 233C361.124 233 363.925 197.471 366.811 185.132C366.811 185.132 362.17 199.024 360.266 233H361.124Z" fill="#265739"/>
<path d="M346.304 233C346.304 233 354.682 199.694 360.36 188.127C360.36 188.127 351.944 201.153 345.064 233H346.304Z" fill="#1B3D28"/>
<path d="M381.357 172.652C381.357 172.652 357.333 214.475 344.12 233H342.833C342.841 233 369.252 186.739 381.357 172.652Z" fill="#265739"/>
<path d="M350.922 178.12C350.922 178.12 344.51 227.829 343.925 233H342.693C342.693 233 346.624 194.266 350.922 178.12Z" fill="#47A269"/>
<path d="M345.361 217.283C345.361 217.283 338.762 226.682 335.228 233H334.675C334.675 233 339.682 220.957 345.361 217.283Z" fill="#1B3D28"/>
<path d="M286.158 203.134C286.158 203.134 303.513 220.941 313.599 233L314.566 232.945C314.558 232.945 298.365 209.756 286.158 203.134Z" fill="#1B3D28"/>
<path d="M339.144 217.767C339.144 217.767 334.3 231.362 333.879 233H333.325C333.333 233 337.108 219.92 339.144 217.767Z" fill="#1B3D28"/>
<path d="M299.411 203.025C299.411 203.025 312.632 229.787 313.965 233H314.823C314.831 233 303.49 207.26 299.411 203.025Z" fill="#1B3D28"/>
<path d="M281.432 217.767C281.432 217.767 285.651 221.308 291.244 233H292.008C292.008 233 286.026 220.302 281.432 217.767Z" fill="#265739"/>
<path d="M326.305 185.413C326.305 185.413 319.527 218.391 315.058 233H314.324C314.324 233 321.734 196.52 326.305 185.413Z" fill="#1B3D28"/>
<path d="M330.431 233C330.431 233 331.297 213.906 333.512 207.276C333.512 207.276 329.62 214.74 329.573 233H330.431Z" fill="#1B3D28"/>
<path d="M329.448 233C329.448 233 328.84 204.101 330.548 194.063C330.548 194.063 327.233 205.365 328.598 233H329.448Z" fill="#1B3D28"/>
<path d="M314.613 233C314.613 233 314.948 201.426 317.834 190.459C317.834 190.459 312.561 202.806 313.373 233H314.613Z" fill="#1B3D28"/>
<path d="M336.57 204.288C336.57 204.288 320.159 218.648 316.602 233H318.193C318.185 233 319.808 222.907 336.57 204.288Z" fill="#265739"/>
<path d="M283.093 200.95C283.093 200.95 294.2 229.225 295.16 232.992H296.283C296.283 233 289.973 212.158 283.093 200.95Z" fill="#265739"/>
<path d="M316.446 183.907C316.446 183.907 306.68 217.923 299.801 233H298.514C298.521 233 309.153 195.373 316.446 183.907Z" fill="#265739"/>
<path d="M288.202 188.361C288.202 188.361 286.556 228.788 286.471 233H285.238C285.238 233 285.457 201.496 288.202 188.361Z" fill="#47A269"/>
<path d="M295.542 200.95C295.542 200.95 302.929 229.225 303.397 232.992H304.52C304.52 233 300.947 212.158 295.542 200.95Z" fill="#47A269"/>
<path d="M306.337 204.967C306.337 204.967 309.629 228.164 310.986 233H312.374C312.367 233 308.42 212.814 306.337 204.967Z" fill="#47A269"/>
<path d="M310.44 217.283C310.44 217.283 316.064 226.682 318.95 233H319.504C319.496 233 315.736 220.957 310.44 217.283Z" fill="#47A269"/>
<path d="M360.352 217.283C360.352 217.283 365.976 226.682 368.862 233H369.416C369.408 233 365.648 220.957 360.352 217.283Z" fill="#47A269"/>
<path d="M316.594 217.767C316.594 217.767 320.042 231.362 320.291 233H320.845C320.845 233 318.412 219.92 316.594 217.767Z" fill="#47A269"/>
<path d="M365.656 217.767C365.656 217.767 369.104 231.362 369.353 233H369.907C369.899 233 367.474 219.92 365.656 217.767Z" fill="#47A269"/>
<path d="M305.417 93.7241C306.29 92.3046 305.175 90.4794 303.069 89.871C300.963 89.2626 297.617 88.8492 296.688 90.2532C298.069 88.0692 294.965 85.2612 291.455 85.5108C289.044 85.6824 287.211 86.79 285.55 87.9756C286.424 84.4422 284.419 76.4239 276.658 75.7375C263.905 74.6065 256.253 83.7168 257.01 89.4576C256.417 87.609 254.904 85.2846 252.104 85.5108C250.949 85.6044 249.998 86.1504 249.225 86.7354C247.548 88.0146 245.458 89.6448 244.982 91.3218C243.258 89.6448 240.138 88.662 237.112 88.8414C234.086 89.0208 232.76 91.2516 231.512 93.1079C215.974 94.6367 200.257 95.3075 183.362 95.2061C182.262 96.9611 196.185 96.7427 203.533 96.4463C224.819 95.5805 339.035 96.4463 337.646 94.6367C337.654 93.4511 320.065 94.6367 305.417 93.7241Z" fill="#F7FAF3"/>
<path d="M383.393 61.9394C382.785 62.228 382.184 62.6024 381.513 62.6024C380.336 62.5946 379.517 61.448 378.971 60.4028C378.097 58.7414 377.364 57.0177 376.763 55.2393C375.102 54.8805 372.965 55.2861 371.498 56.1441C369.72 55.4187 369.985 52.8135 368.987 51.1755C368.058 49.6389 365.984 49.1007 364.221 49.4673C362.458 49.8339 360.945 50.9103 359.518 52.0179C358.94 52.4625 358.355 52.9305 357.645 53.1177C355.797 53.6247 354.05 52.1115 352.755 50.6919C351.46 49.2723 349.845 47.6811 347.95 48.0009C346.086 48.3129 344.136 50.7153 343.41 52.4625C341.281 50.6373 338.231 49.9509 335.517 50.6763C335.064 50.7933 334.604 50.9727 334.316 51.3315C333.965 51.7605 333.933 52.3533 333.91 52.9071C333.863 54.2721 332.6 56.8929 332.553 58.2656C329.659 58.6556 326.718 59.5526 324.558 61.526C322.397 63.4994 321.219 66.7364 322.288 69.4508C323.224 71.8298 325.712 74.3335 324.269 76.4395C323.926 76.9387 323.396 77.2975 323.06 77.8045C321.89 79.5907 323.614 81.8215 325.213 83.2411C323.349 83.7871 321.438 84.3565 319.917 85.5577C318.396 86.7589 317.343 88.7712 317.842 90.651C315.432 90.027 312.959 89.676 310.471 89.6058C307.577 89.5278 304.504 89.9022 302.219 91.6806C299.933 93.459 298.849 97.008 300.542 99.348C297.156 99.2466 293.756 99.9798 290.714 101.47C287.999 102.796 285.285 105.611 286.322 108.45C286.587 109.168 287.071 109.8 287.227 110.549C287.789 113.31 283.818 114.878 283.07 117.592C282.414 119.971 284.544 122.303 286.868 123.122C289.193 123.933 291.743 123.77 294.153 124.269C294.949 124.433 295.776 124.698 296.322 125.306C297.227 126.297 297.086 127.81 297.234 129.144C297.554 131.921 299.481 134.456 302.078 135.493C304.668 136.538 307.819 136.039 309.972 134.261C311.251 133.2 312.39 133.793 313.185 135.251C313.981 136.718 314.379 138.511 315.728 139.486C316.539 140.079 317.639 140.259 318.599 139.97C320.424 139.424 321.945 137.318 323.747 137.942C324.371 138.161 324.839 138.683 325.385 139.057C326.937 140.134 329.074 139.978 330.813 139.221C332.545 138.472 334.004 137.209 335.54 136.109C336.804 135.204 338.426 134.37 339.838 135.017C340.4 135.275 340.844 135.743 341.398 136.016C343.215 136.905 345.251 135.431 346.725 134.058C347.732 133.13 350.04 133.41 350.976 134.417C351.905 135.423 352.591 136.718 353.792 137.373C355.898 138.519 358.449 137.209 360.493 135.945C362.536 134.682 365.141 133.434 367.193 134.674C368.643 135.555 369.197 137.365 370.32 138.644C372.068 140.633 375.351 141.039 377.535 139.533C378.51 138.862 379.251 137.887 380.203 137.17C382.239 135.641 387.87 135.86 390 137.256V62.4854C388.393 62.1188 384.883 61.2296 383.393 61.9394Z" fill="#378D74"/>
<path d="M335.423 75.0745C335.642 76.7983 336.211 78.5377 335.86 80.2381C335.322 82.8042 332.857 84.4812 330.439 85.4952C328.021 86.5092 325.369 87.1722 323.411 88.9116C322.592 89.6448 321.89 90.6276 321.89 91.7274C321.89 93.2016 323.115 94.395 323.388 95.8457C323.692 97.4525 322.733 99.0905 321.407 100.05C320.081 101.002 318.443 101.407 316.844 101.735C311.204 102.897 305.323 103.451 300.159 105.993C299.606 106.266 299.021 106.61 298.826 107.195C298.506 108.177 299.496 109.098 300.464 109.464C301.431 109.831 302.562 109.995 303.209 110.798C302.679 112.062 301.423 112.834 300.471 113.817C299.52 114.8 298.849 116.422 299.707 117.491C300.315 118.247 301.407 118.372 302.211 118.91C303.607 119.838 303.864 121.796 303.646 123.458C303.428 125.119 302.85 126.773 303.1 128.434C303.162 128.855 303.295 129.3 303.607 129.588C303.919 129.877 304.364 129.978 304.793 129.986C306.618 130.002 308.03 128.504 309.488 127.397C310.939 126.289 313.24 125.603 314.426 126.991C314.94 127.599 315.073 128.426 315.26 129.206C315.541 130.392 316.032 131.593 316.984 132.365C317.928 133.137 319.418 133.34 320.354 132.56C321.102 131.936 321.336 130.891 321.929 130.127C322.748 129.066 324.293 128.645 325.533 129.136C326.96 129.705 328.13 131.336 329.612 130.946C331.281 130.509 331.242 128.184 331.297 126.453C331.375 124.121 332.358 121.827 333.996 120.158C334.206 119.94 334.448 119.729 334.737 119.643C335.447 119.448 336.086 120.08 336.624 120.579C338.379 122.194 340.93 122.904 343.27 122.42C343.886 120.283 343.2 117.826 341.562 116.321C342.607 115.821 342.131 114.113 341.125 113.544C340.119 112.974 338.871 113.006 337.826 112.506C336.648 111.945 335.837 110.673 335.829 109.363C335.813 107.764 336.905 106.337 338.208 105.401C339.51 104.465 341.031 103.895 342.435 103.131C344.627 101.938 346.538 100.237 347.989 98.2091C349.354 96.2981 350.298 93.7008 349.143 91.6572C348.707 90.885 348.005 90.2532 347.81 89.3874C347.451 87.7728 349.05 86.283 348.956 84.6372C348.808 81.915 345.29 81.447 343.871 79.6531C342.186 77.5237 343.769 75.2227 343.504 72.7813C342.911 67.3369 334.729 69.6145 335.423 75.0745Z" fill="url(#paint33_linear_14_453)"/>
<path d="M390 106.383C388.697 104.262 386.326 102.616 383.861 102.952C380.694 103.381 378.362 105.993 376.085 108.232C373.807 110.471 370.749 112.616 367.668 111.789C364.525 110.946 362.302 107.195 359.073 107.6C357.583 107.787 356.382 108.856 355.142 109.698C352.669 111.383 349.689 112.319 346.702 112.343C345.672 112.35 344.565 112.226 343.8 111.539C342.233 110.127 343.254 107.304 345.103 106.29C346.952 105.268 349.19 105.424 351.296 105.315C353.402 105.206 355.766 104.644 356.819 102.811C358.113 100.573 356.787 97.7723 355.36 95.6196C353.933 93.4668 352.295 90.9786 353.036 88.506C353.153 88.116 353.355 87.7182 353.714 87.5388C354.128 87.336 354.619 87.4608 355.056 87.6168C357.77 88.5918 360.087 90.4014 362.466 92.0238C364.845 93.6462 367.458 95.1516 370.336 95.3778C373.214 95.5962 376.397 94.1844 377.387 91.4778C377.785 90.3858 377.855 89.0832 378.713 88.2954C380.265 86.868 382.707 88.2954 384.243 89.7384C385.78 91.1814 388.338 92.3904 390.015 91.1034V69.9655C385.273 68.8891 378.877 72.8515 375.796 76.6111C374.384 78.3271 373.074 80.1913 371.233 81.4393C369.392 82.6873 366.826 83.1786 364.97 81.9541C362.364 80.2381 361.717 75.6985 358.597 75.5191C355.602 75.3475 353.246 79.7623 350.508 78.5455C348.418 77.6173 348.917 74.3413 350.555 72.7501C352.193 71.1589 354.525 70.3711 355.992 68.6161C356.257 67.4072 354.97 66.4478 353.8 66.05C352.63 65.66 351.242 65.3558 350.672 64.2638C350.313 63.5774 350.384 62.7584 350.446 61.9862C350.571 60.3872 350.571 58.7024 349.814 57.2906C349.058 55.8788 347.318 54.8726 345.828 55.4576C344.112 56.1284 343.644 58.3592 343.824 60.1922C344.003 62.0252 344.549 63.944 343.886 65.66C341.967 67.0016 339.401 66.6818 337.092 67.0952C334.791 67.5008 332.272 69.5911 333.146 71.7673C333.785 73.3663 335.774 73.8031 337.373 74.4505C338.972 75.0979 340.556 76.9777 339.518 78.3583C339.245 78.7171 338.847 78.9511 338.528 79.2631C337.155 80.5969 337.631 82.9992 338.871 84.4578C340.111 85.9164 341.889 86.7822 343.371 87.999C344.853 89.208 346.109 91.08 345.633 92.9364C345.142 94.8318 343.013 95.877 341.055 95.9082C339.097 95.9394 337.217 95.2374 335.306 94.824C332.522 94.2312 329.604 94.2702 326.835 94.941C327.514 97.4135 329.308 99.3947 330.626 101.594C331.937 103.794 332.748 106.688 331.367 108.848C326.804 108.567 322.241 108.279 317.678 107.998C315.978 107.889 313.685 108.24 313.49 109.932C313.131 113.052 320.003 112.343 320.143 115.478C320.26 118.107 315.112 119.113 315.986 121.593C317.639 122.974 320.127 121.991 322.023 120.977C324.675 119.558 327.327 118.13 329.979 116.711C330.182 119.277 330.416 121.952 331.749 124.16C333.083 126.367 335.86 127.927 338.27 127.007C340.556 126.133 341.85 123.372 344.245 122.873C348.972 121.89 351.671 130.251 356.429 129.425C358.191 129.12 359.432 127.592 360.758 126.383C362.084 125.174 364.057 124.175 365.594 125.103C366.873 125.868 367.154 127.553 367.817 128.886C368.48 130.22 370.391 131.304 371.35 130.166C371.576 129.9 371.693 129.557 371.81 129.222C372.996 125.805 374.735 122.576 376.943 119.706C377.426 119.082 377.964 118.442 378.705 118.161C380.141 117.615 381.669 118.575 383.19 118.754C384.711 118.941 386.568 117.147 385.413 116.133C384.688 115.034 384.376 113.255 390.023 114.417C389.735 111.524 389.727 109.262 390 106.383Z" fill="url(#paint34_linear_14_453)"/>
<path d="M350.228 149.954C350.048 150.968 349.9 151.99 349.697 152.996C349.26 155.164 348.675 157.419 347.498 159.298C347.607 157.239 346.967 154.977 347.076 152.918C347.186 150.773 347.303 148.605 347.895 146.538C348.418 144.72 349.299 143.028 349.9 141.241C351.039 137.887 351.359 133.902 350.501 130.47C350.29 133.293 349.791 136.093 349.003 138.808C347.708 143.285 345.618 147.653 345.618 152.31C345.618 154.977 345.259 159.681 344.947 162.325C344.51 166.03 342.966 167.597 342.74 171.295C342.724 162.138 342.841 153.261 341.679 144.182C341.445 142.349 340.056 134.565 343.122 131.016C346.226 127.428 341.523 121.586 342.404 116.921C343.091 113.255 345.103 113.45 345.953 109.815C346.624 106.945 346.257 103.95 346.133 101.009C345.953 96.501 346.234 92.9286 347.24 88.5294C344.557 91.2204 344.362 95.4714 344.682 99.2543C344.994 103.037 345.626 107.031 344.073 110.502C343.223 112.397 341.765 114.004 341.109 115.97C339.822 119.815 341.85 123.996 341.507 128.036C341.336 130.033 340.587 131.936 340.189 133.909C339.401 137.841 339.261 141.366 339.737 145.344C341.125 156.888 341.866 169.126 340.392 180.655C340.056 183.26 339.651 185.865 339.721 188.494C339.776 190.561 340.119 192.604 340.423 194.648C342.155 206.355 342.443 218.274 341.375 230.067L344.58 230.044C344.627 223.648 344.666 217.689 344.713 211.293C344.729 208.797 344.744 206.301 344.448 203.828C344.198 201.722 343.722 199.655 343.34 197.565C341.133 185.389 342.443 172.301 348.683 161.623C349.299 160.57 349.962 159.532 350.313 158.37C350.586 157.465 350.657 156.522 350.789 155.586C351.39 151.132 351.678 145.57 356.109 143.379C353.379 143.8 350.875 146.327 350.228 149.954Z" fill="#6E604A"/>
<path d="M354.057 122.217C352.412 121.414 351.039 119.971 349.167 119.885C346.382 119.753 344.682 122.615 342.116 123.575C341.242 123.902 340.212 124.035 339.581 124.659C338.457 125.766 339.339 127.568 340.54 128.621C341.741 129.666 343.309 130.571 343.707 132.022C341.086 131.796 339.214 135.196 341.016 136.897C339.666 136.951 338.208 137.045 337.163 137.802C336.11 138.558 335.837 140.243 336.983 140.883C337.896 141.39 339.261 141.031 340.033 141.686C341.39 142.84 339.214 145.266 340.579 146.413C341.546 147.224 343.2 146.421 344.432 146.857C346.78 147.684 346.016 152.099 348.543 151.974C349.721 151.912 350.399 150.703 351.515 150.367C352.934 149.938 354.299 151.046 355.407 151.943C356.514 152.848 358.316 153.62 359.385 152.684C359.79 152.333 359.954 151.81 360.282 151.405C361.241 150.211 363.277 150.25 364.814 150.781C366.35 151.311 367.762 152.208 369.4 152.38C369.782 152.419 370.188 152.411 370.515 152.232C371.311 151.779 371.061 150.718 371.327 149.915C371.951 148.012 374.993 148.144 377.169 148.573C379.345 149.002 382.512 148.683 382.613 146.709C382.683 145.43 381.225 144.377 381.334 143.098C381.552 140.61 386.747 140.898 387.434 138.472C388.221 135.696 382.184 134.627 382.27 131.765C382.309 130.392 383.83 128.98 382.98 127.826C382.044 126.57 379.727 127.537 378.206 126.882C376.178 126.008 376.467 122.724 374.275 122.256C372.356 121.843 370.625 124.183 368.753 123.637C367.59 123.294 367.177 122.054 366.374 121.235C364.463 119.269 362.396 120.634 360.57 121.562C358.355 122.701 356.842 123.567 354.057 122.217Z" fill="#429B7D"/>
<path d="M348.675 134.916C349.986 136.421 351.429 138.449 350.508 140.22C349.877 141.429 348.402 141.881 347.365 142.762C346.328 143.644 346.016 145.734 347.342 146.07C347.778 146.179 348.239 146.031 348.644 145.851C349.853 145.313 350.883 144.439 352.068 143.854C353.254 143.269 354.736 142.996 355.859 143.691C357.021 144.4 357.427 145.867 358.246 146.959C359.829 149.073 363.238 149.486 365.289 147.825C366.296 147.006 366.935 145.836 367.778 144.845C370.734 141.351 375.702 140.5 379.743 138.348C380.047 138.184 380.359 138.005 380.562 137.716C381.209 136.772 380.18 135.532 379.119 135.103C378.058 134.674 376.771 134.471 376.163 133.496C375.445 132.342 376.124 130.836 375.913 129.495C375.64 127.81 373.698 126.617 372.075 127.139C369.86 127.849 368.526 131.055 366.249 130.548C364.416 130.142 364.057 127.716 362.879 126.25C361.538 124.589 358.792 124.425 357.154 125.743C355.493 127.077 355.89 129.643 353.457 129.581C351.639 129.534 350.399 127.74 348.379 128.676C345.493 130.002 347.154 133.169 348.675 134.916Z" fill="url(#paint35_linear_14_453)"/>
<path d="M342.693 114.636C343.052 113.013 346.608 110.946 348.106 110.268C349.604 109.589 351.164 108.669 351.741 107.132C352.115 106.134 352.014 105.018 351.803 103.973C351.577 102.866 351.249 101.665 351.749 100.651C352.029 100.081 352.529 99.6677 353.028 99.2777C354.408 98.2169 355.89 97.2731 357.443 96.4854C356.577 97.3199 355.875 97.8347 355.009 98.6693C354.455 99.1997 353.238 99.6677 352.872 100.339C351.483 102.866 353.745 105.83 352.232 108.287C351.405 109.62 349.892 110.143 348.426 110.705C346.78 111.329 344.339 114.004 342.693 114.636Z" fill="#6E604A"/>
<path d="M335.517 99.4103C336.648 100.674 339.074 100.534 340.509 100.768C340.993 100.846 341.492 100.9 341.952 101.064C342.943 101.431 343.676 102.296 344.191 103.217C344.939 104.551 345.602 106.282 345.618 107.819C345.766 109.652 345.142 109.277 344.978 108.388C344.659 106.68 342.693 102.296 341.819 101.75C340.938 101.204 338.894 101.337 337.834 101.228C336.781 101.111 335.689 100.76 334.994 99.9563C334.441 99.3167 332.366 94.7928 331.648 93.303C332.288 93.6306 335.275 99.1373 335.517 99.4103Z" fill="#6E604A"/>
<path d="M344.542 227.4C343.309 227.423 342.131 227.852 340.938 228.133C337.171 229.022 333.239 228.484 329.371 228.655C325.51 228.827 324.106 229.794 321.937 233H353.309C351.593 230.028 347.974 227.337 344.542 227.4Z" fill="#B5AB99"/>
<path d="M348.582 230.262C348.231 229.981 347.841 229.701 347.396 229.693C346.796 229.685 346.234 230.176 345.649 230.02C345.025 229.857 344.815 229.069 344.315 228.648C343.504 227.953 342.248 228.453 341.383 229.077C340.517 229.701 339.557 230.473 338.512 230.247C338.177 230.176 337.88 230.005 337.553 229.896C336.96 229.701 336.328 229.732 335.712 229.802C334.651 229.919 333.606 230.153 332.6 230.488C331.781 230.761 330.853 231.097 330.104 230.668C329.909 230.559 329.737 230.403 329.527 230.332C329.23 230.231 328.91 230.293 328.622 230.403C325.549 231.479 323.645 230.325 322.382 233L351.265 232.969C350.477 231.97 349.573 231.058 348.582 230.262Z" fill="#A59C8B"/>
<path d="M21.5749 174.36C20.8027 174.805 19.8589 175.07 19.0867 175.53C15.7795 177.511 16.9417 181.076 18.6733 183.611C19.2193 184.406 19.5859 185.561 18.9307 186.263C18.6889 186.52 18.3535 186.661 18.0571 186.856C16.6219 187.807 15.3895 190.17 16.6765 191.598C16.9183 191.871 17.2381 192.081 17.4019 192.409C17.8933 193.361 16.8637 194.367 16.6531 195.412C16.3645 196.816 18.0103 198.204 19.3441 197.69C19.9993 197.432 20.5141 196.847 21.2083 196.707C22.8697 196.379 23.8447 198.688 25.4749 199.14C27.4249 199.671 29.0005 197.393 30.9817 196.995C32.7367 196.644 34.3903 197.814 35.9191 198.758C37.4479 199.702 39.5149 200.427 40.9267 199.32C42.3619 198.189 42.6193 195.482 44.4445 195.373C45.1933 195.326 45.8719 195.81 46.6207 195.896C48.0481 196.059 49.2961 194.648 49.3819 193.22C49.4677 191.785 48.6877 190.436 47.7205 189.367C47.0497 188.618 46.2307 187.877 46.0981 186.879C45.9889 186.068 46.3789 185.272 46.7377 184.539C47.2213 183.541 47.6737 182.495 47.7361 181.388C47.7985 180.28 47.3851 179.079 46.4569 178.478C46.0747 178.229 45.6067 178.081 45.2869 177.753C44.1403 176.583 45.6301 174.376 44.6941 173.034C43.7893 171.739 41.6443 172.472 40.2949 171.646C39.2185 170.983 38.9845 169.555 38.4541 168.409C37.5883 166.521 35.2015 165.148 33.3997 166.17C32.6743 166.583 32.1283 167.324 31.3327 167.551C30.2797 167.847 29.2345 167.176 28.2205 166.771C26.2705 165.991 23.5171 166.56 22.9321 168.58C22.4875 170.117 23.4625 171.911 22.6903 173.315C22.4251 173.775 22.0273 174.103 21.5749 174.36Z" fill="#378D74"/>
<path d="M24.9366 175.179C24.9756 176.388 25.7088 177.581 25.3422 178.736C24.9132 180.101 23.2362 180.577 22.2378 181.598C21.9648 181.871 21.7308 182.23 21.7464 182.612C21.762 182.901 21.9102 183.166 22.0662 183.408C22.854 184.664 23.8602 186.138 23.2752 187.511C22.932 188.299 22.1442 188.79 21.5592 189.422C20.9742 190.054 20.6076 191.114 21.2082 191.731C21.4968 192.027 21.9258 192.128 22.3314 192.136C23.595 192.175 24.7572 191.489 25.9506 191.075C27.144 190.662 28.6806 190.6 29.4684 191.59C29.601 191.762 29.7336 191.964 29.9442 191.996C30.1236 192.027 30.303 191.91 30.4434 191.785C31.629 190.771 32.097 189.008 31.5822 187.542C31.3638 186.934 30.9894 186.325 31.1064 185.693C31.2234 185.03 31.8552 184.57 32.4948 184.36C33.1344 184.149 33.8208 184.11 34.4604 183.899C35.4354 183.58 36.3012 182.815 36.5508 181.817C36.8004 180.818 36.3168 179.641 35.3652 179.251C34.866 179.048 34.2732 179.056 33.8364 178.744C32.4012 177.722 34.086 174.789 32.5572 173.908C31.8786 173.518 31.0206 173.884 30.3732 174.329C30.1938 174.446 30.0144 174.578 29.8038 174.602C28.6182 174.734 28.8054 172.301 27.5184 172.082C26.0754 171.841 24.9054 174.032 24.9366 175.179Z" fill="url(#paint36_linear_14_453)"/>
<path d="M38.0875 183.4C37.2841 184.367 37.9549 185.881 37.5181 187.066C36.7693 189.102 33.3139 189.086 32.7055 191.169C32.4247 192.136 33.0331 193.283 34.0003 193.587C35.1781 193.954 36.4729 193.174 37.6663 193.478C38.4619 193.681 39.0625 194.336 39.7723 194.749C40.7239 195.311 41.9095 195.443 42.9625 195.108C43.6723 194.882 44.3587 194.367 44.4913 193.642C44.6629 192.659 43.7893 191.848 43.2121 191.036C42.4711 190.007 43.7269 189.141 43.9921 188.104C44.2183 187.191 44.1559 186.349 43.6645 185.545C42.7831 184.157 39.5383 181.637 38.0875 183.4Z" fill="url(#paint37_linear_14_453)"/>
<path d="M35.4588 189.484C33.735 190.888 32.253 192.916 31.2312 195.038C30.6696 191.941 29.8038 188.938 28.3998 186.349C28.236 186.052 27.6666 186.161 27.7134 186.536C28.119 189.539 29.1018 192.456 29.6556 195.443C30.342 199.133 30.6618 202.853 30.7398 206.597C30.7632 207.611 32.2062 207.51 32.2296 206.589C32.2374 206.589 32.253 206.597 32.2608 206.597C32.175 203.43 32.0034 199.952 31.4886 196.535C32.0502 195.513 32.5884 194.476 33.2202 193.485C34.0392 192.214 34.9518 191.005 35.7396 189.71C35.8566 189.523 35.6148 189.367 35.4588 189.484Z" fill="#6E604A"/>
<path d="M329.254 233C329.254 233 349.183 180.857 350.282 175.569C350.282 175.569 329.62 227.915 328.637 233H329.254Z" fill="#1B3D28"/>
<path d="M334.464 233C334.464 233 332.498 191.372 333.216 187.144C333.216 187.144 335.845 228.936 335.072 233H334.464Z" fill="#265739"/>
<path d="M353.746 195.747C353.746 195.747 344.557 221.659 344.292 233H345.883C345.883 233 345.517 230.083 353.746 195.747Z" fill="#53A36E"/>
<path d="M363.378 207.853C363.378 207.853 352.934 225.348 352.115 233H353.706C353.706 233 353.48 231.027 363.378 207.853Z" fill="#53A36E"/>
<path d="M329.129 178.712C329.129 178.712 340.563 225.013 344.861 233H345.47C345.47 233 333.512 188.517 329.129 178.712Z" fill="#53A36E"/>
<path d="M324.87 193.072C324.847 198.415 338.169 233.008 338.169 233.008H339.347C338.294 230.418 324.87 193.072 324.87 193.072Z" fill="#47A269"/>
<path d="M356.6 229.35C357.146 229.365 357.669 229.646 358.199 229.825C359.868 230.41 361.608 230.052 363.324 230.161C365.032 230.27 365.656 230.902 366.615 232.992H352.724C353.48 231.058 355.079 229.303 356.6 229.35Z" fill="#B5AB99"/>
<path d="M354.806 231.214C354.962 231.034 355.134 230.847 355.329 230.847C355.594 230.839 355.844 231.159 356.101 231.058C356.382 230.949 356.468 230.434 356.694 230.161C357.053 229.708 357.606 230.036 357.989 230.442C358.371 230.847 358.8 231.354 359.26 231.206C359.408 231.159 359.541 231.05 359.681 230.98C359.939 230.855 360.227 230.871 360.5 230.917C360.968 230.995 361.428 231.144 361.881 231.362C362.24 231.541 362.653 231.76 362.988 231.479C363.074 231.409 363.152 231.307 363.246 231.261C363.378 231.198 363.519 231.237 363.651 231.307C365.016 232.009 365.859 231.253 366.413 233L353.621 232.977C353.972 232.329 354.369 231.736 354.806 231.214Z" fill="#A59C8B"/>
<path d="M164.797 106.655C182.873 99.4041 191.648 78.8734 184.397 60.7981C177.146 42.7229 156.615 33.9479 138.54 41.1986C120.464 48.4494 111.689 68.9801 118.94 87.0554C126.191 105.131 146.722 113.906 164.797 106.655Z" fill="#FFD080"/>
<path d="M151.671 98.6773C166.287 98.6773 178.136 86.8284 178.136 72.212C178.136 57.5957 166.287 45.7468 151.671 45.7468C137.055 45.7468 125.206 57.5957 125.206 72.212C125.206 86.8284 137.055 98.6773 151.671 98.6773Z" fill="url(#paint38_linear_14_453)"/>
<path d="M137.896 56.7134C137.249 55.6604 138.076 54.3032 139.643 53.8508C141.211 53.3984 143.692 53.0942 144.386 54.1316C143.364 52.5092 145.665 50.4267 148.278 50.6061C150.064 50.7309 151.429 51.5577 152.662 52.4391C152.014 49.8105 153.504 43.8513 159.276 43.3443C168.753 42.5019 174.439 49.2723 173.878 53.5388C174.322 52.166 175.445 50.4423 177.52 50.6061C178.378 50.6763 179.088 51.0819 179.657 51.5109C180.905 52.4624 182.458 53.6714 182.809 54.9194C184.088 53.6714 186.412 52.946 188.659 53.0786C190.905 53.2112 191.888 54.8726 192.824 56.2532C204.368 57.3842 216.044 57.8912 228.602 57.8132C229.421 59.1158 219.071 58.952 213.611 58.7336C197.792 58.094 112.913 58.7336 113.942 57.3842C113.942 56.5106 127.015 57.392 137.896 56.7134Z" fill="#F7FAF3"/>
<rect width="390" height="233" fill="white" fill-opacity="0.4"/>
</g>
<defs>
<linearGradient id="paint0_linear_14_453" x1="-66.0546" y1="-64.1088" x2="140.11" y2="59.1483" gradientUnits="userSpaceOnUse">
<stop offset="0.3624" stop-color="white" stop-opacity="0"/>
<stop offset="1" stop-color="white"/>
</linearGradient>
<linearGradient id="paint1_linear_14_453" x1="-73.1451" y1="27.8861" x2="129.647" y2="27.8861" gradientUnits="userSpaceOnUse">
<stop offset="0.3624" stop-color="white" stop-opacity="0"/>
<stop offset="1" stop-color="white"/>
</linearGradient>
<linearGradient id="paint2_linear_14_453" x1="331.102" y1="-65.4513" x2="138.348" y2="85.4215" gradientUnits="userSpaceOnUse">
<stop offset="0.3624" stop-color="white" stop-opacity="0"/>
<stop offset="1" stop-color="white"/>
</linearGradient>
<linearGradient id="paint3_linear_14_453" x1="-73.1451" y1="61.8314" x2="125.942" y2="61.8314" gradientUnits="userSpaceOnUse">
<stop offset="0.3624" stop-color="white" stop-opacity="0"/>
<stop offset="1" stop-color="white"/>
</linearGradient>
<linearGradient id="paint4_linear_14_453" x1="48.212" y1="-70.6768" x2="136.886" y2="45.406" gradientUnits="userSpaceOnUse">
<stop offset="0.3624" stop-color="white" stop-opacity="0"/>
<stop offset="1" stop-color="white"/>
</linearGradient>
<linearGradient id="paint5_linear_14_453" x1="-73.1451" y1="138.868" x2="132.947" y2="138.868" gradientUnits="userSpaceOnUse">
<stop offset="0.3624" stop-color="white" stop-opacity="0"/>
<stop offset="1" stop-color="white"/>
</linearGradient>
<linearGradient id="paint6_linear_14_453" x1="-56.6017" y1="174.306" x2="122.543" y2="194.679" gradientUnits="userSpaceOnUse">
<stop offset="0.3624" stop-color="white" stop-opacity="0"/>
<stop offset="1" stop-color="white"/>
</linearGradient>
<linearGradient id="paint7_linear_14_453" x1="0.323178" y1="210.838" x2="140.31" y2="210.838" gradientUnits="userSpaceOnUse">
<stop offset="0.3624" stop-color="white" stop-opacity="0"/>
<stop offset="1" stop-color="white"/>
</linearGradient>
<linearGradient id="paint8_linear_14_453" x1="-73.1451" y1="100.933" x2="140.31" y2="100.933" gradientUnits="userSpaceOnUse">
<stop offset="0.3624" stop-color="white" stop-opacity="0"/>
<stop offset="1" stop-color="white"/>
</linearGradient>
<linearGradient id="paint9_linear_14_453" x1="324.881" y1="92.8873" x2="140.978" y2="52.9241" gradientUnits="userSpaceOnUse">
<stop offset="0.3624" stop-color="white" stop-opacity="0"/>
<stop offset="1" stop-color="white"/>
</linearGradient>
<linearGradient id="paint10_linear_14_453" x1="334.806" y1="145.03" x2="145.296" y2="58.641" gradientUnits="userSpaceOnUse">
<stop offset="0.3624" stop-color="white" stop-opacity="0"/>
<stop offset="1" stop-color="white"/>
</linearGradient>
<linearGradient id="paint11_linear_14_453" x1="119.429" y1="-65.8967" x2="144.087" y2="41.4999" gradientUnits="userSpaceOnUse">
<stop offset="0.3624" stop-color="white" stop-opacity="0"/>
<stop offset="1" stop-color="white"/>
</linearGradient>
<linearGradient id="paint12_linear_14_453" x1="191.792" y1="-82.5335" x2="144.084" y2="87.5353" gradientUnits="userSpaceOnUse">
<stop offset="0.3624" stop-color="white" stop-opacity="0"/>
<stop offset="1" stop-color="white"/>
</linearGradient>
<linearGradient id="paint13_linear_14_453" x1="247.307" y1="-70.0596" x2="149.707" y2="68.346" gradientUnits="userSpaceOnUse">
<stop offset="0.3624" stop-color="white" stop-opacity="0"/>
<stop offset="1" stop-color="white"/>
</linearGradient>
<linearGradient id="paint14_linear_14_453" x1="328.441" y1="2.11605" x2="141.694" y2="83.5664" gradientUnits="userSpaceOnUse">
<stop offset="0.3624" stop-color="white" stop-opacity="0"/>
<stop offset="1" stop-color="white"/>
</linearGradient>
<linearGradient id="paint15_linear_14_453" x1="199.581" y1="296.968" x2="124.1" y2="78.737" gradientUnits="userSpaceOnUse">
<stop offset="0.3624" stop-color="white" stop-opacity="0"/>
<stop offset="1" stop-color="white"/>
</linearGradient>
<linearGradient id="paint16_linear_14_453" x1="338.772" y1="262.037" x2="126.104" y2="56.9622" gradientUnits="userSpaceOnUse">
<stop offset="0.3624" stop-color="white" stop-opacity="0"/>
<stop offset="1" stop-color="white"/>
</linearGradient>
<linearGradient id="paint17_linear_14_453" x1="271.433" y1="331.369" x2="121.429" y2="81.9046" gradientUnits="userSpaceOnUse">
<stop offset="0.3624" stop-color="white" stop-opacity="0"/>
<stop offset="1" stop-color="white"/>
</linearGradient>
<linearGradient id="paint18_linear_14_453" x1="126.703" y1="283.12" x2="96.6576" y2="76.4074" gradientUnits="userSpaceOnUse">
<stop offset="0.3624" stop-color="white" stop-opacity="0"/>
<stop offset="1" stop-color="white"/>
</linearGradient>
<linearGradient id="paint19_linear_14_453" x1="266.184" y1="152.101" x2="266.184" y2="175.551" gradientUnits="userSpaceOnUse">
<stop offset="0.00802139" stop-color="#62B48E"/>
<stop offset="1" stop-color="#88D180" stop-opacity="0"/>
</linearGradient>
<linearGradient id="paint20_linear_14_453" x1="1.24994e-05" y1="153.271" x2="182.38" y2="153.271" gradientUnits="userSpaceOnUse">
<stop offset="0.00802139" stop-color="#62B48E"/>
<stop offset="1" stop-color="#88D180" stop-opacity="0"/>
</linearGradient>
<linearGradient id="paint21_linear_14_453" x1="86.9704" y1="167.283" x2="92.2932" y2="153.474" gradientUnits="userSpaceOnUse">
<stop offset="0.0241" stop-color="#3B967B"/>
<stop offset="0.9893" stop-color="#378D74" stop-opacity="0"/>
</linearGradient>
<linearGradient id="paint22_linear_14_453" x1="93.6939" y1="159.982" x2="95.1596" y2="169.933" gradientUnits="userSpaceOnUse">
<stop offset="0.0241" stop-color="#3B967B"/>
<stop offset="0.9893" stop-color="#378D74" stop-opacity="0"/>
</linearGradient>
<linearGradient id="paint23_linear_14_453" x1="297.929" y1="162.016" x2="305.19" y2="143.179" gradientUnits="userSpaceOnUse">
<stop offset="0.0241" stop-color="#3B967B"/>
<stop offset="0.9893" stop-color="#378D74" stop-opacity="0"/>
</linearGradient>
<linearGradient id="paint24_linear_14_453" x1="307.101" y1="152.056" x2="309.1" y2="165.632" gradientUnits="userSpaceOnUse">
<stop offset="0.0241" stop-color="#3B967B"/>
<stop offset="0.9893" stop-color="#378D74" stop-opacity="0"/>
</linearGradient>
<linearGradient id="paint25_linear_14_453" x1="100.25" y1="166.99" x2="110.349" y2="166.99" gradientUnits="userSpaceOnUse">
<stop offset="0.0241" stop-color="#378D74"/>
<stop offset="0.9893" stop-color="#429B7D" stop-opacity="0"/>
</linearGradient>
<linearGradient id="paint26_linear_14_453" x1="218.932" y1="164.305" x2="231.122" y2="164.305" gradientUnits="userSpaceOnUse">
<stop offset="0.0241" stop-color="#378D74"/>
<stop offset="0.9893" stop-color="#429B7D" stop-opacity="0"/>
</linearGradient>
<linearGradient id="paint27_linear_14_453" x1="315.547" y1="160.596" x2="327.736" y2="160.596" gradientUnits="userSpaceOnUse">
<stop offset="0.0241" stop-color="#378D74"/>
<stop offset="0.9893" stop-color="#429B7D" stop-opacity="0"/>
</linearGradient>
<linearGradient id="paint28_linear_14_453" x1="346.781" y1="197.197" x2="-15.6523" y2="197.197" gradientUnits="userSpaceOnUse">
<stop stop-color="#459A5F"/>
<stop offset="0.9947" stop-color="#73BE7B" stop-opacity="0"/>
</linearGradient>
<linearGradient id="paint29_linear_14_453" x1="148.472" y1="209.092" x2="31.718" y2="209.092" gradientUnits="userSpaceOnUse">
<stop stop-color="#CBA990"/>
<stop offset="0.9947" stop-color="#F7D2A8" stop-opacity="0"/>
</linearGradient>
<linearGradient id="paint30_linear_14_453" x1="71.6188" y1="218.59" x2="49.468" y2="196.439" gradientUnits="userSpaceOnUse">
<stop stop-color="#CBA990"/>
<stop offset="0.9947" stop-color="#F7D2A8" stop-opacity="0"/>
</linearGradient>
<linearGradient id="paint31_linear_14_453" x1="46.6227" y1="195.499" x2="62.4486" y2="195.499" gradientUnits="userSpaceOnUse">
<stop offset="0.0241" stop-color="#378D74"/>
<stop offset="0.9893" stop-color="#429B7D" stop-opacity="0"/>
</linearGradient>
<linearGradient id="paint32_linear_14_453" x1="224.289" y1="275.117" x2="224.289" y2="148.332" gradientUnits="userSpaceOnUse">
<stop stop-color="#A7EB8C"/>
<stop offset="1" stop-color="#88D180" stop-opacity="0"/>
</linearGradient>
<linearGradient id="paint33_linear_14_453" x1="298.771" y1="101.349" x2="349.655" y2="101.349" gradientUnits="userSpaceOnUse">
<stop offset="0.0241" stop-color="#3B967B"/>
<stop offset="0.9893" stop-color="#378D74" stop-opacity="0"/>
</linearGradient>
<linearGradient id="paint34_linear_14_453" x1="351.729" y1="135.644" x2="351.729" y2="28.2606" gradientUnits="userSpaceOnUse">
<stop offset="0.0241" stop-color="#3B967B"/>
<stop offset="0.9893" stop-color="#378D74" stop-opacity="0"/>
</linearGradient>
<linearGradient id="paint35_linear_14_453" x1="383.163" y1="112.914" x2="348.14" y2="150.56" gradientUnits="userSpaceOnUse">
<stop offset="0.0241" stop-color="#378D74"/>
<stop offset="0.9893" stop-color="#429B7D" stop-opacity="0"/>
</linearGradient>
<linearGradient id="paint36_linear_14_453" x1="25.4789" y1="191.632" x2="34.5029" y2="168.222" gradientUnits="userSpaceOnUse">
<stop offset="0.0241" stop-color="#3B967B"/>
<stop offset="0.9893" stop-color="#378D74" stop-opacity="0"/>
</linearGradient>
<linearGradient id="paint37_linear_14_453" x1="36.8776" y1="179.255" x2="39.3625" y2="196.126" gradientUnits="userSpaceOnUse">
<stop offset="0.0241" stop-color="#3B967B"/>
<stop offset="0.9893" stop-color="#378D74" stop-opacity="0"/>
</linearGradient>
<linearGradient id="paint38_linear_14_453" x1="151.669" y1="107.665" x2="151.669" y2="3.19414" gradientUnits="userSpaceOnUse">
<stop offset="0.3624" stop-color="white" stop-opacity="0"/>
<stop offset="1" stop-color="white"/>
</linearGradient>
<clipPath id="clip0_14_453">
<rect width="390" height="233" fill="white"/>
</clipPath>
</defs>
</svg>
