<svg width="16" height="16" viewBox="0 0 16 16" fill="none" xmlns="http://www.w3.org/2000/svg">
<path d="M11.7332 15.0402H4.26656C3.05323 15.0402 1.94656 14.1069 1.74656 12.9069L0.859896 7.60023C0.719896 6.77357 1.1199 5.71357 1.7799 5.1869L6.39991 1.48687C7.29324 0.76687 8.6999 0.773543 9.5999 1.49354L14.2199 5.1869C14.8732 5.71357 15.2732 6.77357 15.1399 7.60023L14.2532 12.9069C14.0532 14.0869 12.9266 15.0402 11.7332 15.0402ZM7.99324 1.96022C7.6399 1.96022 7.28656 2.06687 7.02656 2.27353L2.40657 5.97357C2.02657 6.28023 1.76657 6.9602 1.84657 7.4402L2.73324 12.7469C2.85324 13.4469 3.55323 14.0402 4.26656 14.0402H11.7332C12.4466 14.0402 13.1466 13.4469 13.2666 12.7402L14.1532 7.43357C14.2332 6.95357 13.9666 6.26689 13.5932 5.96689L8.97324 2.27353C8.70657 2.06687 8.35324 1.96022 7.99324 1.96022Z" fill="#292D32"/>
<path d="M7.99992 10.8333C6.80659 10.8333 5.83325 9.86 5.83325 8.66667C5.83325 7.47333 6.80659 6.5 7.99992 6.5C9.19325 6.5 10.1666 7.47333 10.1666 8.66667C10.1666 9.86 9.19325 10.8333 7.99992 10.8333ZM7.99992 7.5C7.35992 7.5 6.83325 8.02667 6.83325 8.66667C6.83325 9.30667 7.35992 9.83333 7.99992 9.83333C8.63992 9.83333 9.16659 9.30667 9.16659 8.66667C9.16659 8.02667 8.63992 7.5 7.99992 7.5Z" fill="#292D32"/>
</svg>
