<svg width="32" height="32" viewBox="0 0 32 32" fill="none" xmlns="http://www.w3.org/2000/svg">
<rect width="32" height="32" rx="16" fill="#091C2B"/>
<path fill-rule="evenodd" clip-rule="evenodd" d="M12.9121 22.1503L13.1016 22.4852C13.1018 22.4854 13.1019 22.4857 13.102 22.4859C13.2663 22.7782 13.1621 23.1511 12.8715 23.3153L12.1893 23.702C12.189 23.7021 12.1888 23.7022 12.1885 23.7024C11.8962 23.8667 11.5232 23.7625 11.359 23.4717L9.3529 19.927C9.18706 19.6344 9.29131 19.261 9.58229 19.0967L10.2653 18.71L10.2655 18.7099C10.5564 18.5456 10.9295 18.6489 11.0951 18.9397L11.0955 18.9403L11.2485 19.2108L13.027 18.1811C13.5664 17.8691 14.1177 17.6662 14.7102 17.8586C15.2843 18.0447 16.2215 18.446 17.178 18.6189C17.189 18.6209 17.2 18.6236 17.2107 18.6271C17.6983 18.785 17.9946 19.2781 17.8614 19.7732C17.8437 19.84 17.8197 19.9048 17.7896 19.967C17.8863 19.9378 17.981 19.8966 18.0742 19.8423L20.5067 18.4255C21.3902 17.9109 21.9793 17.968 22.3127 18.1916C22.6007 18.3848 22.7343 18.7146 22.7257 19.0385C22.717 19.3657 22.5608 19.6782 22.3042 19.8363L17.8903 22.5538C17.4237 22.8418 16.9127 22.9094 16.3833 22.7682L16.383 22.7681L13.2816 21.9369L12.9121 22.1503ZM11.4957 19.6476L12.6648 21.7134L13.1206 21.4502C13.1492 21.4337 13.1807 21.423 13.2133 21.4187C13.246 21.4144 13.2792 21.4166 13.3111 21.4251L16.5127 22.2832C16.904 22.3875 17.2819 22.3395 17.6267 22.1267L17.6269 22.1266L22.041 19.4088C22.1529 19.3399 22.2104 19.201 22.2221 19.0592C22.2401 18.84 22.1379 18.5976 21.8668 18.5408C21.6106 18.4872 21.2503 18.5733 20.7594 18.8593L18.327 20.2759C17.935 20.5044 17.5242 20.5676 17.0764 20.4963L17.0756 20.4962L16.774 20.4471C16.7704 20.4466 16.7668 20.4459 16.7632 20.4451C16.2141 20.3324 15.7048 20.1666 15.1396 20.0147C15.0059 19.9787 14.9264 19.8409 14.9624 19.7072C14.9984 19.5734 15.1361 19.494 15.2699 19.5299C15.8214 19.6781 16.3185 19.8407 16.8539 19.9513C17.1201 19.9807 17.3154 19.8711 17.3766 19.643L17.3767 19.6429C17.4387 19.4124 17.2941 19.1892 17.0703 19.1095C16.0951 18.9304 15.1407 18.5258 14.5553 18.336L14.5552 18.336C14.1033 18.1892 13.6897 18.3777 13.2783 18.6156L11.4957 19.6476ZM10.6589 19.188C10.6296 19.1367 10.5638 19.118 10.5124 19.147L9.82957 19.5335L9.82938 19.5336C9.77828 19.5625 9.76049 19.6281 9.78957 19.6794L9.78966 19.6796L11.7959 23.2245L11.796 23.2247C11.825 23.276 11.8908 23.2938 11.9424 23.2649L12.624 22.8786L12.6243 22.8784C12.6756 22.8494 12.6934 22.7835 12.6645 22.7319L10.6589 19.188ZM10.4109 19.5563C10.5658 19.5333 10.7095 19.6402 10.7326 19.795C10.7547 19.9498 10.6478 20.0945 10.4929 20.1166C10.3381 20.1397 10.1943 20.0318 10.1713 19.877C10.1492 19.7222 10.2561 19.5784 10.4109 19.5563ZM14.7439 17.3295C14.5255 17.4005 14.2972 17.4366 14.0675 17.4364C12.8625 17.4364 11.8842 16.4581 11.8842 15.253C11.8842 14.5789 12.1903 13.9758 12.671 13.5751C12.6642 13.4677 12.6608 13.3601 12.6608 13.2524C12.6608 10.4748 14.9158 8.21973 17.6934 8.21973C20.471 8.21973 22.7261 10.4748 22.7261 13.2524C22.7261 16.03 20.471 18.285 17.6934 18.285C16.5921 18.285 15.5729 17.9305 14.7439 17.3295ZM13.1627 13.2656C13.4385 13.1398 13.7449 13.0696 14.0675 13.0696C14.5009 13.0696 14.9049 13.1961 15.2447 13.4142C15.5216 12.9671 15.9128 12.4719 16.4202 11.9113C16.2735 11.7936 16.1792 11.6131 16.1792 11.4114C16.1792 11.1482 16.3407 10.9204 16.5701 10.8224L16.309 10.5624C16.0538 10.3092 16.0534 9.89411 16.3087 9.63987C16.5095 9.43974 16.8211 9.39447 17.0711 9.52319C17.1548 9.26051 17.4028 9.06835 17.6936 9.06835C17.9789 9.06835 18.2306 9.25628 18.3159 9.52313C18.5617 9.3961 18.873 9.43516 19.0785 9.63987L19.0789 9.64021C19.3328 9.89427 19.3325 10.309 19.0785 10.562L18.8171 10.8224C19.0464 10.9204 19.208 11.1482 19.208 11.4114C19.208 11.6132 19.1136 11.7938 18.9667 11.9115C19.5346 12.5386 19.9568 13.0837 20.2356 13.5715C21.3373 15.4984 19.7917 17.4685 17.694 17.436C16.9066 17.4483 16.1958 17.1751 15.6756 16.7293C15.5539 16.8618 15.4164 16.9789 15.2662 17.0778C15.968 17.5244 16.8007 17.7831 17.6934 17.7831C20.194 17.7831 22.2241 15.7529 22.2241 13.2524C22.2241 10.7518 20.194 8.72169 17.6934 8.72169C15.1929 8.72169 13.1627 10.7518 13.1627 13.2524V13.2656ZM15.6367 13.7354C16.0169 14.1284 16.2509 14.6636 16.2509 15.253C16.2509 15.6411 16.1495 16.0056 15.9717 16.3215C16.4081 16.7096 17.0159 16.9453 17.6894 16.934H17.6978C19.4027 16.9626 20.6947 15.3858 19.7998 13.8206C19.5066 13.3076 19.0443 12.73 18.4149 12.0524H16.9717C16.3775 12.6927 15.9319 13.2438 15.6367 13.7354ZM17.2298 10.7711H18.1574L18.7243 10.2064C18.7824 10.1484 18.7821 10.0535 18.7239 9.99513C18.6727 9.9445 18.5936 9.93819 18.5351 9.97559L18.535 9.97565C18.4048 10.0588 18.2561 10.0724 18.1131 10.0132C17.9701 9.95397 17.8741 9.83952 17.8411 9.68784C17.8333 9.65449 17.8146 9.62474 17.7878 9.60341C17.761 9.58207 17.7278 9.57041 17.6936 9.57032C17.6217 9.57032 17.5607 9.62073 17.5461 9.68771C17.5135 9.83899 17.4174 9.95384 17.274 10.0132C17.1311 10.0724 16.9824 10.0588 16.8528 9.97606C16.7928 9.93794 16.7131 9.94556 16.6629 9.99548C16.6047 10.0535 16.6043 10.1482 16.6625 10.206L16.6629 10.2064L17.2298 10.7711ZM17.6773 15.2779C17.6839 15.2777 17.6905 15.2778 17.6971 15.278C17.7005 15.278 17.7039 15.278 17.7073 15.2779C17.798 15.2757 17.8966 15.2567 17.9799 15.2162C18.0578 15.1781 18.1243 15.1175 18.1123 15.0167C18.0989 14.9082 18.0221 14.8508 17.9357 14.8118C17.8456 14.7711 17.7432 14.749 17.6475 14.7333C17.2588 14.67 16.8492 14.4691 16.8268 14.0097V14.0095C16.8097 13.6545 17.0272 13.3924 17.3305 13.2735C17.3646 13.2601 17.3995 13.2488 17.4349 13.2395V13.1588C17.4349 13.0203 17.5474 12.9078 17.6859 12.9078C17.8244 12.9078 17.9369 13.0203 17.9369 13.1588V13.2369C18.1893 13.301 18.4195 13.4683 18.5403 13.7554C18.5661 13.8168 18.5665 13.8859 18.5414 13.9475C18.5162 14.0091 18.4677 14.0583 18.4064 14.0841C18.345 14.1099 18.2759 14.1103 18.2143 14.0852C18.1527 14.06 18.1035 14.0115 18.0777 13.9501C18.0074 13.7832 17.8547 13.7105 17.7031 13.7074C17.6933 13.7081 17.6835 13.7082 17.6737 13.7077C17.6181 13.7099 17.5634 13.7214 17.5137 13.7408C17.4093 13.7817 17.3223 13.8631 17.3282 13.9853C17.3328 14.0777 17.3958 14.1282 17.4675 14.1631C17.5478 14.2021 17.6406 14.2236 17.7282 14.2379L17.7283 14.2379C18.1245 14.3026 18.5534 14.488 18.6106 14.956L18.6107 14.9565C18.6647 15.4054 18.3165 15.6734 17.9369 15.754V15.827C17.9369 15.9655 17.8244 16.078 17.6859 16.078C17.5474 16.078 17.4349 15.9655 17.4349 15.827V15.7506C17.1178 15.6759 16.8486 15.4609 16.7637 15.1212C16.7476 15.0567 16.7578 14.9883 16.792 14.9313C16.8262 14.8742 16.8817 14.8331 16.9463 14.8169C17.0807 14.7833 17.2171 14.8652 17.2507 14.9995C17.2986 15.1912 17.4886 15.2742 17.6773 15.2779ZM14.0675 13.5716C13.1395 13.5716 12.3861 14.325 12.3861 15.253C12.3861 16.181 13.1395 16.9345 14.0675 16.9345C14.9955 16.9345 15.749 16.181 15.749 15.253C15.749 14.325 14.9955 13.5716 14.0675 13.5716ZM13.8166 15.504H13.0837C12.9451 15.504 12.8327 15.3915 12.8327 15.253C12.8327 15.1145 12.9451 15.002 13.0837 15.002H13.8166V14.2691C13.8166 14.1306 13.929 14.0182 14.0675 14.0182C14.2061 14.0182 14.3185 14.1306 14.3185 14.2691V15.002H15.0514C15.1899 15.002 15.3024 15.1145 15.3024 15.253C15.3024 15.3915 15.1899 15.504 15.0514 15.504H14.3185V16.2369C14.3185 16.3754 14.2061 16.4879 14.0675 16.4879C13.929 16.4879 13.8166 16.3754 13.8166 16.2369V15.504ZM16.821 11.5505H18.5662C18.643 11.5505 18.7061 11.4882 18.7061 11.4114C18.7061 11.3351 18.6428 11.2731 18.5662 11.2731H16.821C16.7443 11.2731 16.6811 11.3351 16.6811 11.4114C16.6811 11.4882 16.7442 11.5505 16.821 11.5505Z" fill="#B2DCBC"/>
</svg>
