<svg width="390" height="677" viewBox="0 0 390 677" fill="none" xmlns="http://www.w3.org/2000/svg">
<ellipse cx="194.5" cy="470.5" rx="290.5" ry="292.5" fill="#B2DCBC" fill-opacity="0.2"/>
<path d="M357.993 33.3687H115.956V34.6094H357.993V33.3687Z" fill="#E6E6E6"/>
<path d="M323.823 15.2288H150.125C147.388 15.2288 145.162 13.0025 145.162 10.266C145.162 7.52958 147.388 5.30322 150.125 5.30322H323.823C326.56 5.30322 328.786 7.52958 328.786 10.266C328.786 13.0025 326.56 15.2288 323.823 15.2288Z" fill="#E6E6E6"/>
<path d="M116.492 43.2422C122.242 43.2422 126.902 38.5814 126.902 32.832C126.902 27.0827 122.242 22.4219 116.492 22.4219C110.743 22.4219 106.082 27.0827 106.082 32.832C106.082 38.5814 110.743 43.2422 116.492 43.2422Z" fill="#E6E6E6"/>
<path d="M148.524 20.8203C154.273 20.8203 158.934 16.1595 158.934 10.4101C158.934 4.66078 154.273 0 148.524 0C142.775 0 138.114 4.66078 138.114 10.4101C138.114 16.1595 142.775 20.8203 148.524 20.8203Z" fill="#E6E6E6"/>
<path d="M276.314 149.482H34.2764V150.723H276.314V149.482Z" fill="#3F3D56"/>
<path d="M242.144 131.342H68.4452C65.7088 131.342 63.4824 129.116 63.4824 126.379C63.4824 123.643 65.7088 121.417 68.4452 121.417H242.144C244.88 121.417 247.106 123.643 247.106 126.379C247.106 129.116 244.88 131.342 242.144 131.342Z" fill="#B2DCBC"/>
<path d="M32.4101 159.355C38.1595 159.355 42.8203 154.695 42.8203 148.945C42.8203 143.196 38.1595 138.535 32.4101 138.535C26.6608 138.535 22 143.196 22 148.945C22 154.695 26.6608 159.355 32.4101 159.355Z" fill="#B2DCBC"/>
<path d="M64.4419 136.934C70.1912 136.934 74.852 132.273 74.852 126.523C74.852 120.774 70.1912 116.113 64.4419 116.113C58.6925 116.113 54.0317 120.774 54.0317 126.523C54.0317 132.273 58.6925 136.934 64.4419 136.934Z" fill="#B2DCBC"/>
<path d="M305.141 277.606H63.104V278.847H305.141V277.606Z" fill="#E6E6E6"/>
<path d="M270.972 259.467H97.2734C94.5369 259.467 92.3105 257.241 92.3105 254.504C92.3105 251.768 94.5369 249.542 97.2734 249.542H270.972C273.708 249.542 275.934 251.768 275.934 254.504C275.934 257.241 273.708 259.467 270.972 259.467Z" fill="#E6E6E6"/>
<path d="M92.4692 264.258C98.2186 264.258 102.879 259.597 102.879 253.848C102.879 248.098 98.2186 243.438 92.4692 243.438C86.7199 243.438 82.0591 248.098 82.0591 253.848C82.0591 259.597 86.7199 264.258 92.4692 264.258Z" fill="#E6E6E6"/>
<path d="M61.2383 288.281C66.9876 288.281 71.6484 283.62 71.6484 277.871C71.6484 272.122 66.9876 267.461 61.2383 267.461C55.4889 267.461 50.8281 272.122 50.8281 277.871C50.8281 283.62 55.4889 288.281 61.2383 288.281Z" fill="#E6E6E6"/>
<path d="M117.718 137.816C109.692 139.985 104.305 145.885 105.687 150.992C107.068 156.1 114.693 158.48 122.722 156.309C125.941 155.486 128.916 153.904 131.398 151.695L165.289 142.074L160.435 126.266L127.54 137.429C124.282 136.772 120.914 136.904 117.718 137.816Z" fill="#FFB6B6"/>
<path d="M259.738 90.3909C259.738 90.3909 269.306 104.427 247.742 115.015C226.178 125.604 186.316 140.716 186.316 140.716L131.278 153.467L122.967 135.245L188.275 117.452L241.492 87.7524L259.738 90.3909Z" fill="#3F3D56"/>
<path d="M253.336 53.0312C253.091 59.6845 257.881 67.5826 262.945 67.7447C269.038 67.9399 297.838 69.9911 298.764 67.6023C305.192 51.0173 274.918 16.6135 268.094 15.621C264.427 15.0876 260.035 20.3529 258.347 24.6996C255.981 30.7908 259.473 33.6634 257.502 41.8695C255.999 48.1272 253.507 48.3799 253.336 53.0312Z" fill="#2F2E41"/>
<path d="M203.204 315.313L182.99 319.945L203.301 380.212L216.998 377.074L203.204 315.313Z" fill="#FFB6B6"/>
<path d="M195.981 361.418L203.799 362.564L205.004 366.752C205.004 366.752 205.264 361.425 213.899 357.774L216.143 361.523C216.143 361.523 220.766 364.497 222.259 371.869L225.576 391.809L218.788 393.61L213.807 380.51C213.807 380.51 211.067 378.004 206.707 394.952C206.707 394.952 204.942 400.648 188.927 399.988C186.726 399.898 184.789 398.429 184.201 396.306C183.877 395.134 184.02 393.923 185.372 393.111C188.813 391.044 192.815 391.238 194.358 387.566C195.902 383.893 195.981 361.418 195.981 361.418Z" fill="#2F2E41"/>
<path d="M247.118 342.713L229.068 342.267L231.595 405.729L245.645 405.979L247.118 342.713Z" fill="#FFB6B6"/>
<path d="M229.013 385.725L236.325 388.719L236.487 393.074C236.487 393.074 238.022 387.966 247.281 386.501L248.558 390.679C248.558 390.679 252.328 394.678 252.004 402.193L250.425 422.345L243.403 422.46L241.721 408.546C241.721 408.546 239.664 405.454 231.354 420.855C231.354 420.855 228.27 425.959 212.884 421.464C210.77 420.847 209.243 418.955 209.184 416.753C209.151 415.537 209.582 414.396 211.089 413.934C214.926 412.756 218.763 413.907 221.146 410.714C223.528 407.52 229.013 385.725 229.013 385.725Z" fill="#2F2E41"/>
<path d="M284.365 273.397L188.901 266.011L215.766 155.878L280.041 146.617L284.365 273.397Z" fill="#2F2E41"/>
<path d="M271.2 70.9571L291.314 60.2412L307.557 79.4195L274.917 184.033L215.212 157.596L260.56 80.0685L271.2 70.9571Z" fill="#B2DCBC"/>
<path d="M273.749 165.145C273.749 165.145 280.154 198.172 260.32 215.337L254.248 234.64L247.693 270.268L248.286 362.287L224.263 359.884L214.653 271.802L214.539 227.963L179.073 258.335L216.19 331.237L185.946 344.48L149.007 256.627C146.44 251.276 147.125 244.933 150.774 240.252L215.211 157.596L273.749 165.145Z" fill="#2F2E41"/>
<path d="M298.652 68.9053L259.215 105.698C249.881 181.435 254.976 250.98 281.831 311.187L348.101 280.472C293.456 263.898 298.815 172.892 309.418 75.3816L298.652 68.9053Z" fill="#3F3D56"/>
<path d="M264.641 80.1896L270.708 70.8027L237.154 90.5298L210.621 164.059L259.566 102.978L264.641 80.1896Z" fill="#3F3D56"/>
<path d="M348.575 218.495C350.887 226.481 356.882 231.761 361.965 230.289C367.047 228.816 369.29 221.149 366.976 213.161C366.095 209.957 364.46 207.011 362.207 204.569L351.981 170.856L336.263 175.992L348.013 208.682C347.414 211.951 347.606 215.316 348.575 218.495Z" fill="#FFB6B6"/>
<path d="M297.12 76.1668C297.12 76.1668 310.875 66.1991 322.079 87.4501C333.283 108.701 349.534 148.112 349.534 148.112L363.861 202.761L345.886 211.592L326.223 146.823L295.007 94.4807L297.12 76.1668Z" fill="#3F3D56"/>
<path d="M280.764 59.3788C293.101 59.3788 303.102 49.3776 303.102 37.0405C303.102 24.7034 293.101 14.7021 280.764 14.7021C268.427 14.7021 258.425 24.7034 258.425 37.0405C258.425 49.3776 268.427 59.3788 280.764 59.3788Z" fill="#FFB6B6"/>
<path d="M280.837 28.3252C279.58 28.2011 278.934 29.5307 274.132 31.3857C272.43 32.043 271.559 32.3728 270.56 32.4371C267.523 32.6322 265.162 30.9545 263.584 29.8333C261.019 28.0108 259.367 26.8368 259.045 24.9599C258.624 22.5106 261.396 19.7746 266.959 14.4025C269.683 11.7717 271.343 10.1825 274.009 8.29114C278.48 5.11871 280.715 3.53253 283.849 3.22126C288 2.80906 291.155 4.78966 295.708 7.64763C296.938 8.41972 298.712 8.79103 300.592 8.93253C306.747 9.39572 312.023 13.4981 313.697 19.439C313.825 19.8929 313.933 20.3038 314.013 20.6556C317.317 35.0807 316.395 50.0842 311.874 64.1751C311.752 64.5544 311.65 64.9076 311.571 65.2295C309.471 73.8109 280.616 77.1561 277.241 69.9014C275.116 65.3331 285.048 60.7622 286.531 47.1408C287.564 37.6581 283.974 28.6344 280.837 28.3252Z" fill="#2F2E41"/>
</svg>
