<svg width="25" height="25" viewBox="0 0 25 25" fill="none" xmlns="http://www.w3.org/2000/svg">
<path fill-rule="evenodd" clip-rule="evenodd" d="M4.58168 22.1722C6.82007 24.0047 9.62482 25.0041 12.5177 25C14.1559 24.9996 15.778 24.6763 17.2911 24.0485C18.8043 23.4207 20.1789 22.5008 21.3362 21.3415C23.3824 19.2965 24.6559 16.6052 24.9397 13.7263C25.2236 10.8474 24.5 7.95911 22.8925 5.55403C21.285 3.14891 18.893 1.37581 16.1245 0.537004C13.3559 -0.301798 10.3821 -0.154362 7.71002 0.954177C5.038 2.06271 2.83322 4.06371 1.47151 6.61605C0.10979 9.16835 -0.324561 12.114 0.242599 14.9507C0.809759 17.7874 2.34327 20.3396 4.58168 22.1722ZM9.90929 2.09924C10.7568 1.88827 11.6324 1.77995 12.5177 1.78091C13.4074 1.78203 14.2857 1.89339 15.1342 2.10741C15.1392 2.18554 15.1551 2.26278 15.1814 2.33688C15.5571 3.47572 15.8681 4.63017 16.1143 5.79487L16.075 5.72961C16.075 5.72961 16.2479 6.27319 16.0366 6.4967C15.9602 6.57744 15.8314 6.61462 15.698 6.62916C13.5877 6.43087 11.4632 6.43015 9.35281 6.62701C9.20581 6.61569 9.05874 6.57951 8.97499 6.4909C8.88709 6.39799 8.86553 6.24984 8.87033 6.10828C9.12565 4.84134 9.45733 3.58589 9.86545 2.34885C9.89181 2.26786 9.90649 2.18382 9.90929 2.09924ZM15.5919 8.37052C15.8412 8.44474 16.0806 8.55205 16.3032 8.69038C16.4901 8.84791 16.6021 9.13804 16.6691 9.42015C16.8652 11.4703 16.8658 13.5346 16.6711 15.5849C16.6051 15.871 16.493 16.1677 16.3032 16.3276C16.0453 16.488 15.765 16.6066 15.4727 16.6803C13.4877 16.8612 11.4902 16.8589 9.50554 16.6733C9.22286 16.5991 8.95185 16.4829 8.70177 16.3276C8.56258 16.2106 8.46515 16.0199 8.39709 15.8136C8.17344 13.6158 8.17459 11.4006 8.40053 9.20295C8.46902 8.99735 8.56659 8.80729 8.70535 8.69038C8.92549 8.5537 9.16197 8.44732 9.40826 8.37317C11.4647 8.17552 13.5354 8.17466 15.5919 8.37052ZM22.6908 9.86101C21.476 9.45984 20.2434 9.13246 18.9995 8.87879C18.8361 8.86238 18.6455 8.87241 18.5343 8.97758C18.4614 9.04649 18.4241 9.15796 18.4068 9.27702C18.612 11.4323 18.611 13.6023 18.4037 15.7574C18.422 15.8703 18.4592 15.9748 18.5287 16.0405C18.7522 16.2518 19.2959 16.0792 19.2959 16.0792L19.2413 16.1121C20.4076 15.8654 21.5636 15.5537 22.704 15.177C22.78 15.1506 22.8587 15.1353 22.9378 15.1309C23.2325 13.9478 23.3262 12.7146 23.2055 11.4832C23.1532 10.9491 23.0613 10.4225 22.9316 9.90736C22.8495 9.90485 22.7682 9.88923 22.6908 9.86101ZM19.1816 7.1395C20.1966 7.34238 21.2046 7.59197 22.2024 7.88833C21.6812 6.80001 20.9768 5.79917 20.1112 4.93292C19.2441 4.06536 18.2439 3.36118 17.1588 2.84026C17.4698 3.89012 17.7292 4.95128 17.9366 6.01996C18.0083 6.27054 18.1186 6.5091 18.264 6.72687C18.5433 6.93971 18.8713 7.07947 19.2183 7.13363L19.1816 7.1395ZM6.48996 16.0755C6.40543 16.1554 6.27512 16.1804 6.14575 16.1806C4.86655 15.924 3.59906 15.5895 2.35038 15.177C2.26117 15.1468 2.168 15.1312 2.0744 15.1305C1.69303 13.5996 1.65059 11.9928 1.96402 10.4246C1.99877 10.2506 2.03777 10.0779 2.08089 9.90664C2.16803 9.90471 2.25449 9.88938 2.33725 9.86101C3.55326 9.45948 4.78709 9.13181 6.0322 8.87807C6.19389 8.86267 6.38036 8.87399 6.48996 8.97758C6.59491 9.07687 6.62629 9.26491 6.62994 9.43648C6.44426 11.4883 6.44433 13.5527 6.63023 15.6045C6.62772 15.7791 6.59749 15.9738 6.48996 16.0755ZM7.8596 2.94131C7.58602 3.87881 7.35348 4.82512 7.16192 5.77753L7.15325 5.72402C7.09623 6.08271 6.9617 6.42478 6.76011 6.72687C6.48051 6.93964 6.15227 7.0794 5.80511 7.13363L5.84408 7.13993C4.8237 7.34389 3.81037 7.59512 2.80739 7.89363C3.48347 6.47987 4.46526 5.22099 5.69429 4.21441C6.31295 3.70769 6.98197 3.27498 7.68774 2.92117C7.74376 2.9335 7.80136 2.94032 7.8596 2.94131ZM2.91604 17.3901C2.93285 17.3236 2.94167 17.2553 2.94214 17.1864C4.01838 17.5021 5.10834 17.7637 6.208 17.9707C6.40536 18.0432 6.59155 18.145 6.76011 18.2733C6.9617 18.5754 7.09623 18.9175 7.15325 19.2762L7.15848 19.2438C7.35069 20.202 7.58437 21.154 7.8596 22.0972C7.7899 22.098 7.72069 22.1072 7.65357 22.1246C5.68555 21.1292 4.06487 19.5487 3.02073 17.5914C2.9851 17.5246 2.9502 17.4575 2.91604 17.3901ZM9.86545 22.701C9.45804 21.466 9.12672 20.2126 8.87155 18.9477C8.86302 18.7983 8.88143 18.6367 8.97499 18.5377C9.04892 18.4595 9.17221 18.4222 9.30116 18.4067C10.3699 18.5074 11.4441 18.5574 12.52 18.5561C13.6005 18.5577 14.6793 18.5078 15.7527 18.4068C15.8659 18.4251 15.9707 18.4624 16.0366 18.532C16.2479 18.7555 16.075 19.2992 16.075 19.2992L16.1134 19.2355C15.8673 20.3987 15.5566 21.5517 15.1814 22.6891C15.1491 22.7749 15.1321 22.8656 15.1307 22.9569C13.4121 23.3895 11.6187 23.3892 9.90972 22.9639C9.90807 22.8748 9.89324 22.7862 9.86545 22.701ZM17.1375 22.2334C17.4587 21.1581 17.7256 20.0708 17.938 18.9756C18.0097 18.7267 18.1194 18.4897 18.264 18.2733C18.422 18.1529 18.5957 18.0557 18.7795 17.9843C19.9015 17.7759 21.0136 17.5109 22.1115 17.19C22.112 17.238 22.1166 17.2857 22.1251 17.3327C21.9232 17.7372 21.6951 18.1303 21.4414 18.5095C20.3618 20.1231 18.8717 21.4056 17.1375 22.2334Z" fill="#091C2B"/>
</svg>
