<svg width="25" height="25" viewBox="0 0 25 25" fill="none" xmlns="http://www.w3.org/2000/svg">
<path d="M15.7751 0L9.01042 7.24792e-05C8.615 7.24792e-05 8.23088 0.0107365 7.86882 0.0317802C7.50403 0.0528946 7.14802 0.0853977 6.81076 0.128204C6.47421 0.171011 6.1458 0.225492 5.83477 0.290569C5.52575 0.355284 5.22437 0.432539 4.93964 0.520388C4.66247 0.60528 4.39006 0.704874 4.12342 0.818666C3.8704 0.926765 3.62401 1.04971 3.38547 1.18678C3.15587 1.31916 2.93491 1.46596 2.72405 1.62653C2.51765 1.78399 2.32192 1.95507 2.13815 2.13855C1.95474 2.32246 1.78366 2.51827 1.62605 2.72466C1.46585 2.93575 1.31905 3.15677 1.18674 3.3863C1.0496 3.62491 0.926653 3.87138 0.818554 4.1244C0.704906 4.39111 0.605312 4.6636 0.520346 4.94076C0.433075 5.22448 0.35582 5.52579 0.290888 5.83625C0.226461 6.1439 0.171835 6.47209 0.128452 6.81245C0.0860062 7.14662 0.053648 7.50263 0.0319557 7.8706C0.0110569 8.23698 0.000247955 8.62109 0.000247955 9.01219L0.000247955 15.9875C0.000247955 16.3786 0.0111294 16.7628 0.0319557 17.1291C0.053648 17.4971 0.0860062 17.8531 0.128452 18.1873C0.172052 18.5286 0.226604 18.8572 0.290888 19.1636C0.355459 19.4728 0.432642 19.7741 0.520346 20.0592C0.605385 20.3363 0.704906 20.6087 0.818554 20.8754C0.926653 21.1285 1.0496 21.3749 1.18674 21.6135C1.31898 21.8431 1.4657 22.064 1.62605 22.275C1.78351 22.4816 1.9546 22.6774 2.13815 22.8612C2.32192 23.0448 2.51765 23.2159 2.72405 23.3736C2.93506 23.5339 3.15594 23.6807 3.38547 23.8131C3.62401 23.9501 3.87047 24.073 4.12342 24.1812C4.39006 24.295 4.66247 24.3945 4.93964 24.4795C5.22199 24.5668 5.52308 24.644 5.83477 24.7092C6.14458 24.774 6.47298 24.8287 6.81076 24.8717C7.14954 24.9145 7.50547 24.947 7.86882 24.9681C8.23391 24.9892 8.61795 25 9.01042 25H15.7748C16.0031 24.9927 16.2196 24.8968 16.3784 24.7327C16.5373 24.5685 16.626 24.349 16.6257 24.1206C16.6258 24.0067 16.6033 23.894 16.5597 23.7888C16.5161 23.6837 16.4522 23.5881 16.3716 23.5077C16.291 23.4273 16.1954 23.3636 16.0901 23.3202C15.9849 23.2768 15.8721 23.2546 15.7582 23.2548C15.742 23.2549 15.7259 23.2553 15.7099 23.2562H9.01042C7.63749 23.2562 6.52653 23.1311 5.6141 22.8739C4.67285 22.6082 3.93792 22.2016 3.3676 21.6305C2.79705 21.06 2.39074 20.3249 2.12583 19.3833C1.86884 18.4713 1.7441 17.3605 1.7441 15.9874V9.01205C1.7441 7.63912 1.86884 6.52844 2.12583 5.61652C2.3906 4.67513 2.79705 3.9402 3.3676 3.36901C3.93807 2.79781 4.67285 2.39136 5.6141 2.12609C6.52653 1.86881 7.63749 1.74378 9.01042 1.74378H15.7051C15.7224 1.74486 15.7398 1.74536 15.7572 1.74536C15.9887 1.74277 16.2099 1.64886 16.3725 1.48412C16.5352 1.31945 16.6263 1.09713 16.626 0.865654C16.626 0.638575 16.5369 0.420574 16.3777 0.258642C16.2185 0.0967121 16.0021 0.00382042 15.7751 0Z" fill="#D42F55"/>
<path fill-rule="evenodd" clip-rule="evenodd" d="M11.6896 9.90141C11.6896 8.06906 12.3523 6.67516 13.5512 5.98319C14.0691 5.68325 14.6583 5.52838 15.2568 5.53501C16.0756 5.53501 16.9723 5.79819 17.8787 6.32456L22.3916 8.92686C23.9802 9.8529 24.8574 11.1202 24.8574 12.5041C24.8574 13.8881 23.9802 15.1552 22.3916 16.0713L17.8788 18.6738C16.2902 19.59 14.7598 19.7167 13.5512 19.0246C12.3524 18.3325 11.6896 16.9387 11.6896 15.1064V13.3655L5.79386 13.3655C5.77073 13.3674 5.74723 13.3683 5.72352 13.3683C5.49205 13.3658 5.27088 13.2719 5.10822 13.1072C4.94557 12.9424 4.85441 12.7202 4.8547 12.4886C4.8547 12.3748 4.87711 12.2621 4.92071 12.1568C4.96431 12.0517 5.0283 11.9561 5.10887 11.8757C5.18944 11.7953 5.28514 11.7316 5.39036 11.6882C5.49565 11.6448 5.60843 11.6226 5.72223 11.6228C5.75674 11.6228 5.79134 11.6249 5.82557 11.6289L11.6896 11.6289V9.90141ZM13.3815 14.9892C13.3815 16.218 13.7631 17.121 14.4614 17.5214C14.7462 17.6787 15.0671 17.759 15.3924 17.7541C15.9324 17.7541 16.5468 17.5678 17.1984 17.1863L21.5085 14.7006C22.5789 14.0862 23.1655 13.3041 23.1655 12.5036C23.1655 11.7031 22.5789 10.921 21.5085 10.3067L17.1984 7.82108C16.1278 7.20665 15.1597 7.08558 14.4614 7.4859C13.7631 7.88616 13.3815 8.78929 13.3815 10.018L13.3815 14.9892Z" fill="#D42F55"/>
</svg>
