<svg width="33" height="33" viewBox="0 0 33 33" fill="none" xmlns="http://www.w3.org/2000/svg">
<circle cx="16.5" cy="16.5" r="16.5" fill="#091C2B"/>
<path fill-rule="evenodd" clip-rule="evenodd" d="M16.8793 11.2857C17.05 11.3105 17.2224 11.3235 17.3948 11.3238C17.7953 11.331 18.1935 11.2579 18.5653 11.1091C18.9372 10.9604 19.2755 10.7389 19.5605 10.4575C20.5635 9.26423 21.1249 7.7616 21.1499 6.20295C21.1893 5.84504 21.1002 5.48477 20.8986 5.18651C20.7171 5.04599 20.4887 4.98116 20.2605 5.00475C19.0518 5.12662 17.8913 5.54262 16.8805 6.21648C15.8683 5.54274 14.7066 5.12678 13.4967 5.00475C13.2685 4.98116 13.0401 5.04599 12.8586 5.18651C12.2409 5.80362 12.779 9.03917 14.1967 10.4575C14.4816 10.7387 14.8189 10.9604 15.1906 11.1091C15.5622 11.2579 15.9596 11.3309 16.3598 11.3238C16.5336 11.3235 16.7072 11.3106 16.8793 11.2857ZM17.1783 9.80844C17.0783 9.80851 16.9783 9.80211 16.8793 9.78851C16.7802 9.80211 16.6802 9.80851 16.5802 9.80844C16.3474 9.81253 16.1171 9.77042 15.9008 9.68408C15.6846 9.59774 15.4867 9.46905 15.3207 9.30573C14.5314 8.51637 14.1746 7.53424 14.5422 7.16266C14.6466 7.08276 14.7774 7.04556 14.9082 7.05889C15.6127 7.12985 16.2895 7.37206 16.8793 7.764C17.4674 7.37182 18.143 7.12956 18.8464 7.05889C18.9772 7.04556 19.108 7.08276 19.2125 7.16266C19.582 7.53358 19.2298 8.51373 18.4377 9.30573C18.2716 9.46887 18.0751 9.59774 17.859 9.68408C17.6427 9.77042 17.4111 9.81234 17.1783 9.80844Z" fill="#B2DCBC"/>
<path fill-rule="evenodd" clip-rule="evenodd" d="M16.4449 25.6195C16.5993 25.7739 16.8082 25.8613 17.0265 25.8629C17.2448 25.8613 17.4538 25.7739 17.6081 25.6195C17.7582 25.4695 17.845 25.268 17.8512 25.0564C19.3258 24.7691 20.5561 23.4394 20.6041 22.2596V22.1907C20.6042 22.0699 20.5959 21.9494 20.5796 21.8298C20.5438 21.377 20.3681 20.9465 20.0768 20.5981C19.7856 20.2496 19.3933 20.0008 18.954 19.8852L17.8515 19.4992V16.9243C18.4631 17.2396 18.9527 17.7519 18.9527 18.1559C18.9546 18.374 19.0434 18.5824 19.1977 18.7366C19.352 18.8908 19.5596 18.9786 19.7778 18.9803C19.9959 18.9786 20.2048 18.8908 20.3591 18.7366C20.5134 18.5824 20.6008 18.374 20.6027 18.1559C20.6027 16.9109 19.3037 15.618 17.8515 15.1594V15.1378C17.85 14.9195 17.7625 14.7105 17.6081 14.5562C17.4538 14.4018 17.2448 14.3143 17.0265 14.3128C16.8082 14.3143 16.5993 14.4018 16.4449 14.5562C16.3131 14.6879 16.2301 14.8595 16.2076 15.0427C14.704 15.3368 13.451 16.7153 13.451 17.9117C13.4028 18.4385 13.5424 18.9654 13.8442 19.3999C14.1459 19.8344 14.5906 20.1486 15.101 20.2874L16.2015 20.6713V23.1825C15.9551 23.0578 15.7274 22.895 15.5277 22.6986C15.2076 22.3422 15.1023 22.1313 15.1023 21.9425C15.1004 21.7239 15.0123 21.5148 14.8574 21.3605C14.7025 21.2063 14.4933 21.1192 14.2747 21.1182C14.0565 21.1197 13.8477 21.2076 13.6934 21.3619C13.539 21.5161 13.4514 21.7244 13.4497 21.9425C13.4497 23.188 14.7475 24.4819 16.2015 24.9393V25.0378C16.2031 25.2562 16.2905 25.4651 16.4449 25.6195ZM18.2747 23.1376C18.1433 23.2302 18.0009 23.3041 17.8515 23.3579V21.2471L18.4113 21.4424C18.7731 21.5691 18.9409 21.6551 18.9502 22.2043C18.8343 22.5816 18.5972 22.91 18.2747 23.1376ZM15.7739 16.9655C15.9064 16.8706 16.0504 16.7952 16.2015 16.7405V18.9215L15.6424 18.7257C15.2689 18.595 15.1049 18.5069 15.1049 17.9129C15.2148 17.5307 15.4504 17.1969 15.7739 16.9655Z" fill="#B2DCBC"/>
<path fill-rule="evenodd" clip-rule="evenodd" d="M8 22.7599C8 27.1978 12.2023 27.8099 16.7425 27.8099C21.2826 27.8099 25.4849 27.1978 25.4862 22.7599C25.3433 20.2013 24.4279 17.7463 22.8604 15.719C22.0964 14.6672 21.1532 13.7587 20.0734 13.0346C19.0914 12.3612 17.9343 11.9889 16.7438 11.9633C15.5529 11.9887 14.3953 12.361 13.4128 13.0346C12.3328 13.7584 11.3882 14.6669 10.6245 15.719C9.05676 17.7461 8.14173 20.2013 8 22.7599ZM11.853 16.5576C13.2747 14.6482 15.0561 13.5541 16.7425 13.5541V13.5521C18.4281 13.5521 20.2102 14.6482 21.6319 16.5576C22.8832 18.1781 23.614 20.1395 23.728 22.1837C23.7777 22.8894 23.6011 23.593 23.2239 24.1915C22.8467 24.7899 22.2887 25.252 21.6306 25.5114C20.2268 26.1378 18.2816 26.2185 16.7425 26.2185C15.2033 26.2185 13.2569 26.1378 11.853 25.5114C11.195 25.252 10.6369 24.7899 10.2598 24.1915C9.88253 23.593 9.70597 22.8894 9.75571 22.1837C9.86939 20.1391 10.6006 18.1776 11.853 16.5576Z" fill="#B2DCBC"/>
</svg>
