<svg width="32" height="32" viewBox="0 0 32 32" fill="none" xmlns="http://www.w3.org/2000/svg">
<rect width="32" height="32" rx="16" fill="#091C2B"/>
<g clip-path="url(#clip0_2834_3858)">
<path d="M16 24C14.4178 24 12.871 23.5308 11.5554 22.6518C10.2398 21.7727 9.21447 20.5233 8.60897 19.0615C8.00347 17.5997 7.84504 15.9911 8.15372 14.4393C8.4624 12.8874 9.22433 11.462 10.3431 10.3431C11.462 9.22433 12.8874 8.4624 14.4393 8.15372C15.9911 7.84504 17.5997 8.00347 19.0615 8.60897C20.5233 9.21447 21.7727 10.2398 22.6518 11.5554C23.5308 12.871 24 14.4178 24 16C24.0022 17.0405 23.7995 18.0712 23.4033 19.0333L22.7867 18.78C23.1496 17.8982 23.3354 16.9536 23.3333 16C23.3333 14.5496 22.9032 13.1318 22.0974 11.9258C21.2917 10.7199 20.1463 9.77993 18.8064 9.22489C17.4664 8.66984 15.9919 8.52462 14.5693 8.80758C13.1468 9.09054 11.8401 9.78897 10.8146 10.8146C9.78897 11.8401 9.09054 13.1468 8.80758 14.5693C8.52462 15.9919 8.66984 17.4664 9.22489 18.8064C9.77993 20.1463 10.7199 21.2917 11.9258 22.0974C13.1318 22.9032 14.5496 23.3333 16 23.3333C16.9536 23.3354 17.8982 23.1496 18.78 22.7867L19.0333 23.4033C18.0712 23.7995 17.0405 24.0022 16 24Z" fill="#B2DCBC"/>
<path d="M16 22.6669C14.6816 22.6666 13.393 22.2754 12.2969 21.5429C11.2008 20.8103 10.3466 19.7692 9.84211 18.5512C9.33764 17.3332 9.20562 15.993 9.46274 14.7C9.71986 13.407 10.3546 12.2192 11.2866 11.2869C12.3472 10.2251 13.7349 9.55226 15.2253 9.37712C16.7157 9.20197 18.2216 9.53479 19.4994 10.3217C20.7771 11.1087 21.752 12.3037 22.2663 13.7135C22.7806 15.1233 22.8042 16.6653 22.3333 18.0902L21.7 17.8835C21.8997 17.2758 22.001 16.64 22 16.0002C22 14.4089 21.3678 12.8828 20.2426 11.7576C19.1174 10.6323 17.5913 10.0002 16 10.0002C14.4087 10.0002 12.8825 10.6323 11.7573 11.7576C10.6321 12.8828 9.99996 14.4089 9.99996 16.0002C9.99996 17.5915 10.6321 19.1176 11.7573 20.2428C12.8825 21.3681 14.4087 22.0002 16 22.0002C16.6399 22.0002 17.2757 21.8978 17.8833 21.6969L18.09 22.3302C17.4158 22.5537 16.7102 22.6674 16 22.6669Z" fill="#B2DCBC"/>
<path d="M16.0001 16.9998C15.8023 16.9998 15.609 16.9412 15.4445 16.8313C15.2801 16.7214 15.1519 16.5652 15.0762 16.3825C15.0005 16.1998 14.9807 15.9987 15.0193 15.8047C15.0579 15.6108 15.1531 15.4326 15.293 15.2927C15.4328 15.1529 15.611 15.0576 15.805 15.0191C15.999 14.9805 16.2 15.0003 16.3828 15.076C16.5655 15.1516 16.7217 15.2798 16.8316 15.4443C16.9414 15.6087 17.0001 15.8021 17.0001 15.9998C17.0001 16.2651 16.8947 16.5194 16.7072 16.7069C16.5197 16.8945 16.2653 16.9998 16.0001 16.9998ZM16.0001 15.6665C15.9342 15.6665 15.8697 15.6861 15.8149 15.7227C15.7601 15.7593 15.7174 15.8114 15.6921 15.8723C15.6669 15.9332 15.6603 16.0002 15.6732 16.0649C15.686 16.1295 15.7178 16.1889 15.7644 16.2355C15.811 16.2822 15.8704 16.3139 15.9351 16.3268C15.9997 16.3396 16.0667 16.333 16.1276 16.3078C16.1886 16.2826 16.2406 16.2398 16.2772 16.185C16.3139 16.1302 16.3334 16.0658 16.3334 15.9998C16.3334 15.9114 16.2983 15.8266 16.2358 15.7641C16.1733 15.7016 16.0885 15.6665 16.0001 15.6665ZM15.6667 9.6665H16.3334V10.6665H15.6667V9.6665ZM15.6667 21.3332H16.3334V22.3332H15.6667V21.3332ZM20.0067 12.4665L19.5334 11.9932L20.2401 11.2865L20.7167 11.7565L20.0067 12.4665ZM11.7601 20.7132L11.2834 20.2432L11.9934 19.5332L12.4667 20.0065L11.7601 20.7132ZM21.3334 15.6665H22.3334V16.3332H21.3334V15.6665ZM9.66675 15.6665H10.6667V16.3332H9.66675V15.6665ZM11.9934 12.4665L11.2867 11.7598L11.7567 11.2832L12.4667 11.9932L11.9934 12.4665Z" fill="#B2DCBC"/>
<path d="M15.6667 11.3335H16.3333V15.3335H15.6667V11.3335ZM12 15.6668H15.3333V16.3335H12V15.6668ZM19 20.3335H22.3333V21.0002H19V20.3335Z" fill="#B2DCBC"/>
<path d="M20.3335 19H21.0002V22.3333H20.3335V19Z" fill="#B2DCBC"/>
<path d="M20.6668 24.0002C20.0076 24.0002 19.3631 23.8047 18.8149 23.4384C18.2668 23.0721 17.8395 22.5515 17.5872 21.9424C17.3349 21.3334 17.2689 20.6631 17.3975 20.0165C17.5262 19.3699 17.8436 18.776 18.3098 18.3098C18.776 17.8436 19.3699 17.5262 20.0165 17.3975C20.6631 17.2689 21.3334 17.3349 21.9424 17.5872C22.5515 17.8395 23.0721 18.2668 23.4384 18.8149C23.8047 19.3631 24.0002 20.0076 24.0002 20.6668C24.0002 21.1046 23.9139 21.538 23.7464 21.9424C23.5789 22.3469 23.3334 22.7143 23.0239 23.0239C22.7143 23.3334 22.3469 23.5789 21.9424 23.7464C21.538 23.9139 21.1046 24.0002 20.6668 24.0002ZM20.6668 18.0002C20.1394 18.0002 19.6238 18.1566 19.1853 18.4496C18.7468 18.7426 18.405 19.1591 18.2032 19.6463C18.0013 20.1336 17.9485 20.6698 18.0514 21.1871C18.1543 21.7044 18.4083 22.1795 18.7812 22.5524C19.1542 22.9254 19.6293 23.1794 20.1466 23.2823C20.6639 23.3852 21.2001 23.3323 21.6873 23.1305C22.1746 22.9287 22.5911 22.5869 22.8841 22.1484C23.1771 21.7098 23.3335 21.1942 23.3335 20.6668C23.3335 19.9596 23.0525 19.2813 22.5524 18.7812C22.0524 18.2811 21.3741 18.0002 20.6668 18.0002Z" fill="#B2DCBC"/>
</g>
<defs>
<clipPath id="clip0_2834_3858">
<rect width="16" height="16" fill="white" transform="translate(8 8)"/>
</clipPath>
</defs>
</svg>
