<svg width="23" height="25" viewBox="0 0 23 25" fill="none" xmlns="http://www.w3.org/2000/svg">
<path fill-rule="evenodd" clip-rule="evenodd" d="M8.49862 25H8.81426C10.5728 25.004 12.2901 24.4631 13.7284 23.4512C15.1664 22.4445 16.2571 21.0172 16.8517 19.3656C17.0974 18.6503 17.2396 17.9035 17.274 17.148V17.1377C17.3399 16.8257 17.3394 16.5035 17.2719 16.1919C17.2043 15.8804 17.0712 15.5866 16.8821 15.3299C16.5369 14.9055 16.0485 14.6227 15.5086 14.5346L14.3258 14.4709H2.99484L1.81203 14.5346C1.27237 14.6233 0.783453 14.906 0.437853 15.3299C0.248914 15.5866 0.117114 15.8805 0.0501761 16.1922C-0.0167615 16.5037 -0.0166892 16.826 0.0501761 17.1377V17.1493C0.083851 17.905 0.226295 18.6519 0.473162 19.367C1.06721 21.0186 2.15806 22.4456 3.59648 23.4512C5.03127 24.4614 6.74387 25.0024 8.49862 25ZM3.37193 16.1565L4.28498 16.1131H13.0237L13.936 16.1565C14.3412 16.2114 14.7154 16.4051 14.9938 16.7046C15.1384 16.8736 15.2406 17.0743 15.2933 17.2904C15.3459 17.5065 15.3473 17.7318 15.2967 17.9484V17.9556C15.2711 18.4785 15.1613 18.994 14.9719 19.4821C14.4352 20.6654 13.5614 21.6642 12.4601 22.3537C11.3589 23.0432 10.0785 23.3927 8.7797 23.3585H8.53391C7.23493 23.3921 5.95489 23.0424 4.85344 22.353C3.75201 21.6636 2.87842 20.6651 2.34094 19.4821C2.15119 18.9941 2.04117 18.4786 2.0154 17.9556V17.9497C1.96424 17.7332 1.96481 17.5078 2.01681 17.2914C2.06882 17.0751 2.17083 16.8742 2.31481 16.7046C2.59413 16.4063 2.96721 16.2128 3.37193 16.1565Z" fill="#091C2B"/>
<path fill-rule="evenodd" clip-rule="evenodd" d="M6.55931 10.1955C7.20215 10.462 7.89155 10.5983 8.5874 10.5964C9.28374 10.5982 9.97358 10.462 10.6169 10.1955C11.2602 9.92899 11.8439 9.53757 12.3349 9.04391C12.8283 8.55329 13.2198 7.96953 13.486 7.32676C13.7522 6.68392 13.8883 5.99481 13.8864 5.29904C13.8882 4.60293 13.7522 3.9134 13.486 3.27023C13.2198 2.62706 12.8282 2.04293 12.3349 1.5518C11.844 1.0581 11.2603 0.666784 10.6169 0.400414C9.97358 0.134045 9.28374 -0.00207182 8.5874 2.5182e-05C7.89155 -0.00212966 7.20222 0.134031 6.55931 0.400414C5.91647 0.666798 5.33308 1.0581 4.84268 1.5518C4.34916 2.0428 3.95801 2.62687 3.69165 3.27005C3.42528 3.91324 3.28867 4.60286 3.29055 5.29904C3.28863 5.99488 3.42457 6.68407 3.69094 7.32691C3.95731 7.96974 4.34916 8.55336 4.84268 9.04391C5.33314 9.53757 5.91647 9.92899 6.55931 10.1955ZM5.99797 2.7053C6.68477 2.0182 7.61591 1.63154 8.5874 1.63001V1.63213C9.55903 1.63308 10.4902 2.01916 11.1776 2.70584C11.8649 3.39252 12.2526 4.32372 12.2545 5.29528C12.2532 6.26734 11.8664 7.19928 11.179 7.88652C10.4916 8.57382 9.55946 8.96032 8.5874 8.96148C7.61576 8.95996 6.68412 8.5731 5.99724 7.88586C5.31038 7.19856 4.92414 6.26698 4.92318 5.29528C4.92433 4.32378 5.31111 3.39241 5.99797 2.7053Z" fill="#091C2B"/>
<path fill-rule="evenodd" clip-rule="evenodd" d="M16.9366 21.0072C16.8216 21.2249 16.7725 21.3341 16.8152 21.4657L16.818 21.4633C16.8577 21.595 17.1075 21.5313 17.1075 21.5313L17.4535 21.4633L18.0276 21.3036L18.5777 21.0866C19.0023 20.9021 19.407 20.6751 19.786 20.4091C20.9387 19.6022 21.8134 18.4583 22.29 17.1343C22.4875 16.5609 22.6015 15.9621 22.6289 15.3562V15.3481C22.6818 15.0985 22.681 14.8405 22.6268 14.5913C22.5726 14.3419 22.4664 14.1069 22.3146 13.9019C22.0385 13.5621 21.6471 13.3354 21.2152 13.2642C21.2152 13.2642 20.613 13.2049 19.2174 13.2049C18.55 13.2038 18.1958 13.2126 17.773 13.2232C17.3847 13.233 16.9383 13.2442 16.138 13.2504C16.0041 13.2334 15.8683 13.2571 15.7481 13.3184C15.7104 13.3445 15.6795 13.3797 15.6591 13.4208C15.6388 13.4619 15.6295 13.5076 15.6317 13.5534C15.6376 13.6031 15.6555 13.6506 15.6846 13.6914C15.7137 13.7322 15.7525 13.7651 15.7975 13.787C15.9037 13.8433 15.9397 13.8478 16.0411 13.8608C16.0945 13.8676 16.1661 13.8767 16.2756 13.8969C16.6919 13.9609 17.0903 14.112 17.4443 14.3402C17.6503 14.4722 17.8035 14.6719 17.8779 14.9049C17.9811 15.1273 18.0308 15.3707 18.0227 15.6157C18.0407 16.2238 18.0379 16.7894 18.0227 17.1509V17.161C18.0001 17.9233 17.8672 18.6785 17.6279 19.4026C17.5621 19.587 17.4947 19.7642 17.4274 19.9298C17.4007 20.0007 17.3736 20.0693 17.3469 20.1344C17.2138 20.4518 17.0754 20.7455 16.9366 21.0072ZM19.6179 15.8399C19.642 15.4071 19.6373 14.9731 19.603 14.5411L19.9596 14.5586C20.2845 14.6023 20.5846 14.7574 20.8078 14.9974C20.9236 15.1329 21.0056 15.2938 21.0478 15.467C21.0901 15.6403 21.0912 15.8209 21.0507 15.9945V16.0004C21.0305 16.4195 20.9426 16.8327 20.7908 17.2239C20.4464 18.0532 19.8739 18.7676 19.1398 19.2847C19.1882 19.1025 19.2342 18.916 19.2761 18.7309C19.477 17.7869 19.5913 16.8265 19.6179 15.8616V15.8399Z" fill="#091C2B"/>
<path fill-rule="evenodd" clip-rule="evenodd" d="M13.4924 8.95919C13.3948 9.08284 13.315 9.18704 13.3801 9.35552C13.4311 9.48806 13.5142 9.52429 13.639 9.5786C13.6734 9.59357 13.7111 9.60998 13.7522 9.63023C14.3511 9.93617 15.0147 10.0953 15.6871 10.0945C16.442 10.0966 17.1835 9.89683 17.8352 9.51598C18.1421 9.33318 18.4251 9.11285 18.6777 8.86019C19.0732 8.46683 19.3864 7.99905 19.5999 7.4837C19.8134 6.96834 19.9227 6.41575 19.9212 5.85794C19.9226 5.29993 19.8134 4.74708 19.5999 4.2315C19.3864 3.71592 19.0731 3.24779 18.6777 2.85415C18.2842 2.45843 17.8162 2.1447 17.3007 1.9312C16.785 1.7177 16.2317 1.60872 15.6737 1.61043C15.5147 1.61045 15.3557 1.61905 15.1977 1.63638H15.1878C14.8677 1.67204 14.5526 1.74284 14.248 1.84752C14.0672 1.91116 14.0001 1.94083 13.938 2.11003C13.9134 2.17896 13.9061 2.25285 13.9168 2.32523C13.9275 2.39762 13.9559 2.46624 13.9994 2.52508C14.4292 3.38882 14.6561 4.33925 14.6632 5.30398C14.6622 6.04429 14.5358 6.77925 14.2903 7.47769C14.1678 7.82724 14.0108 8.16341 13.8207 8.48129C13.7215 8.64746 13.6118 8.80705 13.4924 8.95919ZM15.9462 5.34085C15.9491 4.52435 15.8478 3.71086 15.6447 2.91999L15.6715 2.91911C16.4507 2.91988 17.198 3.22987 17.7491 3.7808C18.3001 4.33172 18.6103 5.07873 18.6113 5.85794C18.6103 6.63716 18.3001 7.3842 17.7491 7.93513C17.198 8.48606 16.4507 8.79584 15.6715 8.79663C15.5507 8.79678 15.4299 8.78947 15.31 8.77487C15.5224 8.24628 15.6811 7.69745 15.7831 7.13697C15.8928 6.54453 15.9472 5.94334 15.9462 5.34085Z" fill="#091C2B"/>
</svg>
