<svg width="25" height="25" viewBox="0 0 25 25" fill="none" xmlns="http://www.w3.org/2000/svg">
<path d="M11.6442 18.5308C11.4748 18.7002 11.3796 18.93 11.3794 19.1696C11.3796 19.4092 11.4748 19.6389 11.6442 19.8083C11.8136 19.9777 12.0436 20.0731 12.2832 20.0733C12.523 20.0733 12.7527 19.9781 12.9222 19.8086C13.0918 19.6392 13.1875 19.4094 13.1877 19.1696C13.1875 18.9299 13.0918 18.6999 12.9222 18.5304C12.7527 18.361 12.523 18.2658 12.2832 18.2658C12.0436 18.266 11.8136 18.3614 11.6442 18.5308Z" fill="#091C2B"/>
<path d="M11.7722 17C11.9146 17.0998 12.0822 17.1572 12.2557 17.1656L12.2668 17.1712C12.4232 17.16 12.5757 17.1158 12.7138 17.0415C12.852 16.9672 12.9732 16.8646 13.0688 16.7402C13.1555 16.6243 13.1982 16.4812 13.1891 16.3366C13.0634 15.6414 13.1076 14.9259 13.3185 14.2516C13.4855 13.7862 13.7625 13.3678 14.1253 13.0317C14.7834 12.6075 15.3337 12.0367 15.7341 11.3639C15.8952 11.0847 16.0345 10.7931 16.1496 10.492C16.259 10.204 16.3445 9.90763 16.4062 9.60582C16.4657 9.31718 16.501 9.02417 16.5114 8.72969C16.5217 8.44718 16.5062 8.16431 16.466 7.88448C16.4281 7.6176 16.3645 7.35502 16.2755 7.10054C16.1894 6.85452 16.0768 6.61842 15.9405 6.3962C15.8065 6.18004 15.6474 5.9805 15.4666 5.80173C15.2839 5.62213 15.0797 5.46625 14.8579 5.33814C14.6206 5.20107 14.3658 5.09685 14.1006 5.02827C13.8366 4.96091 13.5648 4.92719 13.2923 4.92768C12.9064 4.92957 12.5229 4.99027 12.1554 5.10789C11.7647 5.23258 11.3926 5.40827 11.0479 5.63051C10.2873 6.12728 9.65608 6.79866 9.20728 7.58858C9.0457 7.86757 8.90708 8.15917 8.79256 8.46056C8.68254 8.74835 8.59612 9.04474 8.53456 9.34669C8.49941 9.60653 8.48138 9.8684 8.48096 10.1306C8.48096 10.3703 8.57625 10.6001 8.74572 10.7696C8.91525 10.9391 9.14508 11.0343 9.38477 11.0343C9.62509 11.036 9.85633 10.9424 10.0279 10.7741C10.1995 10.6058 10.2973 10.3764 10.3003 10.1361C10.3003 10.1213 10.3043 10.0782 10.3082 10.0365C10.3118 9.99758 10.3154 9.95975 10.3154 9.9475C10.3423 9.386 10.5059 8.8395 10.792 8.35568C11.0131 7.91737 11.3423 7.54245 11.7481 7.26635C12.154 6.99017 12.6233 6.82197 13.1122 6.77725C13.3825 6.77443 13.6485 6.84367 13.8832 6.97792C14.1215 7.12822 14.3202 7.33361 14.4624 7.57689C14.6044 7.8201 14.6857 8.09395 14.6997 8.37526C14.754 9.06362 14.5916 9.75183 14.2354 10.3433C13.9727 10.8087 13.6067 11.2072 13.1651 11.5082C13.1468 11.5202 12.5918 12.0154 12.4897 12.1069C12.0625 12.4965 11.7528 12.9979 11.5961 13.5544C11.3391 14.2579 11.2616 15.0143 11.3698 15.7554C11.3595 15.9365 11.3595 16.118 11.3698 16.2991C11.3823 16.4282 11.4057 16.4782 11.4245 16.5184C11.4367 16.5442 11.4469 16.566 11.451 16.6021C11.5182 16.7624 11.6299 16.9004 11.7722 17Z" fill="#091C2B"/>
<path fill-rule="evenodd" clip-rule="evenodd" d="M5.5554 22.8933C7.61096 24.2668 10.0277 25 12.5 25C15.8143 24.9972 18.9922 23.6793 21.3357 21.3357C23.6793 18.9921 24.9972 15.8143 25 12.5C25 10.0277 24.2669 7.61096 22.8934 5.5554C21.5198 3.49976 19.5676 1.8976 17.2835 0.951512C14.9995 0.00541645 12.4861 -0.242125 10.0614 0.240188C7.6366 0.722502 5.40932 1.91301 3.66117 3.66116C1.91301 5.40932 0.722509 7.6366 0.240188 10.0614C-0.242125 12.4861 0.00541654 14.9995 0.951512 17.2835C1.89761 19.5676 3.49976 21.5198 5.5554 22.8933ZM6.52416 3.55743C8.29305 2.37551 10.3726 1.74466 12.5 1.74466C15.3516 1.74802 18.0855 2.88161 20.1019 4.89803C22.1184 6.91443 23.2527 9.64834 23.256 12.5C23.2562 14.6273 22.6254 16.707 21.4436 18.4759C20.2618 20.2448 18.582 21.6236 16.6166 22.4377C14.6512 23.252 12.4885 23.4651 10.402 23.0501C8.31551 22.6352 6.39893 21.6108 4.89459 20.1066C3.39025 18.6024 2.36577 16.6859 1.95069 14.5993C1.53561 12.5128 1.74857 10.3502 2.56265 8.38468C3.37673 6.41928 4.75534 4.73935 6.52416 3.55743Z" fill="#091C2B"/>
</svg>
