<svg width="33" height="34" viewBox="0 0 33 34" fill="none" xmlns="http://www.w3.org/2000/svg">
<rect x="0.10746" y="0.946269" width="32.1075" height="32.1075" rx="16.0537" fill="#091C2B"/>
<path d="M8.34869 17C8.18293 17 8.02396 16.9342 7.90675 16.8169C7.78954 16.6997 7.72369 16.5408 7.72369 16.375C7.72369 16.2092 7.78954 16.0503 7.90675 15.9331C8.02396 15.8158 8.18293 15.75 8.34869 15.75H10.5362C10.702 15.75 10.8609 15.6842 10.9781 15.5669C11.0953 15.4497 11.1612 15.2908 11.1612 15.125C11.1612 14.9592 11.0953 14.8003 10.9781 14.6831C10.8609 14.5658 10.702 14.5 10.5362 14.5H9.28619C8.78891 14.5 8.312 14.3025 7.96037 13.9508C7.60874 13.5992 7.41119 13.1223 7.41119 12.625C7.41119 12.1277 7.60874 11.6508 7.96037 11.2992C8.312 10.9475 8.78891 10.75 9.28619 10.75C9.28619 10.5842 9.35204 10.4253 9.46925 10.3081C9.58646 10.1908 9.74543 10.125 9.91119 10.125C10.077 10.125 10.2359 10.1908 10.3531 10.3081C10.4703 10.4253 10.5362 10.5842 10.5362 10.75H11.1612C11.327 10.75 11.4859 10.8158 11.6031 10.9331C11.7203 11.0503 11.7862 11.2092 11.7862 11.375C11.7862 11.5408 11.7203 11.6997 11.6031 11.8169C11.4859 11.9342 11.327 12 11.1612 12H9.28619C9.12043 12 8.96146 12.0658 8.84425 12.1831C8.72704 12.3003 8.66119 12.4592 8.66119 12.625C8.66119 12.7908 8.72704 12.9497 8.84425 13.0669C8.96146 13.1842 9.12043 13.25 9.28619 13.25H10.5362C11.0335 13.25 11.5104 13.4475 11.862 13.7992C12.2137 14.1508 12.4112 14.6277 12.4112 15.125C12.4112 15.6223 12.2137 16.0992 11.862 16.4508C11.5104 16.8025 11.0335 17 10.5362 17C10.5362 17.1658 10.4703 17.3247 10.3531 17.4419C10.2359 17.5592 10.077 17.625 9.91119 17.625C9.74543 17.625 9.58646 17.5592 9.46925 17.4419C9.35204 17.3247 9.28619 17.1658 9.28619 17H8.34869ZM24.2862 11.375V22C24.2862 22.3315 24.1545 22.6495 23.9201 22.8839C23.6857 23.1183 23.3677 23.25 23.0362 23.25H9.28619C8.95467 23.25 8.63673 23.1183 8.40231 22.8839C8.16789 22.6495 8.03619 22.3315 8.03619 22V18.875C8.03619 18.7092 8.10204 18.5503 8.21925 18.4331C8.33646 18.3158 8.49543 18.25 8.66119 18.25C8.82695 18.25 8.98593 18.3158 9.10314 18.4331C9.22035 18.5503 9.28619 18.7092 9.28619 18.875V22H18.6612V19.5H12.4112C12.2454 19.5 12.0865 19.4342 11.9693 19.3169C11.852 19.1997 11.7862 19.0408 11.7862 18.875C11.7862 18.7092 11.852 18.5503 11.9693 18.4331C12.0865 18.3158 12.2454 18.25 12.4112 18.25H18.6612V15.75H14.2862C14.1204 15.75 13.9615 15.6842 13.8443 15.5669C13.727 15.4497 13.6612 15.2908 13.6612 15.125C13.6612 14.9592 13.727 14.8003 13.8443 14.6831C13.9615 14.5658 14.1204 14.5 14.2862 14.5H23.0362V12H13.6612C13.4954 12 13.3365 11.9342 13.2193 11.8169C13.102 11.6997 13.0362 11.5408 13.0362 11.375C13.0362 11.2092 13.102 11.0503 13.2193 10.9331C13.3365 10.8158 13.4954 10.75 13.6612 10.75H23.6612C23.827 10.75 23.9859 10.8158 24.1031 10.9331C24.2203 11.0503 24.2862 11.2092 24.2862 11.375ZM19.9112 18.25H23.0362V15.75H19.9112V18.25ZM23.0362 22V19.5H19.9112V22H23.0362Z" fill="#B2DCBC"/>
</svg>
