<svg width="24" height="24" viewBox="0 0 24 24" fill="none" xmlns="http://www.w3.org/2000/svg">
<path d="M12.5 21.75C18.15 21.75 22.75 17.15 22.75 11.5C22.75 5.85 18.15 1.25 12.5 1.25C6.85 1.25 2.25 5.85 2.25 11.5C2.25 17.15 6.85 21.75 12.5 21.75ZM12.5 2.75C17.33 2.75 21.25 6.68 21.25 11.5C21.25 16.32 17.33 20.25 12.5 20.25C7.67 20.25 3.75 16.32 3.75 11.5C3.75 6.68 7.67 2.75 12.5 2.75Z" fill="#3F4A58"/>
<path d="M2 22.7499C2.19 22.7499 2.38 22.6799 2.53 22.5299L4.53 20.5299C4.82 20.2399 4.82 19.7599 4.53 19.4699C4.24 19.1799 3.76 19.1799 3.47 19.4699L1.47 21.4699C1.18 21.7599 1.18 22.2399 1.47 22.5299C1.62 22.6799 1.81 22.7499 2 22.7499Z" fill="#3F4A58"/>
</svg>
