<svg width="44" height="44" viewBox="0 0 44 44" fill="none" xmlns="http://www.w3.org/2000/svg">
<rect x="-0.5" y="0.5" width="43" height="43" rx="11.5" transform="matrix(-1 0 0 1 43 0)" fill="white"/>
<rect x="-0.5" y="0.5" width="43" height="43" rx="11.5" transform="matrix(-1 0 0 1 43 0)" stroke="#E8ECF4"/>
<path d="M22.5 31.75C28.15 31.75 32.75 27.15 32.75 21.5C32.75 15.85 28.15 11.25 22.5 11.25C16.85 11.25 12.25 15.85 12.25 21.5C12.25 27.15 16.85 31.75 22.5 31.75ZM22.5 12.75C27.33 12.75 31.25 16.68 31.25 21.5C31.25 26.32 27.33 30.25 22.5 30.25C17.67 30.25 13.75 26.32 13.75 21.5C13.75 16.68 17.67 12.75 22.5 12.75Z" fill="#3F4A58"/>
<path d="M12 32.7499C12.19 32.7499 12.38 32.6799 12.53 32.5299L14.53 30.5299C14.82 30.2399 14.82 29.7599 14.53 29.4699C14.24 29.1799 13.76 29.1799 13.47 29.4699L11.47 31.4699C11.18 31.7599 11.18 32.2399 11.47 32.5299C11.62 32.6799 11.81 32.7499 12 32.7499Z" fill="#3F4A58"/>
</svg>
