<svg width="48" height="48" viewBox="0 0 48 48" fill="none" xmlns="http://www.w3.org/2000/svg">
<rect width="48" height="48" rx="24" fill="#B2DCBC" fill-opacity="0.21"/>
<g clip-path="url(#clip0_2445_1502)">
<path d="M21.75 20.25C21.75 20.1505 21.7105 20.0552 21.6402 19.9848C21.5698 19.9145 21.4745 19.875 21.375 19.875H19.125C19.0255 19.875 18.9302 19.9145 18.8598 19.9848C18.7895 20.0552 18.75 20.1505 18.75 20.25V22.5C18.75 22.5995 18.7895 22.6948 18.8598 22.7652C18.9302 22.8355 19.0255 22.875 19.125 22.875H21.375C21.4745 22.875 21.5698 22.8355 21.6402 22.7652C21.7105 22.6948 21.75 22.5995 21.75 22.5V20.25ZM21 22.125H19.5V20.625H21V22.125ZM22.875 19.875C22.7755 19.875 22.6802 19.9145 22.6098 19.9848C22.5395 20.0552 22.5 20.1505 22.5 20.25V22.5C22.5 22.5995 22.5395 22.6948 22.6098 22.7652C22.6802 22.8355 22.7755 22.875 22.875 22.875H25.125C25.2245 22.875 25.3198 22.8355 25.3902 22.7652C25.4605 22.6948 25.5 22.5995 25.5 22.5V20.25C25.5 20.1505 25.4605 20.0552 25.3902 19.9848C25.3198 19.9145 25.2245 19.875 25.125 19.875H22.875ZM24.75 22.125H23.25V20.625H24.75V22.125ZM18 24C18 23.9005 17.9605 23.8052 17.8902 23.7348C17.8198 23.6645 17.7245 23.625 17.625 23.625H15.375C15.2755 23.625 15.1802 23.6645 15.1098 23.7348C15.0395 23.8052 15 23.9005 15 24V26.25C15 26.3495 15.0395 26.4448 15.1098 26.5152C15.1802 26.5855 15.2755 26.625 15.375 26.625H17.625C17.7245 26.625 17.8198 26.5855 17.8902 26.5152C17.9605 26.4448 18 26.3495 18 26.25V24ZM17.25 25.875H15.75V24.375H17.25V25.875ZM21.75 24C21.75 23.9005 21.7105 23.8052 21.6402 23.7348C21.5698 23.6645 21.4745 23.625 21.375 23.625H19.125C19.0255 23.625 18.9302 23.6645 18.8598 23.7348C18.7895 23.8052 18.75 23.9005 18.75 24V26.25C18.75 26.3495 18.7895 26.4448 18.8598 26.5152C18.9302 26.5855 19.0255 26.625 19.125 26.625H21.375C21.4745 26.625 21.5698 26.5855 21.6402 26.5152C21.7105 26.4448 21.75 26.3495 21.75 26.25V24ZM21 25.875H19.5V24.375H21V25.875ZM17.625 27.375H15.375C15.2755 27.375 15.1802 27.4145 15.1098 27.4848C15.0395 27.5552 15 27.6505 15 27.75V30C15 30.0995 15.0395 30.1948 15.1098 30.2652C15.1802 30.3355 15.2755 30.375 15.375 30.375H17.625C17.7245 30.375 17.8198 30.3355 17.8902 30.2652C17.9605 30.1948 18 30.0995 18 30V27.75C18 27.6505 17.9605 27.5552 17.8902 27.4848C17.8198 27.4145 17.7245 27.375 17.625 27.375ZM17.25 29.625H15.75V28.125H17.25V29.625ZM21.375 27.375H19.125C19.0255 27.375 18.9302 27.4145 18.8598 27.4848C18.7895 27.5552 18.75 27.6505 18.75 27.75V30C18.75 30.0995 18.7895 30.1948 18.8598 30.2652C18.9302 30.3355 19.0255 30.375 19.125 30.375H21.375C21.4745 30.375 21.5698 30.3355 21.6402 30.2652C21.7105 30.1948 21.75 30.0995 21.75 30V27.75C21.75 27.6505 21.7105 27.5552 21.6402 27.4848C21.5698 27.4145 21.4745 27.375 21.375 27.375ZM21 29.625H19.5V28.125H21V29.625ZM28.875 22.5C27.6141 22.5 26.3816 22.8739 25.3332 23.5744C24.2849 24.2749 23.4678 25.2705 22.9853 26.4354C22.5028 27.6003 22.3765 28.8821 22.6225 30.1187C22.8685 31.3553 23.4756 32.4912 24.3672 33.3828C25.2588 34.2744 26.3947 34.8815 27.6313 35.1275C28.8679 35.3735 30.1497 35.2472 31.3146 34.7647C32.4795 34.2822 33.4751 33.4651 34.1756 32.4168C34.8761 31.3684 35.25 30.1359 35.25 28.875C35.2481 27.1848 34.5759 25.5644 33.3807 24.3693C32.1856 23.1741 30.5652 22.5019 28.875 22.5ZM28.875 34.5C27.7625 34.5 26.6749 34.1701 25.7499 33.552C24.8249 32.9339 24.1039 32.0554 23.6782 31.0276C23.2524 29.9998 23.141 28.8688 23.3581 27.7776C23.5751 26.6865 24.1109 25.6842 24.8975 24.8975C25.6842 24.1109 26.6865 23.5751 27.7776 23.3581C28.8688 23.141 29.9998 23.2524 31.0276 23.6782C32.0554 24.1039 32.9339 24.8249 33.552 25.7499C34.1701 26.6749 34.5 27.7625 34.5 28.875C34.4983 30.3663 33.9051 31.7961 32.8506 32.8506C31.7961 33.9051 30.3663 34.4983 28.875 34.5ZM22.125 31.875H14.625C14.3267 31.8747 14.0407 31.7561 13.8298 31.5452C13.6189 31.3343 13.5003 31.0483 13.5 30.75V18.375H30.75V21.75C30.75 21.8495 30.7895 21.9448 30.8598 22.0152C30.9302 22.0855 31.0255 22.125 31.125 22.125C31.2245 22.125 31.3198 22.0855 31.3902 22.0152C31.4605 21.9448 31.5 21.8495 31.5 21.75V16.5C31.4994 16.0029 31.3017 15.5263 30.9502 15.1748C30.5987 14.8233 30.1221 14.6256 29.625 14.625H28.5V13.875C28.5 13.5766 28.3815 13.2905 28.1705 13.0795C27.9595 12.8685 27.6734 12.75 27.375 12.75C27.0766 12.75 26.7905 12.8685 26.5795 13.0795C26.3685 13.2905 26.25 13.5766 26.25 13.875V14.625H23.25V13.875C23.25 13.5766 23.1315 13.2905 22.9205 13.0795C22.7095 12.8685 22.4234 12.75 22.125 12.75C21.8266 12.75 21.5405 12.8685 21.3295 13.0795C21.1185 13.2905 21 13.5766 21 13.875V14.625H18V13.875C18 13.5766 17.8815 13.2905 17.6705 13.0795C17.4595 12.8685 17.1734 12.75 16.875 12.75C16.5766 12.75 16.2905 12.8685 16.0795 13.0795C15.8685 13.2905 15.75 13.5766 15.75 13.875V14.625H14.625C14.1279 14.6256 13.6513 14.8233 13.2998 15.1748C12.9483 15.5263 12.7506 16.0029 12.75 16.5V30.75C12.7506 31.2471 12.9483 31.7237 13.2998 32.0752C13.6513 32.4267 14.1279 32.6244 14.625 32.625H22.125C22.2245 32.625 22.3198 32.5855 22.3902 32.5152C22.4605 32.4448 22.5 32.3495 22.5 32.25C22.5 32.1505 22.4605 32.0552 22.3902 31.9848C22.3198 31.9145 22.2245 31.875 22.125 31.875ZM27 13.875C27 13.7755 27.0395 13.6802 27.1098 13.6098C27.1802 13.5395 27.2755 13.5 27.375 13.5C27.4745 13.5 27.5698 13.5395 27.6402 13.6098C27.7105 13.6802 27.75 13.7755 27.75 13.875V15.75C27.75 15.8495 27.7105 15.9448 27.6402 16.0152C27.5698 16.0855 27.4745 16.125 27.375 16.125C27.2755 16.125 27.1802 16.0855 27.1098 16.0152C27.0395 15.9448 27 15.8495 27 15.75V13.875ZM21.75 13.875C21.75 13.7755 21.7895 13.6802 21.8598 13.6098C21.9302 13.5395 22.0255 13.5 22.125 13.5C22.2245 13.5 22.3198 13.5395 22.3902 13.6098C22.4605 13.6802 22.5 13.7755 22.5 13.875V15.75C22.5 15.8495 22.4605 15.9448 22.3902 16.0152C22.3198 16.0855 22.2245 16.125 22.125 16.125C22.0255 16.125 21.9302 16.0855 21.8598 16.0152C21.7895 15.9448 21.75 15.8495 21.75 15.75V13.875ZM16.5 13.875C16.5 13.7755 16.5395 13.6802 16.6098 13.6098C16.6802 13.5395 16.7755 13.5 16.875 13.5C16.9745 13.5 17.0698 13.5395 17.1402 13.6098C17.2105 13.6802 17.25 13.7755 17.25 13.875V15.75C17.25 15.8495 17.2105 15.9448 17.1402 16.0152C17.0698 16.0855 16.9745 16.125 16.875 16.125C16.7755 16.125 16.6802 16.0855 16.6098 16.0152C16.5395 15.9448 16.5 15.8495 16.5 15.75V13.875ZM14.625 15.375H15.75V15.75C15.75 16.0484 15.8685 16.3345 16.0795 16.5455C16.2905 16.7565 16.5766 16.875 16.875 16.875C17.1734 16.875 17.4595 16.7565 17.6705 16.5455C17.8815 16.3345 18 16.0484 18 15.75V15.375H21V15.75C21 16.0484 21.1185 16.3345 21.3295 16.5455C21.5405 16.7565 21.8266 16.875 22.125 16.875C22.4234 16.875 22.7095 16.7565 22.9205 16.5455C23.1315 16.3345 23.25 16.0484 23.25 15.75V15.375H26.25V15.75C26.25 16.0484 26.3685 16.3345 26.5795 16.5455C26.7905 16.7565 27.0766 16.875 27.375 16.875C27.6734 16.875 27.9595 16.7565 28.1705 16.5455C28.3815 16.3345 28.5 16.0484 28.5 15.75V15.375H29.625C29.9233 15.3753 30.2093 15.4939 30.4202 15.7048C30.6311 15.9157 30.7497 16.2017 30.75 16.5V17.625H13.5V16.5C13.5003 16.2017 13.6189 15.9157 13.8298 15.7048C14.0407 15.4939 14.3267 15.3753 14.625 15.375ZM28.5 21.375V20.625H27V21.7193C27 21.8187 26.9605 21.9141 26.8902 21.9844C26.8198 22.0547 26.7245 22.0943 26.625 22.0943C26.5255 22.0943 26.4302 22.0547 26.3598 21.9844C26.2895 21.9141 26.25 21.8187 26.25 21.7193V20.25C26.25 20.1505 26.2895 20.0552 26.3598 19.9848C26.4302 19.9145 26.5255 19.875 26.625 19.875H28.875C28.9745 19.875 29.0698 19.9145 29.1402 19.9848C29.2105 20.0552 29.25 20.1505 29.25 20.25V21.375C29.25 21.4745 29.2105 21.5698 29.1402 21.6402C29.0698 21.7105 28.9745 21.75 28.875 21.75C28.7755 21.75 28.6802 21.7105 28.6098 21.6402C28.5395 21.5698 28.5 21.4745 28.5 21.375ZM28.875 24C27.9108 24 26.9683 24.2859 26.1666 24.8216C25.3649 25.3573 24.7401 26.1186 24.3711 27.0094C24.0021 27.9002 23.9056 28.8804 24.0937 29.8261C24.2818 30.7717 24.7461 31.6404 25.4279 32.3221C26.1096 33.0039 26.9783 33.4682 27.9239 33.6563C28.8696 33.8444 29.8498 33.7479 30.7406 33.3789C31.6314 33.0099 32.3927 32.3851 32.9284 31.5834C33.4641 30.7817 33.75 29.8392 33.75 28.875C33.7485 27.5825 33.2344 26.3434 32.3205 25.4295C31.4066 24.5156 30.1675 24.0015 28.875 24ZM29.25 32.9813V32.25C29.25 32.1505 29.2105 32.0552 29.1402 31.9848C29.0698 31.9145 28.9745 31.875 28.875 31.875C28.7755 31.875 28.6802 31.9145 28.6098 31.9848C28.5395 32.0552 28.5 32.1505 28.5 32.25V32.9813C27.5404 32.8925 26.642 32.4709 25.9606 31.7894C25.2791 31.108 24.8575 30.2096 24.7687 29.25H25.5C25.5995 29.25 25.6948 29.2105 25.7652 29.1402C25.8355 29.0698 25.875 28.9745 25.875 28.875C25.875 28.7755 25.8355 28.6802 25.7652 28.6098C25.6948 28.5395 25.5995 28.5 25.5 28.5H24.7687C24.8575 27.5404 25.2791 26.642 25.9606 25.9606C26.642 25.2791 27.5404 24.8575 28.5 24.7688V25.5C28.5 25.5995 28.5395 25.6948 28.6098 25.7652C28.6802 25.8355 28.7755 25.875 28.875 25.875C28.9745 25.875 29.0698 25.8355 29.1402 25.7652C29.2105 25.6948 29.25 25.5995 29.25 25.5V24.7688C30.2096 24.8575 31.108 25.2791 31.7894 25.9606C32.4709 26.642 32.8925 27.5404 32.9813 28.5H32.25C32.1505 28.5 32.0552 28.5395 31.9848 28.6098C31.9145 28.6802 31.875 28.7755 31.875 28.875C31.875 28.9745 31.9145 29.0698 31.9848 29.1402C32.0552 29.2105 32.1505 29.25 32.25 29.25H32.9813C32.8925 30.2096 32.4709 31.108 31.7894 31.7894C31.108 32.4709 30.2096 32.8925 29.25 32.9813ZM30.2651 29.7349C30.3009 29.7695 30.3295 29.8108 30.3492 29.8566C30.3688 29.9024 30.3792 29.9516 30.3796 30.0014C30.38 30.0511 30.3705 30.1005 30.3517 30.1466C30.3328 30.1927 30.305 30.2346 30.2698 30.2698C30.2346 30.305 30.1927 30.3328 30.1466 30.3517C30.1005 30.3705 30.0511 30.38 30.0013 30.3796C29.9516 30.3792 29.9023 30.3688 29.8566 30.3492C29.8108 30.3295 29.7695 30.3009 29.7349 30.2651L28.6099 29.1401C28.5395 29.0698 28.5 28.9744 28.5 28.875V27C28.5 26.9005 28.5395 26.8052 28.6098 26.7348C28.6802 26.6645 28.7755 26.625 28.875 26.625C28.9745 26.625 29.0698 26.6645 29.1402 26.7348C29.2105 26.8052 29.25 26.9005 29.25 27V28.7198L30.2651 29.7349Z" fill="#091C2B"/>
</g>
<defs>
<clipPath id="clip0_2445_1502">
<rect width="24" height="24" fill="white" transform="translate(12 12)"/>
</clipPath>
</defs>
</svg>
