<svg width="33" height="33" viewBox="0 0 33 33" fill="none" xmlns="http://www.w3.org/2000/svg">
<rect x="0.179108" y="0.10746" width="32.1075" height="32.1075" rx="16.0537" fill="white"/>
<path d="M25.3578 17.9113C25.2922 17.9605 25.2175 17.9963 25.138 18.0167C25.0584 18.0371 24.9757 18.0416 24.8945 18.03C24.8132 18.0184 24.735 17.9909 24.6644 17.949C24.5938 17.9072 24.5321 17.8519 24.4828 17.7863C24.1061 17.2799 23.6158 16.8691 23.0513 16.5868C22.4868 16.3046 21.864 16.1588 21.2328 16.1613C21.1099 16.1612 20.9898 16.125 20.8874 16.057C20.7849 15.9891 20.7048 15.8925 20.6571 15.7792C20.6246 15.7023 20.6079 15.6197 20.6079 15.5363C20.6079 15.4528 20.6246 15.3702 20.6571 15.2933C20.7048 15.18 20.7849 15.0834 20.8874 15.0155C20.9898 14.9475 21.1099 14.9113 21.2328 14.9113C21.5835 14.9112 21.9272 14.8128 22.2247 14.6273C22.5223 14.4418 22.7619 14.1765 22.9163 13.8616C23.0706 13.5467 23.1336 13.1949 23.098 12.846C23.0624 12.4971 22.9297 12.1652 22.7149 11.888C22.5002 11.6108 22.212 11.3993 21.8831 11.2777C21.5542 11.156 21.1977 11.1291 20.8543 11.1998C20.5108 11.2706 20.1941 11.4363 19.9401 11.678C19.686 11.9198 19.5049 12.228 19.4172 12.5675C19.3967 12.647 19.3607 12.7217 19.3113 12.7873C19.2619 12.8529 19.2001 12.9082 19.1294 12.9499C19.0587 12.9916 18.9804 13.019 18.8991 13.0304C18.8178 13.0419 18.735 13.0372 18.6555 13.0167C18.576 12.9962 18.5013 12.9602 18.4357 12.9108C18.3701 12.8615 18.3148 12.7996 18.2731 12.7289C18.2314 12.6582 18.204 12.5799 18.1926 12.4986C18.1811 12.4173 18.1858 12.3345 18.2063 12.255C18.328 11.7842 18.5579 11.3482 18.8777 10.9818C19.1975 10.6155 19.5984 10.3288 20.0485 10.1447C20.4986 9.96049 20.9855 9.88393 21.4704 9.92104C21.9553 9.95816 22.4248 10.1079 22.8417 10.3584C23.2585 10.609 23.6111 10.9533 23.8714 11.3641C24.1318 11.7748 24.2926 12.2407 24.3412 12.7246C24.3898 13.2085 24.3248 13.697 24.1514 14.1514C23.978 14.6057 23.7009 15.0133 23.3422 15.3417C24.1921 15.7097 24.9309 16.2936 25.4852 17.0355C25.5344 17.1013 25.5702 17.1762 25.5905 17.2559C25.6107 17.3355 25.615 17.4184 25.6032 17.4998C25.5914 17.5811 25.5636 17.6594 25.5215 17.73C25.4794 17.8006 25.4238 17.8622 25.3578 17.9113ZM21.1485 22.7238C21.1937 22.7949 21.2241 22.8744 21.2377 22.9576C21.2514 23.0408 21.2481 23.1259 21.2281 23.2077C21.208 23.2896 21.1716 23.3666 21.121 23.434C21.0705 23.5015 21.0068 23.558 20.9338 23.6002C20.8608 23.6423 20.7801 23.6693 20.6964 23.6795C20.6127 23.6897 20.5278 23.6828 20.4469 23.6593C20.3659 23.6358 20.2906 23.5962 20.2253 23.5428C20.1601 23.4895 20.1063 23.4234 20.0672 23.3488C19.6735 22.6821 19.1128 22.1296 18.4404 21.7458C17.7679 21.362 17.0071 21.1601 16.2328 21.1601C15.4586 21.1601 14.6977 21.362 14.0253 21.7458C13.3529 22.1296 12.7922 22.6821 12.3985 23.3488C12.3594 23.4234 12.3056 23.4895 12.2404 23.5428C12.1751 23.5962 12.0998 23.6358 12.0188 23.6593C11.9378 23.6828 11.853 23.6897 11.7693 23.6795C11.6856 23.6693 11.6049 23.6423 11.5319 23.6002C11.4589 23.558 11.3952 23.5015 11.3446 23.434C11.2941 23.3666 11.2577 23.2896 11.2376 23.2077C11.2176 23.1259 11.2143 23.0408 11.228 22.9576C11.2416 22.8744 11.272 22.7949 11.3172 22.7238C11.9232 21.6826 12.8471 20.8633 13.9532 20.3863C13.3308 19.9097 12.8733 19.2501 12.6452 18.5002C12.417 17.7502 12.4296 16.9477 12.6812 16.2052C12.9328 15.4628 13.4107 14.8179 14.0477 14.3612C14.6848 13.9044 15.449 13.6587 16.2328 13.6587C17.0167 13.6587 17.7809 13.9044 18.4179 14.3612C19.055 14.8179 19.5329 15.4628 19.7845 16.2052C20.036 16.9477 20.0486 17.7502 19.8205 18.5002C19.5924 19.2501 19.1349 19.9097 18.5125 20.3863C19.6186 20.8633 20.5425 21.6826 21.1485 22.7238ZM16.2328 19.9113C16.7273 19.9113 17.2106 19.7646 17.6218 19.4899C18.0329 19.2152 18.3533 18.8248 18.5425 18.368C18.7318 17.9111 18.7813 17.4085 18.6848 16.9235C18.5883 16.4386 18.3502 15.9931 18.0006 15.6435C17.651 15.2939 17.2055 15.0558 16.7206 14.9593C16.2356 14.8628 15.7329 14.9123 15.2761 15.1016C14.8193 15.2908 14.4289 15.6112 14.1542 16.0223C13.8795 16.4334 13.7328 16.9168 13.7328 17.4113C13.7328 18.0743 13.9962 18.7102 14.4651 19.179C14.9339 19.6479 15.5698 19.9113 16.2328 19.9113ZM11.8578 15.5363C11.8578 15.3705 11.792 15.2115 11.6748 15.0943C11.5576 14.9771 11.3986 14.9113 11.2328 14.9113C10.8822 14.9112 10.5385 14.8128 10.2409 14.6273C9.94337 14.4418 9.70379 14.1765 9.54943 13.8616C9.39506 13.5467 9.3321 13.1949 9.36768 12.846C9.40327 12.4971 9.53598 12.1652 9.75074 11.888C9.9655 11.6108 10.2537 11.3993 10.5826 11.2777C10.9115 11.156 11.2679 11.1291 11.6114 11.1998C11.9549 11.2706 12.2716 11.4363 12.5256 11.678C12.7797 11.9198 12.9608 12.228 13.0485 12.5675C13.0899 12.7281 13.1934 12.8656 13.3363 12.9499C13.4791 13.0341 13.6496 13.0582 13.8102 13.0167C13.9708 12.9753 14.1083 12.8717 14.1926 12.7289C14.2768 12.586 14.3008 12.4156 14.2594 12.255C14.1377 11.7842 13.9078 11.3482 13.588 10.9818C13.2682 10.6155 12.8673 10.3288 12.4172 10.1447C11.9671 9.96049 11.4802 9.88393 10.9953 9.92104C10.5104 9.95816 10.0409 10.1079 9.62403 10.3584C9.2072 10.609 8.8546 10.9533 8.59426 11.3641C8.33393 11.7748 8.17306 12.2407 8.12446 12.7246C8.07585 13.2085 8.14085 13.697 8.31428 14.1514C8.48771 14.6057 8.76479 15.0133 9.12347 15.3417C8.27447 15.71 7.53652 16.2939 6.98284 17.0355C6.88328 17.1681 6.84048 17.3348 6.86385 17.499C6.88722 17.6631 6.97484 17.8113 7.10745 17.9109C7.24006 18.0104 7.40679 18.0532 7.57095 18.0299C7.73512 18.0065 7.88328 17.9189 7.98284 17.7863C8.35955 17.2799 8.84988 16.8691 9.41437 16.5868C9.97886 16.3046 10.6017 16.1588 11.2328 16.1613C11.3986 16.1613 11.5576 16.0954 11.6748 15.9782C11.792 15.861 11.8578 15.702 11.8578 15.5363Z" fill="#B2DCBC"/>
</svg>
