<svg width="48" height="48" viewBox="0 0 48 48" fill="none" xmlns="http://www.w3.org/2000/svg">
<rect width="48" height="48" rx="24" fill="#B2DCBC" fill-opacity="0.21"/>
<path d="M34.95 26.1001C34.8712 26.1592 34.7815 26.2022 34.6861 26.2266C34.5907 26.2511 34.4914 26.2565 34.3939 26.2425C34.2964 26.2286 34.2026 26.1956 34.1179 26.1454C34.0331 26.0953 33.9591 26.0289 33.9 25.9501C33.4479 25.3424 32.8595 24.8494 32.1822 24.5107C31.5048 24.1721 30.7573 23.9971 30 24.0001C29.8525 24.0001 29.7083 23.9566 29.5854 23.875C29.4625 23.7935 29.3664 23.6775 29.3091 23.5416C29.2701 23.4494 29.2501 23.3502 29.2501 23.2501C29.2501 23.1499 29.2701 23.0508 29.3091 22.9585C29.3664 22.8226 29.4625 22.7067 29.5854 22.6251C29.7083 22.5436 29.8525 22.5001 30 22.5001C30.4208 22.5 30.8332 22.382 31.1903 22.1593C31.5474 21.9367 31.8349 21.6183 32.0201 21.2405C32.2053 20.8626 32.2809 20.4404 32.2382 20.0218C32.1955 19.6031 32.0362 19.2048 31.7785 18.8722C31.5208 18.5395 31.175 18.2858 30.7803 18.1398C30.3856 17.9938 29.9579 17.9614 29.5457 18.0464C29.1336 18.1313 28.7535 18.3301 28.4486 18.6202C28.1438 18.9103 27.9264 19.2801 27.8212 19.6876C27.7966 19.783 27.7534 19.8726 27.6942 19.9513C27.6349 20.0301 27.5607 20.0964 27.4759 20.1464C27.391 20.1965 27.2971 20.2293 27.1995 20.2431C27.1019 20.2568 27.0026 20.2513 26.9072 20.2266C26.8118 20.202 26.7221 20.1588 26.6434 20.0996C26.5647 20.0403 26.4984 19.9661 26.4483 19.8813C26.3983 19.7964 26.3654 19.7025 26.3517 19.6049C26.3379 19.5073 26.3435 19.408 26.3681 19.3126C26.5141 18.7476 26.79 18.2244 27.1738 17.7848C27.5576 17.3451 28.0387 17.0011 28.5788 16.7802C29.1189 16.5592 29.7032 16.4673 30.285 16.5118C30.8669 16.5564 31.4304 16.7361 31.9306 17.0367C32.4308 17.3373 32.8539 17.7505 33.1663 18.2435C33.4787 18.7364 33.6717 19.2954 33.7301 19.8761C33.7884 20.4567 33.7104 21.043 33.5023 21.5882C33.2941 22.1334 32.9617 22.6225 32.5312 23.0166C33.5511 23.4582 34.4376 24.1589 35.1028 25.0491C35.1619 25.1281 35.2048 25.218 35.2291 25.3136C35.2534 25.4092 35.2586 25.5087 35.2444 25.6063C35.2302 25.7039 35.1969 25.7978 35.1464 25.8825C35.0959 25.9673 35.0291 26.0412 34.95 26.1001ZM29.8987 31.8751C29.953 31.9604 29.9894 32.0559 30.0059 32.1557C30.0223 32.2555 30.0183 32.3576 29.9943 32.4559C29.9702 32.5541 29.9265 32.6465 29.8658 32.7274C29.8051 32.8083 29.7287 32.8761 29.6411 32.9268C29.5536 32.9774 29.4567 33.0098 29.3562 33.022C29.2558 33.0342 29.154 33.0259 29.0568 32.9977C28.9597 32.9696 28.8693 32.922 28.791 32.858C28.7127 32.7939 28.6481 32.7147 28.6012 32.6251C28.1288 31.8251 27.4559 31.1621 26.649 30.7015C25.8421 30.2409 24.9291 29.9987 24 29.9987C23.0709 29.9987 22.1579 30.2409 21.351 30.7015C20.5441 31.1621 19.8712 31.8251 19.3987 32.6251C19.3519 32.7147 19.2873 32.7939 19.209 32.858C19.1307 32.922 19.0403 32.9696 18.9431 32.9977C18.846 33.0259 18.7442 33.0342 18.6437 33.022C18.5433 33.0098 18.4464 32.9774 18.3588 32.9268C18.2713 32.8761 18.1948 32.8083 18.1342 32.7274C18.0735 32.6465 18.0298 32.5541 18.0057 32.4559C17.9817 32.3576 17.9777 32.2555 17.9941 32.1557C18.0105 32.0559 18.047 31.9604 18.1012 31.8751C18.8284 30.6257 19.9371 29.6426 21.2644 29.0701C20.5175 28.4982 19.9686 27.7067 19.6948 26.8068C19.421 25.9069 19.4362 24.9438 19.738 24.0529C20.0399 23.162 20.6134 22.3881 21.3779 21.84C22.1423 21.2918 23.0593 20.9971 24 20.9971C24.9406 20.9971 25.8577 21.2918 26.6221 21.84C27.3866 22.3881 27.9601 23.162 28.262 24.0529C28.5638 24.9438 28.579 25.9069 28.3052 26.8068C28.0314 27.7067 27.4825 28.4982 26.7356 29.0701C28.0629 29.6426 29.1716 30.6257 29.8987 31.8751ZM24 28.5001C24.5933 28.5001 25.1734 28.3241 25.6667 27.9945C26.1601 27.6648 26.5446 27.1963 26.7716 26.6481C26.9987 26.0999 27.0581 25.4967 26.9424 24.9148C26.8266 24.3329 26.5409 23.7983 26.1213 23.3788C25.7018 22.9592 25.1672 22.6735 24.5853 22.5577C24.0033 22.442 23.4001 22.5014 22.8519 22.7284C22.3038 22.9555 21.8352 23.34 21.5056 23.8334C21.1759 24.3267 21 24.9067 21 25.5001C21 26.2957 21.3161 27.0588 21.8787 27.6214C22.4413 28.184 23.2043 28.5001 24 28.5001ZM18.75 23.2501C18.75 23.0512 18.671 22.8604 18.5303 22.7197C18.3897 22.5791 18.1989 22.5001 18 22.5001C17.5792 22.5 17.1668 22.382 16.8097 22.1593C16.4526 21.9367 16.1651 21.6183 15.9799 21.2405C15.7947 20.8626 15.7191 20.4404 15.7618 20.0218C15.8045 19.6031 15.9638 19.2048 16.2215 18.8722C16.4792 18.5395 16.825 18.2858 17.2197 18.1398C17.6144 17.9938 18.0421 17.9614 18.4543 18.0464C18.8664 18.1313 19.2465 18.3301 19.5513 18.6202C19.8562 18.9103 20.0735 19.2801 20.1787 19.6876C20.2285 19.8803 20.3527 20.0453 20.5241 20.1464C20.6956 20.2475 20.9001 20.2764 21.0928 20.2266C21.2855 20.1769 21.4506 20.0527 21.5516 19.8813C21.6527 19.7098 21.6816 19.5053 21.6319 19.3126C21.4858 18.7476 21.21 18.2244 20.8262 17.7848C20.4424 17.3451 19.9613 17.0011 19.4212 16.7802C18.8811 16.5592 18.2968 16.4673 17.715 16.5118C17.1331 16.5564 16.5696 16.7361 16.0694 17.0367C15.5692 17.3373 15.1461 17.7505 14.8337 18.2435C14.5213 18.7364 14.3283 19.2954 14.2699 19.8761C14.2116 20.4567 14.2896 21.043 14.4977 21.5882C14.7058 22.1334 15.0383 22.6225 15.4687 23.0166C14.4499 23.4586 13.5644 24.1593 12.9 25.0491C12.7805 25.2083 12.7292 25.4083 12.7572 25.6053C12.7852 25.8023 12.8904 25.9801 13.0495 26.0996C13.2087 26.2191 13.4087 26.2704 13.6057 26.2424C13.8027 26.2144 13.9805 26.1092 14.1 25.9501C14.552 25.3424 15.1404 24.8494 15.8178 24.5107C16.4952 24.1721 17.2427 23.9971 18 24.0001C18.1989 24.0001 18.3897 23.9211 18.5303 23.7804C18.671 23.6398 18.75 23.449 18.75 23.2501Z" fill="#091C2B"/>
</svg>
