<svg width="16" height="16" viewBox="0 0 16 16" fill="none" xmlns="http://www.w3.org/2000/svg">
<path d="M13.9999 4.48667C13.9866 4.48667 13.9666 4.48667 13.9466 4.48667C10.4199 4.13334 6.89994 4 3.41328 4.35334L2.05328 4.48667C1.77328 4.51334 1.52661 4.31334 1.49994 4.03334C1.47328 3.75334 1.67328 3.51334 1.94661 3.48667L3.30661 3.35334C6.85328 2.99334 10.4466 3.13334 14.0466 3.48667C14.3199 3.51334 14.5199 3.76 14.4933 4.03334C14.4733 4.29334 14.2533 4.48667 13.9999 4.48667Z" fill="#292D32"/>
<path d="M5.66663 3.81334C5.63997 3.81334 5.6133 3.81334 5.57997 3.80667C5.3133 3.76 5.12663 3.5 5.1733 3.23334L5.31997 2.36C5.42663 1.72 5.5733 0.833336 7.12663 0.833336H8.8733C10.4333 0.833336 10.58 1.75334 10.68 2.36667L10.8266 3.23334C10.8733 3.50667 10.6866 3.76667 10.42 3.80667C10.1466 3.85334 9.88663 3.66667 9.84663 3.4L9.69997 2.53334C9.60663 1.95334 9.58663 1.84 8.87997 1.84H7.1333C6.42663 1.84 6.4133 1.93334 6.3133 2.52667L6.15997 3.39334C6.11997 3.64 5.90663 3.81334 5.66663 3.81334Z" fill="#292D32"/>
<path d="M10.14 15.1667H5.85997C3.53331 15.1667 3.43997 13.88 3.36664 12.84L2.93331 6.12666C2.91331 5.85333 3.12664 5.61333 3.39997 5.59333C3.67997 5.58 3.91331 5.78666 3.93331 6.06L4.36664 12.7733C4.43997 13.7867 4.46664 14.1667 5.85997 14.1667H10.14C11.54 14.1667 11.5666 13.7867 11.6333 12.7733L12.0666 6.06C12.0866 5.78666 12.3266 5.58 12.6 5.59333C12.8733 5.61333 13.0866 5.84666 13.0666 6.12666L12.6333 12.84C12.56 13.88 12.4666 15.1667 10.14 15.1667Z" fill="#292D32"/>
<path d="M9.10672 11.5H6.88672C6.61339 11.5 6.38672 11.2733 6.38672 11C6.38672 10.7267 6.61339 10.5 6.88672 10.5H9.10672C9.38005 10.5 9.60672 10.7267 9.60672 11C9.60672 11.2733 9.38005 11.5 9.10672 11.5Z" fill="#292D32"/>
<path d="M9.66671 8.83334H6.33337C6.06004 8.83334 5.83337 8.60667 5.83337 8.33334C5.83337 8.06 6.06004 7.83334 6.33337 7.83334H9.66671C9.94004 7.83334 10.1667 8.06 10.1667 8.33334C10.1667 8.60667 9.94004 8.83334 9.66671 8.83334Z" fill="#292D32"/>
</svg>
