<svg width="24" height="24" viewBox="0 0 24 24" fill="none" xmlns="http://www.w3.org/2000/svg">
<path d="M18.9198 0.863835C18.9664 0.884059 19.016 0.893539 19.0658 0.891723C19.1695 0.887331 19.2676 0.837475 19.3396 0.752675C19.4115 0.667866 19.4515 0.55473 19.4512 0.437113C19.4512 0.321185 19.4106 0.210001 19.3383 0.128025C19.2659 0.0460564 19.1678 0 19.0655 0C18.9633 0 18.8651 0.0460564 18.7929 0.128025C18.7205 0.210001 18.6798 0.321185 18.6798 0.437113V0.472106C18.6803 0.52857 18.6908 0.584362 18.7105 0.636194C18.7302 0.688034 18.759 0.734874 18.7949 0.773971C18.8309 0.813059 18.8733 0.843611 18.9198 0.863835Z" fill="#091C2B"/>
<path d="M16.3625 2.18165C16.2603 2.18126 16.1622 2.13596 16.0888 2.05529L16.0398 1.9942C16.004 1.95371 15.9757 1.90566 15.9564 1.85277C15.937 1.79988 15.9271 1.74319 15.9271 1.68595C15.9271 1.6287 15.937 1.57201 15.9564 1.51911C15.9757 1.46622 16.004 1.41817 16.0398 1.37769C16.0755 1.33721 16.1179 1.3051 16.1646 1.28318C16.2112 1.26128 16.2613 1.25 16.3118 1.25C16.3623 1.25 16.4123 1.26128 16.459 1.28318C16.5056 1.3051 16.5481 1.33721 16.5838 1.37769L16.6328 1.43322C16.6686 1.47367 16.6969 1.52172 16.7163 1.57462C16.7356 1.62751 16.7456 1.68422 16.7456 1.74148C16.7456 1.79875 16.7356 1.85546 16.7163 1.90835C16.6969 1.96124 16.6686 2.00929 16.6328 2.04974C16.598 2.09126 16.5561 2.12435 16.5097 2.14702C16.4633 2.16969 16.413 2.18148 16.3625 2.18165Z" fill="#091C2B"/>
<path d="M21.4971 2.05559C21.5706 2.13626 21.6686 2.18156 21.7709 2.18195C21.8211 2.18218 21.8708 2.17113 21.9171 2.14945C21.9635 2.12776 22.0057 2.09586 22.0412 2.05559L22.0902 2.00005C22.1623 1.91829 22.2028 1.80741 22.2028 1.6918C22.2028 1.57618 22.1623 1.46529 22.0902 1.38354C22.018 1.30179 21.9202 1.25586 21.8182 1.25586C21.7161 1.25586 21.6183 1.30179 21.5461 1.38354L21.4971 1.43908C21.4614 1.47953 21.433 1.52757 21.4136 1.58047C21.3943 1.63336 21.3843 1.69007 21.3843 1.74734C21.3843 1.80461 21.3943 1.86131 21.4136 1.91421C21.433 1.9671 21.4614 2.01515 21.4971 2.05559Z" fill="#091C2B"/>
<path d="M15.2395 5.24623H15.2087C15.1064 5.24623 15.0083 5.20023 14.9359 5.11823C14.8637 5.03623 14.823 4.92511 14.823 4.80919C14.823 4.69319 14.8637 4.58207 14.9359 4.50007C15.0083 4.41807 15.1064 4.37207 15.2087 4.37207C15.3125 4.37175 15.4123 4.41719 15.4872 4.49871C15.5621 4.58023 15.606 4.69159 15.6098 4.80919C15.6114 4.86559 15.603 4.92175 15.5851 4.97447C15.5673 5.02719 15.5403 5.07527 15.5058 5.11599C15.4714 5.15671 15.43 5.18919 15.3843 5.2116C15.3386 5.23392 15.2894 5.24575 15.2395 5.24623Z" fill="#091C2B"/>
<path d="M22.8925 5.24623H22.9233C22.9732 5.24575 23.0224 5.23392 23.0681 5.2116C23.1138 5.18919 23.1551 5.15671 23.1896 5.11599C23.2241 5.07527 23.2511 5.02719 23.2689 4.97447C23.2868 4.92175 23.2952 4.86559 23.2936 4.80919C23.2898 4.69159 23.2458 4.58023 23.171 4.49871C23.0961 4.41719 22.9963 4.37175 22.8925 4.37207C22.7902 4.37207 22.6921 4.41807 22.6197 4.50007C22.5474 4.58207 22.5068 4.69319 22.5068 4.80919C22.5068 4.92511 22.5474 5.03623 22.6197 5.11823C22.6921 5.20023 22.7902 5.24623 22.8925 5.24623Z" fill="#091C2B"/>
<path d="M16.3128 8.36683C16.2104 8.36643 16.1122 8.32099 16.0388 8.24019C16.003 8.19971 15.9746 8.15171 15.9553 8.09883C15.936 8.04587 15.9259 7.98923 15.9259 7.93195C15.9259 7.87467 15.936 7.81795 15.9553 7.76507C15.9746 7.71219 16.003 7.66411 16.0388 7.62371L16.0878 7.56811C16.1599 7.48635 16.2578 7.44043 16.3598 7.44043C16.4618 7.44043 16.5597 7.48635 16.6318 7.56811C16.704 7.64987 16.7445 7.76075 16.7445 7.87643C16.7445 7.99203 16.704 8.10291 16.6318 8.18467L16.5828 8.24019C16.5109 8.32083 16.4139 8.36635 16.3128 8.36683Z" fill="#091C2B"/>
<path d="M21.546 8.24019C21.6194 8.32099 21.7176 8.36643 21.8199 8.36683C21.8701 8.36699 21.9198 8.35587 21.9661 8.33411C22.0125 8.31243 22.0546 8.28043 22.09 8.24019C22.1257 8.19971 22.1541 8.15171 22.1735 8.09883C22.1929 8.04587 22.2028 7.98923 22.2028 7.93195C22.2028 7.87467 22.1929 7.81795 22.1735 7.76507C22.1541 7.71219 22.1257 7.66411 22.09 7.62371L22.041 7.56811C21.9688 7.48635 21.871 7.44043 21.769 7.44043C21.667 7.44043 21.5691 7.48635 21.497 7.56811C21.4249 7.64987 21.3843 7.76075 21.3843 7.87643C21.3843 7.99203 21.4249 8.10291 21.497 8.18467L21.546 8.24019Z" fill="#091C2B"/>
<path d="M18.9209 9.57177C18.9673 9.59201 19.0169 9.60145 19.0667 9.59969C19.1705 9.59537 19.2686 9.54553 19.3406 9.46073C19.4126 9.37593 19.4526 9.26273 19.4524 9.14513C19.4524 9.02913 19.4117 8.91801 19.3394 8.83601C19.2671 8.75401 19.169 8.70801 19.0667 8.70801C18.9644 8.70801 18.8663 8.75401 18.7939 8.83601C18.7217 8.91801 18.681 9.02913 18.681 9.14513V9.18009C18.6815 9.23649 18.6919 9.29233 18.7116 9.34409C18.7313 9.39593 18.7601 9.44273 18.796 9.48185C18.8318 9.52097 18.8743 9.55153 18.9209 9.57177Z" fill="#091C2B"/>
<path d="M19.0675 7.97762C18.5143 7.9777 17.9736 7.79186 17.5137 7.44362C17.0537 7.09538 16.6953 6.60034 16.4836 6.02121C16.2719 5.44201 16.2165 4.80473 16.3243 4.18993C16.4323 3.57505 16.6986 3.01027 17.0897 2.567C17.4808 2.12371 17.9792 1.82185 18.5217 1.69956C19.0642 1.57727 19.6265 1.64007 20.1376 1.87999C20.6486 2.11991 21.0853 2.5262 21.3926 3.04746C21.6999 3.56872 21.8639 4.18153 21.8638 4.80841C21.8632 5.64873 21.5684 6.4545 21.0441 7.04866C20.5198 7.6429 19.8089 7.97698 19.0675 7.97762Z" fill="#091C2B"/>
<path fill-rule="evenodd" clip-rule="evenodd" d="M5.35256 2.12849C5.22028 1.76018 4.84964 1.5831 4.52465 1.73298C4.19966 1.88286 4.04342 2.30294 4.17567 2.67126L4.4795 3.51747C2.07874 4.94326 0.69329 8.35951 0.302887 13.245C0.282755 13.4969 0.380725 13.7422 0.560958 13.8914C0.741191 14.0406 0.977259 14.0716 1.18283 13.9732L4.05422 12.5983L4.05634 12.5973L7.21327 11.0704L11.8891 22.6768H0V24H24V22.6768H13.5169L8.382 10.5051L11.4811 9.00624L14.5796 7.54391C14.7916 7.44383 14.9394 7.22199 14.9663 6.96359C14.9932 6.70519 14.895 6.45047 14.7095 6.29727C11.2866 3.47132 8.17884 2.27225 5.66611 3.00177L5.35256 2.12849ZM1.68981 12.1672C1.98647 9.7492 2.55258 7.92583 3.31782 6.64239C3.13799 7.89703 3.08678 9.50288 3.15317 11.4665L1.68981 12.1672ZM6.73072 9.73816L4.40723 10.8619C4.36343 8.94015 4.44787 7.47783 4.64574 6.42495C4.75998 5.8171 4.90233 5.3943 5.05192 5.10342L6.73072 9.73816ZM7.89946 9.17288L6.22623 4.55342C6.5143 4.64206 6.87854 4.83254 7.33658 5.17886C8.118 5.76958 9.05696 6.72903 10.1636 8.07783L7.89946 9.17288ZM11.4059 7.48183C10.3623 6.17927 9.4188 5.1491 8.57322 4.41382C9.87049 4.73078 11.3559 5.47806 13.0195 6.72031L11.4059 7.48183Z" fill="#091C2B"/>
</svg>
