<svg width="32" height="32" viewBox="0 0 32 32" fill="none" xmlns="http://www.w3.org/2000/svg">
<rect width="32" height="32" rx="16" fill="#091C2B"/>
<path d="M12.6197 8.5H11.8377C11.6055 8.5 11.4165 8.68875 11.4165 8.921V9.545H10.8522C10.5967 9.54493 10.3516 9.64624 10.1707 9.82668C9.98974 10.0071 9.8878 10.252 9.88721 10.5075V20.405C9.8878 20.6605 9.98974 20.9054 10.1707 21.0858C10.3516 21.2663 10.5967 21.3676 10.8522 21.3675H12.12C12.1863 21.3675 12.2498 21.3412 12.2967 21.2943C12.3436 21.2474 12.37 21.1838 12.37 21.1175C12.37 21.0512 12.3436 20.9876 12.2967 20.9407C12.2498 20.8938 12.1863 20.8675 12.12 20.8675H10.8522C10.596 20.8675 10.3872 20.66 10.3872 20.405V12.6867H21.6125V20.405C21.6125 20.66 21.4037 20.8675 21.1475 20.8675H19.7802C19.7139 20.8675 19.6503 20.8938 19.6034 20.9407C19.5565 20.9876 19.5302 21.0512 19.5302 21.1175C19.5302 21.1838 19.5565 21.2474 19.6034 21.2943C19.6503 21.3412 19.7139 21.3675 19.7802 21.3675H21.1475C21.403 21.3676 21.6481 21.2663 21.829 21.0858C22.0099 20.9054 22.1119 20.6605 22.1125 20.405V10.5075C22.1119 10.252 22.0099 10.0071 21.829 9.82668C21.6481 9.64624 21.403 9.54493 21.1475 9.545H20.5832V8.921C20.5832 8.68875 20.3942 8.5 20.162 8.5H19.38C19.1477 8.5 18.959 8.68875 18.959 8.921V9.545H13.0407V8.921C13.0407 8.68875 12.852 8.5 12.6197 8.5ZM12.5407 9V9.7915C12.5407 9.79275 12.54 9.79375 12.54 9.79525V10.5875H11.9175V9.79525C11.9175 9.794 11.9167 9.793 11.9167 9.7915V9H12.5407ZM20.0832 9V9.7915C20.0832 9.79275 20.0825 9.79375 20.0825 9.79525V10.5875H19.46V9.79525C19.46 9.794 19.4592 9.793 19.4592 9.7915V9H20.0832ZM18.9592 10.045V10.6662C18.9591 10.7215 18.97 10.7763 18.9911 10.8274C19.0122 10.8785 19.0432 10.925 19.0823 10.9641C19.1213 11.0032 19.1677 11.0342 19.2188 11.0554C19.2699 11.0766 19.3247 11.0875 19.38 11.0875H20.1627C20.2179 11.0875 20.2725 11.0766 20.3235 11.0554C20.3744 11.0343 20.4207 11.0033 20.4597 10.9643C20.5362 10.888 20.5835 10.7828 20.5835 10.6665V10.0452H21.1477C21.404 10.0452 21.6127 10.2528 21.6127 10.5078V12.187H10.3875V10.5078C10.3875 10.2528 10.5962 10.0452 10.8525 10.0452H11.4167V10.6665C11.4167 10.7828 11.464 10.888 11.5405 10.9643C11.6165 11.0405 11.7215 11.0875 11.8375 11.0875H12.6202C12.7318 11.0873 12.8388 11.0428 12.9177 10.9639C12.9966 10.8849 13.0409 10.7779 13.041 10.6662V10.045H18.9592Z" fill="#B2DCBC"/>
<path d="M11.7572 15.4117H12.6822C12.9895 15.4117 13.2395 15.1617 13.2395 14.8544V13.9879C13.2395 13.6807 12.9895 13.4307 12.6822 13.4307H11.7572C11.45 13.4307 11.2 13.6807 11.2 13.9879V14.8544C11.2 15.1617 11.45 15.4117 11.7572 15.4117ZM11.7 13.9877C11.7 13.9725 11.7061 13.958 11.7168 13.9473C11.7275 13.9365 11.742 13.9305 11.7572 13.9304H12.6822C12.714 13.9304 12.7395 13.9562 12.7395 13.9877V14.8542C12.7394 14.8693 12.7333 14.8839 12.7226 14.8946C12.7119 14.9053 12.6974 14.9113 12.6822 14.9114H11.7572C11.742 14.9114 11.7275 14.9054 11.7167 14.8946C11.706 14.8839 11.7 14.8693 11.7 14.8542V13.9877ZM14.2775 15.4117H15.2022C15.5095 15.4117 15.7595 15.1617 15.7595 14.8544V13.9879C15.7595 13.6807 15.5095 13.4307 15.2022 13.4307H14.2775C13.9702 13.4307 13.72 13.6807 13.72 13.9879V14.8544C13.7201 15.0022 13.779 15.1438 13.8835 15.2483C13.988 15.3528 14.1297 15.4115 14.2775 15.4117ZM14.22 13.9877C14.22 13.9725 14.2261 13.9579 14.2369 13.9472C14.2477 13.9364 14.2622 13.9304 14.2775 13.9304H15.2022C15.234 13.9304 15.2595 13.9562 15.2595 13.9877V14.8542C15.2594 14.8693 15.2533 14.8839 15.2426 14.8946C15.2319 14.9053 15.2174 14.9113 15.2022 14.9114H14.2775C14.2622 14.9114 14.2477 14.9054 14.2369 14.8947C14.2261 14.8839 14.22 14.8694 14.22 14.8542V13.9877ZM17.7225 15.4117C18.0297 15.4117 18.28 15.1617 18.28 14.8544V13.9879C18.2798 13.8401 18.2209 13.6985 18.1164 13.594C18.0119 13.4895 17.8702 13.4308 17.7225 13.4307H16.7977C16.4905 13.4307 16.2405 13.6807 16.2405 13.9879V14.8544C16.2405 15.1617 16.4905 15.4117 16.7977 15.4117H17.7225ZM16.7402 14.8544V13.9879C16.7403 13.9728 16.7463 13.9582 16.757 13.9475C16.7678 13.9368 16.7823 13.9307 16.7975 13.9307H17.7222C17.7374 13.9307 17.752 13.9367 17.7628 13.9474C17.7735 13.9581 17.7796 13.9727 17.7797 13.9879V14.8544C17.7796 14.8696 17.7735 14.8842 17.7628 14.8949C17.752 14.9056 17.7374 14.9117 17.7222 14.9117H16.7975C16.7823 14.9117 16.7677 14.9056 16.757 14.8949C16.7462 14.8842 16.7402 14.8696 16.7402 14.8544ZM19.3177 15.4117H20.2427C20.55 15.4117 20.8 15.1617 20.8 14.8544V13.9879C20.8 13.6807 20.55 13.4307 20.2427 13.4307H19.3177C19.0105 13.4307 18.7605 13.6807 18.7605 13.9879V14.8544C18.7605 15.1617 19.0105 15.4117 19.3177 15.4117ZM19.2605 13.9877C19.2605 13.9725 19.2666 13.958 19.2773 13.9473C19.288 13.9365 19.3025 13.9305 19.3177 13.9304H20.2427C20.2745 13.9304 20.3 13.9562 20.3 13.9877V14.8542C20.2999 14.8693 20.2938 14.8839 20.2831 14.8946C20.2724 14.9053 20.2579 14.9113 20.2427 14.9114H19.3177C19.3025 14.9114 19.288 14.9054 19.2772 14.8946C19.2665 14.8839 19.2605 14.8693 19.2605 14.8542V13.9877ZM11.2 17.2262C11.2 17.5334 11.45 17.7837 11.7572 17.7837H12.6822C12.9895 17.7837 13.2395 17.5337 13.2395 17.2262V16.3597C13.2395 16.0524 12.9895 15.8024 12.6822 15.8024H11.7572C11.45 15.8024 11.2 16.0524 11.2 16.3597V17.2262ZM11.7 16.3597C11.7 16.3445 11.7061 16.33 11.7168 16.3193C11.7275 16.3085 11.742 16.3025 11.7572 16.3024H12.6822C12.714 16.3024 12.7395 16.3282 12.7395 16.3597V17.2262C12.7395 17.2414 12.7334 17.256 12.7227 17.2667C12.712 17.2775 12.6974 17.2836 12.6822 17.2837H11.7572C11.742 17.2836 11.7274 17.2775 11.7167 17.2667C11.706 17.256 11.7 17.2414 11.7 17.2262V16.3597ZM13.72 16.9002C13.72 16.9665 13.7463 17.0301 13.7932 17.0769C13.8401 17.1238 13.9036 17.1502 13.97 17.1502C14.0363 17.1502 14.0998 17.1238 14.1467 17.0769C14.1936 17.0301 14.22 16.9665 14.22 16.9002V16.3602C14.22 16.3279 14.2455 16.3027 14.2775 16.3027H15.2022C15.2342 16.3027 15.259 16.3274 15.2597 16.3604C15.264 16.4984 15.3897 16.6114 15.5172 16.6027C15.55 16.6017 15.5824 16.5943 15.6123 16.5808C15.6423 16.5673 15.6693 16.5481 15.6918 16.5242C15.7143 16.5003 15.7319 16.4721 15.7436 16.4414C15.7552 16.4107 15.7607 16.378 15.7597 16.3452C15.756 16.1999 15.6957 16.0618 15.5915 15.9604C15.4873 15.8591 15.3475 15.8025 15.2022 15.8029H14.2775C13.9702 15.8029 13.72 16.0529 13.72 16.3604V16.9004V16.9002ZM16.4825 16.6027C16.6125 16.6117 16.736 16.4984 16.74 16.3604C16.7399 16.3528 16.7414 16.3453 16.7443 16.3383C16.7471 16.3313 16.7514 16.325 16.7567 16.3196C16.762 16.3142 16.7684 16.31 16.7754 16.3071C16.7824 16.3042 16.7899 16.3027 16.7975 16.3027H17.7222C17.7545 16.3027 17.7797 16.3279 17.7797 16.3602V16.9002C17.7797 16.9665 17.806 17.0301 17.8529 17.0769C17.8998 17.1238 17.9634 17.1502 18.0297 17.1502C18.096 17.1502 18.1596 17.1238 18.2065 17.0769C18.2534 17.0301 18.2797 16.9665 18.2797 16.9002V16.3602C18.2795 16.2124 18.2207 16.0707 18.1162 15.9662C18.0117 15.8617 17.87 15.8029 17.7222 15.8027H16.7975C16.6521 15.8023 16.5124 15.8588 16.4082 15.9602C16.304 16.0615 16.2436 16.1996 16.24 16.3449C16.239 16.3777 16.2444 16.4105 16.2561 16.4412C16.2677 16.4719 16.2853 16.5 16.3078 16.5239C16.3304 16.5478 16.3574 16.5671 16.3873 16.5805C16.4173 16.594 16.4496 16.6017 16.4825 16.6027ZM18.7602 17.2262C18.7602 17.5334 19.0102 17.7837 19.3175 17.7837H20.2425C20.5497 17.7837 20.7997 17.5337 20.7997 17.2262V16.3597C20.7997 16.0524 20.5497 15.8024 20.2425 15.8024H19.3175C19.0102 15.8024 18.7602 16.0524 18.7602 16.3597V17.2262ZM19.2602 16.3597C19.2603 16.3445 19.2663 16.33 19.277 16.3193C19.2878 16.3085 19.3023 16.3025 19.3175 16.3024H20.2425C20.2742 16.3024 20.2997 16.3282 20.2997 16.3597V17.2262C20.2997 17.2414 20.2937 17.256 20.2829 17.2667C20.2722 17.2775 20.2577 17.2836 20.2425 17.2837H19.3175C19.3022 17.2836 19.2877 17.2775 19.277 17.2667C19.2662 17.256 19.2602 17.2414 19.2602 17.2262V16.3597ZM11.7575 18.6727H12.5772C12.6435 18.6727 12.7071 18.6463 12.754 18.5994C12.8009 18.5526 12.8272 18.489 12.8272 18.4227C12.8272 18.3564 12.8009 18.2928 12.754 18.2459C12.7071 18.199 12.6435 18.1727 12.5772 18.1727H11.7575C11.4502 18.1727 11.2 18.4227 11.2 18.7302V19.5977C11.2001 19.7455 11.2589 19.8871 11.3635 19.9917C11.468 20.0962 11.6097 20.155 11.7575 20.1552H12.1697C12.236 20.1552 12.2996 20.1288 12.3465 20.0819C12.3934 20.0351 12.4197 19.9715 12.4197 19.9052C12.4197 19.8389 12.3934 19.7753 12.3465 19.7284C12.2996 19.6815 12.236 19.6552 12.1697 19.6552H11.7575C11.7422 19.6552 11.7276 19.6491 11.7168 19.6383C11.706 19.6275 11.7 19.6129 11.7 19.5977V18.7302C11.7 18.6994 11.7267 18.6727 11.7575 18.6727ZM20.2425 18.6727C20.2732 18.6727 20.3 18.6994 20.3 18.7302V19.5977C20.3 19.6129 20.2939 19.6275 20.2831 19.6383C20.2723 19.6491 20.2577 19.6552 20.2425 19.6552H19.8302C19.7639 19.6552 19.7003 19.6815 19.6534 19.7284C19.6065 19.7753 19.5802 19.8389 19.5802 19.9052C19.5802 19.9715 19.6065 20.0351 19.6534 20.0819C19.7003 20.1288 19.7639 20.1552 19.8302 20.1552H20.2425C20.5497 20.1552 20.8 19.9052 20.8 19.5977V18.7302C20.7998 18.5824 20.741 18.4407 20.6364 18.3362C20.5319 18.2317 20.3902 18.1729 20.2425 18.1727H19.425C19.3586 18.1727 19.2951 18.199 19.2482 18.2459C19.2013 18.2928 19.175 18.3564 19.175 18.4227C19.175 18.489 19.2013 18.5526 19.2482 18.5994C19.2951 18.6463 19.3586 18.6727 19.425 18.6727H20.2425ZM16 23.5002C17.8417 23.5002 19.3402 22.0017 19.3402 20.1599C19.3402 18.3182 17.8417 16.8197 16 16.8197C14.1582 16.8197 12.6597 18.3182 12.6597 20.1599C12.6597 22.0017 14.1582 23.5002 16 23.5002ZM16 17.3197C17.5662 17.3197 18.8402 18.5939 18.8402 20.1599C18.8402 21.7259 17.566 23.0002 16 23.0002C14.434 23.0002 13.1597 21.7259 13.1597 20.1599C13.1597 18.5939 14.434 17.3197 16 17.3197Z" fill="#B2DCBC"/>
<path d="M15.6431 21.0239C15.6662 21.0472 15.6938 21.0657 15.7241 21.0783C15.7544 21.0909 15.787 21.0974 15.8198 21.0974C15.8527 21.0974 15.8852 21.0909 15.9155 21.0783C15.9459 21.0657 15.9734 21.0472 15.9966 21.0239L17.3716 19.6489C17.3948 19.6257 17.4132 19.5981 17.4258 19.5678C17.4383 19.5375 17.4448 19.505 17.4448 19.4721C17.4448 19.4393 17.4383 19.4068 17.4258 19.3765C17.4132 19.3461 17.3948 19.3186 17.3716 19.2954C17.3484 19.2722 17.3208 19.2538 17.2905 19.2412C17.2602 19.2286 17.2276 19.2222 17.1948 19.2222C17.162 19.2222 17.1295 19.2286 17.0992 19.2412C17.0688 19.2538 17.0413 19.2722 17.0181 19.2954L15.8198 20.4936L14.9846 19.6584C14.9614 19.6352 14.9338 19.6168 14.9035 19.6042C14.8732 19.5916 14.8406 19.5852 14.8078 19.5852C14.775 19.5852 14.7425 19.5916 14.7122 19.6042C14.6818 19.6168 14.6543 19.6352 14.6311 19.6584C14.6079 19.6816 14.5895 19.7091 14.5769 19.7395C14.5643 19.7698 14.5579 19.8023 14.5579 19.8351C14.5579 19.868 14.5643 19.9005 14.5769 19.9308C14.5895 19.9611 14.6079 19.9887 14.6311 20.0119L15.6431 21.0239Z" fill="#B2DCBC"/>
</svg>
