<svg width="25" height="25" viewBox="0 0 25 25" fill="none" xmlns="http://www.w3.org/2000/svg">
<path d="M11.8853 17.7692C11.804 17.6885 11.7397 17.5923 11.6959 17.4864C11.6523 17.3806 11.6301 17.2671 11.6307 17.1525V13.3806L7.85705 13.4189C7.74243 13.4217 7.62843 13.4011 7.52203 13.3584C7.41564 13.3157 7.31908 13.2516 7.23823 13.1703C7.15618 13.0905 7.09081 12.995 7.04602 12.8896C7.00116 12.7842 6.97779 12.6709 6.9773 12.5564C6.97646 12.3257 7.06646 12.1039 7.2279 11.939C7.38934 11.7743 7.60917 11.6796 7.83982 11.6756L11.6307 11.637V7.84552C11.6353 7.61745 11.7291 7.40034 11.892 7.24064C12.0548 7.08102 12.2738 6.99158 12.5019 6.99158C12.73 6.99158 12.949 7.08102 13.1119 7.24064C13.2748 7.40034 13.3686 7.61745 13.3731 7.84552L13.3726 11.6193L17.1478 11.5809C17.379 11.5785 17.6016 11.668 17.7668 11.8298C17.932 11.9915 18.0262 12.2122 18.0286 12.4435C18.031 12.6747 17.9415 12.8973 17.7797 13.0625C17.618 13.2276 17.3972 13.3218 17.166 13.3242L13.3723 13.3628L13.3716 17.155C13.3701 17.3857 13.2777 17.6065 13.1146 17.7696C12.9514 17.9328 12.7306 18.0251 12.4999 18.0267C12.3855 18.0267 12.2723 18.0039 12.1667 17.9597C12.0612 17.9155 11.9655 17.8508 11.8853 17.7692Z" fill="#091C2B"/>
<path fill-rule="evenodd" clip-rule="evenodd" d="M9.01173 25H15.9883C22.3022 25 25 22.3021 25 15.9883V9.01169C25 2.69786 22.3022 0 15.9883 0H9.01173C2.69786 0 0 2.69786 0 9.01169V15.9883C0 22.3021 2.69786 25 9.01173 25ZM1.74415 9.01169C1.74415 3.65086 3.65086 1.74415 9.01173 1.74415H15.9883C21.3485 1.74415 23.2559 3.65086 23.2559 9.01169V15.9883C23.2559 21.3491 21.3492 23.2558 15.9883 23.2558H9.01173C3.65086 23.2558 1.74415 21.3491 1.74415 15.9883V9.01169Z" fill="#091C2B"/>
</svg>
