<svg width="48" height="48" viewBox="0 0 48 48" fill="none" xmlns="http://www.w3.org/2000/svg">
<rect width="48" height="48" rx="24" fill="#B2DCBC" fill-opacity="0.21"/>
<g clip-path="url(#clip0_2445_1518)">
<path d="M24.9825 35.9925H14.0985C13.7451 35.9919 13.4063 35.8512 13.1565 35.6012C12.9067 35.3513 12.7661 35.0124 12.7657 34.659V13.3327C12.7657 12.5977 13.3635 12 14.0985 12H26.9782C27.1282 12 27.2707 12.0585 27.3772 12.1627L30.4927 15.2092C30.5472 15.2625 30.5905 15.326 30.62 15.3962C30.6495 15.4664 30.6646 15.5418 30.6645 15.618V24.003C30.6591 24.1509 30.5966 24.2909 30.4901 24.3937C30.3836 24.4964 30.2414 24.5538 30.0934 24.5538C29.9454 24.5538 29.8032 24.4964 29.6966 24.3937C29.5901 24.2909 29.5276 24.1509 29.5222 24.003V15.8587L26.7457 13.1437H14.0985C14.0483 13.1443 14.0003 13.1645 13.9647 13.1999C13.9291 13.2354 13.9088 13.2833 13.908 13.3335V34.6597C13.908 34.7633 13.995 34.8503 14.0985 34.8503H24.9825C25.1304 34.8556 25.2704 34.9181 25.3732 35.0247C25.4759 35.1312 25.5333 35.2734 25.5333 35.4214C25.5333 35.5694 25.4759 35.7116 25.3732 35.8181C25.2704 35.9246 25.1304 35.9871 24.9825 35.9925Z" fill="#091C2B"/>
<path d="M30.093 16.95H26.2852C26.1339 16.95 25.9888 16.89 25.8817 16.7832C25.7745 16.6763 25.7141 16.5313 25.7137 16.38V12.5708C25.7191 12.4229 25.7816 12.2828 25.8881 12.1801C25.9947 12.0774 26.1369 12.02 26.2849 12.02C26.4328 12.02 26.5751 12.0774 26.6816 12.1801C26.7881 12.2828 26.8506 12.4229 26.856 12.5708V15.8078H30.093C30.2409 15.8131 30.3809 15.8756 30.4836 15.9822C30.5864 16.0887 30.6438 16.2309 30.6438 16.3789C30.6438 16.5269 30.5864 16.6691 30.4836 16.7756C30.3809 16.8821 30.2409 16.9446 30.093 16.95ZM21.7147 22.695C21.2455 22.6942 20.7958 22.5075 20.464 22.1757C20.1323 21.8439 19.9455 21.3942 19.9447 20.925C19.9501 20.7771 20.0126 20.6371 20.1191 20.5343C20.2257 20.4316 20.3679 20.3742 20.5159 20.3742C20.6638 20.3742 20.8061 20.4316 20.9126 20.5343C21.0191 20.6371 21.0816 20.7771 21.087 20.925C21.0966 21.0851 21.1669 21.2355 21.2837 21.3455C21.4004 21.4554 21.5547 21.5166 21.7151 21.5166C21.8755 21.5166 22.0298 21.4554 22.1466 21.3455C22.2633 21.2355 22.3336 21.0851 22.3432 20.925V20.7353C22.3432 20.4038 22.1182 20.1158 21.7957 20.0348L21.3577 19.9253C20.9539 19.825 20.5953 19.5924 20.3392 19.2645C20.0831 18.9366 19.9442 18.5323 19.9447 18.1163V17.928C19.9447 16.9515 20.739 16.1573 21.7147 16.1573C22.6905 16.1573 23.4855 16.9515 23.4855 17.9273C23.4801 18.0751 23.4176 18.2152 23.3111 18.3179C23.2046 18.4207 23.0623 18.4781 22.9144 18.4781C22.7664 18.4781 22.6242 18.4207 22.5176 18.3179C22.4111 18.2152 22.3486 18.0751 22.3432 17.9273C22.3336 17.7672 22.2633 17.6168 22.1466 17.5068C22.0298 17.3969 21.8755 17.3356 21.7151 17.3356C21.5547 17.3356 21.4004 17.3969 21.2837 17.5068C21.1669 17.6168 21.0966 17.7672 21.087 17.9273V18.1163C21.087 18.4485 21.312 18.7365 21.6345 18.8175L22.0725 18.9263C22.4763 19.0265 22.8349 19.2591 23.091 19.587C23.3471 19.9149 23.486 20.3192 23.4855 20.7353V20.9243C23.4855 21.9008 22.6912 22.695 21.7155 22.695H21.7147Z" fill="#091C2B"/>
<path d="M21.7147 17.2995C21.5633 17.2993 21.4181 17.239 21.3111 17.1319C21.2041 17.0247 21.144 16.8795 21.144 16.728V15.7478C21.1494 15.5999 21.2119 15.4598 21.3184 15.3571C21.4249 15.2544 21.5671 15.197 21.7151 15.197C21.8631 15.197 22.0053 15.2544 22.1118 15.3571C22.2184 15.4598 22.2809 15.5999 22.2862 15.7478V16.728C22.2862 17.043 22.0305 17.2995 21.7147 17.2995ZM21.7147 23.676C21.5633 23.6758 21.4181 23.6155 21.3111 23.5084C21.2041 23.4012 21.144 23.256 21.144 23.1045V22.1235C21.1494 21.9756 21.2119 21.8356 21.3184 21.7328C21.4249 21.6301 21.5671 21.5727 21.7151 21.5727C21.8631 21.5727 22.0053 21.6301 22.1118 21.7328C22.2184 21.8356 22.2809 21.9756 22.2862 22.1235V23.1045C22.2862 23.4195 22.0305 23.676 21.7147 23.676ZM24.9975 26.8523H16.3837C16.2359 26.8469 16.0958 26.7844 15.9931 26.6779C15.8904 26.5713 15.8329 26.4291 15.8329 26.2811C15.8329 26.1331 15.8904 25.9909 15.9931 25.8844C16.0958 25.7779 16.2359 25.7154 16.3837 25.71H24.9975C25.1454 25.7154 25.2854 25.7779 25.3882 25.8844C25.4909 25.9909 25.5483 26.1331 25.5483 26.2811C25.5483 26.4291 25.4909 26.5713 25.3882 26.6779C25.2854 26.7844 25.1454 26.8469 24.9975 26.8523ZM23.4135 29.8988H16.3837C16.2359 29.8934 16.0958 29.8309 15.9931 29.7244C15.8904 29.6178 15.8329 29.4756 15.8329 29.3276C15.8329 29.1796 15.8904 29.0374 15.9931 28.9309C16.0958 28.8244 16.2359 28.7619 16.3837 28.7565H23.4135C23.5614 28.7619 23.7014 28.8244 23.8042 28.9309C23.9069 29.0374 23.9643 29.1796 23.9643 29.3276C23.9643 29.4756 23.9069 29.6178 23.8042 29.7244C23.7014 29.8309 23.5614 29.8934 23.4135 29.8988ZM23.406 32.9453H16.3837C16.2359 32.9399 16.0958 32.8774 15.9931 32.7709C15.8904 32.6643 15.8329 32.5221 15.8329 32.3741C15.8329 32.2261 15.8904 32.0839 15.9931 31.9774C16.0958 31.8709 16.2359 31.8084 16.3837 31.803H23.406C23.5539 31.8084 23.6939 31.8709 23.7967 31.9774C23.8994 32.0839 23.9568 32.2261 23.9568 32.3741C23.9568 32.5221 23.8994 32.6643 23.7967 32.7709C23.6939 32.8774 23.5539 32.9399 23.406 32.9453ZM29.5942 32.589C29.5192 32.5892 29.4448 32.5745 29.3754 32.5458C29.306 32.5171 29.243 32.4749 29.19 32.4218L27.87 31.1018C27.817 31.0487 27.7749 30.9858 27.7462 30.9165C27.7175 30.8472 27.7027 30.7729 27.7027 30.6979C27.7027 30.6229 27.7175 30.5486 27.7462 30.4793C27.7749 30.41 27.817 30.347 27.87 30.294C27.923 30.241 27.986 30.1989 28.0553 30.1702C28.1246 30.1415 28.1989 30.1267 28.2739 30.1267C28.3489 30.1267 28.4232 30.1415 28.4924 30.1702C28.5617 30.1989 28.6247 30.241 28.6777 30.294L29.5942 31.2105L31.509 29.2958C31.562 29.2427 31.625 29.2007 31.6943 29.1719C31.7636 29.1432 31.8379 29.1285 31.9129 29.1285C31.9879 29.1285 32.0622 29.1432 32.1314 29.1719C32.2007 29.2007 32.2637 29.2427 32.3167 29.2958C32.3698 29.3488 32.4119 29.4118 32.4406 29.4811C32.4693 29.5504 32.484 29.6246 32.484 29.6996C32.484 29.7746 32.4693 29.8489 32.4406 29.9182C32.4119 29.9875 32.3698 30.0505 32.3167 30.1035L29.9977 32.4218C29.9448 32.4749 29.8819 32.517 29.8127 32.5457C29.7435 32.5744 29.6692 32.5891 29.5942 32.589Z" fill="#091C2B"/>
<path d="M30.093 36C27.258 36 24.9518 33.6937 24.9518 30.8587C24.9518 28.0237 27.2588 25.7175 30.093 25.7175C32.9273 25.7175 35.2343 28.0237 35.2343 30.8587C35.2343 33.6937 32.928 36 30.093 36ZM30.093 26.8605C27.888 26.8605 26.0948 28.6537 26.0948 30.8587C26.0948 33.0637 27.8888 34.8577 30.093 34.8577C32.2973 34.8577 34.092 33.0637 34.092 30.8587C34.092 28.6537 32.298 26.8605 30.093 26.8605Z" fill="#091C2B"/>
</g>
<defs>
<clipPath id="clip0_2445_1518">
<rect width="24" height="24" fill="white" transform="translate(12 12)"/>
</clipPath>
</defs>
</svg>
