<svg width="33" height="33" viewBox="0 0 33 33" fill="none" xmlns="http://www.w3.org/2000/svg">
<circle cx="16.5" cy="16.5" r="16.5" fill="#091C2B"/>
<path d="M16.0981 8.53809H17.4703C17.6219 8.53809 17.7674 8.59832 17.8746 8.70555C17.9818 8.81277 18.042 8.9582 18.042 9.10983C18.042 9.26147 17.9818 9.40689 17.8746 9.51411C17.7674 9.62134 17.6219 9.68157 17.4703 9.68157H16.0981C15.9465 9.68157 15.801 9.62134 15.6938 9.51411C15.5866 9.40689 15.5264 9.26147 15.5264 9.10983C15.5264 8.9582 15.5866 8.81277 15.6938 8.70555C15.801 8.59832 15.9465 8.53809 16.0981 8.53809Z" fill="#DF0000"/>
<path fill-rule="evenodd" clip-rule="evenodd" d="M16.5927 12.1967C16.6433 12.2124 16.696 12.2206 16.749 12.2211L16.7588 12.2212H16.7669C16.7805 12.2208 16.7988 12.2202 16.8207 12.2187C16.8392 12.22 16.8558 12.2211 16.8689 12.2211H16.8924C16.9452 12.2206 16.9976 12.2124 17.0481 12.1968C17.8251 12.1102 18.5899 11.936 19.3279 11.6776C19.7677 11.5108 20.1821 11.2837 20.5594 11.0029C20.7149 10.8894 20.8612 10.7639 20.9969 10.6273L21.1032 9.77842L22.118 8.79439C22.1809 8.73366 22.229 8.65918 22.2583 8.57686C22.2876 8.49455 22.2975 8.40659 22.2873 8.3198C22.2688 8.21453 22.2262 8.11501 22.1627 8.02902C22.0992 7.94303 22.0167 7.87292 21.9215 7.82422C21.7146 7.70364 21.4688 7.65834 21.1282 7.59561C20.6186 7.5114 20.1174 7.37964 19.6323 7.20211C18.9727 6.95894 18.3098 6.64733 17.7758 6.39628L17.7694 6.3933C17.2841 6.16504 16.9332 6 16.8245 6H16.8158C16.7072 6 16.3564 6.1646 15.8706 6.3933L15.8682 6.39447C15.3339 6.64561 14.6697 6.95779 14.0075 7.20211C13.5228 7.37963 13.0225 7.51127 12.5132 7.59541H12.5121C12.1717 7.65773 11.9259 7.70301 11.719 7.82411C11.6238 7.87278 11.5411 7.94289 11.4776 8.0289C11.4141 8.11492 11.3715 8.2145 11.353 8.3198C11.3428 8.40659 11.3528 8.49457 11.3822 8.57686C11.4116 8.65915 11.4596 8.73358 11.5224 8.79429L12.5377 9.77831L12.6441 10.6272C12.7795 10.7639 12.9258 10.8894 13.0814 11.0027C13.4588 11.2836 13.8735 11.5107 14.3135 11.6775C15.0512 11.9359 15.8158 12.1101 16.5927 12.1967ZM16.8569 10.9473C16.8475 10.9473 16.8343 10.9466 16.8205 10.9455C16.8051 10.9464 16.7936 10.9472 16.7836 10.9469H16.7785C16.7471 10.9467 16.716 10.942 16.686 10.933C16.2273 10.8822 15.7756 10.7803 15.3393 10.6296C14.9724 10.4951 14.637 10.2867 14.3539 10.0173L14.2909 9.52181L13.6913 8.9476C13.6543 8.91244 13.626 8.86919 13.6087 8.8212C13.5914 8.7732 13.5855 8.72179 13.5915 8.67111C13.6025 8.60936 13.6278 8.55108 13.6654 8.50082C13.7029 8.45056 13.7516 8.40967 13.8076 8.38156C13.9552 8.31073 14.1137 8.2655 14.2764 8.24778C14.5772 8.19871 14.8729 8.12193 15.1595 8.01841C15.5457 7.87738 15.9341 7.69709 16.2484 7.55122L16.2588 7.54639H16.2599C16.437 7.45039 16.6238 7.37347 16.8171 7.31691H16.823C17.0159 7.37321 17.2023 7.44988 17.379 7.5456L17.3813 7.54672H17.382C17.6974 7.69355 18.0904 7.87627 18.4808 8.01874C18.7673 8.12234 19.0629 8.19912 19.3636 8.24811C19.5263 8.26583 19.6848 8.31106 19.8324 8.38189C19.8885 8.40994 19.9371 8.45076 19.9747 8.50104C20.0122 8.55132 20.0375 8.60967 20.0484 8.67145C20.0543 8.72212 20.0485 8.77354 20.0312 8.82153C20.0139 8.86952 19.9855 8.91277 19.9485 8.94794L19.3489 9.52214L19.2865 10.0176C19.0039 10.2879 18.6681 10.4964 18.3005 10.6299C17.8643 10.7806 17.4127 10.8825 16.954 10.9334C16.9243 10.9423 16.8937 10.947 16.8627 10.9473H16.8569Z" fill="#DF0000"/>
<path d="M19.5128 23.114C19.5987 23.1754 19.7021 23.2079 19.8078 23.2068C19.9131 23.2086 20.0161 23.1755 20.1008 23.1127L20.5209 22.7994C20.5795 22.751 20.6275 22.6911 20.6616 22.6231C20.6957 22.5552 20.7152 22.481 20.719 22.405V21.6793C20.716 21.601 20.6906 21.5252 20.646 21.4608C20.6013 21.3964 20.5391 21.3462 20.4668 21.316L19.9798 21.133C19.9242 21.1142 19.8658 21.1051 19.8071 21.106C19.7483 21.1051 19.6898 21.1142 19.634 21.133L19.1467 21.316C19.0744 21.3462 19.0123 21.3964 18.9676 21.4608C18.9229 21.5252 18.8975 21.601 18.8945 21.6793V22.4058C18.8984 22.4818 18.918 22.556 18.9522 22.6239C18.9863 22.6918 19.0342 22.7519 19.0929 22.8003L19.5128 23.114Z" fill="#DF0000"/>
<path fill-rule="evenodd" clip-rule="evenodd" d="M16.9442 27.0998C18.3319 27.1021 19.6863 26.6745 20.8211 25.8758C21.9581 25.0799 22.8208 23.9517 23.291 22.646C23.4851 22.0803 23.5976 21.4898 23.6251 20.8923L23.6262 20.8843V20.8835C23.6568 20.1448 23.6639 19.9697 23.3169 19.4551C23.0443 19.1203 22.6587 18.8967 22.2328 18.8262L21.2984 18.7764H12.3406L11.4056 18.8262C10.9799 18.897 10.5944 19.1206 10.3216 19.4551C9.97445 19.9705 9.98213 20.1456 10.0145 20.8828L10.0145 20.8923C10.0413 21.4899 10.1537 22.0804 10.3482 22.646C10.8185 23.9517 11.6815 25.0798 12.8187 25.8752C13.9532 26.6737 15.307 27.1014 16.6943 27.0998H16.9442ZM12.6425 20.108L13.3628 20.0736L20.2762 20.0735L20.9964 20.1079C21.317 20.1514 21.6127 20.3042 21.8333 20.5408C22.1013 20.8954 22.0957 21.0159 22.0721 21.5221L22.072 21.5233V21.5244L22.0703 21.5302C22.0488 21.9435 21.962 22.3508 21.813 22.7369C21.0707 24.5699 19.1034 25.8015 16.9174 25.8015H16.7229C14.538 25.8009 12.5701 24.5692 11.8268 22.7369C11.6767 22.3511 11.5898 21.9437 11.5696 21.5302V21.5226C11.5455 21.0165 11.5397 20.8955 11.8063 20.5411C12.0273 20.3054 12.3225 20.1526 12.6425 20.108Z" fill="#DF0000"/>
<path d="M15.1621 15.3959C15.6702 15.6065 16.215 15.7143 16.7652 15.7129C17.3155 15.7142 17.8608 15.6063 18.3691 15.3955C18.8776 15.1847 19.3391 14.8752 19.727 14.4848C20.0783 14.1352 20.3647 13.726 20.5726 13.2762C20.7791 12.8288 20.9041 12.3482 20.9418 11.8569C20.4861 12.0445 20.0201 12.2062 19.5461 12.3411C19.3671 12.9404 19.0001 13.4663 18.4994 13.8411C17.9986 14.2158 17.3906 14.4195 16.7652 14.4223C16.1495 14.4237 15.5496 14.2283 15.0528 13.8647C14.5561 13.501 14.1883 12.9881 14.0036 12.4008C13.5268 12.2738 13.0575 12.1198 12.5981 11.9397C12.6441 12.4162 12.7723 12.8812 12.9772 13.3138C13.1834 13.7492 13.4634 14.1455 13.8048 14.4854C14.1926 14.8757 14.6539 15.1852 15.1621 15.3959Z" fill="#DF0000"/>
</svg>
