<svg width="33" height="33" viewBox="0 0 33 33" fill="none" xmlns="http://www.w3.org/2000/svg">
<circle cx="16.5" cy="16.5" r="16.5" fill="#091C2B"/>
<path d="M10.4894 21.5092C12.0833 23.103 14.2451 23.9985 16.4993 23.9985C18.7528 23.9966 20.9135 23.1006 22.507 21.5071C24.1006 19.9136 24.9966 17.7528 24.9985 15.4993C24.9985 15.342 24.936 15.1912 24.8248 15.08C24.7136 14.9687 24.5628 14.9063 24.4055 14.9063C24.2483 14.9063 24.0974 14.9687 23.9862 15.08C23.875 15.1912 23.8126 15.342 23.8126 15.4993C23.8126 16.9457 23.3837 18.3597 22.5801 19.5623C21.7765 20.765 20.6343 21.7023 19.298 22.2559C17.9616 22.8094 16.4911 22.9543 15.0725 22.6721C13.6538 22.3899 12.3507 21.6933 11.3279 20.6706C10.3052 19.6478 9.60863 18.3447 9.32644 16.926C9.04426 15.5074 9.18909 14.0369 9.74261 12.7006C10.2961 11.3642 11.2335 10.222 12.4362 9.41844C13.6388 8.61484 15.0528 8.18592 16.4993 8.18592C16.6562 8.18481 16.8064 8.12197 16.9173 8.01101C17.0282 7.90005 17.0911 7.74988 17.0922 7.59296C17.0911 7.43605 17.0282 7.28587 16.9173 7.17491C16.8064 7.06395 16.6562 7.00112 16.4993 7C14.2451 7 12.0833 7.89546 10.4894 9.48938C8.89545 11.0833 8 13.2451 8 15.4993C8 17.7534 8.89545 19.9152 10.4894 21.5092Z" fill="#B2DCBC"/>
<path fill-rule="evenodd" clip-rule="evenodd" d="M16.4985 19.6501C16.3416 19.649 16.1914 19.5861 16.0804 19.4751C15.9695 19.3642 15.9066 19.214 15.9055 19.0571V18.986C14.8609 18.657 13.9287 17.7273 13.9287 16.8324C13.9299 16.6756 13.9928 16.5259 14.1038 16.415C14.2147 16.3042 14.3647 16.2411 14.5216 16.2399C14.6787 16.2407 14.8291 16.3033 14.9404 16.4141C15.0517 16.525 15.1151 16.6753 15.1164 16.8324C15.1164 16.9681 15.1921 17.1197 15.4222 17.3759C15.5655 17.5168 15.7288 17.6336 15.9055 17.7232V15.9185L15.1155 15.6428C14.7486 15.543 14.429 15.3172 14.2122 15.0049C13.9953 14.6926 13.8949 14.3139 13.9296 13.9353C13.9296 13.0757 14.8296 12.0852 15.9099 11.8734C15.926 11.7417 15.9857 11.6183 16.0804 11.5236C16.1914 11.4126 16.3416 11.3498 16.4985 11.3486C16.6554 11.3498 16.8056 11.4126 16.9166 11.5236C17.0275 11.6345 17.0903 11.7847 17.0915 11.9416V11.9568C18.1356 12.2862 19.0698 13.2157 19.0698 14.1108C19.0684 14.2676 19.0056 14.4174 18.8947 14.5282C18.7838 14.6391 18.6336 14.7021 18.4768 14.7034C18.32 14.7021 18.1708 14.6391 18.0599 14.5282C17.949 14.4174 17.8852 14.2676 17.8839 14.1108C17.8839 13.8203 17.5315 13.4517 17.0915 13.2252V15.076L17.8848 15.3537C18.2005 15.4368 18.4824 15.6156 18.6918 15.8661C18.9011 16.1166 19.0274 16.426 19.0531 16.7514C19.0649 16.8374 19.0708 16.924 19.0707 17.0108V17.0604C19.0362 17.9085 18.1515 18.8646 17.0912 19.0707C17.0867 19.2227 17.0243 19.3674 16.9166 19.4751C16.8056 19.5861 16.6554 19.649 16.4985 19.6501ZM15.9055 13.0939V14.6608L15.5046 14.5204C15.2361 14.4264 15.1183 14.3631 15.1183 13.9362C15.1973 13.6615 15.3666 13.4216 15.5991 13.2552C15.6941 13.1873 15.7972 13.1332 15.9055 13.0939ZM17.0915 17.85V16.3323L17.4947 16.473C17.7547 16.5641 17.8754 16.6259 17.882 17.0205C17.7987 17.2917 17.6283 17.5278 17.3965 17.6913C17.3018 17.7581 17.1991 17.8113 17.0915 17.85Z" fill="#B2DCBC"/>
<path d="M21.0453 10.1148V8.38276C21.0442 8.22584 20.9813 8.07566 20.8704 7.96471C20.7594 7.85375 20.6093 7.79091 20.4523 7.7898C20.2954 7.79091 20.1452 7.85375 20.0343 7.96471C19.9233 8.07566 19.8605 8.22584 19.8594 8.38276V11.5454C19.8601 11.6466 19.8865 11.7451 19.935 11.8321C19.9613 11.88 19.9943 11.9246 20.0334 11.9642C20.0882 12.0196 20.1534 12.0635 20.2253 12.0934C20.2973 12.1234 20.3744 12.1386 20.4523 12.1383C20.4544 12.1383 20.4565 12.1383 20.4585 12.1383H23.6149C23.7722 12.1383 23.923 12.0759 24.0342 11.9647C24.1454 11.8534 24.2079 11.7026 24.2079 11.5454C24.2079 11.3881 24.1454 11.2373 24.0342 11.1261C23.923 11.0149 23.7722 10.9524 23.6149 10.9524H21.8841L24.8264 8.01181C24.9376 7.90065 25.0001 7.7499 25.0001 7.5927C25.0001 7.43551 24.9376 7.28475 24.8264 7.1736C24.7153 7.06244 24.5646 7 24.4074 7C24.2502 7 24.0994 7.06244 23.9883 7.1736L21.0453 10.1148Z" fill="#B2DCBC"/>
</svg>
