<svg width="18" height="25" viewBox="0 0 18 25" fill="none" xmlns="http://www.w3.org/2000/svg">
<path d="M16.8504 14.1309C15.9855 15.6293 14.2435 16.4577 11.9533 16.4577H9.79425V23.7866C9.79935 23.8295 9.8019 23.8726 9.8019 23.9158C9.80219 24.0581 9.77445 24.199 9.72022 24.3306C9.66598 24.4621 9.58634 24.5817 9.48581 24.6824C9.38528 24.7831 9.26589 24.863 9.13442 24.9175C9.00302 24.972 8.86209 25 8.71984 25C8.12044 25 7.62032 24.5134 7.62032 23.9142C7.62032 23.8845 7.62149 23.8552 7.62382 23.8263V16.4577H5.44821C3.1581 16.4577 1.416 15.6293 0.551165 14.1309C-0.313872 12.6203 -0.155474 10.7077 0.989699 8.72213L4.24226 3.08194C5.38728 1.09625 6.9709 0 8.70063 0C10.4303 0 12.0142 1.09632 13.1715 3.08194L16.4239 8.72213C17.0818 9.85492 17.4108 10.9758 17.4108 11.9991C17.4108 12.7666 17.2281 13.4852 16.8504 14.1309ZM2.42984 12.9933C2.93017 13.866 4.05874 14.3429 5.59461 14.3429H11.8077C13.3434 14.3429 14.4721 13.866 14.9724 12.9933C15.4727 12.1205 15.3213 10.9106 14.5535 9.57247L11.447 4.18547C10.6792 2.84766 9.70173 2.11453 8.70121 2.11453C7.70062 2.11453 6.72325 2.84773 5.95531 4.18547L2.84878 9.57247C2.3716 10.3869 2.13901 11.1547 2.13901 11.8298C2.13297 12.2364 2.23321 12.6374 2.42984 12.9933Z" fill="#B2DCBC"/>
</svg>
