<svg width="25" height="25" viewBox="0 0 25 25" fill="none" xmlns="http://www.w3.org/2000/svg">
<path d="M9.49994 18.25C9.08994 18.25 8.74994 17.91 8.74994 17.5V13.31L8.02994 14.03C7.73994 14.32 7.25994 14.32 6.96994 14.03C6.67994 13.74 6.67994 13.26 6.96994 12.97L8.96994 10.97C9.17994 10.76 9.50994 10.69 9.78994 10.81C10.0699 10.92 10.2499 11.2 10.2499 11.5V17.5C10.2499 17.91 9.90994 18.25 9.49994 18.25Z" fill="#B2DCBC"/>
<path d="M11.4999 14.2499C11.3099 14.2499 11.1199 14.1799 10.9699 14.0299L8.96994 12.0299C8.67994 11.7399 8.67994 11.2599 8.96994 10.9699C9.25994 10.6799 9.73994 10.6799 10.0299 10.9699L12.0299 12.9699C12.3199 13.2599 12.3199 13.7399 12.0299 14.0299C11.8799 14.1799 11.6899 14.2499 11.4999 14.2499Z" fill="#B2DCBC"/>
<path d="M15.5 23.25H9.5C4.07 23.25 1.75 20.93 1.75 15.5V9.5C1.75 4.07 4.07 1.75 9.5 1.75H14.5C14.91 1.75 15.25 2.09 15.25 2.5C15.25 2.91 14.91 3.25 14.5 3.25H9.5C4.89 3.25 3.25 4.89 3.25 9.5V15.5C3.25 20.11 4.89 21.75 9.5 21.75H15.5C20.11 21.75 21.75 20.11 21.75 15.5V10.5C21.75 10.09 22.09 9.75 22.5 9.75C22.91 9.75 23.25 10.09 23.25 10.5V15.5C23.25 20.93 20.93 23.25 15.5 23.25Z" fill="#B2DCBC"/>
<path d="M22.5 11.25H18.5C15.08 11.25 13.75 9.91999 13.75 6.49999V2.49999C13.75 2.19999 13.93 1.91999 14.21 1.80999C14.49 1.68999 14.81 1.75999 15.03 1.96999L23.03 9.96999C23.24 10.18 23.31 10.51 23.19 10.79C23.07 11.07 22.8 11.25 22.5 11.25ZM15.25 4.30999V6.49999C15.25 9.07999 15.92 9.74999 18.5 9.74999H20.69L15.25 4.30999Z" fill="#B2DCBC"/>
</svg>
