<svg width="23" height="25" viewBox="0 0 23 25" fill="none" xmlns="http://www.w3.org/2000/svg">
<path d="M13.6629 25H9.01136C2.69768 25 0 22.3023 0 15.9886V9.01063C0 2.69769 2.69768 0 9.01136 0H13.6629C19.9765 0 22.6742 2.69769 22.6742 9.01133V15.9893C22.6742 22.3023 19.9765 25 13.6629 25ZM9.01136 1.74449C3.65087 1.74449 1.74449 3.65088 1.74449 9.01133V15.9893C1.74449 21.3498 3.65157 23.2569 9.01205 23.2569H13.6629C19.0233 23.2569 20.9305 21.3498 20.9305 15.9893V9.01133C20.9305 3.65088 19.0233 1.74449 13.6629 1.74449H9.01136Z" fill="#091C2B"/>
<path d="M6.58218 8.48669H14.6069C14.8382 8.48669 15.0601 8.57861 15.2237 8.74219C15.3872 8.90577 15.4791 9.12763 15.4791 9.35898C15.4791 9.59033 15.3872 9.81219 15.2237 9.97577C15.0601 10.1393 14.8382 10.2312 14.6069 10.2312H6.58218C6.35083 10.2312 6.12897 10.1393 5.96546 9.97577C5.80187 9.81219 5.70996 9.59033 5.70996 9.35898C5.70996 9.12763 5.80187 8.90577 5.96546 8.74219C6.12897 8.57861 6.35083 8.48669 6.58218 8.48669Z" fill="#091C2B"/>
<path d="M6.58218 14.7667H11.8157C12.047 14.7667 12.2689 14.8586 12.4325 15.0222C12.5961 15.1857 12.6879 15.4076 12.6879 15.6389C12.6879 15.8702 12.5961 16.0921 12.4325 16.2557C12.2689 16.4193 12.047 16.5112 11.8157 16.5112H6.58218C6.35083 16.5112 6.12897 16.4193 5.96546 16.2557C5.80187 16.0921 5.70996 15.8702 5.70996 15.6389C5.70996 15.4076 5.80187 15.1857 5.96546 15.0222C6.12897 14.8586 6.35083 14.7667 6.58218 14.7667Z" fill="#091C2B"/>
</svg>
