<svg width="33" height="32" viewBox="0 0 33 32" fill="none" xmlns="http://www.w3.org/2000/svg">
<rect x="0.143295" y="-9.53674e-07" width="32" height="32" rx="16" fill="white"/>
<path d="M18.6433 24.9583H13.6433C9.1183 24.9583 7.18497 23.025 7.18497 18.5V13.5C7.18497 8.975 9.1183 7.04167 13.6433 7.04167H18.6433C23.1683 7.04167 25.1016 8.975 25.1016 13.5V18.5C25.1016 23.025 23.1683 24.9583 18.6433 24.9583ZM13.6433 8.29167C9.80163 8.29167 8.43497 9.65833 8.43497 13.5V18.5C8.43497 22.3417 9.80163 23.7083 13.6433 23.7083H18.6433C22.485 23.7083 23.8516 22.3417 23.8516 18.5V13.5C23.8516 9.65833 22.485 8.29167 18.6433 8.29167H13.6433Z" fill="#292D32"/>
<path d="M19.2683 14.125H13.0183C12.6766 14.125 12.3933 13.8417 12.3933 13.5C12.3933 13.1583 12.6766 12.875 13.0183 12.875H19.2683C19.61 12.875 19.8933 13.1583 19.8933 13.5C19.8933 13.8417 19.61 14.125 19.2683 14.125Z" fill="#292D32"/>
<path d="M19.2683 19.125H13.0183C12.6766 19.125 12.3933 18.8417 12.3933 18.5C12.3933 18.1583 12.6766 17.875 13.0183 17.875H19.2683C19.61 17.875 19.8933 18.1583 19.8933 18.5C19.8933 18.8417 19.61 19.125 19.2683 19.125Z" fill="#292D32"/>
</svg>
