<svg width="48" height="48" viewBox="0 0 48 48" fill="none" xmlns="http://www.w3.org/2000/svg">
<rect width="48" height="48" rx="24" fill="#B2DCBC" fill-opacity="0.21"/>
<g clip-path="url(#clip0_2445_1507)">
<path d="M22.125 28.5H22.875V29.25H22.125V28.5ZM25.125 28.5H25.875V29.25H25.125V28.5ZM23.625 28.5H24.375V29.25H23.625V28.5ZM22.125 27H22.875V27.75H22.125V27ZM25.125 27H25.875V27.75H25.125V27ZM23.625 27H24.375V27.75H23.625V27ZM23.625 30H24.375V30.75H23.625V30ZM23.625 31.5H24.375V32.25H23.625V31.5ZM22.125 30H22.875V30.75H22.125V30ZM25.125 30H25.875V30.75H25.125V30ZM22.125 31.5H22.875V32.25H22.125V31.5ZM25.125 31.5H25.875V32.25H25.125V31.5Z" fill="#091C2B"/>
<path d="M30 28.875H27.375V25.875C27.375 25.7755 27.3355 25.6802 27.2652 25.6098C27.1948 25.5395 27.0995 25.5 27 25.5H21C20.9005 25.5 20.8052 25.5395 20.7348 25.6098C20.6645 25.6802 20.625 25.7755 20.625 25.875V28.875H18C17.9005 28.875 17.8052 28.9145 17.7348 28.9848C17.6645 29.0552 17.625 29.1505 17.625 29.25V34.875H16.875V35.625H31.125V34.875H30.375V29.25C30.375 29.1505 30.3355 29.0552 30.2652 28.9848C30.1948 28.9145 30.0995 28.875 30 28.875ZM29.625 29.625V34.875H27.375V29.625H29.625ZM26.625 26.25V34.875H25.5V33.75H25.875V33H22.125V33.75H22.5V34.875H21.375V26.25H26.625ZM24.75 33.75V34.875H23.25V33.75H24.75ZM18.375 29.625H20.625V34.875H18.375V29.625Z" fill="#091C2B"/>
<path d="M28.125 30.375H28.875V31.125H28.125V30.375ZM28.125 31.875H28.875V32.625H28.125V31.875ZM28.125 33.375H28.875V34.125H28.125V33.375ZM19.125 30.375H19.875V31.125H19.125V30.375ZM19.125 31.875H19.875V32.625H19.125V31.875ZM19.125 33.375H19.875V34.125H19.125V33.375ZM29.625 13.5H30.375V14.25H29.625V13.5ZM30.75 13.5H31.5V14.25H30.75V13.5ZM31.875 13.5H32.625V14.25H31.875V13.5ZM29.625 15H30.375V15.75H29.625V15ZM30.75 15H31.5V15.75H30.75V15ZM31.875 15H32.625V15.75H31.875V15ZM29.625 16.5H30.375V17.25H29.625V16.5ZM30.75 16.5H31.5V17.25H30.75V16.5ZM31.875 16.5H32.625V17.25H31.875V16.5Z" fill="#091C2B"/>
<path d="M33.75 17.6614V13.125C33.7498 12.9261 33.6707 12.7355 33.5301 12.5949C33.3895 12.4543 33.1989 12.3752 33 12.375H29.25C29.0511 12.3752 28.8605 12.4543 28.7199 12.5949C28.5793 12.7355 28.5002 12.9261 28.5 13.125V17.6614C27.324 18.0716 26.625 18.7451 26.625 19.5C26.625 20.7825 28.5596 21.75 31.125 21.75C33.6904 21.75 35.625 20.7825 35.625 19.5C35.625 18.7451 34.926 18.0716 33.75 17.6614ZM29.25 13.125H33V19.125H32.25V18.375H32.625V17.625H29.625V18.375H30V19.125H29.25V13.125ZM31.5 18.375V19.125H30.75V18.375H31.5ZM31.125 21C28.9785 21 27.375 20.208 27.375 19.5C27.375 19.1321 27.8062 18.7466 28.5 18.4605V19.5C28.5 19.5995 28.5395 19.6948 28.6098 19.7652C28.6802 19.8355 28.7755 19.875 28.875 19.875H33.375C33.4745 19.875 33.5698 19.8355 33.6402 19.7652C33.7105 19.6948 33.75 19.5995 33.75 19.5V18.4605C34.4438 18.7466 34.875 19.1318 34.875 19.5C34.875 20.208 33.2715 21 31.125 21ZM15.375 13.5H16.125V14.25H15.375V13.5ZM16.5 13.5H17.25V14.25H16.5V13.5ZM17.625 13.5H18.375V14.25H17.625V13.5ZM15.375 15H16.125V15.75H15.375V15ZM16.5 15H17.25V15.75H16.5V15ZM17.625 15H18.375V15.75H17.625V15ZM15.375 16.5H16.125V17.25H15.375V16.5ZM16.5 16.5H17.25V17.25H16.5V16.5ZM17.625 16.5H18.375V17.25H17.625V16.5Z" fill="#091C2B"/>
<path d="M16.875 21.75C19.4404 21.75 21.375 20.7825 21.375 19.5C21.375 18.7451 20.676 18.0716 19.5 17.6614V13.125C19.4998 12.9261 19.4207 12.7355 19.2801 12.5949C19.1395 12.4543 18.9489 12.3752 18.75 12.375H15C14.8011 12.3752 14.6105 12.4543 14.4699 12.5949C14.3293 12.7355 14.2502 12.9261 14.25 13.125V17.6614C13.074 18.0712 12.375 18.7451 12.375 19.5C12.375 20.7825 14.3096 21.75 16.875 21.75ZM15 13.125H18.75V19.125H18V18.375H18.375V17.625H15.375V18.375H15.75V19.125H15V13.125ZM17.25 18.375V19.125H16.5V18.375H17.25ZM14.25 18.4605V19.5C14.25 19.5995 14.2895 19.6948 14.3598 19.7652C14.4302 19.8355 14.5255 19.875 14.625 19.875H19.125C19.2245 19.875 19.3198 19.8355 19.3902 19.7652C19.4605 19.6948 19.5 19.5995 19.5 19.5V18.4605C20.1937 18.7466 20.625 19.1318 20.625 19.5C20.625 20.208 19.0215 21 16.875 21C14.7285 21 13.125 20.208 13.125 19.5C13.125 19.1321 13.5562 18.7466 14.25 18.4605ZM19.215 22.365L19.7842 21.8767L22.0354 24.5006L21.4661 24.9889L19.215 22.365ZM25.965 24.5107L28.2161 21.8869L28.7854 22.3751L26.5343 24.999L25.965 24.5107Z" fill="#091C2B"/>
</g>
<defs>
<clipPath id="clip0_2445_1507">
<rect width="24" height="24" fill="white" transform="translate(12 12)"/>
</clipPath>
</defs>
</svg>
