<svg width="32" height="32" viewBox="0 0 32 32" fill="none" xmlns="http://www.w3.org/2000/svg">
<rect width="32" height="32" rx="16" fill="#091C2B"/>
<g clip-path="url(#clip0_2834_3871)">
<path d="M20.25 12.25C20.2498 12.4488 20.1707 12.6395 20.0301 12.7801C19.8895 12.9207 19.6988 12.9998 19.5 13C19.1023 13.0004 18.721 13.1586 18.4398 13.4398C18.1586 13.721 18.0004 14.1023 18 14.5V14.75C17.9998 14.9488 17.9207 15.1395 17.7801 15.2801C17.6395 15.4207 17.4488 15.4998 17.25 15.5C16.9186 15.5004 16.6009 15.6322 16.3665 15.8665C16.1322 16.1009 16.0004 16.4186 16 16.75V17H15.75C15.6837 17 15.6201 17.0263 15.5732 17.0732C15.5263 17.1201 15.5 17.1837 15.5 17.25V20.25C15.5 20.5858 15.5753 20.9173 15.7203 21.2201C15.8653 21.523 16.0764 21.7895 16.338 22H14.5C14.4337 22 14.3701 22.0263 14.3232 22.0732C14.2763 22.1201 14.25 22.1837 14.25 22.25C14.2504 22.5814 14.3822 22.8991 14.6165 23.1335C14.8509 23.3678 15.1686 23.4996 15.5 23.5H21.5C21.8314 23.4996 22.1491 23.3678 22.3835 23.1335C22.6178 22.8991 22.7496 22.5814 22.75 22.25C22.75 22.1837 22.7237 22.1201 22.6768 22.0732C22.6299 22.0263 22.5663 22 22.5 22H20.662C20.986 21.7384 21.2314 21.3923 21.371 21H21.5C22.0304 21 22.5391 20.7893 22.9142 20.4142C23.2893 20.0391 23.5 19.5304 23.5 19C23.5 18.4696 23.2893 17.9609 22.9142 17.5858C22.5391 17.2107 22.0304 17 21.5 17H21V16.75C21.0005 16.3523 21.1586 15.971 21.4398 15.6898C21.721 15.4086 22.1023 15.2505 22.5 15.25H23.5V14.75H22.5C21.9697 14.7506 21.4614 14.9615 21.0864 15.3364C20.7115 15.7114 20.5006 16.2197 20.5 16.75V17H16.5V16.75C16.5002 16.5512 16.5793 16.3605 16.7199 16.2199C16.8605 16.0793 17.0512 16.0002 17.25 16C17.5814 15.9996 17.8991 15.8678 18.1335 15.6335C18.3678 15.3991 18.4996 15.0814 18.5 14.75V14.5C18.5003 14.2349 18.6058 13.9807 18.7932 13.7932C18.9807 13.6058 19.2349 13.5003 19.5 13.5C19.8314 13.4996 20.1491 13.3678 20.3835 13.1335C20.6178 12.8991 20.7496 12.5814 20.75 12.25C20.7504 11.9186 20.8822 11.6009 21.1165 11.3665C21.3509 11.1322 21.6686 11.0004 22 11H23.5V10.5H22C21.536 10.5005 21.0912 10.6851 20.7631 11.0131C20.4351 11.3412 20.2505 11.786 20.25 12.25ZM22.2072 22.5C22.1553 22.6461 22.0595 22.7726 21.9329 22.8621C21.8063 22.9517 21.6551 22.9998 21.5 23H15.5C15.3449 22.9998 15.1937 22.9517 15.0671 22.8621C14.9405 22.7726 14.8447 22.6461 14.7928 22.5H22.2072ZM21.5 18.5C21.6326 18.5 21.7598 18.5527 21.8536 18.6464C21.9473 18.7402 22 18.8674 22 19C22 19.1326 21.9473 19.2598 21.8536 19.3536C21.7598 19.4473 21.6326 19.5 21.5 19.5V18.5ZM23 19C22.9996 19.3977 22.8414 19.779 22.5602 20.0602C22.279 20.3414 21.8977 20.4996 21.5 20.5V20C21.7652 20 22.0196 19.8946 22.2071 19.7071C22.3946 19.5196 22.5 19.2652 22.5 19C22.5 18.7348 22.3946 18.4804 22.2071 18.2929C22.0196 18.1054 21.7652 18 21.5 18V17.5C21.8977 17.5004 22.279 17.6586 22.5602 17.9398C22.8414 18.221 22.9996 18.6023 23 19ZM21 17.5V20.25C20.9995 20.714 20.8149 21.1588 20.4869 21.4869C20.1588 21.8149 19.714 21.9995 19.25 22H17.75C17.286 21.9995 16.8412 21.8149 16.5131 21.4869C16.1851 21.1588 16.0005 20.714 16 20.25V17.5H21Z" fill="#B2DCBC"/>
<path d="M20.375 14.5C20.0105 14.5004 19.661 14.6454 19.4032 14.9032C19.1454 15.161 19.0004 15.5105 19 15.875V16.5H19.5V15.875C19.5003 15.643 19.5925 15.4206 19.7566 15.2566C19.9206 15.0925 20.143 15.0003 20.375 15C20.7395 14.9996 21.089 14.8546 21.3468 14.5968C21.6046 14.339 21.7496 13.9895 21.75 13.625V12.625H21.25V13.625C21.2497 13.857 21.1575 14.0794 20.9934 14.2434C20.8294 14.4075 20.607 14.4997 20.375 14.5ZM19.9046 11.8912C19.4138 10.8748 18.6464 10.0175 17.6904 9.4177C16.7344 8.81785 15.6286 8.49977 14.5 8.5C11.1916 8.5 8.5 11.1916 8.5 14.5C8.5 17.8084 11.1916 20.5 14.5 20.5C14.6737 20.5 14.8492 20.4925 15.0215 20.4777L14.9786 19.9795C14.8205 19.9931 14.6595 20 14.5 20C11.4673 20 9 17.5327 9 14.5C9 11.4673 11.4673 9 14.5 9C16.5965 9 18.5413 10.2203 19.4545 12.1088L19.9046 11.8912Z" fill="#B2DCBC"/>
<path d="M14.25 14.5V17.75H14.75V14.6036L16.1768 13.1768L15.8232 12.8232L14.3232 14.3232C14.3 14.3465 14.2816 14.374 14.269 14.4044C14.2565 14.4347 14.25 14.4672 14.25 14.5Z" fill="#B2DCBC"/>
<path d="M18.0881 12.7145L18.7378 12.339C18.7662 12.3225 18.7912 12.3006 18.8111 12.2746C18.8311 12.2485 18.8457 12.2187 18.8542 12.187C18.8627 12.1552 18.8648 12.1222 18.8605 12.0896C18.8561 12.057 18.8454 12.0256 18.829 11.9972C18.3901 11.2377 17.7589 10.607 16.999 10.1686C16.2392 9.73029 15.3773 9.49968 14.5 9.5C11.743 9.5 9.5 11.743 9.5 14.5C9.5 17.257 11.743 19.5 14.5 19.5C14.5663 19.5 14.6299 19.4737 14.6768 19.4268C14.7237 19.3799 14.75 19.3163 14.75 19.25V18.5H14.25V18.9931C11.9677 18.8675 10.1333 17.0332 10.0072 14.7509L10.5001 14.7508L10.4999 14.2508L10.007 14.2509C10.0406 13.6311 10.203 13.025 10.4839 12.4714L10.9104 12.7175L11.1603 12.2844L10.7347 12.0388C11.075 11.5201 11.518 11.0768 12.0365 10.7362L12.2823 11.1617L12.7153 10.9115L12.4689 10.4852C13.0224 10.204 13.6283 10.0412 14.2481 10.0072L14.2483 10.5001L14.7483 10.4999L14.7481 10.0073C15.3676 10.0422 15.9732 10.2049 16.5268 10.4851L16.2817 10.9101L16.7148 11.1598L16.9597 10.7352C17.4796 11.074 17.9239 11.5165 18.2648 12.0349L17.8378 12.2817L18.0881 12.7145Z" fill="#B2DCBC"/>
<path d="M11.25 14.25H13.75V14.75H11.25V14.25Z" fill="#B2DCBC"/>
</g>
<defs>
<clipPath id="clip0_2834_3871">
<rect width="16" height="16" fill="white" transform="translate(8 8)"/>
</clipPath>
</defs>
</svg>
