<svg width="23" height="25" viewBox="0 0 23 25" fill="none" xmlns="http://www.w3.org/2000/svg">
<path d="M6.15431 14.3994C6.36733 14.6025 6.64918 14.7178 6.94344 14.7221C7.23719 14.7176 7.51839 14.6027 7.73112 14.4001L7.86458 14.2333C7.90672 14.1713 7.94037 14.104 7.96467 14.0331C7.9968 13.9701 8.01936 13.9026 8.0314 13.8329C8.04387 13.7595 8.05134 13.6854 8.05388 13.611C8.04975 13.3168 7.93471 13.0349 7.73185 12.8218C7.5173 12.623 7.23559 12.5126 6.94308 12.5126C6.65056 12.5126 6.36886 12.623 6.15431 12.8218C6.05639 12.9301 5.9777 13.0542 5.92149 13.1888C5.86433 13.3224 5.83402 13.4658 5.83228 13.611C5.83452 13.9054 5.94985 14.1876 6.15431 14.3994Z" fill="white"/>
<path d="M10.8319 14.7217C10.6867 14.7201 10.5433 14.69 10.4097 14.6332C10.2736 14.5794 10.149 14.5002 10.0427 14.3996C9.83806 14.1877 9.72273 13.9051 9.7207 13.6105C9.72244 13.4653 9.75276 13.3218 9.80991 13.1884C9.86613 13.0539 9.94489 12.9301 10.0427 12.8221C10.149 12.7215 10.2736 12.6422 10.4097 12.5885C10.6125 12.506 10.835 12.4841 11.05 12.5256C11.265 12.567 11.4634 12.6701 11.621 12.8221C11.8239 13.0352 11.9388 13.317 11.943 13.6112C11.9405 13.6856 11.933 13.7598 11.9205 13.8332C11.9084 13.9029 11.886 13.9703 11.8538 14.0334C11.8295 14.1042 11.7959 14.1715 11.7537 14.2335C11.7127 14.2918 11.6681 14.3475 11.6203 14.4004C11.4072 14.6028 11.1257 14.7175 10.8319 14.7217Z" fill="white"/>
<path d="M6.52131 18.5215C6.65484 18.5787 6.79823 18.609 6.94344 18.6107C7.08894 18.6091 7.23262 18.5787 7.36629 18.5215C7.5041 18.4715 7.62922 18.3919 7.73286 18.2883C7.83651 18.1846 7.91615 18.0595 7.96612 17.9217C8.02327 17.7882 8.05359 17.6448 8.05533 17.4996C8.05359 17.3544 8.02327 17.211 7.96612 17.0774C7.91498 16.9402 7.83542 16.8154 7.73257 16.7112C7.62813 16.6082 7.50309 16.5287 7.36557 16.4776C7.23233 16.4199 7.08865 16.3901 6.94344 16.3901C6.79823 16.3901 6.65462 16.4199 6.52131 16.4776C6.38394 16.5285 6.25883 16.6078 6.15431 16.7104C6.05168 16.8149 5.97233 16.9401 5.92149 17.0774C5.86433 17.211 5.83402 17.3544 5.83228 17.4996C5.8338 17.6447 5.8639 17.7882 5.92076 17.9217C5.9719 18.0589 6.05153 18.1837 6.15431 18.288C6.25875 18.3909 6.38387 18.4705 6.52131 18.5215Z" fill="white"/>
<path d="M18.476 20.6663C18.4016 20.7467 18.312 20.8114 18.2123 20.8568C18.1127 20.9021 18.005 20.9271 17.8956 20.9303L16.3405 20.9846C16.1197 20.9923 15.9049 20.912 15.7434 20.7614C15.5818 20.6107 15.4867 20.4021 15.479 20.1813C15.4713 19.9606 15.5516 19.7457 15.7023 19.5842C15.8529 19.4227 16.0616 19.3276 16.2824 19.3198L17.0358 19.2935L17.0456 17.708C17.0465 17.4869 17.1353 17.2753 17.2924 17.1197C17.4494 16.9641 17.6618 16.8772 17.8829 16.8782C18.1039 16.8792 18.3155 16.968 18.4712 17.125C18.6268 17.282 18.7137 17.4944 18.7126 17.7155L18.6994 20.1001C18.6955 20.3096 18.6162 20.5106 18.476 20.6663Z" fill="white"/>
<path fill-rule="evenodd" clip-rule="evenodd" d="M5.5545 1.7015V0.830473C5.55682 0.610423 5.64545 0.40007 5.80132 0.244739C5.95719 0.089401 6.16782 0.00150863 6.38787 0C6.60873 0.00113873 6.82015 0.0892632 6.97646 0.245262C7.13269 0.401267 7.22118 0.61257 7.2227 0.833374V1.66673H14.4438V0.830567C14.446 0.61051 14.5346 0.400165 14.6905 0.244826C14.8464 0.0894879 15.0571 0.00160288 15.2771 9.42446e-05C15.4979 0.00123297 15.7094 0.0893501 15.8656 0.245356C16.0219 0.401354 16.1104 0.612657 16.1119 0.833468V1.70157C19.6509 2.00561 21.6655 4.28702 21.6655 8.05522V16.4827C22.3818 17.404 22.7764 18.5426 22.7764 19.7219C22.7786 20.6824 22.5142 21.6247 22.0127 22.4439C21.5453 23.2239 20.8838 23.8693 20.0926 24.3173C19.3014 24.7652 18.4076 25.0004 17.4984 24.9999C16.3242 25.0066 15.1863 24.6124 14.2704 23.8879H6.38845C2.3333 23.8879 0 21.5553 0 17.4994V8.05522C0 4.28669 2.01508 2.00522 5.5545 1.7015ZM6.38787 4.99952C6.16745 4.998 5.95646 4.90981 5.80052 4.75401C5.64458 4.59821 5.55624 4.3873 5.5545 4.16687V3.37401C2.99482 3.62665 1.72152 5.10621 1.66984 7.87752H19.9986C19.9468 5.10596 18.6723 3.62523 16.1119 3.37254V4.16987C16.1095 4.39004 16.0206 4.60042 15.8644 4.75564C15.7082 4.91086 15.4973 4.99848 15.2771 4.99961C15.0567 4.99809 14.8457 4.9099 14.6898 4.7541C14.5338 4.5983 14.4454 4.38739 14.4438 4.16696V3.33361L7.2227 3.33479V4.16977C7.22023 4.38994 7.13131 4.60033 6.97515 4.75555C6.81899 4.91077 6.60808 4.99839 6.38787 4.99952ZM20.0002 15.0746C19.2382 14.6645 18.3798 14.4442 17.4987 14.4442C16.099 14.4442 14.7566 15.0002 13.7669 15.99C12.7771 16.9797 12.2211 18.3221 12.2211 19.7219C12.22 20.5962 12.4386 21.4554 12.855 22.2211H6.3899C3.21237 22.2211 1.6682 20.677 1.6682 17.4994V9.54572H20.0002V15.0746ZM18.225 16.1866C17.9865 16.1377 17.7432 16.1128 17.4984 16.1128V16.1113C16.5417 16.1136 15.6248 16.4948 14.9484 17.1714C14.272 17.8481 13.8912 18.7651 13.8893 19.7219C13.8874 20.3768 14.0683 21.0194 14.4115 21.5772C14.595 21.8965 14.8311 22.1824 15.1099 22.4229C15.7643 23.0148 16.6168 23.3398 17.4991 23.3339C18.4565 23.3325 19.3742 22.9517 20.0512 22.2747C20.7281 21.5977 21.1091 20.6799 21.1104 19.7226C21.1044 18.8757 20.8074 18.0577 20.2707 17.405C20.2455 17.3824 20.2214 17.3583 20.199 17.3326C19.7134 16.7828 19.0721 16.3939 18.3601 16.2174C18.3152 16.2063 18.2701 16.196 18.225 16.1866Z" fill="white"/>
</svg>
