<svg width="16" height="17" viewBox="0 0 16 17" fill="none" xmlns="http://www.w3.org/2000/svg">
<path d="M5.68188 7.59505C5.74179 7.68742 5.82028 7.79543 5.91821 7.92317C5.82535 7.80279 5.74616 7.69409 5.68188 7.59505ZM5.68188 7.59505C5.66281 7.56565 5.64582 7.53666 5.62915 7.50911C5.64533 7.53578 5.66226 7.56479 5.68188 7.59505ZM2.11548 2.69075C1.87963 2.95887 1.70061 3.25079 1.57642 3.56575C1.54482 3.64399 1.51668 3.72339 1.49146 3.80305C1.51598 3.72399 1.54245 3.6455 1.57251 3.56868L1.57153 3.5677C1.69384 3.25825 1.87572 2.96241 2.11548 2.69075ZM2.11548 2.69075C2.14988 2.65165 2.18609 2.61362 2.2229 2.57552L2.21313 2.58528C2.17964 2.62006 2.14695 2.65509 2.11548 2.69075ZM2.81567 2.08723C2.70424 2.15282 2.59738 2.23059 2.49438 2.3177C2.59977 2.22764 2.70703 2.15122 2.81567 2.08723ZM2.81567 2.08723C2.86786 2.0565 2.92103 2.03015 2.97388 2.0052C2.9205 2.0305 2.86722 2.0569 2.81567 2.08723ZM14.4739 13.4554C14.3551 13.71 14.2096 13.9274 14.0247 14.1292L14.0227 14.1312C13.6867 14.5026 13.3337 14.7549 12.9329 14.9163H12.9319C12.5319 15.0786 12.0956 15.1663 11.6331 15.1663C11.4413 15.1663 11.2454 15.1515 11.0452 15.1253C11.7051 15.2111 12.3441 15.1533 12.9319 14.9085L12.9309 14.9075C13.3449 14.7369 13.7055 14.4776 14.0256 14.1185C14.2123 13.9144 14.3601 13.694 14.4797 13.4388L14.4788 13.4378C14.4915 13.4111 14.5026 13.3839 14.5139 13.3568C14.5009 13.3895 14.489 13.423 14.4739 13.4554ZM8.59106 14.2591C8.87877 14.4134 9.16808 14.5511 9.45728 14.6722V14.6732C9.97599 14.8946 10.4966 15.049 11.0051 15.1195C10.5142 15.0511 9.9983 14.9061 9.46118 14.679H9.46021C9.17553 14.558 8.88895 14.4195 8.60181 14.265L8.59106 14.2591ZM1.8147 7.04622C2.1312 7.79076 2.57068 8.55528 3.12231 9.3138C3.67082 10.068 4.29384 10.8007 4.97778 11.4915L4.98169 11.4954C5.66559 12.1725 6.40416 12.802 7.16431 13.3568C7.35335 13.495 7.54453 13.6271 7.73657 13.7523C7.54559 13.6285 7.35507 13.4974 7.16528 13.3607C6.59619 12.9421 6.04107 12.4874 5.5061 11.9984L4.97681 11.4964C4.28966 10.8023 3.66729 10.0694 3.11646 9.3177C2.56228 8.54386 2.12288 7.77795 1.81372 7.04622H1.8147ZM5.57935 7.42317L5.58032 7.42708C5.57926 7.42516 5.57844 7.42312 5.57739 7.42122L5.56177 7.38118C5.5701 7.39997 5.57519 7.41486 5.57935 7.42317ZM6.62036 5.3802C6.62032 5.53311 6.57628 5.69156 6.47778 5.85579L6.47388 5.8636L6.46997 5.87044C6.39919 5.99784 6.27842 6.15475 6.10669 6.32649L6.09888 6.3343L5.64575 6.80794L5.54419 6.91243C5.5596 6.88681 5.57759 6.86244 5.59985 6.84016L5.60669 6.83333L6.09888 6.31966L6.09985 6.32063C6.25222 6.16827 6.37904 6.01066 6.47192 5.85481L6.4729 5.85579C6.56394 5.70785 6.6182 5.54644 6.61938 5.37239C6.61941 5.37494 6.62036 5.37768 6.62036 5.3802ZM1.33325 4.8597C1.33326 4.75539 1.33754 4.65251 1.34595 4.5511C1.33764 4.65289 1.33326 4.75573 1.33325 4.8597ZM3.32153 1.88118C3.20614 1.90902 3.09441 1.94826 2.98657 1.99837C3.09705 1.94725 3.20854 1.90809 3.32153 1.88118ZM3.91333 1.84895C4.01473 1.86402 4.11364 1.8908 4.20435 1.92708C4.11261 1.89138 4.01523 1.8643 3.91333 1.84895ZM3.3479 1.87434C3.39647 1.86358 3.44543 1.85643 3.49438 1.84993C3.445 1.85659 3.39597 1.86355 3.3479 1.87434ZM3.72681 1.83333C3.66271 1.83333 3.59938 1.83632 3.53735 1.84309C3.54093 1.84271 3.54452 1.84248 3.5481 1.84212L3.72681 1.83333Z" fill="#292D32" stroke="#091C2B"/>
<path d="M12.3193 6.35027C12.3201 6.35484 12.3206 6.35942 12.3213 6.36394C12.3206 6.35938 12.32 6.35483 12.3193 6.35027ZM11.2617 4.71159C11.2994 4.74354 11.3384 4.77529 11.376 4.81023C11.339 4.77595 11.3 4.74405 11.2617 4.71159ZM11.0938 4.57878C11.1239 4.60085 11.1544 4.62319 11.1846 4.64714C11.1548 4.6235 11.1242 4.60113 11.0938 4.57878ZM10.8916 4.44402C10.9227 4.46267 10.9541 4.48196 10.9854 4.50261C10.9545 4.48215 10.9231 4.46294 10.8916 4.44402ZM10.6963 4.33952C10.728 4.35457 10.76 4.37026 10.792 4.38737C10.7604 4.37037 10.7284 4.3548 10.6963 4.33952ZM10.4971 4.25749C10.5268 4.26779 10.5568 4.27855 10.5869 4.2907C10.5571 4.27863 10.5271 4.26792 10.4971 4.25749ZM10.2812 4.19792C10.317 4.2052 10.3532 4.21326 10.3896 4.22331C10.3537 4.21341 10.3175 4.20523 10.2812 4.19792ZM10.1631 4.17644C10.1716 4.17746 10.18 4.17916 10.1885 4.18034C10.18 4.17918 10.1716 4.17745 10.1631 4.17644Z" fill="#292D32" stroke="#091C2B"/>
<mask id="path-3-inside-1_2331_4277" fill="white">
<path d="M14.6667 6.99999C14.3933 6.99999 14.1667 6.77333 14.1667 6.49999C14.1667 4.19999 12.3 2.33333 10 2.33333C9.72667 2.33333 9.5 2.10666 9.5 1.83333C9.5 1.55999 9.72667 1.33333 10 1.33333C12.8467 1.33333 15.1667 3.65333 15.1667 6.49999C15.1667 6.77333 14.94 6.99999 14.6667 6.99999Z"/>
</mask>
<path d="M14.6667 6.99999C14.3933 6.99999 14.1667 6.77333 14.1667 6.49999C14.1667 4.19999 12.3 2.33333 10 2.33333C9.72667 2.33333 9.5 2.10666 9.5 1.83333C9.5 1.55999 9.72667 1.33333 10 1.33333C12.8467 1.33333 15.1667 3.65333 15.1667 6.49999C15.1667 6.77333 14.94 6.99999 14.6667 6.99999Z" fill="#292D32"/>
<path d="M14.6667 6.99999V5.99999C14.9456 5.99999 15.1667 6.22104 15.1667 6.49999H14.1667H13.1667C13.1667 7.32561 13.841 7.99999 14.6667 7.99999V6.99999ZM14.1667 6.49999H15.1667C15.1667 3.64771 12.8523 1.33333 10 1.33333V2.33333V3.33333C11.7477 3.33333 13.1667 4.75228 13.1667 6.49999H14.1667ZM10 2.33333V1.33333C10.279 1.33333 10.5 1.55438 10.5 1.83333H9.5H8.5C8.5 2.65895 9.17438 3.33333 10 3.33333V2.33333ZM9.5 1.83333H10.5C10.5 2.11228 10.279 2.33333 10 2.33333V1.33333V0.333328C9.17438 0.333328 8.5 1.00771 8.5 1.83333H9.5ZM10 1.33333V2.33333C12.2944 2.33333 14.1667 4.20561 14.1667 6.49999H15.1667H16.1667C16.1667 3.10104 13.399 0.333328 10 0.333328V1.33333ZM15.1667 6.49999H14.1667C14.1667 6.22104 14.3877 5.99999 14.6667 5.99999V6.99999V7.99999C15.4923 7.99999 16.1667 7.32561 16.1667 6.49999H15.1667Z" fill="#091C2B" mask="url(#path-3-inside-1_2331_4277)"/>
</svg>
