<svg width="35" height="44" viewBox="0 0 35 44" fill="none" xmlns="http://www.w3.org/2000/svg">
<path d="M17.4987 43.9998C17.1418 43.9951 16.7975 43.8717 16.5213 43.6483H16.5088C16.4873 43.6327 16.4672 43.6153 16.4486 43.5963L16.4386 43.5839H16.426C16.3964 43.5634 16.3683 43.5405 16.3434 43.5145C13.1021 40.819 10.136 37.8155 7.4887 34.5478C2.51891 28.3787 6.12609e-05 22.5754 6.12609e-05 17.2974C-0.00604755 15.0253 0.444772 12.7739 1.32587 10.6751C2.20696 8.57626 3.50077 6.67126 5.13283 5.07019C6.75166 3.45844 8.67915 2.18004 10.8021 1.30968C12.9249 0.439333 15.2003 -0.00565165 17.4987 6.56332e-05C19.7987 -0.00622211 22.0784 0.439333 24.203 1.30968C26.3276 2.18004 28.2542 3.45786 29.8747 5.07019C31.5052 6.67197 32.7993 8.57754 33.6791 10.6763C34.5588 12.775 35.0069 15.0258 34.9999 17.2974C34.9999 22.5716 32.4883 28.3688 27.5338 34.5353C24.8819 37.8062 21.9127 40.8136 18.6691 43.5145L18.6416 43.5405C18.6183 43.5638 18.5935 43.5847 18.5664 43.6036L18.5539 43.6124C18.5476 43.6185 18.5387 43.6237 18.5313 43.6285C18.5183 43.6432 18.5029 43.6564 18.4862 43.6668C18.2062 43.8882 17.8574 44.0057 17.4987 43.9998ZM11.6215 18.6912C11.1972 18.69 10.79 18.8554 10.4887 19.1504C10.3406 19.2976 10.2248 19.472 10.1454 19.6642C10.0658 19.8562 10.0237 20.0619 10.0251 20.2695C10.0237 20.477 10.0658 20.6826 10.1454 20.8747C10.2248 21.0669 10.3406 21.2413 10.4887 21.3885L13.6967 24.5572C13.8462 24.7045 14.0251 24.8211 14.2206 24.9001C14.4159 24.9791 14.6234 25.0193 14.8345 25.0178C15.0453 25.0189 15.2537 24.9791 15.4486 24.9001C15.6436 24.8211 15.8208 24.7043 15.9699 24.5572L24.5238 16.1079C24.8194 15.8072 24.9849 15.4042 24.9849 14.9851C24.9849 14.566 24.8194 14.1643 24.5238 13.8637C24.3744 13.7171 24.1973 13.6008 24.0025 13.5221C23.8076 13.4434 23.599 13.4033 23.3884 13.4044C23.1778 13.4033 22.9693 13.4434 22.7745 13.5221C22.5795 13.6008 22.4024 13.7171 22.2532 13.8637L14.8345 21.1966L12.7595 19.148C12.6092 19.0016 12.4312 18.8858 12.2356 18.8076C12.04 18.7293 11.8325 18.6895 11.6215 18.6912Z" fill="#091C2B"/>
</svg>
