<svg width="33" height="33" viewBox="0 0 33 33" fill="none" xmlns="http://www.w3.org/2000/svg">
<circle cx="16.5" cy="16.5" r="16.5" fill="#FDF2BB"/>
<path fill-rule="evenodd" clip-rule="evenodd" d="M14.4732 17.9139C14.9439 18.2284 15.4973 18.3963 16.0634 18.3963C16.8223 18.3957 17.5499 18.094 18.0866 17.5573C18.6232 17.0207 18.925 16.293 18.9256 15.5341C18.9256 14.968 18.7577 14.4146 18.4432 13.9439C18.1287 13.4732 17.6817 13.1064 17.1587 12.8897C16.6357 12.6731 16.0602 12.6164 15.505 12.7269C14.9498 12.8373 14.4397 13.1099 14.0395 13.5102C13.6392 13.9105 13.3666 14.4205 13.2562 14.9757C13.1457 15.5309 13.2024 16.1064 13.4191 16.6294C13.6357 17.1524 14.0025 17.5994 14.4732 17.9139ZM15.1768 14.2072C15.4392 14.0319 15.7477 13.9383 16.0634 13.9383C16.4863 13.9393 16.8916 14.1077 17.1907 14.4068C17.4897 14.7058 17.6582 15.1112 17.6592 15.5341C17.6592 15.8497 17.5656 16.1582 17.3902 16.4206C17.2149 16.6831 16.9656 16.8876 16.674 17.0084C16.3825 17.1292 16.0616 17.1608 15.752 17.0992C15.4425 17.0376 15.1582 16.8857 14.935 16.6625C14.7118 16.4393 14.5598 16.1549 14.4982 15.8454C14.4366 15.5358 14.4683 15.215 14.589 14.9234C14.7098 14.6318 14.9143 14.3826 15.1768 14.2072Z" fill="#091C2B"/>
<path d="M11.2338 18.0252C11.0662 18.024 10.9058 17.9569 10.7873 17.8385C10.6688 17.7199 10.6017 17.5595 10.6006 17.392V13.6771C10.6017 13.5096 10.6688 13.3492 10.7873 13.2307C10.9058 13.1122 11.0662 13.0451 11.2338 13.0439C11.4014 13.0451 11.5618 13.1122 11.6803 13.2307C11.7988 13.3492 11.8658 13.5096 11.867 13.6771V17.392C11.8671 17.4752 11.8509 17.5576 11.8191 17.6345C11.7873 17.7113 11.7407 17.7812 11.6819 17.84C11.623 17.8989 11.5532 17.9455 11.4763 17.9773C11.3994 18.009 11.317 18.0253 11.2338 18.0252Z" fill="#091C2B"/>
<path d="M20.4372 17.8385C20.5557 17.9569 20.7161 18.024 20.8837 18.0252C20.9669 18.0253 21.0493 18.009 21.1261 17.9773C21.2031 17.9455 21.2729 17.8989 21.3317 17.84C21.3906 17.7812 21.4372 17.7113 21.469 17.6345C21.5007 17.5576 21.517 17.4752 21.5169 17.392V13.6771C21.5157 13.5096 21.4487 13.3492 21.3301 13.2307C21.2117 13.1122 21.0513 13.0451 20.8837 13.0439C20.7161 13.0451 20.5557 13.1122 20.4372 13.2307C20.3187 13.3492 20.2516 13.5096 20.2505 13.6771V17.392C20.2516 17.5595 20.3187 17.7199 20.4372 17.8385Z" fill="#091C2B"/>
<path fill-rule="evenodd" clip-rule="evenodd" d="M19.7695 9C21.9497 9 23.4055 9.97558 23.9157 11.7609C25.6841 12.2848 26.65 13.7359 26.65 15.8895V20.2375C26.6505 23.0066 25.0716 24.5856 22.3025 24.5856H14.8811C14.2309 24.5993 13.5838 24.4938 12.9717 24.2741C12.3644 24.0515 11.8279 23.6701 11.418 23.1697C11.0966 22.7772 10.8623 22.3228 10.7286 21.8367C10.6344 21.8089 10.5414 21.7767 10.45 21.7402C9.32575 21.3177 8 20.2795 8 17.696V13.348C8 10.5871 9.58709 9 12.348 9H19.7695ZM19.7804 10.2833C21.4721 10.2833 22.4464 10.947 22.7558 12.3215C22.7577 12.3495 22.7614 12.3774 22.7669 12.405C22.8272 12.7184 22.8555 13.0371 22.8513 13.3562V17.7058C22.8513 19.7829 21.8468 20.7874 19.7697 20.7874H12.3472C12.0296 20.7896 11.7126 20.7584 11.4015 20.6943C11.3698 20.6865 11.3377 20.6812 11.3055 20.6784C11.166 20.6506 11.0288 20.6126 10.8949 20.5648C9.80596 20.151 9.27402 19.2227 9.27402 17.7113V13.3649C9.27402 11.2878 10.2785 10.2833 12.3557 10.2833H19.7804ZM12.1967 22.0528H12.2639C12.2916 22.053 12.3193 22.053 12.3471 22.0528H19.7779C22.5388 22.0528 24.1259 20.4657 24.1259 17.7047V13.2048C24.9785 13.6692 25.3923 14.5556 25.3923 15.8895V20.2375C25.3923 22.3146 24.3878 23.3192 22.3107 23.3192H14.8898C14.3932 23.3305 13.8985 23.2533 13.429 23.091C12.9025 22.9118 12.4626 22.5412 12.1967 22.0528Z" fill="#091C2B"/>
</svg>
