<svg width="25" height="25" viewBox="0 0 25 25" fill="none" xmlns="http://www.w3.org/2000/svg">
<path d="M8.5 6.25C8.09 6.25 7.75 5.91 7.75 5.5V2.5C7.75 2.09 8.09 1.75 8.5 1.75C8.91 1.75 9.25 2.09 9.25 2.5V5.5C9.25 5.91 8.91 6.25 8.5 6.25Z" fill="white"/>
<path d="M16.5 6.25C16.09 6.25 15.75 5.91 15.75 5.5V2.5C15.75 2.09 16.09 1.75 16.5 1.75C16.91 1.75 17.25 2.09 17.25 2.5V5.5C17.25 5.91 16.91 6.25 16.5 6.25Z" fill="white"/>
<path d="M16.5 23.25H8.5C4.85 23.25 2.75 21.15 2.75 17.5V9C2.75 5.35 4.85 3.25 8.5 3.25H16.5C20.15 3.25 22.25 5.35 22.25 9V17.5C22.25 21.15 20.15 23.25 16.5 23.25ZM8.5 4.75C5.64 4.75 4.25 6.14 4.25 9V17.5C4.25 20.36 5.64 21.75 8.5 21.75H16.5C19.36 21.75 20.75 20.36 20.75 17.5V9C20.75 6.14 19.36 4.75 16.5 4.75H8.5Z" fill="white"/>
<path d="M16.5 12.25H8.5C8.09 12.25 7.75 11.91 7.75 11.5C7.75 11.09 8.09 10.75 8.5 10.75H16.5C16.91 10.75 17.25 11.09 17.25 11.5C17.25 11.91 16.91 12.25 16.5 12.25Z" fill="white"/>
<path d="M12.5 17.25H8.5C8.09 17.25 7.75 16.91 7.75 16.5C7.75 16.09 8.09 15.75 8.5 15.75H12.5C12.91 15.75 13.25 16.09 13.25 16.5C13.25 16.91 12.91 17.25 12.5 17.25Z" fill="white"/>
</svg>
