<svg width="119" height="119" viewBox="0 0 119 119" fill="none" xmlns="http://www.w3.org/2000/svg">
<path d="M119 55.0759C119 58.2576 119 61.4393 119 64.621C118.554 67.7254 118.223 70.8466 117.435 73.8939C113.005 91.0353 103.041 103.866 87.6086 112.464C86.6903 112.974 86.0268 112.931 85.1923 112.343C82.6018 110.505 79.961 108.744 77.3503 106.937C74.5822 105.019 71.8475 103.053 68.7643 101.635C65.8889 100.315 63.0336 100.103 60.1716 101.612C58.5965 102.442 57.008 103.251 55.4799 104.165C49.8665 107.532 44.4642 111.231 38.9748 114.792C38.2476 115.262 37.6443 115.373 36.8367 114.994C34.8762 114.07 32.8487 113.287 30.9954 112.151C30.3185 111.738 29.1086 111.54 29.1254 110.817C29.1388 110.109 30.3352 109.89 31.039 109.521C42.1887 103.661 53.0301 97.2844 63.3252 90.0105C69.391 85.7269 74.9977 80.8956 79.3678 74.8077C82.7425 70.104 84.6829 64.9569 83.8752 59.0068C82.8933 51.7733 75.1619 46.1928 68.0002 47.5669C63.8715 48.3598 60.4197 50.416 57.3264 53.1407C53.8377 56.2149 50.8216 59.7796 47.3497 62.8773C41.4715 68.1285 35.4224 73.1379 28.2775 76.6152C24.7587 78.3287 21.1695 79.854 17.4093 80.9796C15.6097 81.5171 14.8691 82.8274 15.3617 84.299C15.8108 85.6429 17.1412 86.2107 18.8135 85.7168C25.1608 83.8387 31.1496 81.1475 36.7026 77.5425C44.5111 72.476 51.3779 66.2874 57.7755 59.5511C60.1381 57.0615 62.7655 54.9382 65.8588 53.3826C72.2832 50.1505 79.9274 55.039 79.0997 62.6589C78.7914 65.4945 77.796 68.0748 76.2779 70.4602C72.7021 76.081 67.8528 80.4857 62.5544 84.3662C50.6842 93.0578 38.0163 100.443 24.8961 107.065C24.0717 107.481 23.512 107.357 22.8183 106.803C19.8189 104.397 17.0105 101.793 14.5205 98.8534C3.34065 85.6529 -1.36789 70.3829 0.341258 53.2012C1.39691 42.5978 5.17045 32.9251 11.5781 24.4048C22.8652 9.39349 37.9694 1.30323 56.6629 0.113876C64.5451 -0.386725 72.2798 0.762311 79.6795 3.57778C98.3729 10.6836 110.716 23.8639 116.724 42.9809C117.961 46.9218 118.558 50.9871 119 55.0759ZM60.4062 24.6333C54.2097 24.7475 48.7941 26.1452 43.7068 28.8195C37.2657 32.2062 32.0444 37.0509 27.2319 42.4366C23.5355 46.5724 20.9516 51.7128 16.0521 54.7769C15.0668 55.3951 15.0467 56.8633 15.6767 57.8376C16.3134 58.8187 17.5166 59.2151 18.6359 58.7649C19.0984 58.5801 19.5407 58.3248 19.9597 58.0459C22.0777 56.6348 23.8371 54.8542 25.3586 52.8182C29.7789 46.9017 34.4573 41.2237 40.4393 36.7922C47.1519 31.8164 54.5113 28.8498 63.047 29.8577C70.1618 30.6976 76.0299 33.9633 80.8021 39.2616C85.266 44.2206 88.1615 50.0699 90.2192 56.3526C91.4726 60.1794 92.4713 64.0935 93.661 67.9437C94.1067 69.3851 94.7267 70.7861 95.8125 71.8948C96.8078 72.9128 98.2891 73.0035 99.271 72.1636C100.256 71.3169 100.427 69.9697 99.5928 68.8106C98.8521 67.7825 98.3863 66.6469 98.0445 65.4508C97.4647 63.4383 96.9151 61.4191 96.3655 59.3999C93.9861 50.6545 90.4371 42.5172 84.2841 35.6969C77.7558 28.4768 69.6088 24.9222 60.4062 24.6333ZM19.4402 99.7437C19.8826 99.7572 20.4623 99.5455 21.0455 99.3305C29.5711 96.1925 37.7047 92.2481 45.3925 87.3967C55.0945 81.2752 63.791 74.0114 70.6444 64.6982C70.9427 64.2951 71.251 63.8852 71.4688 63.435C72.253 61.8122 71.1002 60.045 69.2972 60.0147C68.0807 59.9946 67.397 60.7741 66.7703 61.6241C63.8614 65.565 60.5939 69.1868 56.9645 72.4693C46.2236 82.1857 33.8272 89.1269 20.3752 94.2774C19.5474 94.5932 18.6694 94.8049 17.9187 95.3055C16.9435 95.9573 16.5514 97.0492 16.9368 98.1579C17.3121 99.2398 18.1131 99.7504 19.4402 99.7437ZM18.78 72.0057C19.3128 72.0393 19.8658 71.8444 20.3953 71.6126C27.3392 68.5989 33.7703 64.8293 38.948 59.158C41.8971 55.9293 44.548 52.4284 47.8088 49.4786C52.5743 45.168 57.8492 41.8621 64.3172 40.8306C64.8601 40.7433 65.3728 40.582 65.8219 40.2595C66.6631 39.6513 66.9714 38.4654 66.5692 37.4373C66.1939 36.4797 65.155 35.7944 64.1999 35.9187C60.4833 36.3957 56.9578 37.4977 53.6434 39.2582C47.9864 42.2652 43.2309 46.3809 39.2496 51.3567C34.35 57.4748 28.5691 62.4203 21.4409 65.7498C20.1775 66.3411 18.8671 66.8149 17.6238 67.4297C16.5112 67.9773 15.985 69.1667 16.2732 70.2351C16.5581 71.2968 17.5501 72.0157 18.78 72.0057ZM93.1549 105.798C94.2608 105.788 94.9345 105.348 95.3366 104.494C96.0739 102.929 95.4506 101.575 93.6074 100.846C87.3371 98.3696 82.0656 94.7713 79.1734 88.3508C78.4931 86.8423 77.0219 86.4089 75.7987 87.0842C74.5285 87.7864 74.1934 89.0933 74.8804 90.5851C78.0105 97.365 83.2687 101.874 90.0014 104.79C91.057 105.247 92.1227 105.758 93.1549 105.798ZM87.2232 75.6006C85.3297 75.5804 84.1702 77.1024 84.5623 79.0679C85.2325 82.4209 86.8881 85.1826 89.4786 87.3967C91.6201 89.2277 94.043 90.5817 96.6604 91.5661C98.1785 92.1373 99.4386 91.6031 99.948 90.3196C100.484 88.969 99.9145 87.7058 98.4567 87.0237C97.6155 86.6306 96.7609 86.2678 95.9298 85.8613C93.7079 84.7727 91.7407 83.3784 90.5074 81.1408C89.8271 79.9044 89.5221 78.5437 89.2004 77.1864C88.9524 76.1583 88.3157 75.5905 87.2232 75.6006Z" fill="#091C2B"/>
<path d="M54.3606 118.997C51.4652 118.583 48.5497 118.279 45.7112 117.539C45.3463 117.445 44.8007 117.484 44.7137 117.102C44.6233 116.695 45.1622 116.555 45.4668 116.359C50.5045 113.147 55.5255 109.916 60.7205 106.943C63.3849 105.417 65.7615 105.365 68.3925 106.936C72.4126 109.336 76.205 112.055 80.0913 114.644C80.8712 115.162 80.6871 115.449 79.9105 115.727C76.3456 116.988 72.6904 117.898 68.9414 118.459C68.4962 118.524 68.0811 118.508 67.7096 118.293C63.7832 116.01 60.051 116.551 56.446 119C55.7531 118.997 55.0568 118.997 54.3606 118.997Z" fill="#B2DCBC"/>
</svg>
