<svg width="32" height="32" viewBox="0 0 32 32" fill="none" xmlns="http://www.w3.org/2000/svg">
<rect width="32" height="32" rx="16" fill="#091C2B"/>
<path d="M8.65527 17.3949C8.65527 18.3707 8.94024 19.3325 9.48656 20.2002C9.51574 20.2422 9.55504 20.2791 9.60214 20.3083C9.64916 20.3375 9.70305 20.3586 9.76045 20.3703C9.81786 20.382 9.87758 20.384 9.93593 20.3762C9.99428 20.3684 10.0501 20.351 10.1 20.325C10.2071 20.2671 10.2846 20.1793 10.3183 20.0779C10.3519 19.9766 10.3393 19.8687 10.2828 19.7745C9.96347 19.205 9.74673 18.6007 9.6393 17.9805C9.58009 17.3972 9.64247 16.8101 9.82369 16.244C10.3269 14.9823 11.2124 13.8453 12.3976 12.9385C14.1152 11.8367 16.9001 12.1874 16.9001 12.1874C18.4687 12.3673 19.914 12.9826 20.9934 13.9302C21.4381 14.3841 21.7615 14.9091 21.9428 15.4714C22.1242 16.0337 22.1593 16.6208 22.0461 17.1949C21.9283 17.499 21.7095 17.7701 21.4138 17.9781C21.1182 18.1861 20.7575 18.3226 20.3723 18.3725C19.1385 18.4314 18.8588 17.1949 18.8588 17.1949C18.6878 16.49 18.3088 15.8298 17.7547 15.2718C17.2136 14.8555 16.5282 14.586 15.7925 14.5004C15.3073 14.4895 14.8284 14.592 14.4121 14.7961C13.9958 15 13.6594 15.297 13.4426 15.652C13.0328 16.524 12.9995 17.4843 13.3482 18.3739C13.7954 19.2832 14.4431 20.1175 15.2588 20.8357C16.5029 21.925 17.8358 22.9443 19.2484 23.8865C19.2484 23.8865 19.7914 24.0857 20.0307 23.9566C20.2701 23.8275 20.1809 23.5877 19.945 23.2896C19.7279 23.0603 19.4651 22.8626 19.1677 22.7047L17.5745 21.5524C16.3679 20.6656 15.3397 19.6289 14.5278 18.4805C14.2938 18.0874 14.1632 17.6585 14.1444 17.2216C14.1257 16.7846 14.2191 16.3493 14.4189 15.9437C14.4189 15.9437 15.2949 14.513 17.1335 15.8897C17.6215 16.255 17.7037 16.7441 17.7668 17.12C17.7929 17.2753 17.8158 17.4113 17.8628 17.5112C18.0583 17.9945 18.4015 18.429 18.8597 18.7737C18.8597 18.7737 20.6391 19.7752 22.0469 18.7737C23.2181 17.9412 23.098 16.1065 23.0465 15.7292C22.9988 15.3521 22.8686 14.985 22.6622 14.6456C22.0143 13.4537 20.8751 12.4855 19.4431 11.9103C17.9366 11.3572 16.2715 11.1579 14.6342 11.3345C13.515 11.4892 12.4596 11.8672 11.5617 12.4349C10.6637 13.0026 9.95094 13.7427 9.48656 14.5895C8.94024 15.4572 8.65527 16.419 8.65527 17.3949Z" fill="#B2DCBC"/>
<path d="M19.8008 17.3894C19.7651 16.6294 19.4816 15.8912 18.9798 15.2509C18.6212 14.8324 18.1566 14.482 17.6176 14.2234C17.0786 13.9648 16.4777 13.8041 15.8559 13.7522C15.1811 13.7266 14.512 13.8641 13.9322 14.1475C13.3524 14.4309 12.8875 14.8476 12.5957 15.3456C12.272 15.8222 12.0952 16.3562 12.081 16.9013C12.0726 17.9056 12.2988 18.902 12.7476 19.837C13.37 20.8332 14.1872 21.7395 15.167 22.5203C15.3875 22.7238 15.6294 23.1866 15.2974 23.4062C14.9653 23.6257 14.128 22.9153 14.128 22.9153C13.4486 22.4233 12.8778 21.8394 12.4404 21.1892C11.9093 20.3543 11.4686 19.4829 11.1235 18.5852C11.1235 18.5852 10.2037 15.5308 12.9903 13.7522C13.7512 13.2485 14.6922 12.9613 15.6707 12.9342C16.6492 12.9072 17.6118 13.1416 18.4126 13.6021C19.0861 13.9989 19.6623 14.4957 20.1114 15.0665C20.4724 15.6283 20.6775 16.2483 20.7119 16.8823C20.7119 16.8823 20.7977 17.4434 20.4236 17.5913C20.0496 17.7393 19.8008 17.3894 19.8008 17.3894Z" fill="#B2DCBC"/>
<path d="M16.9367 19.6492C16.0338 18.8135 15.4603 17.7747 15.2911 16.6684C15.2743 16.5616 15.3051 16.4534 15.3779 16.3636C15.4507 16.2739 15.5606 16.2086 15.6875 16.1796C16.1405 16.0912 16.1954 16.5358 16.1954 16.5358C16.4008 17.5043 16.9205 18.4099 17.7002 19.1581C18.626 19.817 19.7423 20.2715 20.9433 20.4788C21.0749 20.5018 21.1925 20.5621 21.2752 20.6489C21.3578 20.7357 21.4005 20.8436 21.3955 20.9536C21.3981 21.0009 21.3878 21.0479 21.3652 21.0914C21.3425 21.135 21.3083 21.1738 21.2649 21.205C21.2215 21.2363 21.1701 21.2591 21.1144 21.272C21.0588 21.2847 21.0003 21.2872 20.9433 21.2791C19.4699 21 18.0974 20.4417 16.9367 19.6492Z" fill="#B2DCBC"/>
<path d="M10.011 9.85014C10.011 9.85014 9.58202 9.7835 9.52539 9.59839C9.46875 9.41322 9.7828 9.10739 9.7828 9.10739C11.7032 8.42119 13.7679 8.04514 15.8631 8C17.9715 8.09503 20.0387 8.51677 21.9546 9.24277C21.9546 9.24277 22.4118 9.52334 22.2831 9.77929C22.1544 10.0353 21.6826 10.0718 21.6826 10.0718C19.8793 9.36131 17.9245 8.94354 15.9266 8.84162C13.8949 8.87234 11.8883 9.21443 10.011 9.85014Z" fill="#B2DCBC"/>
<path d="M8.05008 13.5037C8.20024 13.6677 8.73645 13.6088 8.73645 13.6088C8.73645 13.6088 11.5883 10.6331 15.709 10.537C19.8298 10.4409 23.2865 13.2322 23.2865 13.2322C23.2865 13.2322 23.8467 13.3543 23.9754 13.1004C24.1041 12.8465 23.6855 12.4256 23.6855 12.4256C23.6855 12.4256 20.3326 9.72338 15.788 9.71146C11.2434 9.69953 8.13503 12.9517 8.13503 12.9517C8.13503 12.9517 7.90001 13.3395 8.05008 13.5037Z" fill="#B2DCBC"/>
</svg>
