<svg width="33" height="33" viewBox="0 0 33 33" fill="none" xmlns="http://www.w3.org/2000/svg">
<circle cx="16.5" cy="16.5" r="16.5" fill="#091C2B"/>
<path d="M7.76367 18.3937C7.76367 19.7849 8.09577 21.1561 8.73247 22.3932C8.76647 22.4531 8.81227 22.5056 8.86717 22.5473C8.92197 22.5889 8.98477 22.619 9.05167 22.6357C9.11857 22.6523 9.18817 22.6552 9.25617 22.6441C9.32417 22.633 9.38927 22.6082 9.44737 22.5711C9.57217 22.4885 9.66257 22.3633 9.70177 22.2188C9.74097 22.0744 9.72627 21.9206 9.66037 21.7862C9.28827 20.9743 9.03567 20.1128 8.91047 19.2286C8.84147 18.3971 8.91417 17.56 9.12537 16.7529C9.71187 14.9542 10.7438 13.3332 12.1251 12.0405C14.1268 10.4697 17.3724 10.9696 17.3724 10.9696C19.2005 11.2261 20.8848 12.1033 22.1428 13.4543C22.6611 14.1014 23.038 14.8499 23.2493 15.6515C23.4606 16.4532 23.5016 17.2902 23.3696 18.1087C23.2324 18.5421 22.9773 18.9287 22.6327 19.2252C22.2882 19.5217 21.8679 19.7164 21.4189 19.7875C19.9811 19.8715 19.6551 18.1087 19.6551 18.1087C19.4558 17.1037 19.0141 16.1625 18.3683 15.367C17.7377 14.7734 16.939 14.3892 16.0816 14.2672C15.5161 14.2516 14.958 14.3978 14.4728 14.6887C13.9876 14.9795 13.5956 15.4029 13.3429 15.909C12.8653 17.1522 12.8265 18.5212 13.2329 19.7895C13.7541 21.0858 14.5089 22.2753 15.4596 23.2991C16.9095 24.8521 18.4629 26.3053 20.1091 27.6485C20.1091 27.6485 20.742 27.9325 21.0209 27.7485C21.2999 27.5645 21.1959 27.2226 20.921 26.7976C20.668 26.4707 20.3617 26.1888 20.0151 25.9637L18.1583 24.3209C16.7521 23.0566 15.5539 21.5787 14.6077 19.9415C14.3349 19.381 14.1827 18.7696 14.1608 18.1467C14.139 17.5237 14.2479 16.9031 14.4808 16.3249C14.4808 16.3249 15.5016 14.2852 17.6444 16.2479C18.2131 16.7686 18.3089 17.466 18.3825 18.0018C18.4129 18.2233 18.4396 18.4172 18.4943 18.5596C18.7222 19.2486 19.1221 19.868 19.6561 20.3594C19.6561 20.3594 21.7299 21.7872 23.3706 20.3594C24.7355 19.1726 24.5955 16.5569 24.5355 16.019C24.4799 15.4814 24.3282 14.9581 24.0876 14.4742C23.3326 12.7749 22.0049 11.3947 20.336 10.5746C18.5803 9.78608 16.6398 9.50188 14.7317 9.75368C13.4273 9.97418 12.1973 10.5131 11.1509 11.3225C10.1044 12.1319 9.27367 13.187 8.73247 14.3942C8.09577 15.6312 7.76367 17.0024 7.76367 18.3937Z" fill="#B2DCBC"/>
<path d="M20.7529 18.3858C20.7113 17.3024 20.381 16.2499 19.7961 15.3371C19.3782 14.7405 18.8368 14.2409 18.2086 13.8722C17.5804 13.5035 16.8802 13.2744 16.1555 13.2004C15.3691 13.164 14.5893 13.36 13.9136 13.764C13.2379 14.168 12.6961 14.7621 12.356 15.4721C11.9787 16.1516 11.7727 16.9128 11.7561 17.6899C11.7463 19.1217 12.01 20.5423 12.533 21.8753C13.2584 23.2955 14.2108 24.5876 15.3526 25.7008C15.6096 25.9908 15.8915 26.6507 15.5046 26.9637C15.1176 27.2767 14.1418 26.2638 14.1418 26.2638C13.35 25.5624 12.6847 24.73 12.175 23.8031C11.5561 22.6127 11.0425 21.3705 10.6402 20.0906C10.6402 20.0906 9.56828 15.7361 12.8159 13.2004C13.7026 12.4823 14.7993 12.0729 15.9397 12.0343C17.08 11.9957 18.2019 12.3299 19.1351 12.9864C19.92 13.5522 20.5916 14.2604 21.1149 15.0742C21.5357 15.8751 21.7747 16.759 21.8148 17.6629C21.8148 17.6629 21.9148 18.4628 21.4788 18.6737C21.0429 18.8847 20.7529 18.3858 20.7529 18.3858Z" fill="#B2DCBC"/>
<path d="M17.4152 21.608C16.363 20.4167 15.6946 18.9357 15.4974 17.3585C15.4779 17.2062 15.5138 17.052 15.5986 16.924C15.6834 16.796 15.8115 16.7029 15.9594 16.6616C16.4873 16.5356 16.5513 17.1695 16.5513 17.1695C16.7907 18.5502 17.3964 19.8413 18.3051 20.908C19.384 21.8473 20.685 22.4953 22.0846 22.7908C22.238 22.8236 22.375 22.9095 22.4714 23.0333C22.5677 23.1571 22.6174 23.3109 22.6116 23.4677C22.6147 23.5351 22.6026 23.6022 22.5763 23.6642C22.5499 23.7263 22.51 23.7816 22.4594 23.8261C22.4088 23.8707 22.3489 23.9033 22.284 23.9216C22.2192 23.9398 22.151 23.9433 22.0846 23.9317C20.3675 23.5339 18.7679 22.7379 17.4152 21.608Z" fill="#B2DCBC"/>
<path d="M9.34339 7.63766C9.34339 7.63766 8.84349 7.54266 8.77749 7.27876C8.71149 7.01476 9.07749 6.57876 9.07749 6.57876C11.3156 5.60047 13.7218 5.06435 16.1636 5C18.6208 5.13548 21.0299 5.73674 23.2627 6.77176C23.2627 6.77176 23.7956 7.17176 23.6456 7.53666C23.4956 7.90166 22.9457 7.95366 22.9457 7.95366C20.8441 6.94076 18.566 6.34516 16.2376 6.19986C13.8698 6.24366 11.5313 6.73136 9.34339 7.63766Z" fill="#B2DCBC"/>
<path d="M7.05837 12.8464C7.23337 13.0803 7.85827 12.9963 7.85827 12.9963C7.85827 12.9963 11.1819 8.75389 15.9843 8.61689C20.7867 8.47989 24.8152 12.4594 24.8152 12.4594C24.8152 12.4594 25.4681 12.6334 25.6181 12.2714C25.7681 11.9095 25.2802 11.3095 25.2802 11.3095C25.2802 11.3095 21.3727 7.45699 16.0763 7.43999C10.78 7.42299 7.15737 12.0595 7.15737 12.0595C7.15737 12.0595 6.88347 12.6124 7.05837 12.8464Z" fill="#B2DCBC"/>
</svg>
