<svg width="67" height="66" viewBox="0 0 67 66" fill="none" xmlns="http://www.w3.org/2000/svg">
<path d="M59.7161 30.742C59.7161 32.1549 59.7161 33.5678 59.7161 34.9807C59.5182 36.3592 59.3708 37.7453 59.0211 39.0985C57.0537 46.7104 52.6293 52.4082 45.7762 56.2261C45.3684 56.4529 45.0738 56.4335 44.7032 56.1724C43.5528 55.3563 42.3801 54.5745 41.2208 53.7718C39.9916 52.9199 38.7772 52.0471 37.4081 51.4175C36.1312 50.8312 34.8633 50.7372 33.5923 51.4071C32.8929 51.7756 32.1875 52.1352 31.5089 52.541C29.0161 54.0359 26.6172 55.6785 24.1795 57.26C23.8566 57.4689 23.5887 57.5181 23.23 57.3495C22.3595 56.9392 21.4591 56.5916 20.6361 56.0873C20.3355 55.9038 19.7983 55.8158 19.8057 55.495C19.8117 55.1802 20.343 55.0833 20.6555 54.9191C25.6067 52.3172 30.421 49.4854 34.9927 46.2554C37.6864 44.3531 40.1761 42.2077 42.1167 39.5043C43.6153 37.4155 44.477 35.1299 44.1183 32.4876C43.6823 29.2754 40.249 26.7973 37.0688 27.4075C35.2353 27.7596 33.7025 28.6727 32.3289 29.8827C30.7797 31.2478 29.4403 32.8308 27.8985 34.2064C25.2882 36.5383 22.602 38.7628 19.4292 40.3069C17.8666 41.0678 16.2727 41.7452 14.603 42.245C13.8038 42.4837 13.4749 43.0656 13.6937 43.719C13.8931 44.3158 14.4839 44.568 15.2265 44.3486C18.0452 43.5146 20.7046 42.3196 23.1705 40.7187C26.638 38.4689 29.6873 35.7207 32.5283 32.7293C33.5775 31.6238 34.7442 30.6809 36.1178 29.9901C38.9707 28.5548 42.3652 30.7256 41.9977 34.1094C41.8608 35.3686 41.4188 36.5144 40.7446 37.5737C39.1567 40.0697 37.0033 42.0257 34.6505 43.7489C29.3793 47.6086 23.7539 50.8879 17.9276 53.8285C17.5615 54.0135 17.313 53.9583 17.0049 53.7121C15.673 52.6439 14.4259 51.4876 13.3202 50.1822C8.35555 44.3203 6.26463 37.5394 7.02361 29.9095C7.49239 25.2009 9.1681 20.9056 12.0135 17.122C17.0258 10.456 23.7331 6.86333 32.0342 6.33518C35.5344 6.11287 38.9692 6.62312 42.2551 7.87338C50.5563 11.0289 56.0373 16.8818 58.7056 25.371C59.2548 27.1211 59.5197 28.9263 59.7161 30.742ZM33.6965 17.2235C30.9448 17.2742 28.5399 17.8948 26.2808 19.0824C23.4205 20.5863 21.1019 22.7377 18.9649 25.1293C17.3234 26.9659 16.176 29.2486 14.0003 30.6093C13.5627 30.8838 13.5538 31.5358 13.8336 31.9684C14.1163 32.4041 14.6506 32.5801 15.1477 32.3802C15.353 32.2981 15.5495 32.1848 15.7355 32.0609C16.676 31.4343 17.4573 30.6436 18.133 29.7394C20.0959 27.1121 22.1734 24.5907 24.8299 22.6228C27.8107 20.4132 31.0788 19.0959 34.8692 19.5434C38.0287 19.9164 40.6345 21.3666 42.7537 23.7194C44.7359 25.9215 46.0217 28.519 46.9355 31.309C47.4921 33.0083 47.9356 34.7464 48.4639 36.4562C48.6618 37.0963 48.9371 37.7184 49.4193 38.2108C49.8613 38.6628 50.5191 38.7031 50.9551 38.3301C51.3926 37.9541 51.4685 37.3559 51.098 36.8411C50.7691 36.3846 50.5622 35.8803 50.4104 35.3492C50.153 34.4555 49.9089 33.5588 49.6648 32.6622C48.6082 28.7786 47.0322 25.1651 44.2999 22.1365C41.4009 18.9302 37.7831 17.3518 33.6965 17.2235ZM15.5048 50.5776C15.7013 50.5835 15.9587 50.4895 16.2177 50.394C20.0036 49.0006 23.6155 47.249 27.0294 45.0946C31.3377 42.3763 35.1996 39.1507 38.243 35.015C38.3754 34.836 38.5123 34.6539 38.6091 34.454C38.9573 33.7334 38.4453 32.9486 37.6447 32.9352C37.1045 32.9263 36.8009 33.2724 36.5226 33.6499C35.2309 35.3999 33.7799 37.0082 32.1681 38.4659C27.3985 42.7806 21.8937 45.863 15.92 48.1501C15.5525 48.2904 15.1625 48.3844 14.8292 48.6067C14.3961 48.8961 14.222 49.381 14.3931 49.8733C14.5598 50.3538 14.9155 50.5805 15.5048 50.5776ZM15.2117 38.26C15.4483 38.2749 15.6938 38.1884 15.929 38.0854C19.0125 36.7471 21.8683 35.0732 24.1676 32.5548C25.4772 31.121 26.6544 29.5664 28.1024 28.2564C30.2186 26.3423 32.561 24.8742 35.4332 24.4162C35.6743 24.3774 35.902 24.3058 36.1014 24.1625C36.475 23.8925 36.6119 23.3658 36.4333 22.9093C36.2666 22.4841 35.8053 22.1797 35.3812 22.2349C33.7308 22.4468 32.1652 22.9361 30.6933 23.7179C28.1813 25.0532 26.0695 26.8809 24.3015 29.0904C22.1258 31.8073 19.5587 34.0034 16.3933 35.482C15.8322 35.7446 15.2504 35.9549 14.6982 36.2279C14.2042 36.4711 13.9705 36.9993 14.0985 37.4737C14.225 37.9452 14.6655 38.2645 15.2117 38.26ZM48.2392 53.2661C48.7303 53.2616 49.0294 53.0661 49.208 52.6872C49.5354 51.9919 49.2586 51.3907 48.4401 51.0669C45.6557 49.9673 43.3147 48.3695 42.0304 45.5183C41.7283 44.8485 41.075 44.656 40.5318 44.9559C39.9678 45.2677 39.819 45.8481 40.124 46.5105C41.514 49.5213 43.849 51.5235 46.8388 52.8185C47.3075 53.0214 47.7808 53.2481 48.2392 53.2661ZM45.605 39.8564C44.7642 39.8474 44.2493 40.5233 44.4234 41.3961C44.7211 42.885 45.4562 44.1114 46.6066 45.0946C47.5576 45.9077 48.6335 46.509 49.7958 46.9461C50.47 47.1998 51.0295 46.9626 51.2557 46.3926C51.4938 45.7929 51.2408 45.2319 50.5935 44.929C50.2199 44.7545 49.8405 44.5933 49.4714 44.4128C48.4847 43.9294 47.6111 43.3102 47.0635 42.3166C46.7614 41.7676 46.6259 41.1633 46.4831 40.5606C46.373 40.104 46.0902 39.8519 45.605 39.8564Z" fill="#B2DCBC"/>
<path d="M31.0125 59.1272C29.7267 58.9433 28.432 58.8087 27.1716 58.48C27.0095 58.438 26.7672 58.4554 26.7286 58.286C26.6885 58.105 26.9278 58.0427 27.063 57.9559C29.3001 56.5297 31.5298 55.0948 33.8367 53.7744C35.0199 53.0968 36.0752 53.0736 37.2436 53.7715C39.0288 54.8371 40.7129 56.0447 42.4386 57.1943C42.785 57.4245 42.7032 57.5519 42.3584 57.675C40.7753 58.2353 39.1521 58.6393 37.4873 58.8883C37.2896 58.9172 37.1053 58.91 36.9403 58.8145C35.1968 57.8009 33.5394 58.0413 31.9385 59.1286C31.6308 59.1272 31.3217 59.1272 31.0125 59.1272Z" fill="white"/>
<path d="M54.4312 1H60.5871C63.3485 1 65.5871 3.23858 65.5871 6V10.9817" stroke="white"/>
<path d="M54.4312 65H60.5871C63.3485 65 65.5871 62.7614 65.5871 60V55.0183" stroke="white"/>
<path d="M12.156 1.58716H6.00004C3.23862 1.58716 1.00004 3.82574 1.00004 6.58716V11.5688" stroke="white"/>
<path d="M12.156 64.4128H6.00004C3.23862 64.4128 1.00004 62.1743 1.00004 59.4128V54.4312" stroke="white"/>
</svg>
