<svg width="24" height="24" viewBox="0 0 24 24" fill="none" xmlns="http://www.w3.org/2000/svg">
<path d="M0.98291 14.0918C0.98291 15.5556 1.41035 16.9983 2.22984 18.2999C2.2736 18.363 2.33255 18.4182 2.40321 18.4621C2.47375 18.5058 2.55458 18.5375 2.64068 18.5551C2.72679 18.5725 2.81637 18.5756 2.90389 18.5639C2.99141 18.5522 3.0752 18.5261 3.14998 18.4871C3.31061 18.4002 3.42696 18.2685 3.47742 18.1164C3.52787 17.9645 3.50895 17.8027 3.42413 17.6613C2.94521 16.807 2.62009 15.9006 2.45894 14.9702C2.37014 14.0953 2.46371 13.2146 2.73554 12.3654C3.49042 10.4728 4.81857 8.76726 6.59643 7.40712C9.17279 5.75436 13.3502 6.28034 13.3502 6.28034C15.7031 6.55023 17.8709 7.47319 19.4901 8.89467C20.1572 9.57553 20.6423 10.3631 20.9143 11.2065C21.1862 12.05 21.239 12.9307 21.0691 13.7919C20.8925 14.2479 20.5642 14.6547 20.1207 14.9667C19.6772 15.2786 19.1363 15.4835 18.5584 15.5583C16.7078 15.6467 16.2882 13.7919 16.2882 13.7919C16.0317 12.7345 15.4632 11.7442 14.632 10.9072C13.8203 10.2826 12.7923 9.87835 11.6888 9.74999C10.9609 9.73357 10.2426 9.8874 9.61812 10.1935C8.99363 10.4994 8.48909 10.9449 8.16384 11.4774C7.54913 12.7855 7.49919 14.2259 8.02226 15.5604C8.6931 16.9243 9.66459 18.1759 10.8882 19.2531C12.7544 20.8871 14.7537 22.4161 16.8726 23.8294C16.8726 23.8294 17.6871 24.1282 18.0461 23.9346C18.4052 23.741 18.2714 23.3813 17.9175 22.9341C17.5919 22.5902 17.1977 22.2936 16.7516 22.0567L14.3617 20.3282C12.5518 18.9979 11.0096 17.4429 9.79175 15.7203C9.44064 15.1306 9.24474 14.4873 9.21655 13.8319C9.18849 13.1764 9.32866 12.5234 9.62842 11.915C9.62842 11.915 10.9423 9.76892 13.7003 11.834C14.4322 12.3819 14.5555 13.1157 14.6503 13.6794C14.6894 13.9125 14.7238 14.1165 14.7942 14.2663C15.0875 14.9913 15.6022 15.643 16.2895 16.16C16.2895 16.16 18.9587 17.6623 21.0704 16.16C22.8271 14.9113 22.647 12.1591 22.5697 11.5932C22.4982 11.0275 22.3029 10.4769 21.9932 9.96779C21.0215 8.17983 19.3126 6.72762 17.1646 5.86474C14.9048 5.0351 12.4072 4.73607 9.95135 5.00101C8.27247 5.23301 6.68935 5.80003 5.34254 6.65166C3.9956 7.50328 2.92642 8.61343 2.22984 9.88361C1.41035 11.1851 0.98291 12.6279 0.98291 14.0918Z" fill="#091C2B"/>
<path d="M17.7012 14.0835C17.6477 12.9436 17.2226 11.8362 16.4697 10.8757C15.9319 10.248 15.235 9.72234 14.4265 9.33441C13.6179 8.94647 12.7167 8.70542 11.784 8.62756C10.7718 8.58926 9.76812 8.79549 8.89843 9.22056C8.02874 9.64564 7.3314 10.2707 6.89366 11.0178C6.40804 11.7327 6.1429 12.5336 6.12153 13.3513C6.10892 14.8578 6.44832 16.3525 7.12147 17.755C8.05513 19.2493 9.28095 20.6088 10.7506 21.7801C11.0813 22.0853 11.4442 22.7796 10.9462 23.1089C10.4481 23.4382 9.19214 22.3725 9.19214 22.3725C8.17303 21.6345 7.31672 20.7587 6.66069 19.7834C5.86411 18.5309 5.20307 17.2239 4.68527 15.8772C4.68527 15.8772 3.30564 11.2956 7.48559 8.62756C8.62685 7.87199 10.0384 7.44124 11.5062 7.40062C12.9739 7.36001 14.4179 7.71164 15.619 8.4024C16.6292 8.99771 17.4936 9.74286 18.1672 10.5991C18.7088 11.4418 19.0164 12.3718 19.068 13.3229C19.068 13.3229 19.1967 14.1645 18.6355 14.3864C18.0745 14.6084 17.7012 14.0835 17.7012 14.0835Z" fill="#091C2B"/>
<path d="M13.4053 17.4739C12.051 16.2204 11.1907 14.6621 10.9369 13.0026C10.9118 12.8424 10.958 12.6802 11.0671 12.5455C11.1763 12.4108 11.3412 12.3128 11.5315 12.2694C12.211 12.1368 12.2933 12.8038 12.2933 12.8038C12.6015 14.2565 13.3811 15.615 14.5506 16.7373C15.9393 17.7256 17.6138 18.4074 19.4152 18.7184C19.6126 18.7529 19.789 18.8433 19.913 18.9735C20.037 19.1038 20.101 19.2656 20.0935 19.4306C20.0975 19.5015 20.0819 19.5721 20.0481 19.6373C20.0141 19.7027 19.9627 19.7609 19.8976 19.8077C19.8325 19.8546 19.7554 19.8889 19.6718 19.9082C19.5884 19.9273 19.5007 19.931 19.4152 19.9188C17.2051 19.5002 15.1463 18.6627 13.4053 17.4739Z" fill="#091C2B"/>
<path d="M3.01617 2.77527C3.01617 2.77527 2.37275 2.67531 2.28781 2.39765C2.20286 2.11987 2.67393 1.66113 2.67393 1.66113C5.55457 0.631797 8.65156 0.0677072 11.7944 0C14.957 0.142548 18.0577 0.775177 20.9316 1.8642C20.9316 1.8642 21.6175 2.28506 21.4244 2.669C21.2313 3.05304 20.5236 3.10776 20.5236 3.10776C17.8186 2.04201 14.8865 1.41534 11.8896 1.26246C8.84205 1.30854 5.83219 1.82169 3.01617 2.77527Z" fill="#091C2B"/>
<path d="M0.0751265 8.25687C0.300367 8.50297 1.10467 8.41459 1.10467 8.41459C1.10467 8.41459 5.38244 3.95086 11.5636 3.80671C17.7447 3.66256 22.9297 7.84968 22.9297 7.84968C22.9297 7.84968 23.7701 8.03276 23.9631 7.65187C24.1562 7.27109 23.5282 6.63979 23.5282 6.63979C23.5282 6.63979 18.4989 2.5863 11.682 2.56841C4.86516 2.55052 0.202548 7.42892 0.202548 7.42892C0.202548 7.42892 -0.149985 8.01066 0.0751265 8.25687Z" fill="#091C2B"/>
</svg>
