<svg width="26" height="25" viewBox="0 0 26 25" fill="none" xmlns="http://www.w3.org/2000/svg">
<path d="M12.0821 20.2315C12.2482 20.3975 12.4729 20.4916 12.7078 20.4933C12.9424 20.4916 13.167 20.3977 13.3331 20.2317C13.4991 20.0658 13.5933 19.8413 13.5952 19.6066V14.2886C13.5934 14.0538 13.4994 13.829 13.3334 13.663C13.1673 13.4969 12.9426 13.4029 12.7078 13.4011C12.473 13.4029 12.2484 13.4968 12.0824 13.6627C11.9163 13.8286 11.8222 14.0532 11.8203 14.2878V19.6059C11.822 19.8407 11.9161 20.0655 12.0821 20.2315Z" fill="white"/>
<path fill-rule="evenodd" clip-rule="evenodd" d="M6.08354 25H19.3321C20.3961 24.9678 21.4178 24.5755 22.23 23.8874C23.0423 23.1993 23.5972 22.256 23.8038 21.2117L25.3776 11.7999C25.4694 11.0075 25.369 10.2046 25.0848 9.45916C24.8006 8.71376 24.3411 8.04777 23.7451 7.51758L15.5474 0.964146C14.7327 0.340843 13.736 0.00213138 12.7102 1.00254e-05C11.6843 -0.00211133 10.6862 0.332475 9.86894 0.952401L1.67349 7.51611C1.07041 8.04087 0.605765 8.70605 0.32055 9.45285C0.0353346 10.1997 -0.0616825 11.0053 0.038065 11.7984L1.61183 21.2263C1.80863 22.2741 2.36106 23.2218 3.1758 23.9094C3.99053 24.5969 5.01765 24.9822 6.08354 25ZM10.9803 2.33385C11.4746 1.96346 12.0781 1.76798 12.6957 1.77819C13.3226 1.76873 13.9346 1.96895 14.4346 2.34706L22.6323 8.89902C22.9811 9.23162 23.2514 9.6379 23.4233 10.0882C23.5953 10.5385 23.6645 11.0214 23.6262 11.5019L22.0531 20.9181C21.9221 21.5512 21.5831 22.1223 21.09 22.5405C20.5969 22.9587 19.9781 23.1999 19.3321 23.2258H6.08281C5.43862 23.2004 4.82123 22.9608 4.32843 22.5451C3.83561 22.1294 3.49546 21.5613 3.36176 20.9305L1.78873 11.5144C1.74484 11.0334 1.81159 10.5488 1.98386 10.0977C2.15613 9.64656 2.42936 9.24079 2.78261 8.9115L10.9803 2.33385Z" fill="white"/>
<path d="M12.0821 20.2315C12.2482 20.3975 12.4729 20.4916 12.7078 20.4933C12.9424 20.4916 13.167 20.3977 13.3331 20.2317C13.4991 20.0658 13.5933 19.8413 13.5952 19.6066V14.2886C13.5934 14.0538 13.4994 13.829 13.3334 13.663C13.1673 13.4969 12.9426 13.4029 12.7078 13.4011C12.473 13.4029 12.2484 13.4968 12.0824 13.6627C11.9163 13.8286 11.8222 14.0532 11.8203 14.2878V19.6059C11.822 19.8407 11.9161 20.0655 12.0821 20.2315Z" fill="white"/>
<path fill-rule="evenodd" clip-rule="evenodd" d="M6.08354 25H19.3321C20.3961 24.9678 21.4178 24.5755 22.23 23.8874C23.0423 23.1993 23.5972 22.256 23.8038 21.2117L25.3776 11.7999C25.4694 11.0075 25.369 10.2046 25.0848 9.45916C24.8006 8.71376 24.3411 8.04777 23.7451 7.51758L15.5474 0.964146C14.7327 0.340843 13.736 0.00213138 12.7102 1.00254e-05C11.6843 -0.00211133 10.6862 0.332475 9.86894 0.952401L1.67349 7.51611C1.07041 8.04087 0.605765 8.70605 0.32055 9.45285C0.0353346 10.1997 -0.0616825 11.0053 0.038065 11.7984L1.61183 21.2263C1.80863 22.2741 2.36106 23.2218 3.1758 23.9094C3.99053 24.5969 5.01765 24.9822 6.08354 25ZM10.9803 2.33385C11.4746 1.96346 12.0781 1.76798 12.6957 1.77819C13.3226 1.76873 13.9346 1.96895 14.4346 2.34706L22.6323 8.89902C22.9811 9.23162 23.2514 9.6379 23.4233 10.0882C23.5953 10.5385 23.6645 11.0214 23.6262 11.5019L22.0531 20.9181C21.9221 21.5512 21.5831 22.1223 21.09 22.5405C20.5969 22.9587 19.9781 23.1999 19.3321 23.2258H6.08281C5.43862 23.2004 4.82123 22.9608 4.32843 22.5451C3.83561 22.1294 3.49546 21.5613 3.36176 20.9305L1.78873 11.5144C1.74484 11.0334 1.81159 10.5488 1.98386 10.0977C2.15613 9.64656 2.42936 9.24079 2.78261 8.9115L10.9803 2.33385Z" fill="white"/>
</svg>
