<svg width="390" height="701" viewBox="0 0 390 701" fill="none" xmlns="http://www.w3.org/2000/svg">
<mask id="mask0_1_7128" style="mask-type:alpha" maskUnits="userSpaceOnUse" x="0" y="181" width="390" height="520">
<rect y="181" width="390" height="520" fill="#D9D9D9"/>
</mask>
<g mask="url(#mask0_1_7128)">
<ellipse cx="194.5" cy="494.5" rx="290.5" ry="292.5" fill="#B2DCBC" fill-opacity="0.2"/>
</g>
<path d="M269.05 220.342C270.908 227.733 268.423 234.669 263.5 235.833C258.578 236.997 253.083 231.949 251.225 224.554C250.441 221.611 250.406 218.525 251.123 215.555L243.666 184.139L259.166 181L264.872 212.304C266.917 214.621 268.35 217.377 269.05 220.342Z" fill="#FDADB0"/>
<path d="M203.964 400.271L204.915 420.925L203.962 426.641L207.296 433.308L233.491 436.166L234.92 423.783L221.108 416.639L220.706 404.969L203.964 400.271Z" fill="#FDADB0"/>
<path d="M231.586 431.403L230.157 433.308L202.725 425.403C202.725 425.403 203.962 437.595 203.962 439.976C203.962 442.358 249.207 442.358 256.016 441.405C262.824 440.452 260.638 434.261 260.638 434.261L232.403 420.896L231.586 431.403Z" fill="#2F2E43"/>
<path d="M135.718 385.068L130.009 404.94L127.278 410.05L128.303 417.434L152.205 428.524L157.522 417.25L146.722 406.061L153.497 388.495L135.718 385.068Z" fill="#FDADB0"/>
<path d="M151.924 423.402L149.961 424.75L126.501 408.481C126.501 408.481 123.772 420.428 123.01 422.684C122.248 424.94 165.114 439.42 171.869 440.696C178.624 441.973 178.534 435.407 178.534 435.407L156.062 413.709L151.924 423.402Z" fill="#2F2E43"/>
<path d="M205.677 59.5511L206.666 75.4902L176.666 77L185.956 56L205.677 59.5511Z" fill="#FDADB0"/>
<path d="M207.872 73C199.735 76.64 186.72 75.6441 171.971 73L169.666 175.483C169.666 175.483 215.803 184.786 231.666 167.621L223.317 83.8856L207.872 73Z" fill="#E0E1E2"/>
<path d="M226.041 170L160.841 176.421L128.666 394.118H153.32L195.537 244.949L198.879 414H221.444L240.666 207.058L226.041 170Z" fill="#2F2E43"/>
<path d="M180.569 67L158.647 79.8994C150.343 84.786 146.428 94.6504 149.14 103.859L166.083 161.399C166.083 161.399 138.493 208.529 147.458 212.687C167.604 222.031 197.666 219.756 197.666 219.756L190.947 106.917L180.569 67Z" fill="#B2DCBC"/>
<path d="M206.666 73L231.434 82.6132L237.284 153.995L253.666 211.499C225.919 221.618 228.509 216.903 228.509 216.903L223.913 117.678L206.666 73Z" fill="#B2DCBC"/>
<path d="M242.482 210L242.397 209.608L216.903 92.2295C216.191 88.9499 217.102 85.6624 219.402 83.2096C221.702 80.7564 224.935 79.6266 228.272 80.1094C232.386 80.7049 235.681 83.6887 236.663 87.711L264.666 202.292L242.482 210Z" fill="#B2DCBC"/>
<path d="M192.666 64C206.473 64 217.666 52.8071 217.666 39C217.666 25.1929 206.473 14 192.666 14C178.859 14 167.666 25.1929 167.666 39C167.666 52.8071 178.859 64 192.666 64Z" fill="#FDADB0"/>
<path d="M204.314 7.1098C209.765 9.01414 212.885 10.1039 215.742 12.8399C220.569 17.4614 221.366 23.6375 222.106 29.376C222.685 33.8653 223.434 39.6696 220.789 46.3012C219.886 48.5643 215.507 58.6474 207.126 59.9216C205.48 60.1718 201.616 60.2376 202.73 59.4204C213.038 51.8566 217.437 47.2904 217.077 35.6334C216.853 28.3903 205.717 20.5701 199.104 19.1643C196.319 18.5722 192.61 19.1131 189.951 21.2828C184.394 25.8172 184.631 44.568 178.771 48.4877C176.361 50.0997 177.967 38.7525 176.268 40.5927C172.918 44.2235 175.067 49.7838 175.669 51.9013C178.525 61.9456 183.91 62.9287 186.699 71.5059C189.711 80.7662 185.921 89.4847 185.022 91.5522C183.458 95.1487 180.775 101.321 174.644 104.282C166.862 108.041 160.728 103.146 157.11 107.342C155.087 109.688 156.181 112.172 152.528 119.468C151.336 121.85 150.74 123.041 150.212 122.999C147.714 122.799 143.67 102.927 150.211 84.4209C152.956 76.6545 155.645 69.0453 162.853 63.0952C166.665 59.9495 169.861 58.8175 170.771 55.144C172.071 49.8959 166.673 47.6559 165.591 39.3753C164.852 33.7121 164.333 25.6127 166.344 20.4214C168.244 15.5191 169.893 11.2635 174.21 7.40497C175.247 6.47819 183.616 0.178596 192.49 0.000894605C196.575 -0.0807955 199.577 5.45527 204.314 7.1098Z" fill="#2F2E43"/>
<path d="M323.223 157.083C323.223 160.651 323.223 164.219 323.223 167.786C322.724 171.268 322.351 174.768 321.468 178.185C316.5 197.408 305.327 211.796 288.021 221.438C286.991 222.011 286.247 221.962 285.311 221.302C282.406 219.241 279.445 217.267 276.517 215.24C273.413 213.089 270.346 210.885 266.889 209.295C263.664 207.814 260.462 207.577 257.253 209.268C255.486 210.199 253.705 211.107 251.991 212.132C245.696 215.907 239.638 220.055 233.482 224.049C232.667 224.576 231.99 224.701 231.084 224.275C228.886 223.239 226.612 222.361 224.534 221.088C223.775 220.624 222.418 220.402 222.437 219.592C222.452 218.797 223.794 218.552 224.583 218.137C237.086 211.567 249.244 204.416 260.789 196.259C267.591 191.455 273.879 186.037 278.779 179.21C282.564 173.935 284.74 168.163 283.834 161.491C282.733 153.379 274.063 147.121 266.032 148.662C261.402 149.551 257.531 151.857 254.062 154.912C250.15 158.36 246.767 162.357 242.874 165.831C236.282 171.72 229.499 177.338 221.486 181.237C217.54 183.159 213.515 184.869 209.298 186.131C207.28 186.734 206.45 188.203 207.002 189.854C207.506 191.361 208.998 191.997 210.873 191.444C217.991 189.337 224.707 186.32 230.934 182.277C239.691 176.595 247.391 169.655 254.565 162.101C257.215 159.309 260.161 156.928 263.63 155.184C270.835 151.559 279.407 157.041 278.479 165.586C278.133 168.766 277.017 171.66 275.314 174.335C271.304 180.638 265.866 185.577 259.925 189.929C246.613 199.676 232.407 207.957 217.694 215.383C216.77 215.85 216.142 215.711 215.364 215.089C212.001 212.392 208.851 209.472 206.059 206.175C193.522 191.372 188.241 174.248 190.158 154.98C191.342 143.09 195.574 132.242 202.759 122.688C215.417 105.854 232.355 96.7813 253.318 95.4475C262.157 94.8861 270.831 96.1747 279.129 99.332C300.092 107.301 313.933 122.081 320.672 143.519C322.058 147.938 322.727 152.497 323.223 157.083ZM257.516 122.944C250.567 123.072 244.494 124.639 238.789 127.638C231.566 131.436 225.71 136.869 220.314 142.909C216.168 147.547 213.271 153.311 207.776 156.747C206.671 157.441 206.649 159.087 207.355 160.18C208.069 161.28 209.419 161.724 210.674 161.219C211.193 161.012 211.689 160.726 212.158 160.413C214.534 158.831 216.507 156.834 218.213 154.551C223.17 147.916 228.416 141.549 235.124 136.579C242.652 130.999 250.905 127.672 260.477 128.803C268.456 129.744 275.036 133.407 280.388 139.348C285.394 144.909 288.641 151.469 290.948 158.514C292.354 162.806 293.474 167.195 294.808 171.513C295.308 173.129 296.003 174.7 297.221 175.943C298.337 177.085 299.998 177.187 301.099 176.245C302.204 175.295 302.396 173.785 301.46 172.485C300.629 171.332 300.107 170.058 299.724 168.717C299.073 166.46 298.457 164.196 297.841 161.932C295.172 152.124 291.193 142.999 284.293 135.351C276.972 127.254 267.836 123.268 257.516 122.944ZM211.576 207.174C212.072 207.189 212.722 206.951 213.376 206.71C222.937 203.191 232.058 198.768 240.679 193.327C251.559 186.463 261.311 178.317 268.997 167.873C269.331 167.421 269.677 166.961 269.921 166.457C270.801 164.637 269.508 162.655 267.486 162.621C266.122 162.598 265.355 163.473 264.652 164.426C261.39 168.845 257.726 172.907 253.656 176.588C241.611 187.484 227.71 195.268 212.624 201.044C211.696 201.398 210.711 201.635 209.87 202.196C208.776 202.927 208.336 204.152 208.768 205.395C209.189 206.608 210.088 207.181 211.576 207.174ZM210.835 176.068C211.433 176.105 212.053 175.887 212.647 175.627C220.434 172.247 227.646 168.02 233.452 161.66C236.759 158.04 239.732 154.114 243.389 150.806C248.733 145.972 254.648 142.264 261.901 141.108C262.51 141.01 263.085 140.829 263.589 140.467C264.532 139.785 264.878 138.455 264.427 137.302C264.006 136.229 262.841 135.46 261.77 135.599C257.602 136.134 253.648 137.37 249.932 139.344C243.588 142.717 238.255 147.332 233.79 152.912C228.296 159.773 221.813 165.319 213.819 169.052C212.403 169.716 210.933 170.247 209.539 170.936C208.291 171.55 207.701 172.884 208.024 174.082C208.344 175.273 209.456 176.079 210.835 176.068ZM294.24 213.963C295.481 213.952 296.236 213.458 296.687 212.501C297.514 210.745 296.815 209.227 294.748 208.409C287.716 205.633 281.805 201.597 278.561 194.397C277.798 192.706 276.149 192.22 274.777 192.977C273.353 193.764 272.977 195.23 273.747 196.903C277.257 204.506 283.154 209.562 290.704 212.833C291.888 213.345 293.083 213.918 294.24 213.963ZM287.588 180.099C285.465 180.077 284.165 181.783 284.604 183.987C285.356 187.748 287.213 190.845 290.118 193.327C292.519 195.381 295.236 196.899 298.171 198.003C299.874 198.644 301.287 198.045 301.858 196.605C302.46 195.091 301.821 193.674 300.186 192.909C299.243 192.468 298.284 192.062 297.352 191.606C294.861 190.385 292.654 188.821 291.271 186.312C290.509 184.926 290.167 183.4 289.806 181.878C289.528 180.725 288.814 180.088 287.588 180.099Z" fill="#091C2B"/>
<path d="M250.736 228.764C247.489 228.3 244.22 227.96 241.037 227.13C240.627 227.024 240.016 227.068 239.918 226.64C239.817 226.183 240.421 226.026 240.763 225.806C246.412 222.205 252.042 218.581 257.868 215.247C260.856 213.535 263.521 213.477 266.472 215.239C270.98 217.93 275.233 220.98 279.591 223.883C280.465 224.464 280.259 224.786 279.388 225.097C275.39 226.512 271.291 227.532 267.087 228.161C266.588 228.234 266.122 228.216 265.706 227.974C261.303 225.415 257.117 226.022 253.075 228.768C252.298 228.764 251.517 228.764 250.736 228.764Z" fill="#B2DCBC"/>
<path d="M205.78 149.121C213.505 148.286 220.157 151.86 220.638 157.103C221.12 162.347 215.248 167.274 207.52 168.109C204.438 168.487 201.317 168.073 198.42 166.9L165.65 170L164.666 153.565L197.076 152.255C199.704 150.484 202.689 149.41 205.78 149.121Z" fill="#FDADB0"/>
<path d="M166.13 80.1492C158.238 79.0418 150.834 84.2114 149.193 91.9815C143.471 119.09 133.201 176.834 149.33 177.798C170.42 179.058 190.666 174.016 190.666 174.016L185.605 145.021L169.155 143.34L178.831 98.2493C180.668 89.6877 174.832 81.3702 166.13 80.1492Z" fill="#B2DCBC"/>
</svg>
