<svg width="390" height="701" viewBox="0 0 390 701" fill="none" xmlns="http://www.w3.org/2000/svg">
<ellipse cx="194.5" cy="494.5" rx="290.5" ry="292.5" fill="#B2DCBC" fill-opacity="0.2"/>
<path d="M245.241 225.917C247.578 231.613 252.411 235.025 256.036 233.537C259.661 232.049 260.704 226.226 258.365 220.529C257.462 218.24 256.025 216.201 254.172 214.581L243.966 190.572L232.801 195.602L244.048 218.737C243.866 221.191 244.276 223.653 245.241 225.917Z" fill="#FDADB0"/>
<path d="M221.118 74.7361L226.969 72.3955C233.857 83.1091 237.645 95.5194 237.916 108.253L238.672 143.784L255.056 204.639L236.332 211.661L212.926 135.592L221.118 74.7361Z" fill="#2F2E41"/>
<path d="M233.188 244.531C232.452 244.531 231.705 244.42 230.972 244.191L211.057 237.97C208.753 237.249 207.001 235.521 206.249 233.227C205.497 230.932 205.887 228.502 207.319 226.557L262.924 151.064C264.279 149.223 266.368 148.131 268.653 148.066C270.952 147.997 273.085 148.975 274.542 150.737L285.875 164.435C287.971 166.968 288.129 170.625 286.259 173.329L239.236 241.345C237.828 243.382 235.56 244.531 233.188 244.531Z" fill="#B2DCBC"/>
<path d="M277.745 176.717C277.509 176.717 277.274 176.622 277.101 176.436L265.117 163.518C264.787 163.162 264.808 162.607 265.163 162.277C265.518 161.947 266.075 161.967 266.404 162.323L278.388 175.242C278.719 175.597 278.698 176.152 278.342 176.483C278.173 176.64 277.959 176.717 277.745 176.717Z" fill="white"/>
<path d="M272.476 184.621C272.24 184.621 272.005 184.527 271.832 184.34L259.848 171.422C259.518 171.067 259.539 170.511 259.894 170.181C260.25 169.851 260.805 169.871 261.135 170.227L273.119 183.146C273.45 183.501 273.429 184.057 273.073 184.387C272.904 184.544 272.69 184.621 272.476 184.621Z" fill="white"/>
<path d="M266.328 193.403C266.092 193.403 265.857 193.309 265.685 193.122L253.7 180.204C253.37 179.849 253.391 179.293 253.747 178.963C254.102 178.633 254.658 178.653 254.988 179.01L266.972 191.928C267.302 192.283 267.281 192.839 266.926 193.169C266.757 193.326 266.542 193.403 266.328 193.403Z" fill="white"/>
<path d="M260.18 201.308C259.944 201.308 259.709 201.213 259.536 201.026L247.552 188.108C247.222 187.753 247.243 187.197 247.598 186.867C247.953 186.538 248.51 186.558 248.839 186.914L260.824 199.832C261.154 200.188 261.133 200.743 260.777 201.074C260.608 201.23 260.394 201.308 260.18 201.308Z" fill="white"/>
<path d="M254.033 209.212C253.797 209.212 253.562 209.117 253.389 208.931L241.405 196.012C241.075 195.657 241.096 195.101 241.451 194.771C241.806 194.441 242.363 194.462 242.692 194.818L254.677 207.737C255.007 208.092 254.986 208.647 254.63 208.978C254.461 209.135 254.247 209.212 254.033 209.212Z" fill="white"/>
<path d="M247.006 216.238C246.77 216.238 246.535 216.144 246.362 215.957L234.378 203.039C234.048 202.684 234.069 202.128 234.424 201.798C234.78 201.467 235.336 201.488 235.666 201.845L247.65 214.763C247.98 215.118 247.959 215.674 247.603 216.004C247.434 216.161 247.22 216.238 247.006 216.238Z" fill="white"/>
<path d="M206.295 434.34L219.582 430.332L210.448 377.172L190.837 383.087L206.295 434.34Z" fill="#FDADB0"/>
<path d="M251.73 420.311C252.354 420.883 253.25 423.066 253.494 423.876C254.245 426.367 252.835 428.995 250.344 429.746L209.194 442.154C207.495 442.667 205.702 441.705 205.189 440.005L204.673 438.292C204.673 438.292 201.084 433.757 203.362 426.146C203.362 426.146 210.069 429.545 215.506 419.415L216.547 414.564L236.826 421.706L246.377 420.062C248.467 419.703 250.167 418.878 251.73 420.311Z" fill="#2F2E41"/>
<path d="M149.727 406.577L160.279 415.593L200.077 379.187L184.504 365.88L149.727 406.577Z" fill="#FDADB0"/>
<path d="M186.079 437.231C185.935 438.065 184.582 439.999 184.032 440.642C182.342 442.62 179.369 442.853 177.391 441.163L144.717 413.239C143.368 412.086 143.209 410.057 144.362 408.708L145.525 407.348C145.525 407.348 147.402 401.878 155.037 399.683C155.037 399.683 155.801 407.163 167.263 406.265L171.907 404.521L176.853 425.443L183.397 432.593C184.828 434.157 186.441 435.142 186.079 437.231Z" fill="#2F2E41"/>
<path d="M203.344 48.9628C215.608 48.9628 225.55 39.0209 225.55 26.757C225.55 14.4931 215.608 4.55127 203.344 4.55127C191.081 4.55127 181.139 14.4931 181.139 26.757C181.139 39.0209 191.081 48.9628 203.344 48.9628Z" fill="#FDADB0"/>
<path d="M185.424 48.4043L214.682 57.7667L218.192 68.2993L217.022 108.089L178.402 62.4479L185.424 48.4043Z" fill="#B2DCBC"/>
<path d="M237.503 72.3954L215.849 61.2666V100.091L182.638 53.9775L175.477 61.2776L145.049 81.7578L164.944 141.443V170.7L148.56 217.512L205.905 249.11L244.525 226.875L232.822 144.954L241.014 82.9281L237.503 72.3954Z" fill="#2F2E41"/>
<path d="M229.31 223.364L252.716 311.136L182.498 401.249L164.944 383.694L215.852 304.699L170.795 218.683L229.31 223.364Z" fill="#2F2E41"/>
<path d="M156.751 215.172L181.328 311.136L194.786 404.626L221.454 401.249L212.926 299.433L197.712 212.831L156.751 215.172Z" fill="#2F2E41"/>
<path d="M198.297 43.7232V32.5178L205.319 22.6579L202.979 18.1425L201.808 12.3924C201.808 12.3924 217.022 18.5941 222.874 17.7002C228.725 16.8064 225.214 16.5115 226.97 15.4886C228.725 14.4658 232.236 9.76617 226.97 5.0942C221.703 0.422231 225.786 -0.748073 214.967 0.422222C204.149 1.59252 190.105 1.59252 187.765 5.10342C185.424 8.61431 185.424 10.9549 185.424 10.9549C185.424 10.9549 171.381 12.1252 181.913 37.8717L187.765 50.745L190.105 46.0638C190.105 46.0638 187.765 33.1905 191.276 37.8717C194.786 42.5529 198.297 43.7232 198.297 43.7232Z" fill="#2F2E41"/>
<path d="M221.945 102.212L209.305 73.6051C209.1 73.1408 209.099 72.608 209.304 72.1434C209.509 71.6786 209.903 71.3192 210.384 71.1572L233.937 63.2348C234.413 63.0745 234.939 63.1204 235.38 63.3603C235.821 63.6001 236.145 64.0164 236.269 64.5026L244.029 94.8783C244.264 95.7974 243.742 96.7496 242.841 97.0462L224.168 103.2C223.979 103.262 223.786 103.292 223.597 103.292C222.898 103.292 222.243 102.886 221.945 102.212Z" fill="#F2F2F2"/>
<path d="M208.236 70.8828C208.545 70.7188 208.959 70.5028 209.458 70.2501C209.216 70.0485 209.036 69.7669 208.969 69.4303L208.501 67.0936C208.38 66.4871 208.659 65.8717 209.197 65.5658C212.4 63.7435 223.549 57.8045 232.228 58.1652C232.77 58.1877 233.251 58.5254 233.469 59.0231L234.473 61.3117C234.597 61.5946 234.621 61.8937 234.564 62.1727C235.24 62.09 235.918 62.0176 236.597 61.9628C237.023 61.9284 237.428 62.1524 237.632 62.5273L238.145 63.4676C238.471 64.0643 238.175 64.81 237.529 65.0218L209.287 74.2853C208.644 74.4961 207.967 74.0753 207.871 73.4057L207.67 71.9971C207.605 71.5432 207.832 71.0983 208.236 70.8828Z" fill="#3F3D56"/>
<path d="M224.872 92.3777C229.535 88.3578 231.241 82.6932 228.682 79.726C226.123 76.7587 220.269 77.6125 215.605 81.6345C213.72 83.2155 212.241 85.225 211.291 87.4949L191.748 104.777L200.053 113.775L218.438 95.7828C220.824 95.1779 223.03 94.0102 224.872 92.3777Z" fill="#FDADB0"/>
<path d="M179.704 168.522L175.239 230.542C174.966 234.338 172.067 237.413 168.297 237.931C149.931 240.459 129.583 237.901 107.68 231.355C103.907 230.227 101.54 226.487 102.075 222.586L110.511 161.11C110.984 157.665 113.619 154.905 117.042 154.292C134.867 151.099 154.122 154.183 174.059 160.267C177.634 161.357 179.973 164.794 179.704 168.522Z" fill="#B2DCBC"/>
<path d="M153.174 130.067C162.614 130.468 165.221 153.189 165.433 161.909L167.772 161.852C167.739 160.483 166.805 128.315 153.274 127.728" fill="#3F3D56"/>
<path d="M157.922 82.9281L145.049 81.7578L133.759 135.6C131.608 145.86 138.333 155.876 148.644 157.769L157.922 159.472L222.289 111.015L207.385 88.3396L163.774 115.696L157.922 82.9281Z" fill="#2F2E41"/>
<path d="M164.976 111.343C151.643 110.773 129.437 154.79 129.046 156.016L131.277 156.727C131.367 156.443 153.318 113.187 164.876 113.683" fill="#3F3D56"/>
</svg>
