<svg width="16" height="17" viewBox="0 0 16 17" fill="none" xmlns="http://www.w3.org/2000/svg">
<path d="M7.78809 5.30408C6.74463 5.41054 5.91992 6.29462 5.91992 7.37341V7.36658C5.91997 6.36224 6.63456 5.52826 7.58105 5.33533L7.78809 5.30408ZM8.21191 5.30408C9.11826 5.39629 9.85618 6.07317 10.0371 6.95349C9.84182 6.00474 8.99869 5.29337 8 5.29333L8.21191 5.30408Z" fill="#091C2B" stroke="#091C2B"/>
<path d="M8 1.83333H8.00684C8.40329 1.83333 8.80796 1.87357 9.20996 1.95442C8.79483 1.87185 8.38577 1.83333 8 1.83333ZM8 1.83333C7.74536 1.83333 7.4807 1.85 7.21094 1.88509C7.47544 1.8504 7.73952 1.83333 8 1.83333ZM13.749 7.80598C13.6699 10.4229 12.0172 12.6486 10.4062 14.1995C9.72819 14.8478 8.86021 15.1732 8 15.1732C7.1931 15.1731 6.3791 14.8873 5.72168 14.3167L5.59277 14.1986C3.71663 12.3921 1.78149 9.66427 2.35156 6.47493L2.41406 6.16438C2.5004 5.78402 2.61831 5.42978 2.7627 5.10188C2.62254 5.42661 2.50584 5.77906 2.41895 6.16145C1.6358 9.57685 3.79029 12.4576 5.60059 14.1937C6.94756 15.4931 9.05945 15.4924 10.4062 14.1927L10.4072 14.1937C11.9132 12.744 13.6605 10.4962 13.749 7.80598ZM9.24414 1.96126C9.36172 1.9856 9.47893 2.01381 9.5957 2.04524C9.47819 2.01411 9.36114 1.9852 9.24414 1.96126ZM6.44238 2.03645C6.53457 2.01218 6.62703 1.98992 6.71973 1.97005C6.62734 1.98955 6.53507 2.01246 6.44238 2.03645ZM6.83203 1.94759C6.94718 1.92513 7.06244 1.90573 7.17773 1.88997C7.06319 1.90548 6.94797 1.92529 6.83203 1.94759ZM13.752 7.4427C13.7544 7.53563 13.7535 7.62806 13.752 7.72005C13.7538 7.62809 13.7541 7.53567 13.752 7.4427Z" fill="#091C2B" stroke="#091C2B"/>
</svg>
