<svg width="17" height="16" viewBox="0 0 17 16" fill="none" xmlns="http://www.w3.org/2000/svg">
<path d="M8.45068 3.25C8.8649 3.25 9.20068 2.91421 9.20068 2.5C9.20068 2.08579 8.8649 1.75 8.45068 1.75C8.03647 1.75 7.70068 2.08579 7.70068 2.5C7.70068 2.91421 8.03647 3.25 8.45068 3.25Z" stroke="#414141" stroke-width="1.5" stroke-linecap="round" stroke-linejoin="round"/>
<path d="M8.45068 8.75C8.8649 8.75 9.20068 8.41421 9.20068 8C9.20068 7.58579 8.8649 7.25 8.45068 7.25C8.03647 7.25 7.70068 7.58579 7.70068 8C7.70068 8.41421 8.03647 8.75 8.45068 8.75Z" stroke="#414141" stroke-width="1.5" stroke-linecap="round" stroke-linejoin="round"/>
<path d="M8.45068 14.25C8.8649 14.25 9.20068 13.9142 9.20068 13.5C9.20068 13.0858 8.8649 12.75 8.45068 12.75C8.03647 12.75 7.70068 13.0858 7.70068 13.5C7.70068 13.9142 8.03647 14.25 8.45068 14.25Z" stroke="#414141" stroke-width="1.5" stroke-linecap="round" stroke-linejoin="round"/>
</svg>
