<svg width="25" height="25" viewBox="0 0 25 25" fill="none" xmlns="http://www.w3.org/2000/svg">
<path d="M13.026 24.9999C12.8287 24.9999 12.6306 24.9999 12.4333 24.9885C9.27367 24.8336 6.27696 23.5401 3.99711 21.3471C1.71718 19.1542 0.308204 16.2101 0.0305815 13.0589C-0.154944 10.3726 0.507085 7.6958 1.9234 5.40566C3.33972 3.11553 5.43889 1.32753 7.92522 0.293583C9.37889 -0.311351 10.1461 0.152635 10.4714 0.490911C10.7968 0.816234 11.2501 1.57202 10.6459 2.9556C10.1115 4.18384 9.84204 5.51095 9.85507 6.85034C9.91106 9.37819 10.9261 11.7901 12.6946 13.5972C14.4631 15.4043 16.8526 16.4713 19.3786 16.5819C20.1223 16.6134 20.8671 16.5623 21.5995 16.4295C23.1339 16.1506 23.7739 16.767 24.0177 17.1617C24.2615 17.5563 24.5411 18.4058 23.6108 19.6614C22.3927 21.3231 20.7987 22.6731 18.9591 23.601C17.1195 24.5288 15.0864 25.0082 13.026 24.9999ZM1.7631 12.9317C1.96908 15.2246 2.86803 17.4006 4.34049 19.1704C5.8129 20.9401 7.78915 22.2198 10.0064 22.8393C12.2236 23.4588 14.5769 23.3889 16.7535 22.6387C18.93 21.8886 20.8267 20.4937 22.1915 18.6397C22.3097 18.4823 22.4075 18.3105 22.4825 18.1285C22.2881 18.1091 22.0918 18.1209 21.9012 18.1635C21.0419 18.3148 20.1688 18.3734 19.2971 18.338C16.3241 18.2049 13.5129 16.9464 11.4333 14.8177C9.35367 12.689 8.1611 9.84926 8.0974 6.87396C8.09001 5.28955 8.41473 3.72117 9.05052 2.26991C9.12945 2.10488 9.18088 1.92809 9.20289 1.74649C8.99711 1.75747 8.79567 1.80927 8.61015 1.89887C6.46058 2.79384 4.64478 4.33868 3.41702 6.31702C2.18923 8.2954 1.61093 10.6082 1.7631 12.9317Z" fill="#091C2B"/>
</svg>
