<svg width="40" height="40" viewBox="0 0 40 40" fill="none" xmlns="http://www.w3.org/2000/svg">
<circle cx="20" cy="20" r="20" fill="#F7F7F7" fill-opacity="0.98"/>
<path d="M26.1167 22.075L25.2833 20.6917C25.1083 20.3833 24.95 19.8 24.95 19.4583V17.35C24.95 15.3917 23.8 13.7 22.1417 12.9083C21.7083 12.1417 20.9083 11.6667 19.9917 11.6667C19.0833 11.6667 18.2667 12.1583 17.8333 12.9333C16.2083 13.7417 15.0833 15.4167 15.0833 17.35V19.4583C15.0833 19.8 14.925 20.3833 14.75 20.6833L13.9083 22.075C13.575 22.6333 13.5 23.25 13.7083 23.8167C13.9083 24.375 14.3833 24.8083 15 25.0167C16.6167 25.5667 18.3167 25.8333 20.0167 25.8333C21.7167 25.8333 23.4167 25.5667 25.0333 25.025C25.6167 24.8333 26.0667 24.3917 26.2833 23.8167C26.5 23.2417 26.4417 22.6083 26.1167 22.075Z" fill="#091C2B"/>
<path d="M22.3583 26.675C22.0083 27.6417 21.0833 28.3333 20 28.3333C19.3417 28.3333 18.6917 28.0667 18.2333 27.5917C17.9667 27.3417 17.7667 27.0083 17.65 26.6667C17.7583 26.6833 17.8667 26.6917 17.9833 26.7083C18.175 26.7333 18.375 26.7583 18.575 26.775C19.05 26.8167 19.5333 26.8417 20.0167 26.8417C20.4917 26.8417 20.9667 26.8167 21.4333 26.775C21.6083 26.7583 21.7833 26.75 21.95 26.725C22.0833 26.7083 22.2167 26.6917 22.3583 26.675Z" fill="#091C2B"/>
</svg>
