<svg width="20" height="25" viewBox="0 0 20 25" fill="none" xmlns="http://www.w3.org/2000/svg">
<path d="M19.8977 16.3504L18.0018 8.21408C17.6656 6.49439 16.79 4.92665 15.5021 3.7385C14.2142 2.55034 12.5811 1.80366 10.84 1.6069V0.925474C10.849 0.807367 10.8335 0.688672 10.7945 0.576828C10.7556 0.464983 10.6939 0.362397 10.6134 0.275509C10.5329 0.188614 10.4353 0.119289 10.3268 0.0718832C10.2182 0.0244699 10.1011 0 9.98264 0C9.86419 0 9.74704 0.0244699 9.63848 0.0718832C9.52993 0.119289 9.43233 0.188614 9.35187 0.275509C9.27133 0.362397 9.20971 0.464983 9.17066 0.576828C9.13167 0.688672 9.11627 0.807367 9.1253 0.925474V1.60762C7.38862 1.80229 5.75907 2.54469 4.47253 3.72729C3.18591 4.90989 2.30918 6.47132 1.96921 8.18542L0.0696687 16.3504C-0.0760752 16.9688 0.00853363 17.6192 0.30766 18.1796C0.606786 18.7402 1.09992 19.1725 1.69478 19.3957C2.99822 19.8745 4.34083 20.2392 5.70741 20.4855C5.70741 20.5428 5.69809 20.6002 5.69809 20.6575C5.69071 21.2251 5.79619 21.7885 6.00836 22.3151C6.22045 22.8416 6.53508 23.3207 6.93384 23.7247C7.33259 24.1286 7.80765 24.4494 8.33137 24.6683C8.85516 24.8872 9.41714 25 9.98479 25C10.5524 25 11.1144 24.8872 11.6381 24.6683C12.1619 24.4494 12.6369 24.1286 13.0357 23.7247C13.4345 23.3207 13.749 22.8416 13.9612 22.3151C14.1733 21.7885 14.2788 21.2251 14.2715 20.6575C14.2715 20.6009 14.2579 20.5436 14.255 20.487C15.6224 20.2403 16.9657 19.8752 18.2698 19.3957C18.8651 19.173 19.3589 18.741 19.6586 18.1803C19.9583 17.6198 20.0433 16.9692 19.8977 16.3504ZM9.98228 23.2621C9.30737 23.2566 8.66141 22.9877 8.18205 22.5125C7.70268 22.0375 7.42789 21.3939 7.41635 20.7191C8.26832 20.816 9.12487 20.8672 9.98228 20.8725C10.8397 20.8672 11.6962 20.816 12.5482 20.7191C12.5366 21.3939 12.2619 22.0375 11.7825 22.5125C11.3031 22.9877 10.6571 23.2566 9.98228 23.2621ZM17.6865 17.7648C12.7143 19.5947 7.25312 19.5947 2.28091 17.7648C2.08258 17.6902 1.91821 17.5459 1.81852 17.3589C1.71883 17.172 1.69063 16.9551 1.7392 16.7488L3.64449 8.55515C3.92179 7.07393 4.70905 5.73658 5.86963 4.77536C7.03021 3.81411 8.4908 3.28966 9.99775 3.29306C11.5047 3.29646 12.9629 3.82751 14.1191 4.794C15.2753 5.76051 16.0566 7.10137 16.3272 8.58382L18.2296 16.7488C18.2782 16.9551 18.25 17.172 18.1503 17.3589C18.0506 17.5459 17.8863 17.6902 17.6879 17.7648H17.6865Z" fill="#091C2B"/>
</svg>
