<svg width="16" height="16" viewBox="0 0 16 16" fill="none" xmlns="http://www.w3.org/2000/svg">
<path d="M10.16 14.8467H10.0733C7.11332 14.8467 5.68666 13.68 5.43999 11.0667C5.41332 10.7933 5.61332 10.5467 5.89332 10.52C6.15999 10.4933 6.41332 10.7 6.43999 10.9733C6.63332 13.0667 7.61999 13.8467 10.08 13.8467H10.1667C12.88 13.8467 13.84 12.8867 13.84 10.1733V5.82665C13.84 3.11332 12.88 2.15332 10.1667 2.15332H10.08C7.60666 2.15332 6.61999 2.94665 6.43999 5.07999C6.40666 5.35332 6.17332 5.55999 5.89332 5.53332C5.61332 5.51332 5.41332 5.26665 5.43332 4.99332C5.65999 2.33999 7.09332 1.15332 10.0733 1.15332H10.16C13.4333 1.15332 14.8333 2.55332 14.8333 5.82665V10.1733C14.8333 13.4467 13.4333 14.8467 10.16 14.8467Z" fill="#F95555"/>
<path d="M10 8.5H2.41333C2.14 8.5 1.91333 8.27333 1.91333 8C1.91333 7.72667 2.14 7.5 2.41333 7.5H10C10.2733 7.5 10.5 7.72667 10.5 8C10.5 8.27333 10.2733 8.5 10 8.5Z" fill="#F95555"/>
<path d="M3.9 10.7333C3.77333 10.7333 3.64667 10.6866 3.54667 10.5866L1.31333 8.35331C1.12 8.15998 1.12 7.83998 1.31333 7.64664L3.54667 5.41331C3.74 5.21998 4.06 5.21998 4.25333 5.41331C4.44667 5.60664 4.44667 5.92664 4.25333 6.11998L2.37333 7.99998L4.25333 9.87998C4.44667 10.0733 4.44667 10.3933 4.25333 10.5866C4.16 10.6866 4.02667 10.7333 3.9 10.7333Z" fill="#F95555"/>
</svg>
