<svg width="24" height="25" viewBox="0 0 24 25" fill="none" xmlns="http://www.w3.org/2000/svg">
<path d="M9.35318 16.0062C9.45887 16.0502 9.5722 16.0726 9.68669 16.0725C9.80125 16.0728 9.91473 16.0503 10.0206 16.0063C10.1264 15.9624 10.2224 15.8979 10.3031 15.8166L17.2437 8.84495C17.4058 8.68086 17.4966 8.45953 17.4966 8.2289C17.4966 7.99827 17.4058 7.77693 17.2437 7.61285C17.0796 7.45078 16.8583 7.35986 16.6277 7.35986C16.397 7.35986 16.1757 7.45078 16.0116 7.61285L9.68741 13.9688L7.82591 12.0993C7.66182 11.9373 7.44049 11.8464 7.20986 11.8464C6.97922 11.8464 6.75789 11.9373 6.5938 12.0993C6.43173 12.2634 6.34082 12.4848 6.34082 12.7154C6.34082 12.946 6.43173 13.1674 6.5938 13.3314L9.071 15.8166C9.1516 15.8978 9.24748 15.9623 9.35318 16.0062Z" fill="#091C2B"/>
<path fill-rule="evenodd" clip-rule="evenodd" d="M8.39908 23.8948C9.42204 24.6268 10.6516 25.0137 11.9094 24.9993C13.1623 25.0188 14.387 24.627 15.3959 23.884L21.4361 20.1531C22.135 19.5782 22.7059 18.8634 23.1121 18.0547C23.5184 17.2461 23.751 16.3614 23.795 15.4575V6.82193C23.7596 5.8901 23.4584 4.98783 22.9272 4.22142C22.3959 3.45502 21.6567 2.85644 20.7966 2.49621L13.9547 0.322536C12.6169 -0.107512 11.1781 -0.107512 9.84027 0.322536L2.99844 2.49621C2.13832 2.85644 1.39909 3.45502 0.867847 4.22142C0.336606 4.98783 0.0354997 5.8901 0 6.82193V15.469C0.045557 16.3725 0.278843 17.2566 0.684991 18.0649C1.09114 18.8732 1.66124 19.5881 2.35896 20.1639L8.39908 23.8948ZM3.61197 4.1371L10.4538 1.96342C11.4048 1.67344 12.4199 1.66842 13.3737 1.94901L20.2155 4.12556C20.7386 4.36712 21.1872 4.74484 21.5143 5.21918C21.8414 5.69357 22.035 6.24712 22.0748 6.82193V15.469C22.0318 16.1012 21.8636 16.7185 21.5799 17.2851C21.2962 17.8517 20.9028 18.3563 20.4224 18.7696L14.3823 22.5005C13.6514 22.9891 12.7919 23.2501 11.9126 23.2501C11.0334 23.2501 10.1739 22.9891 9.44302 22.5005L3.4029 18.7696C2.9239 18.3553 2.53152 17.8504 2.24831 17.284C1.9651 16.7176 1.79664 16.1008 1.75264 15.469V6.83347C1.78927 6.25779 1.9816 5.7028 2.30907 5.2279C2.63655 4.75301 3.08689 4.37598 3.61197 4.1371Z" fill="#091C2B"/>
</svg>
