<svg width="18" height="25" viewBox="0 0 18 25" fill="none" xmlns="http://www.w3.org/2000/svg">
<path d="M8.81524 25H8.49955C6.74478 25.0023 5.03203 24.4611 3.59728 23.4508C2.15871 22.4451 1.06692 21.0183 0.472685 19.3667C0.226338 18.6514 0.0841081 17.9044 0.050326 17.1487V17.137C-0.0169199 16.8253 -0.0166306 16.5028 0.050326 16.1911C0.11729 15.8794 0.249475 15.5855 0.43878 15.329C0.784426 14.905 1.27347 14.622 1.81322 14.5333L2.99621 14.4698H14.3278L15.5094 14.5333C16.0493 14.6214 16.5385 14.9046 16.8838 15.329C17.0734 15.5854 17.2062 15.8793 17.2736 16.191C17.3411 16.5027 17.3416 16.8251 17.2751 17.137V17.1471C17.2407 17.9028 17.0985 18.6498 16.8527 19.3653C16.2581 21.0169 15.1668 22.444 13.7289 23.4508C12.2905 24.4627 10.5739 25.004 8.81524 25ZM4.28587 16.1122L3.37337 16.1556C2.96829 16.2117 2.59481 16.4053 2.31536 16.7039C2.17165 16.8736 2.06932 17.0747 2.01732 17.291C1.96532 17.5072 1.9651 17.7327 2.01587 17.9492V17.9551C2.04169 18.4781 2.15097 18.9936 2.34082 19.4817C2.87818 20.6647 3.75234 21.6633 4.85375 22.3527C5.95508 23.0421 7.2352 23.3919 8.53412 23.3582H8.77995C10.079 23.3925 11.3596 23.0431 12.461 22.3536C13.5626 21.6641 14.4365 20.6651 14.9733 19.4817C15.1624 18.9933 15.2715 18.478 15.2975 17.9551V17.9478C15.3482 17.7313 15.3477 17.506 15.2954 17.2899C15.2429 17.0738 15.1401 16.8731 14.9959 16.7039C14.7172 16.4043 14.3434 16.2105 13.9379 16.1556L13.0254 16.1122H4.28587ZM8.58851 10.5961C7.89262 10.5979 7.20294 10.4615 6.56007 10.195C5.91726 9.92845 5.33426 9.53711 4.84384 9.04336C4.35031 8.55287 3.95832 7.96922 3.69188 7.32642C3.42552 6.68361 3.28955 5.99437 3.29143 5.29855C3.28962 4.60237 3.42552 3.91274 3.69188 3.26957C3.95832 2.62639 4.35031 2.04234 4.84384 1.55137C5.33426 1.05773 5.91726 0.66644 6.56007 0.400132C7.20294 0.133825 7.89269 -0.00220769 8.58851 2.70944e-05C9.28476 -0.00219322 9.97436 0.133839 10.6177 0.400132C11.261 0.666425 11.8451 1.0577 12.3361 1.55137C12.8292 2.04254 13.2203 2.62661 13.4866 3.26974C13.7529 3.91288 13.8894 4.60246 13.8878 5.29855C13.8895 5.9943 13.7529 6.68347 13.4866 7.32627C13.2203 7.96908 12.8292 8.55265 12.3361 9.04336C11.845 9.53711 11.261 9.92845 10.6177 10.195C9.97436 10.4615 9.28483 10.5979 8.58851 10.5961ZM8.58851 1.628C7.61678 1.62934 6.6849 2.01604 5.9979 2.70331C5.3109 3.39058 4.92463 4.32237 4.92369 5.29414C4.92477 6.2658 5.31163 7.19732 5.99862 7.8846C6.68555 8.57182 7.61685 8.95867 8.58851 8.96026C9.56053 8.95911 10.4925 8.57232 11.1798 7.88511C11.8673 7.19783 12.2535 6.26616 12.2548 5.29414C12.2525 4.32273 11.8658 3.39189 11.1785 2.70543C10.4912 2.01896 9.55995 1.63285 8.58851 1.63171V1.628Z" fill="white"/>
</svg>
