<svg width="45" height="44" viewBox="0 0 45 44" fill="none" xmlns="http://www.w3.org/2000/svg">
<path d="M0 13.1772C0.000405152 13.0977 0.00891338 13.0187 0.0215836 12.9403V10.7415C0.0251563 7.89396 1.15667 5.16386 3.17004 3.15025C5.18341 1.13666 7.91434 0.00389191 10.7618 0H13.2437C13.6453 0.0102147 14.0276 0.176732 14.3084 0.463985C14.5891 0.751249 14.7484 1.13652 14.7496 1.53825C14.7497 1.74139 14.7098 1.94285 14.6321 2.13055C14.5544 2.31823 14.4401 2.48872 14.2963 2.63231C14.1527 2.77589 13.9806 2.88926 13.7928 2.96682C13.6051 3.04436 13.4036 3.08464 13.2006 3.08431C13.122 3.08421 13.0455 3.07789 12.9679 3.06573H10.757C8.72245 3.06735 6.77164 3.87629 5.33296 5.31498C3.89429 6.75364 3.08534 8.70446 3.08372 10.739V13.3366L3.07413 13.3504C3.03077 13.7258 2.85022 14.0718 2.56817 14.3234C2.28612 14.5748 1.92214 14.714 1.54425 14.7142C1.13612 14.7139 0.74478 14.552 0.455612 14.2639C0.166432 13.9759 0.00195209 13.5853 0 13.1772Z" fill="#091C2B"/>
<path fill-rule="evenodd" clip-rule="evenodd" d="M11.4719 23.5356H7.68554C7.27941 23.5326 6.89075 23.3701 6.60357 23.0829C6.31639 22.7958 6.15376 22.4071 6.15088 22.0009C6.15376 21.5948 6.31639 21.2061 6.60357 20.9189C6.89075 20.6318 7.27941 20.4691 7.68554 20.4663H11.4719V16.885C11.4719 11.9335 14.1938 9.21159 19.1452 9.21159H24.8751C29.8277 9.21159 32.5484 11.9335 32.5484 16.885V20.4663H36.3347C36.7409 20.4691 37.1294 20.6318 37.4166 20.9189C37.7039 21.2061 37.8664 21.5948 37.8694 22.0009C37.8664 22.4071 37.7039 22.7958 37.4166 23.0829C37.1294 23.3701 36.7409 23.5326 36.3347 23.5356H32.5484V27.1169C32.5496 32.0696 29.8277 34.7902 24.8751 34.7902H19.1452C14.1926 34.7902 11.4719 32.0683 11.4719 27.1169V23.5356ZM29.4791 20.4663V16.885C29.4791 13.6523 28.1077 12.281 24.8751 12.281H19.1452C15.9126 12.281 14.5412 13.6523 14.5412 16.885V20.4663H29.4791Z" fill="#091C2B"/>
<path d="M0 30.8223C0.000405152 30.9017 0.00891338 30.9813 0.0215836 31.0597V33.2586C0.0251563 36.1061 1.15667 38.8355 3.17004 40.8492C5.18341 42.8628 7.91434 43.9961 10.7618 44H13.2437C13.6453 43.9898 14.0276 43.8232 14.3084 43.536C14.5891 43.2488 14.7484 42.8629 14.7496 42.4612C14.7497 42.258 14.7098 42.0571 14.6321 41.8694C14.5544 41.6818 14.4401 41.5113 14.2963 41.3677C14.1527 41.2241 13.9806 41.1102 13.7928 41.0326C13.6051 40.955 13.4036 40.9153 13.2006 40.9157C13.122 40.9158 13.0455 40.9221 12.9679 40.9342H10.757C8.72245 40.9326 6.77164 40.1237 5.33296 38.685C3.89429 37.2464 3.08534 35.2955 3.08372 33.2609V30.6628L3.0786 30.6559L3.07413 30.6496C3.03077 30.2742 2.85022 29.9275 2.56817 29.6761C2.28612 29.4246 1.92214 29.2854 1.54425 29.2851C1.13612 29.2855 0.74478 29.4474 0.455612 29.7353C0.166432 30.0234 0.00195209 30.4142 0 30.8223Z" fill="#091C2B"/>
<path d="M43.9922 12.9403C44.0048 13.0187 44.0108 13.0977 44.0113 13.1772C44.0093 13.5853 43.8448 13.9759 43.5557 14.2639C43.2666 14.552 42.8752 14.7139 42.4671 14.7142C42.0892 14.714 41.7252 14.5748 41.4431 14.3234C41.1611 14.0718 40.9805 13.7258 40.9372 13.3504L40.9276 13.3366V10.739C40.9259 8.70446 40.1169 6.75364 38.6783 5.31498C37.2396 3.87629 35.2889 3.06735 33.2543 3.06573H31.0457C30.9681 3.07789 30.8893 3.08421 30.8107 3.08431C30.6077 3.08464 30.4062 3.04436 30.2185 2.96682C30.0308 2.88926 29.861 2.77589 29.7173 2.63231C29.5737 2.48872 29.4594 2.31823 29.3817 2.13055C29.3039 1.94285 29.2639 1.74139 29.2642 1.53825C29.2653 1.13652 29.422 0.751249 29.703 0.463985C29.9837 0.176732 30.3661 0.0102147 30.7676 0H33.2518C36.0993 0.00389191 38.8278 1.13666 40.8412 3.15025C42.8547 5.16386 43.9885 7.89396 43.9922 10.7415V12.9403Z" fill="#091C2B"/>
<path d="M44.0113 30.8223C44.0108 30.9017 44.0048 30.9813 43.9922 31.0597V33.2586C43.9885 36.1061 42.8547 38.8355 40.8412 40.8492C38.8278 42.8628 36.0993 43.9961 33.2518 44H30.7676C30.3661 43.9898 29.9837 43.8232 29.703 43.536C29.422 43.2488 29.2653 42.8629 29.2642 42.4612C29.2639 42.258 29.3039 42.0571 29.3817 41.8694C29.4594 41.6818 29.5737 41.5113 29.7173 41.3677C29.861 41.2241 30.0308 41.1102 30.2185 41.0326C30.4062 40.955 30.6077 40.9153 30.8107 40.9157C30.8893 40.9158 30.9681 40.9221 31.0457 40.9342H33.2543C35.2889 40.9326 37.2396 40.1237 38.6783 38.685C40.1169 37.2464 40.9259 35.2955 40.9276 33.2609V30.6628C40.9276 30.6628 40.9295 30.6603 40.9315 30.6574C40.9336 30.6546 40.9372 30.6496 40.9372 30.6496C40.9805 30.2742 41.1611 29.9275 41.4431 29.6761C41.7252 29.4246 42.0892 29.2854 42.4671 29.2851C42.8752 29.2855 43.2666 29.4474 43.5557 29.7353C43.8448 30.0234 44.0093 30.4142 44.0113 30.8223Z" fill="#091C2B"/>
</svg>
