<svg width="48" height="48" viewBox="0 0 48 48" fill="none" xmlns="http://www.w3.org/2000/svg">
<rect width="48" height="48" rx="24" fill="#B2DCBC" fill-opacity="0.21"/>
<path d="M34.2672 27.9408C33.7666 27.6984 33.2238 27.555 32.6688 27.5184C32.9109 26.9198 33.0426 26.2823 33.0576 25.6368C33.1704 22.2408 30.48 19.776 29.3352 18.72L29.2152 18.612C29.0496 18.4584 28.8984 18.3072 28.7568 18.156C28.903 18.033 29.0204 17.8794 29.1009 17.706C29.1813 17.5327 29.2228 17.3439 29.2224 17.1528V17.1288C29.2215 16.865 29.1414 16.6075 28.9925 16.3897C28.8436 16.1719 28.6327 16.0038 28.3872 15.9072C28.6622 15.1403 28.8545 14.3462 28.9608 13.5384C28.9775 13.4006 28.955 13.261 28.896 13.1354C28.837 13.0098 28.7438 12.9033 28.6271 12.8282C28.5104 12.7531 28.3749 12.7123 28.2361 12.7106C28.0974 12.7088 27.9609 12.7462 27.8424 12.8184C27.4747 13.0221 27.0817 13.1762 26.6736 13.2768C26.2802 13.3792 25.8671 13.3792 25.4736 13.2768C25.0629 13.1762 24.6674 13.0212 24.2976 12.816C24.1784 12.744 24.0412 12.7071 23.9019 12.7097C23.7627 12.7122 23.6269 12.7541 23.5104 12.8304C23.3946 12.9043 23.3023 13.0097 23.2445 13.1343C23.1866 13.2589 23.1657 13.3975 23.184 13.5336C23.2919 14.3444 23.485 15.1416 23.76 15.912C23.5138 16.008 23.3023 16.1758 23.1529 16.3937C23.0035 16.6116 22.9232 16.8694 22.9224 17.1336V17.1576C22.9223 17.3709 22.9743 17.581 23.0739 17.7696C23.1734 17.9582 23.3175 18.1197 23.4936 18.24C23.3856 18.3552 23.2536 18.48 23.1144 18.612L22.9992 18.72C21.84 19.776 19.164 22.2384 19.2744 25.6344C19.2744 25.812 19.296 25.9824 19.3152 26.1528H17.4456V25.3824C17.4456 25.2551 17.395 25.133 17.305 25.043C17.215 24.953 17.0929 24.9024 16.9656 24.9024H13.5576C13.4303 24.9024 13.3082 24.953 13.2182 25.043C13.1282 25.133 13.0776 25.2551 13.0776 25.3824V33.5664C13.0776 33.6937 13.1282 33.8158 13.2182 33.9058C13.3082 33.9958 13.4303 34.0464 13.5576 34.0464H16.9656C17.0929 34.0464 17.215 33.9958 17.305 33.9058C17.395 33.8158 17.4456 33.6937 17.4456 33.5664V32.9424L22.6728 35.052C23.0767 35.2039 23.5037 35.2851 23.9352 35.292C24.8952 35.292 25.7352 34.8768 26.7168 34.3872L26.8272 34.332H26.8512L34.2912 30.0576C34.4849 29.9561 34.6466 29.8026 34.7581 29.6144C34.8696 29.4262 34.9265 29.2107 34.9224 28.992C34.9241 28.7727 34.8634 28.5574 34.7474 28.3713C34.6314 28.1852 34.4648 28.0359 34.2672 27.9408ZM24.3888 17.52H24.24C24.1462 17.52 24.0562 17.4829 23.9897 17.4168C23.9231 17.3507 23.8854 17.261 23.8848 17.1672V17.1432C23.8838 17.096 23.8923 17.049 23.9097 17.0051C23.9272 16.9611 23.9532 16.9211 23.9863 16.8874C24.0193 16.8536 24.0588 16.8268 24.1024 16.8085C24.146 16.7902 24.1927 16.7808 24.24 16.7808H27.9096C28.0032 16.7808 28.0929 16.818 28.1591 16.8841C28.2252 16.9503 28.2624 17.04 28.2624 17.1336V17.1576C28.2637 17.2047 28.2555 17.2517 28.2384 17.2956C28.2212 17.3395 28.1954 17.3795 28.1625 17.4133C28.1296 17.4471 28.0903 17.4739 28.0469 17.4923C28.0034 17.5106 27.9568 17.52 27.9096 17.52H24.3888ZM25.2192 14.2128C25.7775 14.3617 26.365 14.3617 26.9232 14.2128C27.273 14.121 27.6149 14.0014 27.9456 13.8552C27.8192 14.5245 27.637 15.182 27.4008 15.8208H24.7368C24.5023 15.1816 24.3209 14.5242 24.1944 13.8552C24.5261 14.001 24.8688 14.1206 25.2192 14.2128ZM23.6472 19.44L23.7648 19.332C24.0552 19.0678 24.3263 18.783 24.576 18.48H27.756C28.0046 18.7787 28.2732 19.0602 28.56 19.3224L28.6824 19.4328C29.7312 20.3928 32.1912 22.6488 32.0928 25.6032C32.086 26.2982 31.9035 26.9801 31.5624 27.5856C31.1943 27.6629 30.8372 27.7854 30.4992 27.9504L27.912 29.196C27.8425 28.8187 27.6442 28.4772 27.3509 28.2299C27.0577 27.9826 26.6876 27.8448 26.304 27.84H23.52C22.657 26.9514 21.5216 26.3769 20.2944 26.208C20.2618 26.0079 20.2418 25.8059 20.2344 25.6032C20.1384 22.6488 22.596 20.4 23.6472 19.44ZM14.0472 33.096V25.8624H16.4952V33.0864L14.0472 33.096ZM33.84 29.1912L26.4 33.468L26.304 33.516C24.9912 34.1712 24.1968 34.5672 23.028 34.1544L17.4456 31.92V27.12H19.5192C20.1654 27.1203 20.8042 27.2572 21.3936 27.522C21.983 27.7867 22.5098 28.1732 22.9392 28.656C22.9841 28.7065 23.0392 28.7469 23.1008 28.7746C23.1625 28.8023 23.2292 28.8167 23.2968 28.8168H26.304C26.4639 28.8192 26.6178 28.8777 26.7389 28.9822C26.86 29.0866 26.9405 29.2302 26.9664 29.388C26.9708 29.5207 26.932 29.6512 26.856 29.76C26.856 29.76 26.856 29.76 26.8416 29.7792C26.784 29.8519 26.7112 29.9111 26.6283 29.9525C26.5453 29.994 26.4543 30.0168 26.3616 30.0192H20.9928C20.8655 30.0192 20.7434 30.0698 20.6534 30.1598C20.5634 30.2498 20.5128 30.3719 20.5128 30.4992C20.5128 30.6265 20.5634 30.7486 20.6534 30.8386C20.7434 30.9286 20.8655 30.9792 20.9928 30.9792H26.3568C26.5628 30.9799 26.7668 30.9397 26.9571 30.8611C27.1474 30.7824 27.3203 30.6667 27.4656 30.5208C27.4968 30.4896 27.528 30.456 27.5568 30.4224L30.9168 28.8048C31.2188 28.6515 31.5426 28.5454 31.8768 28.4904C32.5475 28.3933 33.2318 28.5012 33.84 28.8C33.8741 28.8154 33.9029 28.8404 33.9229 28.872C33.9429 28.9035 33.9533 28.9402 33.9528 28.9776C33.9562 29.0202 33.9474 29.063 33.9274 29.1008C33.9074 29.1386 33.8771 29.17 33.84 29.1912Z" fill="#091C2B"/>
<path d="M26.88 25.284H25.776C25.7402 25.2843 25.7047 25.2775 25.6715 25.2641C25.6383 25.2506 25.6081 25.2306 25.5827 25.2054C25.5573 25.1802 25.5371 25.1502 25.5233 25.1172C25.5095 25.0841 25.5024 25.0486 25.5024 25.0128C25.5024 24.8855 25.4518 24.7634 25.3618 24.6734C25.2718 24.5834 25.1497 24.5328 25.0224 24.5328C24.8951 24.5328 24.773 24.5834 24.683 24.6734C24.593 24.7634 24.5424 24.8855 24.5424 25.0128C24.5431 25.3396 24.6733 25.6527 24.9046 25.8835C25.1359 26.1144 25.4493 26.244 25.776 26.244H25.848V26.604C25.848 26.7313 25.8986 26.8534 25.9886 26.9434C26.0786 27.0334 26.2007 27.084 26.328 27.084C26.4553 27.084 26.5774 27.0334 26.6674 26.9434C26.7574 26.8534 26.808 26.7313 26.808 26.604V26.244H26.88C27.0417 26.244 27.2018 26.2122 27.3512 26.1503C27.5006 26.0884 27.6363 25.9977 27.7506 25.8834C27.8649 25.7691 27.9556 25.6333 28.0175 25.484C28.0794 25.3346 28.1112 25.1745 28.1112 25.0128V24.216C28.1106 23.8897 27.9807 23.5769 27.7499 23.3461C27.5192 23.1154 27.2064 22.9854 26.88 22.9848H25.776C25.7402 22.9851 25.7047 22.9783 25.6715 22.9649C25.6383 22.9514 25.6081 22.9314 25.5827 22.9062C25.5573 22.881 25.5371 22.851 25.5233 22.818C25.5095 22.7849 25.5024 22.7494 25.5024 22.7136V21.9168C25.5031 21.8447 25.5322 21.7757 25.5834 21.7249C25.6346 21.6741 25.7039 21.6456 25.776 21.6456H26.88C26.9518 21.6462 27.0204 21.675 27.0711 21.7257C27.1218 21.7765 27.1506 21.8451 27.1512 21.9168C27.1512 22.0441 27.2018 22.1662 27.2918 22.2562C27.3818 22.3462 27.5039 22.3968 27.6312 22.3968C27.7585 22.3968 27.8806 22.3462 27.9706 22.2562C28.0606 22.1662 28.1112 22.0441 28.1112 21.9168C28.1112 21.7551 28.0794 21.595 28.0175 21.4457C27.9556 21.2963 27.8649 21.1605 27.7506 21.0462C27.6363 20.9319 27.5006 20.8412 27.3512 20.7793C27.2018 20.7175 27.0417 20.6856 26.88 20.6856H26.808V20.3256C26.808 20.1983 26.7574 20.0762 26.6674 19.9862C26.5774 19.8962 26.4553 19.8456 26.328 19.8456C26.2007 19.8456 26.0786 19.8962 25.9886 19.9862C25.8986 20.0762 25.848 20.1983 25.848 20.3256V20.6856H25.776C25.4493 20.6856 25.1359 20.8152 24.9046 21.0461C24.6733 21.2769 24.5431 21.5901 24.5424 21.9168V22.7136C24.5431 23.0404 24.6733 23.3535 24.9046 23.5843C25.1359 23.8152 25.4493 23.9448 25.776 23.9448H26.88C26.9518 23.9454 27.0204 23.9742 27.0711 24.0249C27.1218 24.0757 27.1506 24.1443 27.1512 24.216V25.0128C27.1512 25.0847 27.1226 25.1537 27.0718 25.2046C27.0209 25.2554 26.9519 25.284 26.88 25.284Z" fill="#091C2B"/>
</svg>
