<svg width="48" height="48" viewBox="0 0 48 48" fill="none" xmlns="http://www.w3.org/2000/svg">
<rect width="48" height="48" rx="24" fill="#B2DCBC" fill-opacity="0.21"/>
<path d="M24 27.75C21.93 27.75 20.25 26.07 20.25 24C20.25 21.93 21.93 20.25 24 20.25C26.07 20.25 27.75 21.93 27.75 24C27.75 26.07 26.07 27.75 24 27.75ZM24 21.75C22.76 21.75 21.75 22.76 21.75 24C21.75 25.24 22.76 26.25 24 26.25C25.24 26.25 26.25 25.24 26.25 24C26.25 22.76 25.24 21.75 24 21.75Z" fill="#292D32"/>
<path d="M27.21 34.19C27 34.19 26.79 34.16 26.58 34.11C25.96 33.94 25.44 33.55 25.11 33L24.99 32.8C24.4 31.78 23.59 31.78 23 32.8L22.89 32.99C22.56 33.55 22.04 33.95 21.42 34.11C20.79 34.28 20.14 34.19 19.59 33.86L17.87 32.87C17.26 32.52 16.82 31.95 16.63 31.26C16.45 30.57 16.54 29.86 16.89 29.25C17.18 28.74 17.26 28.28 17.09 27.99C16.92 27.7 16.49 27.53 15.9 27.53C14.44 27.53 13.25 26.34 13.25 24.88V23.12C13.25 21.66 14.44 20.47 15.9 20.47C16.49 20.47 16.92 20.3 17.09 20.01C17.26 19.72 17.19 19.26 16.89 18.75C16.54 18.14 16.45 17.42 16.63 16.74C16.81 16.05 17.25 15.48 17.87 15.13L19.6 14.14C20.73 13.47 22.22 13.86 22.9 15.01L23.02 15.21C23.61 16.23 24.42 16.23 25.01 15.21L25.12 15.02C25.8 13.86 27.29 13.47 28.43 14.15L30.15 15.14C30.76 15.49 31.2 16.06 31.39 16.75C31.57 17.44 31.48 18.15 31.13 18.76C30.84 19.27 30.76 19.73 30.93 20.02C31.1 20.31 31.53 20.48 32.12 20.48C33.58 20.48 34.77 21.67 34.77 23.13V24.89C34.77 26.35 33.58 27.54 32.12 27.54C31.53 27.54 31.1 27.71 30.93 28C30.76 28.29 30.83 28.75 31.13 29.26C31.48 29.87 31.58 30.59 31.39 31.27C31.21 31.96 30.77 32.53 30.15 32.88L28.42 33.87C28.04 34.08 27.63 34.19 27.21 34.19ZM24 30.49C24.89 30.49 25.72 31.05 26.29 32.04L26.4 32.23C26.52 32.44 26.72 32.59 26.96 32.65C27.2 32.71 27.44 32.68 27.64 32.56L29.37 31.56C29.63 31.41 29.83 31.16 29.91 30.86C29.99 30.56 29.95 30.25 29.8 29.99C29.23 29.01 29.16 28 29.6 27.23C30.04 26.46 30.95 26.02 32.09 26.02C32.73 26.02 33.24 25.51 33.24 24.87V23.11C33.24 22.48 32.73 21.96 32.09 21.96C30.95 21.96 30.04 21.52 29.6 20.75C29.16 19.98 29.23 18.97 29.8 17.99C29.95 17.73 29.99 17.42 29.91 17.12C29.83 16.82 29.64 16.58 29.38 16.42L27.65 15.43C27.22 15.17 26.65 15.32 26.39 15.76L26.28 15.95C25.71 16.94 24.88 17.5 23.99 17.5C23.1 17.5 22.27 16.94 21.7 15.95L21.59 15.75C21.34 15.33 20.78 15.18 20.35 15.43L18.62 16.43C18.36 16.58 18.16 16.83 18.08 17.13C18 17.43 18.04 17.74 18.19 18C18.76 18.98 18.83 19.99 18.39 20.76C17.95 21.53 17.04 21.97 15.9 21.97C15.26 21.97 14.75 22.48 14.75 23.12V24.88C14.75 25.51 15.26 26.03 15.9 26.03C17.04 26.03 17.95 26.47 18.39 27.24C18.83 28.01 18.76 29.02 18.19 30C18.04 30.26 18 30.57 18.08 30.87C18.16 31.17 18.35 31.41 18.61 31.57L20.34 32.56C20.55 32.69 20.8 32.72 21.03 32.66C21.27 32.6 21.47 32.44 21.6 32.23L21.71 32.04C22.28 31.06 23.11 30.49 24 30.49Z" fill="#292D32"/>
</svg>
