<svg width="48" height="48" viewBox="0 0 48 48" fill="none" xmlns="http://www.w3.org/2000/svg">
<rect width="48" height="48" rx="24" fill="#B2DCBC" fill-opacity="0.21"/>
<g clip-path="url(#clip0_2445_1513)">
<path d="M32.6719 22.1719V19.9219C32.6719 19.663 32.462 19.4531 32.2031 19.4531H30.8123M15.3281 32.5312V35.1797C15.3281 35.4386 15.538 35.6484 15.7969 35.6484H32.2031C32.462 35.6484 32.6719 35.4386 32.6719 35.1797V23.8125M17.8735 19.4531H15.7969C15.538 19.4531 15.3281 19.663 15.3281 19.9219V30.8906" stroke="#091C2B" stroke-miterlimit="10" stroke-linecap="round" stroke-linejoin="round"/>
<path d="M25.6391 21.3754C26.062 21.4998 26.5006 21.5628 26.9414 21.5625C29.4849 21.5625 31.5469 19.5006 31.5469 16.957C31.5469 14.4135 29.4849 12.3516 26.9414 12.3516C25.4392 12.3516 24.105 13.071 23.2644 14.1839" stroke="#091C2B" stroke-miterlimit="10" stroke-linecap="round" stroke-linejoin="round"/>
<path d="M26.9414 14.445V16.957H28.7557M26.9413 21.4363V21.105M24.7019 13.0778L24.8675 13.3647M26.9415 12.4778V12.809M29.1811 13.0779L29.0155 13.3648M30.8206 14.7174L30.5338 14.8831M31.4207 16.9571H31.0894M30.8205 19.1967L30.5336 19.0311M29.181 20.8362L29.0153 20.5493M20.2031 22.539H25.1703C25.4292 22.539 25.6391 22.3291 25.6391 22.0703V19.014C25.6391 18.1562 24.9437 17.4608 24.086 17.4608H22.8336M20.679 17.4608H19.4266C18.5688 17.4608 17.8735 18.1562 17.8735 19.014V22.0703C17.8735 22.3291 18.0833 22.539 18.3422 22.539H18.5625" stroke="#091C2B" stroke-miterlimit="10" stroke-linecap="round" stroke-linejoin="round"/>
<path d="M20.729 17.4896L21.3714 19.1802M21.3714 19.1802H22.1386M21.3714 19.1802L20.6906 22.539H22.8031L22.1386 19.1802M22.1386 19.1802L22.7645 17.5005M19.2701 25.0547H17.7797V28.0547H20.7797V27.4263" stroke="#091C2B" stroke-miterlimit="10" stroke-linecap="round" stroke-linejoin="round"/>
<path d="M18.9662 26.2632L19.5137 26.8712L20.7797 25.0547M23.9903 25.0547H22.5V28.0547H25.5V27.4263" stroke="#091C2B" stroke-miterlimit="10" stroke-linecap="round" stroke-linejoin="round"/>
<path d="M23.6866 26.2632L24.2341 26.8712L25.5 25.0547M28.7107 25.0547H27.2203V28.0547H30.2203V27.4263" stroke="#091C2B" stroke-miterlimit="10" stroke-linecap="round" stroke-linejoin="round"/>
<path d="M28.4068 26.2632L28.9543 26.8712L30.2203 25.0547M22.5 30.1875H25.5V33.1875H22.5V30.1875ZM17.7797 30.1875H20.7797V33.1875H17.7797V30.1875ZM27.2203 30.1875H30.2203V33.1875H27.2203V30.1875Z" stroke="#091C2B" stroke-miterlimit="10" stroke-linecap="round" stroke-linejoin="round"/>
<path d="M21.7563 17.7574C22.919 17.7574 23.8615 16.8148 23.8615 15.6521C23.8615 14.4894 22.919 13.5469 21.7563 13.5469C20.5936 13.5469 19.651 14.4894 19.651 15.6521C19.651 16.8148 20.5936 17.7574 21.7563 17.7574Z" stroke="#091C2B" stroke-miterlimit="10" stroke-linecap="round" stroke-linejoin="round"/>
</g>
<defs>
<clipPath id="clip0_2445_1513">
<rect width="24" height="24" fill="white" transform="translate(12 12)"/>
</clipPath>
</defs>
</svg>
