<svg width="44" height="44" viewBox="0 0 44 44" fill="none" xmlns="http://www.w3.org/2000/svg">
<rect x="-0.5" y="0.5" width="43" height="43" rx="11.5" transform="matrix(-1 0 0 1 43 0)" fill="#B2DCBC"/>
<rect x="-0.5" y="0.5" width="43" height="43" rx="11.5" transform="matrix(-1 0 0 1 43 0)" stroke="#E8ECF4"/>
<path d="M15.54 29.52C14.93 29.52 14.36 29.31 13.95 28.92C13.43 28.43 13.18 27.69 13.27 26.89L13.64 23.65C13.71 23.04 14.08 22.23 14.51 21.79L22.72 13.1C24.77 10.93 26.91 10.87 29.08 12.92C31.25 14.97 31.31 17.11 29.26 19.28L21.05 27.97C20.63 28.42 19.85 28.84 19.24 28.94L16.02 29.49C15.85 29.5 15.7 29.52 15.54 29.52ZM25.93 12.91C25.16 12.91 24.49 13.39 23.81 14.11L15.6 22.81C15.4 23.02 15.17 23.52 15.13 23.81L14.76 27.05C14.72 27.38 14.8 27.65 14.98 27.82C15.16 27.99 15.43 28.05 15.76 28L18.98 27.45C19.27 27.4 19.75 27.14 19.95 26.93L28.16 18.24C29.4 16.92 29.85 15.7 28.04 14C27.24 13.23 26.55 12.91 25.93 12.91Z" fill="#292D32"/>
<path d="M27.34 20.95C27.32 20.95 27.29 20.95 27.27 20.95C24.15 20.64 21.64 18.27 21.16 15.17C21.1 14.76 21.38 14.38 21.79 14.31C22.2 14.25 22.58 14.53 22.65 14.94C23.03 17.36 24.99 19.22 27.43 19.46C27.84 19.5 28.14 19.87 28.1 20.28C28.05 20.66 27.72 20.95 27.34 20.95Z" fill="#292D32"/>
<path d="M31 32.75H13C12.59 32.75 12.25 32.41 12.25 32C12.25 31.59 12.59 31.25 13 31.25H31C31.41 31.25 31.75 31.59 31.75 32C31.75 32.41 31.41 32.75 31 32.75Z" fill="#292D32"/>
</svg>
