<svg width="16" height="17" viewBox="0 0 16 17" fill="none" xmlns="http://www.w3.org/2000/svg">
<path d="M11.9514 14.1302C11.8812 14.1386 11.8097 14.1462 11.7366 14.1517C11.8093 14.1466 11.8807 14.1382 11.9514 14.1302ZM14.6516 11.2386C14.6462 11.311 14.6385 11.3819 14.6301 11.4515C14.6381 11.3814 14.6465 11.3106 14.6516 11.2386ZM14.6663 10.8333C14.6663 10.9413 14.6623 11.0464 14.6565 11.1488C14.662 11.0455 14.6663 10.9404 14.6663 10.8333ZM1.33325 6.16634L1.33716 5.96028C1.33853 5.9228 1.3409 5.88571 1.34302 5.84895C1.33741 5.95286 1.33326 6.05864 1.33325 6.16634ZM14.6555 5.82063C14.6626 5.93249 14.6663 6.04769 14.6663 6.16634C14.6663 6.04885 14.6622 5.93361 14.6555 5.82063ZM1.35181 5.72298C1.35673 5.66343 1.36149 5.60476 1.36841 5.5472C1.36182 5.60512 1.35642 5.66369 1.35181 5.72298ZM14.6301 5.5472C14.6371 5.60481 14.6428 5.66339 14.6477 5.72298C14.6431 5.66365 14.6367 5.60516 14.6301 5.5472ZM4.66626 2.83333C4.55857 2.83333 4.45279 2.83748 4.34888 2.84309C4.38564 2.84098 4.42272 2.83861 4.46021 2.83723L4.66626 2.83333ZM4.04712 2.86848C4.11666 2.86013 4.18759 2.85244 4.26001 2.847C4.18799 2.85208 4.11716 2.86052 4.04712 2.86848ZM11.7385 2.847C11.8109 2.85242 11.8819 2.86014 11.9514 2.86848C11.8814 2.86054 11.8105 2.85207 11.7385 2.847ZM11.6663 14.1556C11.5584 14.1621 11.4474 14.1663 11.3333 14.1663C11.4464 14.1663 11.5573 14.1618 11.6663 14.1556ZM11.5403 2.83723C11.5774 2.8386 11.6142 2.841 11.6506 2.84309C11.5467 2.83749 11.4409 2.83333 11.3333 2.83333L11.5403 2.83723Z" fill="#292D32" stroke="#091C2B"/>
<path d="M9.05933 8.29102C8.75842 8.4782 8.38485 8.58008 7.99976 8.58008C7.72812 8.58006 7.46106 8.52937 7.21948 8.43359C7.46972 8.53178 7.73772 8.57812 7.99683 8.57812C8.35821 8.57809 8.73583 8.48731 9.05933 8.29102ZM7.17944 8.41797C7.1648 8.41178 7.15091 8.40399 7.13647 8.39746C7.15097 8.40395 7.16481 8.41185 7.17944 8.41797Z" fill="#292D32" stroke="#091C2B"/>
<mask id="path-3-inside-1_2331_4291" fill="white">
<path d="M5.33325 12H1.33325C1.05992 12 0.833252 11.7733 0.833252 11.5C0.833252 11.2267 1.05992 11 1.33325 11H5.33325C5.60659 11 5.83325 11.2267 5.83325 11.5C5.83325 11.7733 5.60659 12 5.33325 12Z"/>
</mask>
<path d="M5.33325 12H1.33325C1.05992 12 0.833252 11.7733 0.833252 11.5C0.833252 11.2267 1.05992 11 1.33325 11H5.33325C5.60659 11 5.83325 11.2267 5.83325 11.5C5.83325 11.7733 5.60659 12 5.33325 12Z" fill="#292D32"/>
<path d="M5.33325 12V11H1.33325V12V13H5.33325V12ZM1.33325 12V11C1.6122 11 1.83325 11.221 1.83325 11.5H0.833252H-0.166748C-0.166748 12.3256 0.507634 13 1.33325 13V12ZM0.833252 11.5H1.83325C1.83325 11.779 1.6122 12 1.33325 12V11V10C0.507634 10 -0.166748 10.6744 -0.166748 11.5H0.833252ZM1.33325 11V12H5.33325V11V10H1.33325V11ZM5.33325 11V12C5.0543 12 4.83325 11.779 4.83325 11.5H5.83325H6.83325C6.83325 10.6744 6.15887 10 5.33325 10V11ZM5.83325 11.5H4.83325C4.83325 11.221 5.0543 11 5.33325 11V12V13C6.15887 13 6.83325 12.3256 6.83325 11.5H5.83325Z" fill="#091C2B" mask="url(#path-3-inside-1_2331_4291)"/>
<mask id="path-5-inside-2_2331_4291" fill="white">
<path d="M3.33325 9.33333H1.33325C1.05992 9.33333 0.833252 9.10666 0.833252 8.83333C0.833252 8.55999 1.05992 8.33333 1.33325 8.33333H3.33325C3.60659 8.33333 3.83325 8.55999 3.83325 8.83333C3.83325 9.10666 3.60659 9.33333 3.33325 9.33333Z"/>
</mask>
<path d="M3.33325 9.33333H1.33325C1.05992 9.33333 0.833252 9.10666 0.833252 8.83333C0.833252 8.55999 1.05992 8.33333 1.33325 8.33333H3.33325C3.60659 8.33333 3.83325 8.55999 3.83325 8.83333C3.83325 9.10666 3.60659 9.33333 3.33325 9.33333Z" fill="#292D32"/>
<path d="M3.33325 9.33333V8.33333H1.33325V9.33333V10.3333H3.33325V9.33333ZM1.33325 9.33333V8.33333C1.6122 8.33333 1.83325 8.55438 1.83325 8.83333H0.833252H-0.166748C-0.166748 9.65895 0.507634 10.3333 1.33325 10.3333V9.33333ZM0.833252 8.83333H1.83325C1.83325 9.11228 1.6122 9.33333 1.33325 9.33333V8.33333V7.33333C0.507634 7.33333 -0.166748 8.00771 -0.166748 8.83333H0.833252ZM1.33325 8.33333V9.33333H3.33325V8.33333V7.33333H1.33325V8.33333ZM3.33325 8.33333V9.33333C3.0543 9.33333 2.83325 9.11228 2.83325 8.83333H3.83325H4.83325C4.83325 8.00771 4.15887 7.33333 3.33325 7.33333V8.33333ZM3.83325 8.83333H2.83325C2.83325 8.55438 3.0543 8.33333 3.33325 8.33333V9.33333V10.3333C4.15887 10.3333 4.83325 9.65895 4.83325 8.83333H3.83325Z" fill="#091C2B" mask="url(#path-5-inside-2_2331_4291)"/>
</svg>
