<svg width="24" height="24" viewBox="0 0 24 24" fill="none" xmlns="http://www.w3.org/2000/svg">
<path d="M17.985 13.1402C17.8885 13.1402 17.796 13.1786 17.7278 13.2468C17.6596 13.315 17.6212 13.4075 17.6212 13.504V13.8902C16.9125 13.9577 16.3575 14.554 16.3575 15.2815C16.3575 16.009 16.875 16.5752 17.5612 16.6727L18.3075 16.7777C18.4763 16.803 18.6295 16.8909 18.7363 17.0241C18.8432 17.1572 18.896 17.3257 18.8842 17.496C18.8724 17.6664 18.7968 17.826 18.6725 17.943C18.5483 18.0601 18.3845 18.1261 18.2137 18.1277H17.7562C17.385 18.1277 17.0812 17.824 17.0812 17.449V17.299C17.0812 17.0965 16.92 16.9352 16.7175 16.9352C16.515 16.9352 16.3537 17.0965 16.3537 17.299V17.449C16.3537 18.1765 16.9125 18.769 17.6175 18.8402V19.2227C17.618 19.3062 17.6472 19.387 17.7001 19.4515C17.7531 19.516 17.8266 19.5603 17.9084 19.577C17.9902 19.5937 18.0752 19.5818 18.1493 19.5432C18.2233 19.5047 18.2818 19.4418 18.315 19.3652C18.3337 19.3202 18.345 19.2752 18.345 19.2227V18.8402C19.0537 18.7727 19.6087 18.1765 19.6087 17.449C19.6087 16.7215 19.0912 16.1552 18.405 16.0577L17.6587 15.9527C17.4899 15.9275 17.3368 15.8395 17.2299 15.7064C17.123 15.5733 17.0702 15.4047 17.082 15.2344C17.0938 15.0641 17.1694 14.9045 17.2937 14.7874C17.4179 14.6704 17.5818 14.6044 17.7525 14.6027H18.21C18.5812 14.6027 18.885 14.9065 18.885 15.2815V15.4315C18.885 15.634 19.0462 15.7952 19.2487 15.7952C19.4512 15.7952 19.6125 15.634 19.6125 15.4315V15.2815C19.6125 14.554 19.0537 13.9615 18.3487 13.8902V13.504C18.3487 13.354 18.2587 13.2227 18.1275 13.1702C18.0825 13.1506 18.034 13.1404 17.985 13.1402ZM16.1475 8.70773C16.2187 8.77898 16.3125 8.81273 16.4025 8.81273C16.4925 8.81273 16.59 8.77898 16.6612 8.70773L19.8225 5.54273C19.965 5.40023 19.965 5.17148 19.8225 5.02898C19.68 4.88648 19.4512 4.88648 19.3087 5.02898L16.1475 8.19398C16.005 8.33648 16.005 8.56523 16.1475 8.70773ZM18.42 8.10398C18.42 8.59523 18.8212 8.99648 19.3125 8.99648C19.8037 8.99648 20.205 8.59523 20.205 8.10398C20.205 7.61273 19.8037 7.21148 19.3125 7.21148C18.8212 7.21148 18.42 7.61273 18.42 8.10398ZM19.4775 8.10398C19.4775 8.19773 19.4025 8.26898 19.3125 8.26898C19.2225 8.26898 19.1475 8.19398 19.1475 8.10398C19.1475 8.01398 19.2225 7.93898 19.3125 7.93898C19.4025 7.93898 19.4775 8.01398 19.4775 8.10398ZM17.55 5.63273C17.55 5.14148 17.1487 4.74023 16.6575 4.74023C16.1662 4.74023 15.765 5.14148 15.765 5.63273C15.765 6.12398 16.1662 6.52523 16.6575 6.52523C17.1487 6.52523 17.55 6.12398 17.55 5.63273ZM16.4925 5.63273C16.4925 5.53898 16.5675 5.46773 16.6575 5.46773C16.7475 5.46773 16.8225 5.54273 16.8225 5.63273C16.8225 5.72273 16.7475 5.79773 16.6575 5.79773C16.5675 5.79773 16.4925 5.72273 16.4925 5.63273Z" fill="#091C2B"/>
<path d="M18.1387 1.6725C17.96 1.28492 17.6739 0.956694 17.3143 0.726731C16.9548 0.496768 16.5368 0.374703 16.11 0.375001H4.04625C3.4528 0.375992 2.88394 0.612178 2.4643 1.03181C2.04467 1.45144 1.80849 2.0203 1.8075 2.61375V21.3825C1.8075 21.7087 1.8825 22.035 2.02125 22.3237C2.38125 23.1112 3.17625 23.6213 4.05 23.6213H16.11C16.7034 23.6203 17.2723 23.3841 17.6919 22.9644C18.1116 22.5448 18.3478 21.9759 18.3487 21.3825V20.55C20.4937 20.3625 22.185 18.555 22.185 16.3575C22.185 14.16 20.4937 12.3488 18.3487 12.165V11.0625C20.4975 10.8788 22.1925 9.07125 22.1925 6.87C22.1925 6.09 21.9825 5.3325 21.5812 4.67625C21.3146 4.24204 20.9715 3.85963 20.5687 3.5475C19.9287 3.04789 19.1576 2.74441 18.3487 2.67375V2.6175C18.3487 2.29125 18.2737 1.965 18.135 1.67625L18.1387 1.6725ZM16.11 22.8975H4.04625C3.45749 22.8975 2.92124 22.5562 2.6775 22.02C2.58375 21.8213 2.535 21.6038 2.535 21.3862V2.61375C2.535 1.7775 3.21375 1.09875 4.05 1.09875H16.11C16.6987 1.09875 17.235 1.44 17.4787 1.97625C17.5725 2.175 17.6212 2.3925 17.6212 2.61V2.66625C16.815 2.7375 16.0387 3.04125 15.4012 3.53625C14.9925 3.855 14.6512 4.2375 14.385 4.67625C13.9835 5.33468 13.772 6.09132 13.7737 6.8625C13.7737 9.06 15.4687 10.8713 17.6212 11.055V12.1575C15.4762 12.3413 13.785 14.1525 13.785 16.35C13.785 18.5475 15.4762 20.3587 17.6212 20.5425V21.375C17.6212 22.2113 16.9425 22.89 16.1062 22.89L16.11 22.8975ZM21.4575 16.3575C21.4575 18.2775 19.9012 19.8412 17.9887 19.845C16.0762 19.845 14.5162 18.2812 14.5162 16.3575C14.5162 14.4337 16.0725 12.87 17.9887 12.87C19.905 12.87 21.4612 14.4337 21.4612 16.3575H21.4575ZM20.9587 5.055C21.291 5.60203 21.4661 6.22999 21.465 6.87C21.465 8.79 19.905 10.3538 17.9887 10.3538C16.0687 10.3538 14.5087 8.79 14.5087 6.87C14.5087 6.22875 14.685 5.6025 15.015 5.05875C15.2325 4.695 15.5175 4.38 15.855 4.1175C16.47 3.6375 17.2087 3.3825 17.9925 3.3825C18.7762 3.3825 19.5225 3.645 20.1262 4.1175C20.46 4.37625 20.745 4.69125 20.9662 5.055H20.9587Z" fill="#091C2B"/>
<path d="M4.54499 5.7598V8.2498C4.54499 8.4523 4.70624 8.61355 4.90874 8.61355C5.11124 8.61355 5.27249 8.4523 5.27249 8.2498V5.7598H6.08999C6.18647 5.7598 6.27899 5.72148 6.3472 5.65326C6.41542 5.58505 6.45374 5.49253 6.45374 5.39605C6.45374 5.29958 6.41542 5.20706 6.3472 5.13884C6.27899 5.07063 6.18647 5.0323 6.08999 5.0323H3.73124C3.63477 5.0323 3.54225 5.07063 3.47403 5.13884C3.40582 5.20706 3.36749 5.29958 3.36749 5.39605C3.36749 5.49253 3.40582 5.58505 3.47403 5.65326C3.54225 5.72148 3.63477 5.7598 3.73124 5.7598H4.54874H4.54499ZM6.83624 8.65855C7.03499 8.65855 7.19999 8.4973 7.19999 8.29481V7.1398H8.83124V8.29481C8.83124 8.4973 8.99249 8.65855 9.19499 8.65855C9.39749 8.65855 9.55874 8.4973 9.55874 8.29481V6.52855C9.55874 5.6773 8.86499 4.9873 8.01749 4.9873C7.16999 4.9873 6.47624 5.6773 6.47624 6.52855V8.29481C6.47624 8.4973 6.63749 8.65855 6.83999 8.65855H6.83624ZM8.01374 5.71105C8.42249 5.71105 8.75999 6.0148 8.81624 6.4123H7.20749C7.23492 6.2186 7.33106 6.04122 7.47837 5.91249C7.62569 5.78376 7.81436 5.71227 8.00999 5.71105H8.01374ZM10.0275 8.5273C10.095 8.58355 10.1775 8.6098 10.26 8.6098C10.365 8.6098 10.47 8.5648 10.5412 8.47855L11.4412 7.39105L12.3412 8.47855C12.4125 8.5648 12.5175 8.6098 12.6225 8.6098C12.6912 8.60996 12.7586 8.59057 12.8167 8.55389C12.8749 8.51722 12.9214 8.46478 12.9509 8.40268C12.9804 8.34058 12.9916 8.27139 12.9832 8.20315C12.9749 8.13492 12.9473 8.07047 12.9037 8.0173L11.9175 6.82105L12.9037 5.6248C12.9599 5.55022 12.9852 5.45682 12.9743 5.36408C12.9633 5.27133 12.917 5.18638 12.845 5.12693C12.773 5.06748 12.6808 5.0381 12.5876 5.04493C12.4945 5.05175 12.4076 5.09424 12.345 5.16355L11.445 6.25105L10.545 5.16355C10.4824 5.09424 10.3955 5.05175 10.3023 5.04493C10.2092 5.0381 10.117 5.06748 10.045 5.12693C9.97298 5.18638 9.92668 5.27133 9.91573 5.36408C9.90478 5.45682 9.93004 5.55022 9.98624 5.6248L10.9725 6.82105L9.98624 8.0173C9.92517 8.09144 9.896 8.18677 9.90514 8.28239C9.91428 8.378 9.96098 8.46608 10.035 8.5273H10.0275ZM12.9037 10.7248H3.88124C3.78477 10.7248 3.69225 10.7631 3.62403 10.8313C3.55582 10.8996 3.51749 10.9921 3.51749 11.0886C3.51749 11.185 3.55582 11.2775 3.62403 11.3458C3.69225 11.414 3.78477 11.4523 3.88124 11.4523H12.9037C13.0002 11.4523 13.0927 11.414 13.161 11.3458C13.2292 11.2775 13.2675 11.185 13.2675 11.0886C13.2675 10.9921 13.2292 10.8996 13.161 10.8313C13.0927 10.7631 13.0002 10.7248 12.9037 10.7248ZM12.9037 12.1461H3.88124C3.78477 12.1461 3.69225 12.1844 3.62403 12.2526C3.55582 12.3208 3.51749 12.4133 3.51749 12.5098C3.51749 12.6063 3.55582 12.6988 3.62403 12.767C3.69225 12.8352 3.78477 12.8736 3.88124 12.8736H12.9037C13.0002 12.8736 13.0927 12.8352 13.161 12.767C13.2292 12.6988 13.2675 12.6063 13.2675 12.5098C13.2675 12.4133 13.2292 12.3208 13.161 12.2526C13.0927 12.1844 13.0002 12.1461 12.9037 12.1461ZM12.9037 13.5711H3.88124C3.78477 13.5711 3.69225 13.6094 3.62403 13.6776C3.55582 13.7458 3.51749 13.8383 3.51749 13.9348C3.51749 14.0313 3.55582 14.1238 3.62403 14.192C3.69225 14.2602 3.78477 14.2986 3.88124 14.2986H12.9037C13.0002 14.2986 13.0927 14.2602 13.161 14.192C13.2292 14.1238 13.2675 14.0313 13.2675 13.9348C13.2675 13.8383 13.2292 13.7458 13.161 13.6776C13.0927 13.6094 13.0002 13.5711 12.9037 13.5711ZM12.9037 14.9923H3.88124C3.78477 14.9923 3.69225 15.0306 3.62403 15.0988C3.55582 15.1671 3.51749 15.2596 3.51749 15.3561C3.51749 15.4525 3.55582 15.545 3.62403 15.6133C3.69225 15.6815 3.78477 15.7198 3.88124 15.7198H12.9037C13.0002 15.7198 13.0927 15.6815 13.161 15.6133C13.2292 15.545 13.2675 15.4525 13.2675 15.3561C13.2675 15.2596 13.2292 15.1671 13.161 15.0988C13.0927 15.0306 13.0002 14.9923 12.9037 14.9923ZM12.9037 16.4173H3.88124C3.78477 16.4173 3.69225 16.4556 3.62403 16.5238C3.55582 16.5921 3.51749 16.6846 3.51749 16.7811C3.51749 16.8775 3.55582 16.97 3.62403 17.0383C3.69225 17.1065 3.78477 17.1448 3.88124 17.1448H12.9037C13.0002 17.1448 13.0927 17.1065 13.161 17.0383C13.2292 16.97 13.2675 16.8775 13.2675 16.7811C13.2675 16.6846 13.2292 16.5921 13.161 16.5238C13.0927 16.4556 13.0002 16.4173 12.9037 16.4173ZM12.9037 17.8386H3.88124C3.78477 17.8386 3.69225 17.8769 3.62403 17.9451C3.55582 18.0133 3.51749 18.1058 3.51749 18.2023C3.51749 18.2988 3.55582 18.3913 3.62403 18.4595C3.69225 18.5277 3.78477 18.5661 3.88124 18.5661H12.9037C13.0002 18.5661 13.0927 18.5277 13.161 18.4595C13.2292 18.3913 13.2675 18.2988 13.2675 18.2023C13.2675 18.1058 13.2292 18.0133 13.161 17.9451C13.0927 17.8769 13.0002 17.8386 12.9037 17.8386ZM12.9037 19.2636H3.88124C3.78477 19.2636 3.69225 19.3019 3.62403 19.3701C3.55582 19.4383 3.51749 19.5308 3.51749 19.6273C3.51749 19.7238 3.55582 19.8163 3.62403 19.8845C3.69225 19.9527 3.78477 19.9911 3.88124 19.9911H12.9037C13.0002 19.9911 13.0927 19.9527 13.161 19.8845C13.2292 19.8163 13.2675 19.7238 13.2675 19.6273C13.2675 19.5308 13.2292 19.4383 13.161 19.3701C13.0927 19.3019 13.0002 19.2636 12.9037 19.2636ZM12.9037 20.6848H3.88124C3.78477 20.6848 3.69225 20.7231 3.62403 20.7913C3.55582 20.8596 3.51749 20.9521 3.51749 21.0486C3.51749 21.145 3.55582 21.2375 3.62403 21.3058C3.69225 21.374 3.78477 21.4123 3.88124 21.4123H12.9037C13.0002 21.4123 13.0927 21.374 13.161 21.3058C13.2292 21.2375 13.2675 21.145 13.2675 21.0486C13.2675 20.9521 13.2292 20.8596 13.161 20.7913C13.0927 20.7231 13.0002 20.6848 12.9037 20.6848Z" fill="#091C2B"/>
</svg>
