<svg width="33" height="33" viewBox="0 0 33 33" fill="none" xmlns="http://www.w3.org/2000/svg">
<circle cx="16.5" cy="16.5" r="16.5" fill="#091C2B"/>
<path d="M22.7024 8.5923C22.7386 8.60616 22.7771 8.61266 22.8158 8.61142C22.8964 8.60841 22.9726 8.57422 23.0285 8.51608C23.0844 8.45793 23.1155 8.38036 23.1153 8.29971C23.1153 8.22022 23.0838 8.14399 23.0275 8.08778C22.9713 8.03158 22.8951 8 22.8156 8C22.7361 8 22.6599 8.03158 22.6037 8.08778C22.5475 8.14399 22.5159 8.22022 22.5159 8.29971V8.3237C22.5163 8.36242 22.5244 8.40067 22.5397 8.43621C22.555 8.47176 22.5774 8.50387 22.6053 8.53068C22.6333 8.55748 22.6662 8.57843 22.7024 8.5923Z" fill="#B2DCBC"/>
<path d="M20.715 9.49585C20.6356 9.49558 20.5594 9.46452 20.5024 9.40921L20.4643 9.36733C20.4365 9.33956 20.4145 9.30661 20.3995 9.27035C20.3844 9.23409 20.3767 9.19522 20.3767 9.15597C20.3767 9.11671 20.3844 9.07784 20.3995 9.04158C20.4145 9.00531 20.4365 8.97236 20.4643 8.94461C20.492 8.91685 20.525 8.89483 20.5612 8.87981C20.5975 8.86479 20.6364 8.85706 20.6757 8.85706C20.7149 8.85706 20.7538 8.86479 20.79 8.87981C20.8263 8.89483 20.8593 8.91685 20.887 8.94461L20.9251 8.98269C20.9529 9.01042 20.9749 9.04336 20.99 9.07963C21.005 9.1159 21.0128 9.15478 21.0128 9.19404C21.0128 9.23331 21.005 9.27219 20.99 9.30846C20.9749 9.34473 20.9529 9.37767 20.9251 9.4054C20.898 9.43387 20.8655 9.45656 20.8294 9.47211C20.7934 9.48765 20.7543 9.49573 20.715 9.49585Z" fill="#B2DCBC"/>
<path d="M24.7051 9.40943C24.7621 9.46474 24.8383 9.4958 24.9178 9.49607C24.9568 9.49623 24.9954 9.48865 25.0315 9.47378C25.0675 9.45891 25.1002 9.43704 25.1278 9.40943L25.1659 9.37135C25.222 9.31529 25.2535 9.23926 25.2535 9.15999C25.2535 9.08072 25.222 9.00468 25.1659 8.94863C25.1098 8.89258 25.0338 8.86108 24.9546 8.86108C24.8752 8.86108 24.7992 8.89258 24.7432 8.94863L24.7051 8.98671C24.6773 9.01445 24.6552 9.04739 24.6402 9.08366C24.6252 9.11992 24.6174 9.1588 24.6174 9.19807C24.6174 9.23734 24.6252 9.27622 24.6402 9.31249C24.6552 9.34875 24.6773 9.3817 24.7051 9.40943Z" fill="#B2DCBC"/>
<path d="M19.8425 11.5969H19.8185C19.739 11.5969 19.6628 11.5653 19.6066 11.5091C19.5504 11.4529 19.5188 11.3767 19.5188 11.2972C19.5188 11.2177 19.5504 11.1415 19.6066 11.0853C19.6628 11.029 19.739 10.9975 19.8185 10.9975C19.8992 10.9973 19.9768 11.0284 20.035 11.0843C20.0931 11.1402 20.1273 11.2166 20.1302 11.2972C20.1315 11.3359 20.1249 11.3744 20.111 11.4105C20.0972 11.4467 20.0762 11.4797 20.0494 11.5076C20.0226 11.5355 19.9905 11.5578 19.955 11.5731C19.9194 11.5884 19.8812 11.5965 19.8425 11.5969Z" fill="#B2DCBC"/>
<path d="M25.7895 11.5969H25.8134C25.8522 11.5965 25.8904 11.5884 25.9259 11.5731C25.9614 11.5578 25.9936 11.5355 26.0203 11.5076C26.0472 11.4797 26.0681 11.4467 26.082 11.4105C26.0959 11.3744 26.1024 11.3359 26.1012 11.2972C26.0982 11.2166 26.0641 11.1402 26.0059 11.0843C25.9477 11.0284 25.8702 10.9973 25.7895 10.9975C25.71 10.9975 25.6337 11.029 25.5775 11.0853C25.5213 11.1415 25.4897 11.2177 25.4897 11.2972C25.4897 11.3767 25.5213 11.4529 25.5775 11.5091C25.6337 11.5653 25.71 11.5969 25.7895 11.5969Z" fill="#B2DCBC"/>
<path d="M20.6763 13.737C20.5968 13.7367 20.5205 13.7056 20.4634 13.6502C20.4356 13.6224 20.4136 13.5895 20.3986 13.5532C20.3835 13.5169 20.3757 13.4781 20.3757 13.4388C20.3757 13.3995 20.3835 13.3607 20.3986 13.3244C20.4136 13.2881 20.4356 13.2552 20.4634 13.2275L20.5015 13.1894C20.5576 13.1333 20.6336 13.1018 20.7129 13.1018C20.7922 13.1018 20.8682 13.1333 20.9243 13.1894C20.9803 13.2454 21.0118 13.3214 21.0118 13.4008C21.0118 13.48 20.9803 13.556 20.9243 13.6121L20.8861 13.6502C20.8303 13.7055 20.7549 13.7367 20.6763 13.737Z" fill="#B2DCBC"/>
<path d="M24.743 13.6502C24.8001 13.7056 24.8764 13.7367 24.9559 13.737C24.9949 13.7371 25.0335 13.7295 25.0695 13.7146C25.1056 13.6997 25.1383 13.6778 25.1658 13.6502C25.1936 13.6224 25.2156 13.5895 25.2307 13.5532C25.2457 13.5169 25.2535 13.4781 25.2535 13.4388C25.2535 13.3995 25.2457 13.3607 25.2307 13.3244C25.2156 13.2881 25.1936 13.2552 25.1658 13.2275L25.1277 13.1894C25.0716 13.1333 24.9956 13.1018 24.9163 13.1018C24.8371 13.1018 24.761 13.1333 24.705 13.1894C24.6489 13.2454 24.6174 13.3214 24.6174 13.4008C24.6174 13.48 24.6489 13.556 24.705 13.6121L24.743 13.6502Z" fill="#B2DCBC"/>
<path d="M22.703 14.5632C22.7391 14.5771 22.7776 14.5835 22.8163 14.5823C22.897 14.5794 22.9733 14.5452 23.0291 14.4871C23.0851 14.4289 23.1162 14.3513 23.116 14.2707C23.116 14.1911 23.0844 14.1149 23.0282 14.0587C22.972 14.0025 22.8958 13.9709 22.8163 13.9709C22.7368 13.9709 22.6606 14.0025 22.6044 14.0587C22.5482 14.1149 22.5166 14.1911 22.5166 14.2707V14.2946C22.517 14.3333 22.525 14.3716 22.5404 14.4071C22.5557 14.4426 22.578 14.4747 22.606 14.5015C22.6338 14.5284 22.6668 14.5493 22.703 14.5632Z" fill="#B2DCBC"/>
<path d="M22.8169 13.47C22.3871 13.47 21.9669 13.3426 21.6095 13.1038C21.2521 12.865 20.9735 12.5256 20.809 12.1285C20.6445 11.7314 20.6015 11.2944 20.6853 10.8729C20.7691 10.4513 20.9761 10.064 21.28 9.76011C21.584 9.45617 21.9713 9.24919 22.3928 9.16535C22.8144 9.0815 23.2514 9.12455 23.6485 9.28906C24.0456 9.45357 24.3849 9.73214 24.6238 10.0895C24.8626 10.447 24.99 10.8671 24.9899 11.297C24.9895 11.8731 24.7604 12.4256 24.353 12.833C23.9455 13.2405 23.3931 13.4695 22.8169 13.47Z" fill="#B2DCBC"/>
<path fill-rule="evenodd" clip-rule="evenodd" d="M12.1594 9.4594C12.0566 9.20686 11.7686 9.08545 11.516 9.18821C11.2635 9.29098 11.1421 9.57901 11.2448 9.83156L11.4809 10.4118C9.61535 11.3894 8.53874 13.7318 8.23537 17.0815C8.21972 17.2543 8.29585 17.4225 8.43591 17.5248C8.57597 17.627 8.75941 17.6483 8.91915 17.5808L11.1505 16.6381L11.1521 16.6374L13.6053 15.5905L17.2388 23.5485H8V24.4558H26.65V23.5485H18.5037L14.5135 15.2029L16.9218 14.1752L19.3296 13.1725C19.4943 13.1039 19.6091 12.9518 19.6301 12.7746C19.651 12.5975 19.5747 12.4228 19.4305 12.3178C16.7706 10.3801 14.3556 9.55797 12.403 10.0582L12.1594 9.4594ZM9.31312 16.3425C9.54365 14.6846 9.98357 13.4344 10.5782 12.5544C10.4385 13.4147 10.3987 14.5157 10.4503 15.8621L9.31312 16.3425ZM13.2303 14.677L11.4248 15.4476C11.3908 14.1299 11.4564 13.1272 11.6101 12.4053C11.6989 11.9885 11.8095 11.6986 11.9258 11.4992L13.2303 14.677ZM14.1385 14.2895L12.8383 11.1221C13.0622 11.1829 13.3452 11.3135 13.7011 11.5509C14.3084 11.956 15.038 12.6138 15.8979 13.5386L14.1385 14.2895ZM16.8633 13.13C16.0524 12.2369 15.3192 11.5305 14.6621 11.0264C15.6702 11.2437 16.8245 11.7561 18.1172 12.6078L16.8633 13.13Z" fill="#B2DCBC"/>
</svg>
