<svg width="48" height="48" viewBox="0 0 48 48" fill="none" xmlns="http://www.w3.org/2000/svg">
<rect width="48" height="48" rx="24" fill="#B2DCBC" fill-opacity="0.21"/>
<path d="M30.9198 12.8638C30.9664 12.8841 31.016 12.8935 31.0658 12.8917C31.1695 12.8873 31.2676 12.8375 31.3396 12.7527C31.4115 12.6679 31.4515 12.5547 31.4512 12.4371C31.4512 12.3212 31.4106 12.21 31.3383 12.128C31.2659 12.0461 31.1678 12 31.0655 12C30.9633 12 30.8651 12.0461 30.7929 12.128C30.7205 12.21 30.6798 12.3212 30.6798 12.4371V12.4721C30.6803 12.5286 30.6908 12.5844 30.7105 12.6362C30.7302 12.688 30.759 12.7349 30.7949 12.774C30.8309 12.8131 30.8733 12.8436 30.9198 12.8638Z" fill="#091C2B"/>
<path d="M28.3625 14.1817C28.2603 14.1813 28.1622 14.136 28.0888 14.0553L28.0398 13.9942C28.004 13.9537 27.9757 13.9057 27.9564 13.8528C27.937 13.7999 27.9271 13.7432 27.9271 13.686C27.9271 13.6287 27.937 13.572 27.9564 13.5191C27.9757 13.4663 28.004 13.4182 28.0398 13.3777C28.0755 13.3372 28.1179 13.3051 28.1646 13.2832C28.2112 13.2613 28.2613 13.25 28.3118 13.25C28.3623 13.25 28.4123 13.2613 28.459 13.2832C28.5056 13.3051 28.5481 13.3372 28.5838 13.3777L28.6328 13.4333C28.6686 13.4737 28.6969 13.5218 28.7163 13.5746C28.7356 13.6275 28.7456 13.6842 28.7456 13.7415C28.7456 13.7988 28.7356 13.8555 28.7163 13.9084C28.6969 13.9613 28.6686 14.0093 28.6328 14.0498C28.598 14.0913 28.5561 14.1244 28.5097 14.147C28.4633 14.1697 28.413 14.1815 28.3625 14.1817Z" fill="#091C2B"/>
<path d="M33.4971 14.0556C33.5706 14.1363 33.6686 14.1816 33.7709 14.182C33.8211 14.1822 33.8708 14.1711 33.9171 14.1494C33.9635 14.1278 34.0057 14.0959 34.0412 14.0556L34.0902 14.0001C34.1623 13.9183 34.2028 13.8074 34.2028 13.6918C34.2028 13.5762 34.1623 13.4653 34.0902 13.3835C34.018 13.3018 33.9202 13.2559 33.8182 13.2559C33.7161 13.2559 33.6183 13.3018 33.5461 13.3835L33.4971 13.4391C33.4614 13.4795 33.433 13.5276 33.4136 13.5805C33.3943 13.6334 33.3843 13.6901 33.3843 13.7473C33.3843 13.8046 33.3943 13.8613 33.4136 13.9142C33.433 13.9671 33.4614 14.0151 33.4971 14.0556Z" fill="#091C2B"/>
<path d="M27.2396 17.2459H27.2087C27.1064 17.2459 27.0083 17.1999 26.936 17.1179C26.8637 17.0359 26.823 16.9248 26.823 16.8089C26.823 16.6929 26.8637 16.5818 26.936 16.4998C27.0083 16.4178 27.1064 16.3718 27.2087 16.3718C27.3125 16.3714 27.4124 16.4169 27.4872 16.4984C27.5621 16.5799 27.606 16.6913 27.6099 16.8089C27.6114 16.8653 27.603 16.9214 27.5852 16.9742C27.5673 17.0269 27.5403 17.075 27.5058 17.1157C27.4714 17.1564 27.43 17.1889 27.3843 17.2113C27.3386 17.2336 27.2894 17.2454 27.2396 17.2459Z" fill="#091C2B"/>
<path d="M34.8925 17.2459H34.9233C34.9732 17.2454 35.0224 17.2336 35.0681 17.2113C35.1138 17.1889 35.1551 17.1564 35.1896 17.1157C35.2241 17.075 35.2511 17.0269 35.2689 16.9742C35.2868 16.9214 35.2952 16.8653 35.2936 16.8089C35.2898 16.6913 35.2459 16.5799 35.171 16.4984C35.0961 16.4169 34.9963 16.3714 34.8925 16.3718C34.7902 16.3718 34.6921 16.4178 34.6197 16.4998C34.5474 16.5818 34.5068 16.6929 34.5068 16.8089C34.5068 16.9248 34.5474 17.0359 34.6197 17.1179C34.6921 17.1999 34.7902 17.2459 34.8925 17.2459Z" fill="#091C2B"/>
<path d="M28.3128 20.3671C28.2104 20.3667 28.1122 20.3213 28.0388 20.2405C28.003 20.2 27.9747 20.152 27.9553 20.0991C27.936 20.0462 27.9259 19.9895 27.9259 19.9323C27.9259 19.875 27.936 19.8183 27.9553 19.7654C27.9747 19.7125 28.003 19.6644 28.0388 19.624L28.0878 19.5684C28.1599 19.4867 28.2578 19.4407 28.3598 19.4407C28.4619 19.4407 28.5597 19.4867 28.6318 19.5684C28.704 19.6502 28.7445 19.7611 28.7445 19.8767C28.7445 19.9923 28.704 20.1032 28.6318 20.185L28.5828 20.2405C28.5109 20.3211 28.4139 20.3667 28.3128 20.3671Z" fill="#091C2B"/>
<path d="M33.546 20.2405C33.6194 20.3213 33.7176 20.3667 33.8199 20.3671C33.8701 20.3673 33.9198 20.3562 33.9661 20.3344C34.0125 20.3127 34.0546 20.2807 34.09 20.2405C34.1257 20.2 34.1541 20.152 34.1735 20.0991C34.1929 20.0462 34.2028 19.9895 34.2028 19.9323C34.2028 19.875 34.1929 19.8183 34.1735 19.7654C34.1541 19.7125 34.1257 19.6644 34.09 19.624L34.041 19.5684C33.9688 19.4867 33.871 19.4407 33.769 19.4407C33.667 19.4407 33.5691 19.4867 33.497 19.5684C33.4249 19.6502 33.3843 19.7611 33.3843 19.8767C33.3843 19.9923 33.4249 20.1032 33.497 20.185L33.546 20.2405Z" fill="#091C2B"/>
<path d="M30.9209 21.5721C30.9673 21.5923 31.0169 21.6018 31.0667 21.6C31.1705 21.5957 31.2686 21.5458 31.3406 21.461C31.4126 21.3762 31.4526 21.263 31.4524 21.1454C31.4524 21.0294 31.4117 20.9183 31.3394 20.8363C31.2671 20.7543 31.169 20.7083 31.0667 20.7083C30.9644 20.7083 30.8663 20.7543 30.7939 20.8363C30.7217 20.9183 30.681 21.0294 30.681 21.1454V21.1804C30.6815 21.2368 30.6919 21.2926 30.7116 21.3444C30.7313 21.3962 30.7601 21.443 30.796 21.4822C30.8318 21.5213 30.8743 21.5518 30.9209 21.5721Z" fill="#091C2B"/>
<path d="M31.0674 19.9777C30.5143 19.9777 29.9736 19.7919 29.5137 19.4436C29.0537 19.0954 28.6952 18.6004 28.4836 18.0212C28.2719 17.442 28.2165 16.8048 28.3243 16.19C28.4322 15.5751 28.6986 15.0103 29.0897 14.567C29.4808 14.1237 29.9792 13.8219 30.5217 13.6996C31.0642 13.5773 31.6265 13.6401 32.1376 13.88C32.6485 14.1199 33.0853 14.5262 33.3926 15.0475C33.6999 15.5688 33.8639 16.1816 33.8638 16.8084C33.8632 17.6488 33.5684 18.4545 33.0441 19.0487C32.5198 19.6429 31.8089 19.977 31.0674 19.9777Z" fill="#091C2B"/>
<path fill-rule="evenodd" clip-rule="evenodd" d="M17.3526 14.1285C17.2203 13.7602 16.8496 13.5831 16.5247 13.733C16.1997 13.8829 16.0434 14.303 16.1757 14.6713L16.4795 15.5175C14.0787 16.9433 12.6933 20.3595 12.3029 25.245C12.2828 25.4969 12.3807 25.7423 12.561 25.8915C12.7412 26.0406 12.9773 26.0716 13.1828 25.9732L16.0542 24.5984L16.0563 24.5973L19.2133 23.0704L23.8891 34.6768H12V36H36V34.6768H25.5169L20.382 22.5051L23.4811 21.0063L26.5796 19.5439C26.7916 19.4439 26.9394 19.222 26.9663 18.9636C26.9932 18.7052 26.895 18.4505 26.7095 18.2973C23.2866 15.4714 20.1788 14.2723 17.6661 15.0018L17.3526 14.1285ZM13.6898 24.1672C13.9865 21.7492 14.5526 19.9259 15.3178 18.6424C15.138 19.8971 15.0868 21.5029 15.1532 23.4665L13.6898 24.1672ZM18.7307 21.7382L16.4072 22.862C16.3634 20.9402 16.4479 19.4779 16.6457 18.425C16.76 17.8171 16.9023 17.3943 17.0519 17.1035L18.7307 21.7382ZM19.8995 21.1729L18.2262 16.5535C18.5143 16.6421 18.8785 16.8326 19.3366 17.1789C20.118 17.7696 21.057 18.7291 22.1636 20.0779L19.8995 21.1729ZM23.4059 19.4819C22.3623 18.1793 21.4188 17.1491 20.5732 16.4139C21.8705 16.7308 23.3559 17.4781 25.0195 18.7203L23.4059 19.4819Z" fill="#091C2B"/>
</svg>
