<svg width="48" height="48" viewBox="0 0 48 48" fill="none" xmlns="http://www.w3.org/2000/svg">
<rect width="48" height="48" rx="24" fill="#B2DCBC" fill-opacity="0.21"/>
<path d="M18.9296 12.75H17.7566C17.4082 12.75 17.1247 13.0331 17.1247 13.3815V14.3175H16.2784C15.8951 14.3174 15.5274 14.4694 15.256 14.74C14.9847 15.0107 14.8318 15.378 14.8309 15.7613V30.6075C14.8318 30.9908 14.9847 31.3581 15.256 31.6287C15.5274 31.8994 15.8951 32.0514 16.2784 32.0513H18.18C18.2795 32.0513 18.3748 32.0117 18.4452 31.9414C18.5155 31.8711 18.555 31.7757 18.555 31.6763C18.555 31.5768 18.5155 31.4814 18.4452 31.4111C18.3748 31.3408 18.2795 31.3013 18.18 31.3013H16.2784C15.894 31.3013 15.5809 30.99 15.5809 30.6075V19.0301H32.4187V30.6075C32.4187 30.99 32.1056 31.3013 31.7212 31.3013H29.6704C29.5709 31.3013 29.4755 31.3408 29.4052 31.4111C29.3349 31.4814 29.2954 31.5768 29.2954 31.6763C29.2954 31.7757 29.3349 31.8711 29.4052 31.9414C29.4755 32.0117 29.5709 32.0513 29.6704 32.0513H31.7212C32.1045 32.0514 32.4722 31.8994 32.7436 31.6287C33.0149 31.3581 33.1679 30.9908 33.1687 30.6075V15.7613C33.1679 15.378 33.0149 15.0107 32.7436 14.74C32.4722 14.4694 32.1045 14.3174 31.7212 14.3175H30.8749V13.3815C30.8749 13.0331 30.5914 12.75 30.243 12.75H29.07C28.7216 12.75 28.4385 13.0331 28.4385 13.3815V14.3175H19.5611V13.3815C19.5611 13.0331 19.278 12.75 18.9296 12.75ZM18.8111 13.5V14.6872C18.8111 14.6891 18.81 14.6906 18.81 14.6929V15.8813H17.8762V14.6929C17.8762 14.691 17.8751 14.6895 17.8751 14.6872V13.5H18.8111ZM30.1249 13.5V14.6872C30.1249 14.6891 30.1237 14.6906 30.1237 14.6929V15.8813H29.19V14.6929C29.19 14.691 29.1889 14.6895 29.1889 14.6872V13.5H30.1249ZM28.4389 15.0675V15.9994C28.4388 16.0823 28.455 16.1645 28.4867 16.2411C28.5184 16.3178 28.5648 16.3874 28.6235 16.4461C28.6821 16.5048 28.7517 16.5514 28.8283 16.5831C28.9049 16.6149 28.9871 16.6313 29.07 16.6313H30.2441C30.3269 16.6312 30.4088 16.6149 30.4853 16.5831C30.5617 16.5514 30.6311 16.5049 30.6896 16.4464C30.8044 16.332 30.8752 16.1741 30.8752 15.9998V15.0679H31.7216C32.106 15.0679 32.4191 15.3791 32.4191 15.7616V18.2805H15.5812V15.7616C15.5812 15.3791 15.8944 15.0679 16.2787 15.0679H17.1251V15.9998C17.1251 16.1741 17.196 16.332 17.3107 16.4464C17.4247 16.5608 17.5822 16.6313 17.7562 16.6313H18.9304C19.0978 16.631 19.2583 16.5643 19.3766 16.4458C19.4949 16.3273 19.5614 16.1668 19.5615 15.9994V15.0675H28.4389Z" fill="#091C2B"/>
<path d="M17.6359 23.1173H19.0234C19.4843 23.1173 19.8593 22.7423 19.8593 22.2814V20.9816C19.8593 20.5208 19.4843 20.1458 19.0234 20.1458H17.6359C17.175 20.1458 16.8 20.5208 16.8 20.9816V22.2814C16.8 22.7423 17.175 23.1173 17.6359 23.1173ZM17.55 20.9813C17.5501 20.9585 17.5592 20.9367 17.5753 20.9206C17.5913 20.9046 17.6131 20.8955 17.6359 20.8954H19.0234C19.071 20.8954 19.1093 20.934 19.1093 20.9813V22.281C19.1092 22.3037 19.1001 22.3255 19.084 22.3416C19.0679 22.3577 19.0461 22.3668 19.0234 22.3669H17.6359C17.6131 22.3669 17.5913 22.3578 17.5752 22.3417C17.5591 22.3256 17.55 22.3038 17.55 22.281V20.9813ZM21.4163 23.1173H22.8034C23.2643 23.1173 23.6393 22.7423 23.6393 22.2814V20.9816C23.6393 20.5208 23.2643 20.1458 22.8034 20.1458H21.4163C20.9554 20.1458 20.58 20.5208 20.58 20.9816V22.2814C20.5803 22.503 20.6685 22.7155 20.8253 22.8722C20.9821 23.0289 21.1946 23.1171 21.4163 23.1173ZM21.33 20.9813C21.3301 20.9584 21.3392 20.9366 21.3554 20.9205C21.3716 20.9044 21.3934 20.8954 21.4163 20.8954H22.8034C22.851 20.8954 22.8893 20.934 22.8893 20.9813V22.281C22.8892 22.3037 22.8801 22.3255 22.864 22.3416C22.8479 22.3577 22.8261 22.3668 22.8034 22.3669H21.4163C21.3934 22.3669 21.3716 22.3578 21.3554 22.3417C21.3392 22.3257 21.3301 22.3038 21.33 22.281V20.9813ZM26.5838 23.1173C27.0446 23.1173 27.42 22.7423 27.42 22.2814V20.9816C27.4197 20.76 27.3315 20.5475 27.1747 20.3908C27.0179 20.2341 26.8054 20.146 26.5838 20.1458H25.1966C24.7358 20.1458 24.3608 20.5208 24.3608 20.9816V22.2814C24.3608 22.7423 24.7358 23.1173 25.1966 23.1173H26.5838ZM25.1104 22.2814V20.9816C25.1105 20.9589 25.1196 20.9371 25.1356 20.921C25.1517 20.9049 25.1735 20.8959 25.1963 20.8958H26.5834C26.6062 20.8958 26.6281 20.9048 26.6442 20.9209C26.6604 20.937 26.6695 20.9588 26.6696 20.9816V22.2814C26.6695 22.3042 26.6604 22.326 26.6442 22.3421C26.6281 22.3582 26.6062 22.3673 26.5834 22.3673H25.1963C25.1735 22.3673 25.1516 22.3582 25.1355 22.3421C25.1194 22.326 25.1104 22.3042 25.1104 22.2814ZM28.9766 23.1173H30.3641C30.825 23.1173 31.2 22.7423 31.2 22.2814V20.9816C31.2 20.5208 30.825 20.1458 30.3641 20.1458H28.9766C28.5158 20.1458 28.1408 20.5208 28.1408 20.9816V22.2814C28.1408 22.7423 28.5158 23.1173 28.9766 23.1173ZM28.8908 20.9813C28.8909 20.9585 28.8999 20.9367 28.916 20.9206C28.9321 20.9046 28.9539 20.8955 28.9766 20.8954H30.3641C30.4118 20.8954 30.45 20.934 30.45 20.9813V22.281C30.4499 22.3037 30.4408 22.3255 30.4247 22.3416C30.4087 22.3577 30.3869 22.3668 30.3641 22.3669H28.9766C28.9539 22.3669 28.932 22.3578 28.9159 22.3417C28.8998 22.3256 28.8908 22.3038 28.8908 22.281V20.9813ZM16.8 25.839C16.8 26.2999 17.175 26.6753 17.6359 26.6753H19.0234C19.4843 26.6753 19.8593 26.3003 19.8593 25.839V24.5393C19.8593 24.0784 19.4843 23.7034 19.0234 23.7034H17.6359C17.175 23.7034 16.8 24.0784 16.8 24.5393V25.839ZM17.55 24.5393C17.5501 24.5165 17.5592 24.4947 17.5753 24.4786C17.5913 24.4626 17.6131 24.4535 17.6359 24.4534H19.0234C19.071 24.4534 19.1093 24.492 19.1093 24.5393V25.839C19.1093 25.8618 19.1002 25.8837 19.0841 25.8999C19.068 25.916 19.0462 25.9252 19.0234 25.9253H17.6359C17.6131 25.9252 17.5912 25.916 17.5751 25.8999C17.559 25.8837 17.55 25.8618 17.55 25.839V24.5393ZM20.58 25.35C20.58 25.4495 20.6195 25.5448 20.6898 25.6152C20.7602 25.6855 20.8555 25.725 20.955 25.725C21.0545 25.725 21.1498 25.6855 21.2202 25.6152C21.2905 25.5448 21.33 25.4495 21.33 25.35V24.54C21.33 24.4916 21.3683 24.4538 21.4163 24.4538H22.8034C22.8514 24.4538 22.8885 24.4909 22.8896 24.5404C22.896 24.7474 23.0846 24.9169 23.2759 24.9038C23.3251 24.9023 23.3736 24.8911 23.4186 24.8709C23.4635 24.8507 23.504 24.8219 23.5378 24.786C23.5716 24.7501 23.598 24.708 23.6154 24.6619C23.6329 24.6158 23.6411 24.5668 23.6396 24.5175C23.6341 24.2995 23.5436 24.0924 23.3873 23.9404C23.231 23.7884 23.0214 23.7036 22.8034 23.7041H21.4163C20.9554 23.7041 20.58 24.0791 20.58 24.5404V25.3504V25.35ZM24.7238 24.9038C24.9188 24.9173 25.104 24.7474 25.11 24.5404C25.11 24.529 25.1121 24.5178 25.1165 24.5073C25.1208 24.4967 25.1271 24.4872 25.1351 24.4791C25.1431 24.4711 25.1527 24.4647 25.1632 24.4604C25.1736 24.456 25.1849 24.4538 25.1963 24.4538H26.5834C26.6318 24.4538 26.6696 24.4916 26.6696 24.54V25.35C26.6696 25.4495 26.7091 25.5448 26.7795 25.6152C26.8498 25.6855 26.9452 25.725 27.0446 25.725C27.1441 25.725 27.2395 25.6855 27.3098 25.6152C27.3801 25.5448 27.4196 25.4495 27.4196 25.35V24.54C27.4193 24.3183 27.3311 24.1058 27.1744 23.949C27.0176 23.7922 26.8051 23.704 26.5834 23.7038H25.1963C24.9782 23.7032 24.7686 23.788 24.6124 23.94C24.4561 24.092 24.3655 24.2992 24.36 24.5171C24.3585 24.5664 24.3667 24.6154 24.3842 24.6615C24.4017 24.7076 24.4281 24.7498 24.4618 24.7856C24.4956 24.8215 24.5361 24.8504 24.5811 24.8706C24.626 24.8908 24.6745 24.9023 24.7238 24.9038ZM28.1404 25.839C28.1404 26.2999 28.5154 26.6753 28.9763 26.6753H30.3638C30.8246 26.6753 31.1996 26.3003 31.1996 25.839V24.5393C31.1996 24.0784 30.8246 23.7034 30.3638 23.7034H28.9763C28.5154 23.7034 28.1404 24.0784 28.1404 24.5393V25.839ZM28.8904 24.5393C28.8905 24.5165 28.8996 24.4947 28.9156 24.4786C28.9317 24.4626 28.9535 24.4535 28.9763 24.4534H30.3638C30.4114 24.4534 30.4496 24.492 30.4496 24.5393V25.839C30.4496 25.8618 30.4406 25.8837 30.4245 25.8999C30.4084 25.916 30.3866 25.9252 30.3638 25.9253H28.9763C28.9534 25.9252 28.9316 25.916 28.9155 25.8999C28.8994 25.8837 28.8904 25.8618 28.8904 25.839V24.5393ZM17.6363 28.0088H18.8659C18.9653 28.0088 19.0607 27.9692 19.131 27.8989C19.2014 27.8286 19.2409 27.7332 19.2409 27.6338C19.2409 27.5343 19.2014 27.4389 19.131 27.3686C19.0607 27.2983 18.9653 27.2588 18.8659 27.2588H17.6363C17.1754 27.2588 16.8 27.6338 16.8 28.095V29.3963C16.8003 29.6179 16.8885 29.8305 17.0453 29.9872C17.202 30.144 17.4146 30.2322 17.6363 30.2325H18.2546C18.3541 30.2325 18.4495 30.193 18.5198 30.1227C18.5901 30.0523 18.6296 29.957 18.6296 29.8575C18.6296 29.758 18.5901 29.6627 18.5198 29.5923C18.4495 29.522 18.3541 29.4825 18.2546 29.4825H17.6363C17.6134 29.4825 17.5914 29.4734 17.5753 29.4572C17.5591 29.4411 17.55 29.4191 17.55 29.3963V28.095C17.55 28.0489 17.5901 28.0088 17.6363 28.0088ZM30.3638 28.0088C30.4099 28.0088 30.45 28.0489 30.45 28.095V29.3963C30.45 29.4191 30.4409 29.4411 30.4247 29.4572C30.4086 29.4734 30.3866 29.4825 30.3638 29.4825H29.7454C29.6459 29.4825 29.5505 29.522 29.4802 29.5923C29.4099 29.6627 29.3704 29.758 29.3704 29.8575C29.3704 29.957 29.4099 30.0523 29.4802 30.1227C29.5505 30.193 29.6459 30.2325 29.7454 30.2325H30.3638C30.8246 30.2325 31.2 29.8575 31.2 29.3963V28.095C31.1997 27.8733 31.1115 27.6608 30.9547 27.504C30.798 27.3472 30.5855 27.259 30.3638 27.2588H29.1375C29.038 27.2588 28.9427 27.2983 28.8723 27.3686C28.802 27.4389 28.7625 27.5343 28.7625 27.6338C28.7625 27.7332 28.802 27.8286 28.8723 27.8989C28.9427 27.9692 29.038 28.0088 29.1375 28.0088H30.3638ZM24 35.25C26.7626 35.25 29.0104 33.0023 29.0104 30.2396C29.0104 27.477 26.7626 25.2293 24 25.2293C21.2374 25.2293 18.9896 27.477 18.9896 30.2396C18.9896 33.0023 21.2374 35.25 24 35.25ZM24 25.9793C26.3494 25.9793 28.2604 27.8906 28.2604 30.2396C28.2604 32.5886 26.349 34.5 24 34.5C21.651 34.5 19.7396 32.5886 19.7396 30.2396C19.7396 27.8906 21.651 25.9793 24 25.9793Z" fill="#091C2B"/>
<path d="M23.4645 31.536C23.4992 31.5709 23.5406 31.5987 23.5861 31.6176C23.6316 31.6365 23.6804 31.6463 23.7296 31.6463C23.7789 31.6463 23.8277 31.6365 23.8732 31.6176C23.9187 31.5987 23.96 31.5709 23.9948 31.536L26.0573 29.4735C26.0921 29.4387 26.1197 29.3974 26.1385 29.3519C26.1574 29.3064 26.1671 29.2576 26.1671 29.2084C26.1671 29.1591 26.1574 29.1104 26.1385 29.0649C26.1197 29.0194 26.0921 28.9781 26.0573 28.9433C26.0224 28.9084 25.9811 28.8808 25.9356 28.862C25.8901 28.8431 25.8414 28.8334 25.7921 28.8334C25.7429 28.8334 25.6941 28.8431 25.6486 28.862C25.6032 28.8808 25.5618 28.9084 25.527 28.9433L23.7296 30.7406L22.4768 29.4878C22.4419 29.4529 22.4006 29.4253 22.3551 29.4065C22.3096 29.3876 22.2609 29.3779 22.2116 29.3779C22.1624 29.3779 22.1136 29.3876 22.0681 29.4065C22.0227 29.4253 21.9813 29.4529 21.9465 29.4878C21.9117 29.5226 21.8841 29.5639 21.8652 29.6094C21.8464 29.6549 21.8367 29.7036 21.8367 29.7529C21.8367 29.8021 21.8464 29.8509 21.8652 29.8964C21.8841 29.9419 21.9117 29.9832 21.9465 30.018L23.4645 31.536Z" fill="#091C2B"/>
</svg>
